<svg width="30" height="14" viewBox="0 0 30 14" fill="none" xmlns="http://www.w3.org/2000/svg"><path d="M5.8125 7.05664H2.11523v3.02346h4.29493V11H.990234V2.46875H6.35156v.92578H2.11523v2.74219H5.8125v.91992zm2.84766-2.39648l.02929.70312c.46485-.54687 1.0918-.82031 1.88085-.82031.8867 0 1.4902.33984 1.8106 1.01953.2109-.30469.4843-.55078.8203-.73828.3398-.1875.7402-.28125 1.2011-.28125 1.3907 0 2.0977.73633 2.1211 2.20898V11h-1.0839V6.81641c0-.45313-.1036-.79102-.3106-1.01368-.207-.22656-.5547-.33984-1.043-.33984-.4023 0-.7363.12109-1.0019.36328-.2656.23828-.4199.56055-.4629.9668V11h-1.0899V6.8457c0-.92187-.4511-1.38281-1.3535-1.38281-.7109 0-1.19723.30273-1.45895.9082V11H7.63477V4.66016h1.02539zM22.0781 11c-.0625-.125-.1133-.3477-.1523-.668-.5039.5235-1.1055.7852-1.8047.7852-.625 0-1.1387-.1758-1.541-.5274-.3985-.3554-.5977-.80464-.5977-1.34761 0-.66016.25-1.17188.75-1.53516.5039-.36719 1.211-.55078 2.1211-.55078h1.0547V6.6582c0-.3789-.1133-.67968-.3398-.90234-.2266-.22656-.5606-.33984-1.002-.33984-.3867 0-.7109.09765-.9726.29296-.2618.19532-.3926.43164-.3926.70899h-1.0899c0-.31641.1114-.62109.334-.91406.2266-.29688.5313-.53125.9141-.70313.3867-.17187.8105-.25781 1.2715-.25781.7304 0 1.3027.18359 1.7168.55078.414.36328.6289.86523.6445 1.50586v2.91797c0 .58202.0742 1.04492.2226 1.38862V11h-1.1367zm-1.7988-.8262c.3398 0 .6621-.0879.9668-.26364.3047-.17578.5254-.4043.6621-.68555V7.92383h-.8496c-1.3281 0-1.9922.38867-1.9922 1.16601 0 .33985.1133.60547.3398.79688.2266.19138.5176.28708.8731.28708zM25.8691 11h-1.0839V4.66016h1.0839V11zm-1.1718-8.02148c0-.17579.0527-.32422.1582-.44532.1093-.12109.2695-.18164.4804-.18164.211 0 .3711.06055.4805.18164.1094.1211.1641.26953.1641.44532 0 .17578-.0547.32226-.1641.43945-.1094.11719-.2695.17578-.4805.17578-.2109 0-.3711-.05859-.4804-.17578-.1055-.11719-.1582-.26367-.1582-.43945zM28.7871 11h-1.084V2h1.084v9z" fill="#1A7592"/></svg>