<svg width="320" height="24" viewBox="0 0 320 24" fill="none" xmlns="http://www.w3.org/2000/svg"><path d="M3.024 8.352v3.264h3.84v1.488h-3.84v3.408h4.32V18H1.2V6.864h6.144v1.488h-4.32zm11.0146.688c.6934 0 1.312.144 1.856.432.5547.288.9867.7147 1.296 1.28.3094.5653.464 1.248.464 2.048V18h-1.808v-4.928c0-.7893-.1973-1.392-.592-1.808-.3946-.4267-.9333-.64-1.616-.64-.6826 0-1.2266.2133-1.632.64-.3946.416-.592 1.0187-.592 1.808V18H9.59063V9.184h1.82397v1.008c.2987-.36267.6774-.64533 1.136-.848.4694-.20267.9654-.304 1.488-.304zm8.0707 1.632v4.88c0 .3307.0746.5707.224.72.16.1387.4266.208.8.208h1.12V18h-1.44c-.8214 0-1.4507-.192-1.888-.576-.4374-.384-.656-1.008-.656-1.872v-4.88h-1.04V9.184h1.04V6.992h1.84v2.192h2.144v1.488h-2.144zm11.9051 2.704c0 .3307-.0214.6293-.064.896h-6.736c.0533.704.3146 1.2693.784 1.696.4693.4267 1.0453.64 1.728.64.9813 0 1.6746-.4107 2.08-1.232h1.968c-.2667.8107-.752 1.4773-1.456 2-.6934.512-1.5574.768-2.592.768-.8427 0-1.6-.1867-2.272-.56-.6614-.384-1.184-.9173-1.568-1.6-.3734-.6933-.56-1.4933-.56-2.4 0-.9067.1813-1.7013.544-2.384.3733-.6933.8906-1.22667 1.552-1.6.672-.37333 1.44-.56 2.304-.56.832 0 1.5733.18133 2.224.544.6506.36267 1.1573.8747 1.52 1.536.3626.6507.544 1.4027.544 2.256zm-1.904-.576c-.0107-.672-.2507-1.2107-.72-1.616-.4694-.4053-1.0507-.608-1.744-.608-.6294 0-1.168.2027-1.616.608-.448.3947-.7147.9333-.8 1.616h4.88zm5.523-2.336c.2666-.448.6186-.79467 1.056-1.04.448-.256.976-.384 1.584-.384v1.888h-.464c-.7147 0-1.2587.1813-1.632.544-.3627.3627-.544.992-.544 1.888V18h-1.824V9.184h1.824v1.28zm16.4089-1.28l-5.408 12.96h-1.888l1.792-4.288-3.472-8.672h2.032l2.48 6.72 2.576-6.72h1.888zm5.2005 8.96c-.832 0-1.584-.1867-2.256-.56-.672-.384-1.2-.9173-1.584-1.6-.384-.6933-.576-1.4933-.576-2.4 0-.896.1973-1.6907.592-2.384.3946-.6933.9333-1.22667 1.616-1.6.6826-.37333 1.4453-.56 2.288-.56.8426 0 1.6053.18667 2.288.56.6826.37333 1.2213.9067 1.616 1.6.3946.6933.592 1.488.592 2.384 0 .896-.2027 1.6907-.608 2.384-.4054.6933-.96 1.232-1.664 1.616-.6934.3733-1.4614.56-2.304.56zm0-1.584c.4693 0 .9066-.112 1.312-.336.416-.224.752-.56 1.008-1.008.256-.448.384-.992.384-1.632 0-.64-.1227-1.1787-.368-1.616-.2454-.448-.5707-.784-.976-1.008-.4054-.224-.8427-.336-1.312-.336-.4694 0-.9067.112-1.312.336-.3947.224-.7094.56-.944 1.008-.2347.4373-.352.976-.352 1.616 0 .9493.24 1.6853.72 2.208.4906.512 1.104.768 1.84.768zm14.3631-7.376V18h-1.824v-1.04c-.288.3627-.6667.6507-1.136.864-.4587.2027-.9494.304-1.472.304-.6934 0-1.3174-.144-1.872-.432-.544-.288-.976-.7147-1.296-1.28-.3094-.5653-.464-1.248-.464-2.048V9.184h1.808v4.912c0 .7893.1973 1.3973.592 1.824.3946.416.9333.624 1.616.624.6826 0 1.2213-.208 1.616-.624.4053-.4267.608-1.0347.608-1.824V9.184h1.824zm4.2306 1.28c.2667-.448.6187-.79467 1.056-1.04.448-.256.976-.384 1.584-.384v1.888h-.464c-.7147 0-1.2587.1813-1.632.544-.3627.3627-.544.992-.544 1.888V18h-1.824V9.184h1.824v1.28zm16.5529 2.912c0 .3307-.0214.6293-.064.896h-6.736c.0533.704.3146 1.2693.784 1.696.4693.4267 1.0453.64 1.728.64.9813 0 1.6746-.4107 2.08-1.232h1.968c-.2667.8107-.752 1.4773-1.456 2-.6934.512-1.5574.768-2.592.768-.8427 0-1.6-.1867-2.272-.56-.6614-.384-1.184-.9173-1.568-1.6-.3734-.6933-.56-1.4933-.56-2.4 0-.9067.1813-1.7013.544-2.384.3733-.6933.8906-1.22667 1.552-1.6.672-.37333 1.44-.56 2.304-.56.832 0 1.5733.18133 2.224.544.6506.36267 1.1573.8747 1.52 1.536.3626.6507.544 1.4027.544 2.256zm-1.904-.576c-.0107-.672-.2507-1.2107-.72-1.616-.4694-.4053-1.0507-.608-1.744-.608-.6294 0-1.168.2027-1.616.608-.448.3947-.7147.9333-.8 1.616h4.88zm14.3706-3.76c.694 0 1.312.144 1.856.432.555.288.987.7147 1.296 1.28.32.5653.48 1.248.48 2.048V18h-1.808v-4.928c0-.7893-.197-1.392-.592-1.808-.394-.4267-.933-.64-1.616-.64-.682 0-1.226.2133-1.632.64-.394.416-.592 1.0187-.592 1.808V18h-1.808v-4.928c0-.7893-.197-1.392-.592-1.808-.394-.4267-.933-.64-1.616-.64-.6823 0-1.2263.2133-1.6316.64-.3947.416-.592 1.0187-.592 1.808V18h-1.824V9.184h1.824v1.008c.2986-.36267.6773-.64533 1.136-.848.4586-.20267.9496-.304 1.4716-.304.704 0 1.334.14933 1.888.448.555.29867.982.7307 1.28 1.296.267-.5333.683-.95467 1.248-1.264.566-.32 1.174-.48 1.824-.48zm5.345 4.512c0-.8853.182-1.6693.544-2.352.374-.6827.875-1.21067 1.504-1.584.64-.384 1.344-.576 2.112-.576.694 0 1.296.13867 1.808.416.523.26667.939.6027 1.248 1.008v-1.28h1.84V18h-1.84v-1.312c-.309.416-.73.7627-1.264 1.04-.533.2773-1.141.416-1.824.416-.757 0-1.45-.192-2.08-.576-.629-.3947-1.13-.9387-1.504-1.632-.362-.704-.544-1.4987-.544-2.384zm7.216.032c0-.608-.128-1.136-.384-1.584-.245-.448-.57-.7893-.976-1.024-.405-.2347-.842-.352-1.312-.352-.469 0-.906.1173-1.312.352-.405.224-.736.56-.992 1.008-.245.4373-.368.96-.368 1.568 0 .608.123 1.1413.368 1.6.256.4587.587.8107.992 1.056.416.2347.854.352 1.312.352.47 0 .907-.1173 1.312-.352.406-.2347.731-.576.976-1.024.256-.4587.384-.992.384-1.6zm5.164-5.568c-.331 0-.608-.112-.832-.336-.224-.224-.336-.50133-.336-.832 0-.33067.112-.608.336-.832.224-.224.501-.336.832-.336.32 0 .592.112.816.336.224.224.336.50133.336.832 0 .33067-.112.608-.336.832-.224.224-.496.336-.816.336zm.896 1.168V18h-1.824V9.184h1.824zm4.219-3.024V18h-1.824V6.16h1.824zm8.679 4.512v4.88c0 .3307.075.5707.224.72.16.1387.427.208.8.208h1.12V18h-1.44c-.821 0-1.451-.192-1.888-.576-.437-.384-.656-1.008-.656-1.872v-4.88h-1.04V9.184h1.04V6.992h1.84v2.192h2.144v1.488h-2.144zm7.649 7.472c-.832 0-1.584-.1867-2.256-.56-.672-.384-1.2-.9173-1.584-1.6-.384-.6933-.576-1.4933-.576-2.4 0-.896.197-1.6907.592-2.384.395-.6933.933-1.22667 1.616-1.6.683-.37333 1.445-.56 2.288-.56.843 0 1.605.18667 2.288.56.683.37333 1.221.9067 1.616 1.6.395.6933.592 1.488.592 2.384 0 .896-.203 1.6907-.608 2.384-.405.6933-.96 1.232-1.664 1.616-.693.3733-1.461.56-2.304.56zm0-1.584c.469 0 .907-.112 1.312-.336.416-.224.752-.56 1.008-1.008.256-.448.384-.992.384-1.632 0-.64-.123-1.1787-.368-1.616-.245-.448-.571-.784-.976-1.008-.405-.224-.843-.336-1.312-.336-.469 0-.907.112-1.312.336-.395.224-.709.56-.944 1.008-.235.4373-.352.976-.352 1.616 0 .9493.24 1.6853.72 2.208.491.512 1.104.768 1.84.768zm12.359-6.096c.267-.448.619-.79467 1.056-1.04.448-.256.976-.384 1.584-.384v1.888h-.464c-.714 0-1.258.1813-1.632.544-.362.3627-.544.992-.544 1.888V18h-1.824V9.184h1.824v1.28zm12.397 2.912c0 .3307-.021.6293-.064.896h-6.736c.053.704.315 1.2693.784 1.696.469.4267 1.045.64 1.728.64.981 0 1.675-.4107 2.08-1.232h1.968c-.267.8107-.752 1.4773-1.456 2-.693.512-1.557.768-2.592.768-.843 0-1.6-.1867-2.272-.56-.661-.384-1.184-.9173-1.568-1.6-.373-.6933-.56-1.4933-.56-2.4 0-.9067.181-1.7013.544-2.384.373-.6933.891-1.22667 1.552-1.6.672-.37333 1.44-.56 2.304-.56.832 0 1.573.18133 2.224.544.651.36267 1.157.8747 1.52 1.536.363.6507.544 1.4027.544 2.256zm-1.904-.576c-.011-.672-.251-1.2107-.72-1.616s-1.051-.608-1.744-.608c-.629 0-1.168.2027-1.616.608-.448.3947-.715.9333-.8 1.616h4.88zm6.899 5.344c-.693 0-1.317-.1227-1.872-.368-.544-.256-.976-.5973-1.296-1.024-.32-.4373-.491-.9227-.512-1.456h1.888c.032.3733.208.688.528.944.331.2453.741.368 1.232.368.512 0 .907-.096 1.184-.288.288-.2027.432-.4587.432-.768 0-.3307-.16-.576-.48-.736-.309-.16-.805-.336-1.488-.528-.661-.1813-1.2-.3573-1.616-.528-.416-.1707-.779-.432-1.088-.784-.299-.352-.448-.816-.448-1.392 0-.4693.139-.896.416-1.28.277-.39467.672-.704 1.184-.928.523-.224 1.12-.336 1.792-.336 1.003 0 1.808.256 2.416.768.619.5013.949 1.1893.992 2.064h-1.824c-.032-.3947-.192-.7093-.48-.944-.288-.2347-.677-.352-1.168-.352-.48 0-.848.0907-1.104.272-.256.1813-.384.4213-.384.72 0 .2347.085.432.256.592.171.16.379.288.624.384.245.0853.608.1973 1.088.336.64.1707 1.163.3467 1.568.528.416.1707.773.4267 1.072.768.299.3413.453.7947.464 1.36 0 .5013-.139.9493-.416 1.344-.277.3947-.672.704-1.184.928-.501.224-1.093.336-1.776.336zm13.427-4.768c0 .3307-.021.6293-.064.896h-6.736c.053.704.315 1.2693.784 1.696.469.4267 1.045.64 1.728.64.981 0 1.675-.4107 2.08-1.232h1.968c-.267.8107-.752 1.4773-1.456 2-.693.512-1.557.768-2.592.768-.843 0-1.6-.1867-2.272-.56-.661-.384-1.184-.9173-1.568-1.6-.373-.6933-.56-1.4933-.56-2.4 0-.9067.181-1.7013.544-2.384.373-.6933.891-1.22667 1.552-1.6.672-.37333 1.44-.56 2.304-.56.832 0 1.573.18133 2.224.544.651.36267 1.157.8747 1.52 1.536.363.6507.544 1.4027.544 2.256zm-1.904-.576c-.011-.672-.251-1.2107-.72-1.616s-1.051-.608-1.744-.608c-.629 0-1.168.2027-1.616.608-.448.3947-.715.9333-.8 1.616h4.88zm5.827-2.128v4.88c0 .3307.075.5707.224.72.16.1387.427.208.8.208h1.12V18h-1.44c-.821 0-1.451-.192-1.888-.576-.437-.384-.656-1.008-.656-1.872v-4.88h-1.04V9.184h1.04V6.992h1.84v2.192h2.144v1.488h-2.144zm15.917-1.488l-5.408 12.96h-1.888l1.792-4.288-3.472-8.672h2.032l2.48 6.72 2.576-6.72h1.888zm5.201 8.96c-.832 0-1.584-.1867-2.256-.56-.672-.384-1.2-.9173-1.584-1.6-.384-.6933-.576-1.4933-.576-2.4 0-.896.197-1.6907.592-2.384.394-.6933.933-1.22667 1.616-1.6.682-.37333 1.445-.56 2.288-.56.842 0 1.605.18667 2.288.56.682.37333 1.221.9067 1.616 1.6.394.6933.592 1.488.592 2.384 0 .896-.203 1.6907-.608 2.384-.406.6933-.96 1.232-1.664 1.616-.694.3733-1.462.56-2.304.56zm0-1.584c.469 0 .906-.112 1.312-.336.416-.224.752-.56 1.008-1.008.256-.448.384-.992.384-1.632 0-.64-.123-1.1787-.368-1.616-.246-.448-.571-.784-.976-1.008-.406-.224-.843-.336-1.312-.336-.47 0-.907.112-1.312.336-.395.224-.71.56-.944 1.008-.235.4373-.352.976-.352 1.616 0 .9493.24 1.6853.72 2.208.49.512 1.104.768 1.84.768zm14.363-7.376V18h-1.824v-1.04c-.288.3627-.667.6507-1.136.864-.459.2027-.949.304-1.472.304-.693 0-1.317-.144-1.872-.432-.544-.288-.976-.7147-1.296-1.28-.309-.5653-.464-1.248-.464-2.048V9.184h1.808v4.912c0 .7893.197 1.3973.592 1.824.395.416.933.624 1.616.624s1.221-.208 1.616-.624c.405-.4267.608-1.0347.608-1.824V9.184h1.824zm4.231 1.28c.266-.448.618-.79467 1.056-1.04.448-.256.976-.384 1.584-.384v1.888h-.464c-.715 0-1.259.1813-1.632.544-.363.3627-.544.992-.544 1.888V18h-1.824V9.184h1.824v1.28zm10.296.016c.31-.4053.731-.74667 1.264-1.024.534-.27733 1.136-.416 1.808-.416.768 0 1.467.192 2.096.576.64.37333 1.142.9013 1.504 1.584.363.6827.544 1.4667.544 2.352s-.181 1.68-.544 2.384c-.362.6933-.864 1.2373-1.504 1.632-.629.384-1.328.576-2.096.576-.672 0-1.269-.1333-1.792-.4-.522-.2773-.949-.6187-1.28-1.024v5.472h-1.824V9.184h1.824v1.296zm5.36 3.072c0-.608-.128-1.1307-.384-1.568-.245-.448-.576-.784-.992-1.008-.405-.2347-.842-.352-1.312-.352-.458 0-.896.1173-1.312.352-.405.2347-.736.576-.992 1.024-.245.448-.368.976-.368 1.584 0 .608.123 1.1413.368 1.6.256.448.587.7893.992 1.024.416.2347.854.352 1.312.352.47 0 .907-.1173 1.312-.352.416-.2453.747-.5973.992-1.056.256-.4587.384-.992.384-1.6zm3.052 0c0-.8853.181-1.6693.544-2.352.373-.6827.875-1.21067 1.504-1.584.64-.384 1.344-.576 2.112-.576.693 0 1.296.13867 1.808.416.523.26667.939.6027 1.248 1.008v-1.28h1.84V18h-1.84v-1.312c-.309.416-.731.7627-1.264 1.04s-1.141.416-1.824.416c-.757 0-1.451-.192-2.08-.576-.629-.3947-1.131-.9387-1.504-1.632-.363-.704-.544-1.4987-.544-2.384zm7.216.032c0-.608-.128-1.136-.384-1.584-.245-.448-.571-.7893-.976-1.024-.405-.2347-.843-.352-1.312-.352-.469 0-.907.1173-1.312.352-.405.224-.736.56-.992 1.008-.245.4373-.368.96-.368 1.568 0 .608.123 1.1413.368 1.6.256.4587.587.8107.992 1.056.416.2347.853.352 1.312.352.469 0 .907-.1173 1.312-.352.405-.2347.731-.576.976-1.024.256-.4587.384-.992.384-1.6zm7.436 4.56c-.693 0-1.317-.1227-1.872-.368-.544-.256-.976-.5973-1.296-1.024-.32-.4373-.491-.9227-.512-1.456h1.888c.032.3733.208.688.528.944.331.2453.741.368 1.232.368.512 0 .907-.096 1.184-.288.288-.2027.432-.4587.432-.768 0-.3307-.16-.576-.48-.736-.309-.16-.805-.336-1.488-.528-.661-.1813-1.2-.3573-1.616-.528-.416-.1707-.779-.432-1.088-.784-.299-.352-.448-.816-.448-1.392 0-.4693.139-.896.416-1.28.277-.39467.672-.704 1.184-.928.523-.224 1.12-.336 1.792-.336 1.003 0 1.808.256 2.416.768.619.5013.949 1.1893.992 2.064h-1.824c-.032-.3947-.192-.7093-.48-.944-.288-.2347-.677-.352-1.168-.352-.48 0-.848.0907-1.104.272-.256.1813-.384.4213-.384.72 0 .2347.085.432.256.592.171.16.379.288.624.384.245.0853.608.1973 1.088.336.64.1707 1.163.3467 1.568.528.416.1707.773.4267 1.072.768.299.3413.453.7947.464 1.36 0 .5013-.139.9493-.416 1.344-.277.3947-.672.704-1.184.928-.501.224-1.093.336-1.776.336zm8.547 0c-.694 0-1.318-.1227-1.872-.368-.544-.256-.976-.5973-1.296-1.024-.32-.4373-.491-.9227-.512-1.456h1.888c.032.3733.208.688.528.944.33.2453.741.368 1.232.368.512 0 .906-.096 1.184-.288.288-.2027.432-.4587.432-.768 0-.3307-.16-.576-.48-.736-.31-.16-.806-.336-1.488-.528-.662-.1813-1.2-.3573-1.616-.528-.416-.1707-.779-.432-1.088-.784-.299-.352-.448-.816-.448-1.392 0-.4693.138-.896.416-1.28.277-.39467.672-.704 1.184-.928.522-.224 1.12-.336 1.792-.336 1.002 0 1.808.256 2.416.768.618.5013.949 1.1893.992 2.064h-1.824c-.032-.3947-.192-.7093-.48-.944-.288-.2347-.678-.352-1.168-.352-.48 0-.848.0907-1.104.272-.256.1813-.384.4213-.384.72 0 .2347.085.432.256.592.17.16.378.288.624.384.245.0853.608.1973 1.088.336.64.1707 1.162.3467 1.568.528.416.1707.773.4267 1.072.768.298.3413.453.7947.464 1.36 0 .5013-.139.9493-.416 1.344-.278.3947-.672.704-1.184.928-.502.224-1.094.336-1.776.336zm17.187-8.96L289.195 18h-1.92l-1.776-6.512L283.723 18h-1.92l-2.752-8.816h1.856l1.84 7.088 1.872-7.088h1.904l1.792 7.056 1.824-7.056h1.792zm5.187 8.96c-.832 0-1.584-.1867-2.256-.56-.672-.384-1.2-.9173-1.584-1.6-.384-.6933-.576-1.4933-.576-2.4 0-.896.197-1.6907.592-2.384.394-.6933.933-1.22667 1.616-1.6.682-.37333 1.445-.56 2.288-.56.842 0 1.605.18667 2.288.56.682.37333 1.221.9067 1.616 1.6.394.6933.592 1.488.592 2.384 0 .896-.203 1.6907-.608 2.384-.406.6933-.96 1.232-1.664 1.616-.694.3733-1.462.56-2.304.56zm0-1.584c.469 0 .906-.112 1.312-.336.416-.224.752-.56 1.008-1.008.256-.448.384-.992.384-1.632 0-.64-.123-1.1787-.368-1.616-.246-.448-.571-.784-.976-1.008-.406-.224-.843-.336-1.312-.336-.47 0-.907.112-1.312.336-.395.224-.71.56-.944 1.008-.235.4373-.352.976-.352 1.616 0 .9493.24 1.6853.72 2.208.49.512 1.104.768 1.84.768zm8.203-6.096c.267-.448.619-.79467 1.056-1.04.448-.256.976-.384 1.584-.384v1.888h-.464c-.715 0-1.259.1813-1.632.544-.363.3627-.544.992-.544 1.888V18h-1.824V9.184h1.824v1.28zm3.709 3.088c0-.8853.181-1.6693.544-2.352.373-.6827.874-1.21067 1.504-1.584.64-.384 1.349-.576 2.128-.576.576 0 1.141.128 1.696.384.565.24533 1.013.576 1.344.992V6.16h1.84V18h-1.84v-1.328c-.299.4267-.715.7787-1.248 1.056-.523.2773-1.126.416-1.808.416-.768 0-1.472-.192-2.112-.576-.63-.3947-1.131-.9387-1.504-1.632-.363-.704-.544-1.4987-.544-2.384zm7.216.032c0-.608-.128-1.136-.384-1.584-.246-.448-.571-.7893-.976-1.024-.406-.2347-.843-.352-1.312-.352-.47 0-.907.1173-1.312.352-.406.224-.736.56-.992 1.008-.246.4373-.368.96-.368 1.568 0 .608.122 1.1413.368 1.6.256.4587.586.8107.992 1.056.416.2347.853.352 1.312.352.469 0 .906-.1173 1.312-.352.405-.2347.73-.576.976-1.024.256-.4587.384-.992.384-1.6z" fill="#585858"/></svg>