<svg width="194" height="35" viewBox="0 0 194 35" fill="none" xmlns="http://www.w3.org/2000/svg"><path d="M11.132 10.015v2.139H4.347v4.715h5.29v2.139h-5.29V26H1.725V10.015h9.407zm7.9269 16.192c-1.196 0-2.277-.2683-3.243-.805-.966-.552-1.725-1.3187-2.277-2.3-.552-.9967-.828-2.1467-.828-3.45 0-1.288.2837-2.4303.851-3.427.5673-.9967 1.3417-1.7633 2.323-2.3.9813-.5367 2.0777-.805 3.289-.805s2.3077.2683 3.289.805c.9813.5367 1.7557 1.3033 2.323 2.3.5673.9967.851 2.139.851 3.427 0 1.288-.2913 2.4303-.874 3.427-.5827.9967-1.38 1.771-2.392 2.323-.9967.5367-2.1007.805-3.312.805zm0-2.277c.6747 0 1.3033-.161 1.886-.483.598-.322 1.081-.805 1.449-1.449.368-.644.552-1.426.552-2.346 0-.92-.1763-1.6943-.529-2.323-.3527-.644-.8203-1.127-1.403-1.449-.5827-.322-1.2113-.483-1.886-.483-.6747 0-1.3033.161-1.886.483-.5673.322-1.0197.805-1.357 1.449-.3373.6287-.506 1.403-.506 2.323 0 1.3647.345 2.4227 1.035 3.174.7053.736 1.587 1.104 2.645 1.104zm11.792-8.763c.3833-.644.8893-1.1423 1.518-1.495.644-.368 1.403-.552 2.277-.552v2.714h-.667c-1.0273 0-1.8093.2607-2.346.782-.5213.5213-.782 1.426-.782 2.714V26h-2.622V13.327h2.622v1.84zm11.3112-2.047c.9813 0 1.8476.1993 2.599.598.7666.3833 1.3646.8663 1.794 1.449v-1.84h2.645v12.88c0 1.1653-.2454 2.2003-.736 3.105-.4907.92-1.2037 1.6407-2.139 2.162-.92.5213-2.024.782-3.312.782-1.7174 0-3.1434-.4063-4.278-1.219-1.1347-.7973-1.7787-1.886-1.932-3.266h2.599c.1993.6593.621 1.1883 1.265 1.587.6593.414 1.4413.621 2.346.621 1.058 0 1.909-.322 2.553-.966.6593-.644.989-1.5793.989-2.806v-2.116c-.4447.598-1.0504 1.104-1.817 1.518-.7514.3987-1.61.598-2.576.598-1.104 0-2.116-.276-3.036-.828-.9047-.5673-1.6254-1.3493-2.162-2.346-.5214-1.012-.782-2.1543-.782-3.427s.2606-2.3997.782-3.381c.5366-.9813 1.2573-1.7403 2.162-2.277.92-.552 1.932-.828 3.036-.828zm4.393 6.532c0-.874-.184-1.633-.552-2.277-.3527-.644-.8204-1.1347-1.403-1.472-.5827-.3373-1.2114-.506-1.886-.506-.6747 0-1.3034.1687-1.886.506-.5827.322-1.058.805-1.426 1.449-.3527.6287-.529 1.38-.529 2.254 0 .874.1763 1.6407.529 2.3.368.6593.8433 1.1653 1.426 1.518.598.3373 1.2266.506 1.886.506.6746 0 1.3033-.1687 1.886-.506.5826-.3373 1.0503-.828 1.403-1.472.368-.6593.552-1.426.552-2.3zm11.5858 6.555c-1.196 0-2.277-.2683-3.243-.805-.966-.552-1.725-1.3187-2.277-2.3-.552-.9967-.828-2.1467-.828-3.45 0-1.288.2837-2.4303.851-3.427.5674-.9967 1.3417-1.7633 2.323-2.3.9814-.5367 2.0777-.805 3.289-.805 1.2114 0 2.3077.2683 3.289.805.9814.5367 1.7557 1.3033 2.323 2.3.5674.9967.851 2.139.851 3.427 0 1.288-.2913 2.4303-.874 3.427-.5826.9967-1.38 1.771-2.392 2.323-.9966.5367-2.1006.805-3.312.805zm0-2.277c.6747 0 1.3034-.161 1.886-.483.598-.322 1.081-.805 1.449-1.449.368-.644.552-1.426.552-2.346 0-.92-.1763-1.6943-.529-2.323-.3526-.644-.8203-1.127-1.403-1.449-.5826-.322-1.2113-.483-1.886-.483-.6746 0-1.3033.161-1.886.483-.5673.322-1.0196.805-1.357 1.449-.3373.6287-.506 1.403-.506 2.323 0 1.3647.345 2.4227 1.035 3.174.7054.736 1.587 1.104 2.645 1.104zm12.229-8.464v7.015c0 .4753.1074.8203.322 1.035.23.1993.6134.299 1.15.299h1.61V26h-2.07c-1.1806 0-2.0853-.276-2.714-.828-.6286-.552-.943-1.449-.943-2.691v-7.015h-1.495v-2.139h1.495v-3.151h2.645v3.151h3.082v2.139h-3.082zm14.0953-.276c.4446-.5827 1.0503-1.0733 1.817-1.472.7666-.3987 1.633-.598 2.599-.598 1.104 0 2.1083.276 3.013.828.92.5367 1.6406 1.2957 2.162 2.277.5213.9813.782 2.1083.782 3.381s-.2607 2.415-.782 3.427c-.5214.9967-1.242 1.7787-2.162 2.346-.9047.552-1.909.828-3.013.828-.966 0-1.8247-.1917-2.576-.575-.7514-.3987-1.3647-.8893-1.84-1.472v7.866h-2.622V13.327h2.622v1.863zm7.705 4.416c0-.874-.184-1.6253-.552-2.254-.3527-.644-.828-1.127-1.426-1.449-.5827-.3373-1.2114-.506-1.886-.506-.6594 0-1.288.1687-1.886.506-.5827.3373-1.058.828-1.426 1.472-.3527.644-.529 1.403-.529 2.277 0 .874.1763 1.6407.529 2.3.368.644.8433 1.1347 1.426 1.472.598.3373 1.2266.506 1.886.506.6746 0 1.3033-.1687 1.886-.506.598-.3527 1.0733-.8587 1.426-1.518.368-.6593.552-1.426.552-2.3zm4.3869 0c0-1.2727.2606-2.3997.782-3.381.5366-.9813 1.2573-1.7403 2.162-2.277.9199-.552 1.9319-.828 3.0359-.828.997 0 1.863.1993 2.599.598.751.3833 1.349.8663 1.794 1.449v-1.84h2.645V26h-2.645v-1.886c-.445.598-1.05 1.0963-1.817 1.495-.767.3987-1.641.598-2.622.598-1.089 0-2.085-.276-2.9899-.828-.9047-.5673-1.6254-1.3493-2.162-2.346-.5214-1.012-.782-2.1543-.782-3.427zm10.3729.046c0-.874-.184-1.633-.552-2.277-.353-.644-.82-1.1347-1.403-1.472-.583-.3373-1.211-.506-1.886-.506-.675 0-1.303.1687-1.886.506-.583.322-1.058.805-1.4259 1.449-.3527.6287-.529 1.38-.529 2.254 0 .874.1763 1.6407.529 2.3.3679.6593.8429 1.1653 1.4259 1.518.598.3373 1.227.506 1.886.506.675 0 1.303-.1687 1.886-.506.583-.3373 1.05-.828 1.403-1.472.368-.6593.552-1.426.552-2.3zm10.689 6.555c-.997 0-1.894-.1763-2.691-.529-.782-.368-1.403-.8587-1.863-1.472-.46-.6287-.705-1.3263-.736-2.093h2.714c.046.5367.299.989.759 1.357.475.3527 1.066.529 1.771.529.736 0 1.303-.138 1.702-.414.414-.2913.621-.6593.621-1.104 0-.4753-.23-.828-.69-1.058-.445-.23-1.158-.483-2.139-.759-.951-.2607-1.725-.5137-2.323-.759-.598-.2453-1.119-.621-1.564-1.127-.429-.506-.644-1.173-.644-2.001 0-.6747.199-1.288.598-1.84.399-.5673.966-1.012 1.702-1.334.751-.322 1.61-.483 2.576-.483 1.441 0 2.599.368 3.473 1.104.889.7207 1.365 1.7097 1.426 2.967h-2.622c-.046-.5673-.276-1.0197-.69-1.357-.414-.3373-.974-.506-1.679-.506-.69 0-1.219.1303-1.587.391-.368.2607-.552.6057-.552 1.035 0 .3373.123.621.368.851.245.23.544.414.897.552.353.1227.874.2837 1.564.483.92.2453 1.671.4983 2.254.759.598.2453 1.112.6133 1.541 1.104.429.4907.652 1.1423.667 1.955 0 .7207-.199 1.3647-.598 1.932-.399.5673-.966 1.012-1.702 1.334-.721.322-1.572.483-2.553.483zm12.286 0c-.997 0-1.894-.1763-2.691-.529-.782-.368-1.403-.8587-1.863-1.472-.46-.6287-.705-1.3263-.736-2.093h2.714c.046.5367.299.989.759 1.357.475.3527 1.066.529 1.771.529.736 0 1.303-.138 1.702-.414.414-.2913.621-.6593.621-1.104 0-.4753-.23-.828-.69-1.058-.445-.23-1.158-.483-2.139-.759-.951-.2607-1.725-.5137-2.323-.759-.598-.2453-1.119-.621-1.564-1.127-.429-.506-.644-1.173-.644-2.001 0-.6747.199-1.288.598-1.84.399-.5673.966-1.012 1.702-1.334.751-.322 1.61-.483 2.576-.483 1.441 0 2.599.368 3.473 1.104.889.7207 1.365 1.7097 1.426 2.967h-2.622c-.046-.5673-.276-1.0197-.69-1.357-.414-.3373-.974-.506-1.679-.506-.69 0-1.219.1303-1.587.391-.368.2607-.552.6057-.552 1.035 0 .3373.123.621.368.851.245.23.544.414.897.552.353.1227.874.2837 1.564.483.92.2453 1.671.4983 2.254.759.598.2453 1.112.6133 1.541 1.104.429.4907.652 1.1423.667 1.955 0 .7207-.199 1.3647-.598 1.932-.399.5673-.966 1.012-1.702 1.334-.721.322-1.572.483-2.553.483zm24.706-12.88L150.678 26h-2.76l-2.553-9.361L142.812 26h-2.76l-3.956-12.673h2.668l2.645 10.189 2.691-10.189h2.737l2.576 10.143 2.622-10.143h2.576zm7.457 12.88c-1.196 0-2.277-.2683-3.243-.805-.966-.552-1.725-1.3187-2.277-2.3-.552-.9967-.828-2.1467-.828-3.45 0-1.288.283-2.4303.851-3.427.567-.9967 1.341-1.7633 2.323-2.3.981-.5367 2.077-.805 3.289-.805 1.211 0 2.307.2683 3.289.805.981.5367 1.755 1.3033 2.323 2.3.567.9967.851 2.139.851 3.427 0 1.288-.292 2.4303-.874 3.427-.583.9967-1.38 1.771-2.392 2.323-.997.5367-2.101.805-3.312.805zm0-2.277c.674 0 1.303-.161 1.886-.483.598-.322 1.081-.805 1.449-1.449.368-.644.552-1.426.552-2.346 0-.92-.177-1.6943-.529-2.323-.353-.644-.821-1.127-1.403-1.449-.583-.322-1.212-.483-1.886-.483-.675 0-1.304.161-1.886.483-.568.322-1.02.805-1.357 1.449-.338.6287-.506 1.403-.506 2.323 0 1.3647.345 2.4227 1.035 3.174.705.736 1.587 1.104 2.645 1.104zm11.792-8.763c.383-.644.889-1.1423 1.518-1.495.644-.368 1.403-.552 2.277-.552v2.714h-.667c-1.028 0-1.81.2607-2.346.782-.522.5213-.782 1.426-.782 2.714V26h-2.622V13.327h2.622v1.84zm5.331 4.439c0-1.2727.261-2.3997.782-3.381.537-.9813 1.257-1.7403 2.162-2.277.92-.552 1.94-.828 3.059-.828.828 0 1.641.184 2.438.552.813.3527 1.457.828 1.932 1.426V8.98h2.645V26h-2.645v-1.909c-.429.6133-1.027 1.1193-1.794 1.518-.751.3987-1.618.598-2.599.598-1.104 0-2.116-.276-3.036-.828-.905-.5673-1.625-1.3493-2.162-2.346-.521-1.012-.782-2.1543-.782-3.427zm10.373.046c0-.874-.184-1.633-.552-2.277-.353-.644-.82-1.1347-1.403-1.472-.583-.3373-1.211-.506-1.886-.506-.675 0-1.303.1687-1.886.506-.583.322-1.058.805-1.426 1.449-.353.6287-.529 1.38-.529 2.254 0 .874.176 1.6407.529 2.3.368.6593.843 1.1653 1.426 1.518.598.3373 1.227.506 1.886.506.675 0 1.303-.1687 1.886-.506.583-.3373 1.05-.828 1.403-1.472.368-.6593.552-1.426.552-2.3z" fill="#545454"/></svg>