<svg width="185" height="63" viewBox="0 0 185 63" fill="none" xmlns="http://www.w3.org/2000/svg"><path d="M102.6 28.96v8.4c0 .84.207 1.4867.62 1.94.413.4533 1.02.68 1.82.68s1.413-.2267 1.84-.68c.427-.4533.64-1.1.64-1.94v-8.4h3.42v8.38c0 1.2533-.267 2.3133-.8 3.18-.533.8667-1.253 1.52-2.16 1.96-.893.44-1.893.66-3 .66s-2.1-.2133-2.98-.64c-.867-.44-1.553-1.0933-2.06-1.96-.5067-.88-.76-1.9467-.76-3.2v-8.38h3.42zm19.342 5.6v2.84h-8.8v-2.84h8.8z" fill="#585858"/><path d="M128.363 28.2V43h-3.42V28.2h3.42zm12.999 9.04c0 .32-.02.6533-.06 1h-7.74c.053.6933.273 1.2267.66 1.6.4.36.886.54 1.46.54.853 0 1.446-.36 1.78-1.08h3.64c-.187.7333-.527 1.3933-1.02 1.98-.48.5867-1.087 1.0467-1.82 1.38-.734.3333-1.554.5-2.46.5-1.094 0-2.067-.2333-2.92-.7-.854-.4667-1.52-1.1333-2-2s-.72-1.88-.72-3.04c0-1.16.233-2.1733.7-3.04.48-.8667 1.146-1.5333 2-2 .853-.4667 1.833-.7 2.94-.7 1.08 0 2.04.2267 2.88.68.84.4533 1.493 1.1 1.96 1.94.48.84.72 1.82.72 2.94zm-3.5-.9c0-.5867-.2-1.0533-.6-1.4-.4-.3467-.9-.52-1.5-.52-.574 0-1.06.1667-1.46.5-.387.3333-.627.8067-.72 1.42h4.28zm4.624 1.06c0-1.1467.213-2.1533.64-3.02.44-.8667 1.033-1.5333 1.78-2 .746-.4667 1.58-.7 2.5-.7.786 0 1.473.16 2.06.48.6.32 1.06.74 1.38 1.26v-1.58h3.42V43h-3.42v-1.58c-.334.52-.8.94-1.4 1.26-.587.32-1.274.48-2.06.48-.907 0-1.734-.2333-2.48-.7-.747-.48-1.34-1.1533-1.78-2.02-.427-.88-.64-1.8933-.64-3.04zm8.36.02c0-.8533-.24-1.5267-.72-2.02-.467-.4933-1.04-.74-1.72-.74-.68 0-1.26.2467-1.74.74-.467.48-.7 1.1467-.7 2s.233 1.5333.7 2.04c.48.4933 1.06.74 1.74.74.68 0 1.253-.2467 1.72-.74.48-.4933.72-1.1667.72-2.02zm9.314-3.72c.4-.6133.9-1.0933 1.5-1.44.6-.36 1.267-.54 2-.54v3.62h-.94c-.853 0-1.493.1867-1.92.56-.427.36-.64 1-.64 1.92V43h-3.42V31.84h3.42v1.86zm11.935-1.98c1.306 0 2.346.4267 3.12 1.28.786.84 1.18 2 1.18 3.48V43h-3.4v-6.06c0-.7467-.194-1.3267-.58-1.74-.387-.4133-.907-.62-1.56-.62-.654 0-1.174.2067-1.56.62-.387.4133-.58.9933-.58 1.74V43h-3.42V31.84h3.42v1.48c.346-.4933.813-.88 1.4-1.16.586-.2933 1.246-.44 1.98-.44z" fill="#17708C"/><path d="M82.0689 39.6466H26.3792c-1.6188 0-2.931-.9725-2.931-2.1724V4.88797c0-1.19983 1.3122-2.17239 2.931-2.17239h55.6897c1.6188 0 2.931.97256 2.931 2.17239V37.4742c0 1.1999-1.3122 2.1724-2.931 2.1724z" fill="#E4EAF8"/><path d="M38.8429 16.5292l-13.109-2.7504c-.637-.1336-1.2945-.2012-1.955-.2012-.1105 0-.2201.0132-.3307.017v23.8796c0 1.1997 1.3124 2.1724 2.931 2.1724h6.7663c1.3894-.6966 2.3181-1.803 2.5295-3.0566l.2536-1.5046c1.6421-1.7087 2.5054-3.686 2.5054-5.7578 0-.2413-.0118-.4814-.0352-.7202 1.7242-.4408 2.9662-1.6558 2.9662-3.0815v-6.5173c0-.0784-.0055-.1557-.0165-.232-.1241-1.0652-1.0998-1.9525-2.5056-2.2474z" fill="#D5DCED"/><path d="M77.6723 35.3018h-7.3276V8.14656c0-.59985.6563-1.08626 1.4656-1.08626h4.3966c.8093 0 1.4656.48641 1.4656 1.08626V35.3018h-.0002z" fill="#7DF5A5"/><path d="M64.4829 35.3018h-7.3276V16.8363c0-.5999.6562-1.0863 1.4656-1.0863h4.3966c.8093 0 1.4655.4864 1.4655 1.0863v18.4655h-.0001z" fill="#FFDC64"/><path d="M51.2934 35.3018h-7.3276V25.526c0-.5999.6563-1.0863 1.4656-1.0863h4.3966c.8093 0 1.4656.4864 1.4656 1.0863v9.7758h-.0002z" fill="#FF5050"/><path d="M38.1035 35.3018h-7.3276V30.957c0-.5999.6562-1.0863 1.4656-1.0863h4.3966c.8093 0 1.4655.4864 1.4655 1.0863v4.3448h-.0001z" fill="#00C3FF"/><path d="M38.1036 30.9569c0-.5999-.6562-1.0863-1.4655-1.0863h-4.3966c-.8094 0-1.4656.4864-1.4656 1.0863v4.3447h5.1164l.0365-.2164c1.085-1.1288 1.794-2.3819 2.1747-3.6951v-.4332h.0001z" fill="#00AAF0"/><path d="M79.1379 36.388H29.3103c-.81 0-1.4656-.4858-1.4656-1.0863 0-.6003.6555-1.0862 1.4656-1.0862h49.8276c.81 0 1.4656.4857 1.4656 1.0862-.0002.6005-.6556 1.0863-1.4656 1.0863z" fill="#AFB9D2"/><path d="M29.3103 34.2156c-.81 0-1.4656.4858-1.4656 1.0862s.6555 1.0863 1.4656 1.0863h6.3988l.2196-1.3026c.2686-.2795.4829-.5766.7095-.8698h-7.3279v-.0001z" fill="#959CB5"/><path d="M36.9686 59.1982V46.6434c0-.9351-.8074-1.7653-2.0042-2.0609l-4.7847-1.1822c-1.1968-.2956-2.0041-1.1258-2.0041-2.0609v-2.779h-8.7932v2.779c0 .9351-.8074 1.7653-2.0042 2.0609l-4.7847 1.1822c-1.1968.2956-2.0041 1.1258-2.0041 2.0609v12.5549h26.3792v-.0001z" fill="#D29B6E"/><path d="M34.9644 44.5825l-4.7847-1.1823c-.2874-.071-.5492-.176-.7859-.3028-1.3441 1.1998-3.3464 1.9802-5.6148 1.9802-2.2685 0-4.2708-.7804-5.6148-1.9802-.2368.1268-.4984.232-.786.3028l-4.7847 1.1823c-1.197.2956-2.0041 1.1258-2.0041 2.0609v12.5549h26.3793V46.6434c-.0003-.9352-.8076-1.7653-2.0043-2.0609z" fill="#5B5D6E"/><path d="M23.7799 37.4742c6.475 0 11.7241-3.6474 11.7241-8.1466 0-4.4992-5.2491-8.1466-11.7241-8.1466-6.4751 0-11.7242 3.6474-11.7242 8.1466 0 4.4992 5.2491 8.1466 11.7242 8.1466z" fill="#694B4B"/><path d="M26.6118 21.4304c-.9088-.157-1.8543-.2494-2.8329-.2494-6.475 0-11.7242 3.6474-11.7242 8.1466 0 3.8634 3.8745 7.0914 9.0679 7.9286v-6.5708c0-4.7055 3.0569-7.6499 5.4892-9.255z" fill="#5A4146"/><path d="M31.1692 37.9941l-4.7685 1.7671c-1.6504.6115-3.5929.6115-5.2433 0l-4.7684-1.7671c-.8766-.3247-1.4759-.9529-1.5976-1.6736l-.8902-5.2778c-.1049-.6221.516-1.1775 1.36-1.2183 2.7316-.1325 8.4281-.6407 11.9402-2.5898.5922-.3286 1.4189-.2708 1.9251.1292l4.0744 3.2207c.298.2355.4391.5572.385.8776l-.8195 4.8584c-.121.7208-.7207 1.3487-1.5972 1.6736z" fill="#F0C087"/><path d="M33.201 30.5842l-4.0745-3.2206c-.1352-.1071-.2961-.1853-.4664-.2425-.0559-.0187-.1167-.0227-.175-.036-.1183-.0268-.2374-.0508-.3602-.0547-.1049-.0032-.2092.0068-.3131.0207-.0528.007-.1064.0073-.1582.0187-.1583.0352-.3123.0871-.4518.1645-3.518 1.9522-9.2284 2.4588-11.9544 2.5905-.8489.041-1.4513.5921-1.3457 1.2177l.8901 5.2777c.1217.7208.721 1.3488 1.5976 1.6737l4.7685 1.767c.712.2639 1.4807.3911 2.2545.4274l-1.7902-2.6538c-.5087-.7542-.7736-1.5858-.7736-2.429V32.308c0-.5056.473-.9348 1.1349-1.0575 2.0069-.3718 4.0713-.9158 5.864-1.7223l3.2159 2.5422c.4751.3756 1.1471.8032 2.292.7624l.2312-1.371c.0535-.3203-.0878-.6419-.3856-.8776z" fill="#E6AF78"/><path d="M35.5029 19.0087v6.5173c0 .6003.6555 1.0862 1.4656 1.0862.81 0 1.4656-.4858 1.4656-1.0862v-6.5173h-2.9312z" fill="#464655"/><path d="M32.5721 20.0947H14.9859l-1.1216 3.3256c-.1915.5684.2592 1.1469 1.019 1.3078l8.0905 1.7131c.5263.1115 1.0841.1115 1.6103 0l8.0905-1.7131c.76-.161 1.2109-.7396 1.019-1.3078l-1.1215-3.3256z" fill="#5B5D6E"/><path d="M14.9858 20.0947l-1.1219 3.3256c-.1916.5684.2591 1.1469 1.019 1.3078l8.0906 1.7133c.2633.0556.5342.0836.8053.0836v-6.4303h-8.793z" fill="#464655"/><path d="M22.6222 15.8692L9.51331 18.6195c-.51514.108-.51514.6702 0 .7783l13.10889 2.7503c.7574.1588 1.5563.1588 2.3138 0l13.1089-2.7503c.5152-.108.5152-.6702 0-.7783L24.936 15.8692c-.7575-.1589-1.5562-.1589-2.3138 0z" fill="#707487"/><path d="M30.7756 58.1121H16.1204c-.8094 0-1.4656-.4864-1.4656-1.0863v-6.5173c0-.5999.6562-1.0863 1.4656-1.0863h14.6552c.8093 0 1.4656.4864 1.4656 1.0863v6.5173c0 .5999-.6563 1.0863-1.4656 1.0863z" fill="#D5DCED"/><path d="M45.431 60.2845H1.46559C.655596 60.2845 0 59.7987 0 59.1982c0-.6003.65543-1.0863 1.46559-1.0863H45.4312c.81 0 1.4656.4858 1.4656 1.0863-.0002.6005-.6556 1.0863-1.4658 1.0863z" fill="#F5DCB4"/><path d="M23.448 54.8535c.8094 0 1.4656-.4863 1.4656-1.0862 0-.5999-.6562-1.0863-1.4656-1.0863s-1.4656.4864-1.4656 1.0863c0 .5999.6562 1.0862 1.4656 1.0862z" fill="#fff"/></svg>