<svg width="84" height="26" viewBox="0 0 84 26" fill="none" xmlns="http://www.w3.org/2000/svg"><path d="M9.108 7.454v1.332h-3.42V20H4.05V8.786H.612V7.454h8.496zm11.0163 7.236c0 .312-.018.642-.054.99h-7.884c.06.972.39 1.734.99 2.286.612.54 1.35.81 2.214.81.708 0 1.296-.162 1.764-.486.48-.336.816-.78 1.008-1.332h1.764c-.264.948-.792 1.722-1.584 2.322-.792.588-1.776.882-2.952.882-.936 0-1.776-.21-2.52-.63-.732-.42-1.308-1.014-1.728-1.782-.42-.78-.63-1.68-.63-2.7 0-1.02.204-1.914.612-2.682.408-.768.978-1.356 1.71-1.764.744-.42 1.596-.63 2.556-.63.936 0 1.764.204 2.484.612.72.408 1.272.972 1.656 1.692.396.708.594 1.512.594 2.412zm-1.692-.342c0-.624-.138-1.158-.414-1.602-.276-.456-.654-.798-1.134-1.026-.468-.24-.99-.36-1.566-.36-.828 0-1.536.264-2.124.792-.576.528-.906 1.26-.99 2.196h6.228zm3.2421.684c0-1.008.204-1.89.612-2.646.408-.768.966-1.362 1.674-1.782.72-.42 1.518-.63 2.394-.63.864 0 1.614.186 2.25.558.636.372 1.11.84 1.422 1.404v-1.8h1.656V20h-1.656v-1.836c-.324.576-.81 1.056-1.458 1.44-.636.372-1.38.558-2.232.558-.876 0-1.668-.216-2.376-.648-.708-.432-1.266-1.038-1.674-1.818-.408-.78-.612-1.668-.612-2.664zm8.352.018c0-.744-.15-1.392-.45-1.944-.3-.552-.708-.972-1.224-1.26-.504-.3-1.062-.45-1.674-.45-.612 0-1.17.144-1.674.432-.504.288-.906.708-1.206 1.26-.3.552-.45 1.2-.45 1.944 0 .756.15 1.416.45 1.98.3.552.702.978 1.206 1.278.504.288 1.062.432 1.674.432.612 0 1.17-.144 1.674-.432.516-.3.924-.726 1.224-1.278.3-.564.45-1.218.45-1.962zm3.8121 0c0-1.02.204-1.908.612-2.664.408-.768.972-1.362 1.692-1.782.732-.42 1.566-.63 2.502-.63 1.212 0 2.208.294 2.988.882.792.588 1.314 1.404 1.566 2.448h-1.764c-.168-.6-.498-1.074-.99-1.422-.48-.348-1.08-.522-1.8-.522-.936 0-1.692.324-2.268.972-.576.636-.864 1.542-.864 2.718 0 1.188.288 2.106.864 2.754.576.648 1.332.972 2.268.972.72 0 1.32-.168 1.8-.504.48-.336.81-.816.99-1.44h1.764c-.264 1.008-.792 1.818-1.584 2.43-.792.6-1.782.9-2.97.9-.936 0-1.77-.21-2.502-.63-.72-.42-1.284-1.014-1.692-1.782-.408-.768-.612-1.668-.612-2.7zM50.28 9.956c.744 0 1.416.162 2.016.486.6.312 1.068.786 1.404 1.422.348.636.522 1.41.522 2.322V20h-1.62v-5.58c0-.984-.246-1.734-.738-2.25-.492-.528-1.164-.792-2.016-.792-.864 0-1.554.27-2.07.81-.504.54-.756 1.326-.756 2.358V20h-1.638V6.68h1.638v4.86c.324-.504.768-.894 1.332-1.17.576-.276 1.218-.414 1.926-.414zm15.6177 4.734c0 .312-.018.642-.054.99h-7.884c.06.972.39 1.734.99 2.286.612.54 1.35.81 2.214.81.708 0 1.296-.162 1.764-.486.48-.336.816-.78 1.008-1.332h1.764c-.264.948-.792 1.722-1.584 2.322-.792.588-1.776.882-2.952.882-.936 0-1.776-.21-2.52-.63-.732-.42-1.308-1.014-1.728-1.782-.42-.78-.63-1.68-.63-2.7 0-1.02.204-1.914.612-2.682.408-.768.978-1.356 1.71-1.764.744-.42 1.596-.63 2.556-.63.936 0 1.764.204 2.484.612.72.408 1.272.972 1.656 1.692.396.708.594 1.512.594 2.412zm-1.692-.342c0-.624-.138-1.158-.414-1.602-.276-.456-.654-.798-1.134-1.026-.468-.24-.99-.36-1.566-.36-.828 0-1.536.264-2.124.792-.576.528-.906 1.26-.99 2.196h6.228zm5.4921-2.61c.288-.564.696-1.002 1.224-1.314.54-.312 1.194-.468 1.962-.468v1.692h-.432c-1.836 0-2.754.996-2.754 2.988V20h-1.638v-9.864h1.638v1.602z" fill="#ABABAB"/></svg>