<svg width="524" height="353" viewBox="0 0 524 353" fill="none" xmlns="http://www.w3.org/2000/svg"><g clip-path="url(#clip0)"><g opacity=".1"><path opacity=".1" d="M419.573 250.093s-37.408-4.422-9.51 50.697c0 0 25.424-9.919 26.436-32.291.206-4.354-1.349-8.625-4.371-12.004-3.022-3.38-7.301-5.633-12.025-6.333l-.53-.069z" fill="#6C63FF"/><path opacity=".1" d="M420.122 250.01s8.468 30.734-10.03 50.784" stroke="#535461" stroke-miterlimit="10"/><path opacity=".1" d="M409.585 303.634s13.469-30.221 38.621-41.431c10.591-4.641 19.241-12.285 24.65-21.785 2.528-4.525 4.595-9.251 6.176-14.119" stroke="#535461" stroke-width="2" stroke-miterlimit="10"/><path opacity=".1" d="M494.836 219.155c-2.622 3-16.191 7.392-16.191 7.392s1.634-13.045 4.256-16.024c.598-.777 1.364-1.435 2.252-1.933.888-.498 1.879-.825 2.91-.961 1.032-.136 2.084-.079 3.091.169 1.006.248 1.946.68 2.763 1.271.816.591 1.49 1.327 1.982 2.165.492.837.79 1.756.877 2.702.086.946-.041 1.899-.373 2.798-.333.9-.864 1.728-1.562 2.434l-.005-.013zM490.179 242.918c-3.993 1.222-17.996-1.817-17.996-1.817s9.146-10.123 13.139-11.345c.967-.361 2.005-.537 3.05-.518 1.045.019 2.075.233 3.026.628.95.396 1.802.965 2.501 1.672.699.707 1.232 1.538 1.565 2.44.333.902.459 1.856.371 2.805-.089.948-.39 1.869-.886 2.707-.495.838-1.174 1.575-1.994 2.165-.821.589-1.765 1.019-2.776 1.263zM464.933 271.013c-4.122-.779-14.53-9.841-14.53-9.841s13.508-4.535 17.634-3.756c1.868.473 3.467 1.575 4.475 3.083 1.009 1.507 1.35 3.307.955 5.035-.394 1.728-1.495 3.254-3.08 4.271-1.585 1.016-3.534 1.446-5.454 1.203v.005zM440.574 288.354c-4.208-.135-16.149-7.462-16.149-7.462s12.476-6.557 16.684-6.418c1.929.179 3.711 1.018 4.986 2.349 1.274 1.33 1.945 3.052 1.877 4.817-.068 1.764-.87 3.439-2.244 4.685-1.373 1.245-3.216 1.969-5.154 2.024v.005zM459.144 232.591c.539 3.805 9.657 13.945 9.657 13.945s6.004-11.914 5.469-15.719c-.066-.95-.345-1.878-.82-2.726-.475-.848-1.137-1.598-1.943-2.204-.806-.605-1.741-1.054-2.745-1.318-1.005-.264-2.059-.337-3.096-.216-1.037.122-2.035.436-2.933.923-.899.487-1.678 1.137-2.289 1.909-.612.772-1.042 1.65-1.266 2.58-.224.93-.235 1.892-.034 2.826zM430.935 253.219c1.763 3.479 13.799 10.675 13.799 10.675s1.815-13.005.052-16.484c-.375-.888-.947-1.696-1.679-2.375-.732-.679-1.61-1.213-2.578-1.571-.968-.358-2.007-.531-3.052-.509-1.044.022-2.073.239-3.022.637-.949.398-1.798.97-2.495 1.679-.697.708-1.227 1.54-1.556 2.443-.33.902-.453 1.857-.362 2.805.091.948.395 1.868.893 2.705v-.005zM406.538 276.674c1.089 3.705 11.621 12.645 11.621 12.645s4.203-12.536 3.109-16.241c-.203-.934-.615-1.821-1.21-2.604-.595-.784-1.361-1.447-2.249-1.951-.888-.503-1.881-.835-2.916-.974-1.035-.14-2.09-.085-3.1.162-1.011.246-1.955.679-2.774 1.272-.82.592-1.496 1.332-1.989 2.172-.493.84-.791 1.764-.875 2.713-.085.949.046 1.905.383 2.806z" fill="#6C63FF"/><path opacity=".25" d="M494.836 219.155c-2.622 3-16.191 7.392-16.191 7.392s1.634-13.045 4.256-16.024c.598-.777 1.364-1.435 2.252-1.933.888-.498 1.879-.825 2.91-.961 1.032-.136 2.084-.079 3.091.169 1.006.248 1.946.68 2.763 1.271.816.591 1.49 1.327 1.982 2.165.492.837.79 1.756.877 2.702.086.946-.041 1.899-.373 2.798-.333.9-.864 1.728-1.562 2.434l-.005-.013zM490.179 242.918c-3.993 1.222-17.996-1.817-17.996-1.817s9.146-10.123 13.139-11.345c.967-.361 2.005-.537 3.05-.518 1.045.019 2.075.233 3.026.628.95.396 1.802.965 2.501 1.672.699.707 1.232 1.538 1.565 2.44.333.902.459 1.856.371 2.805-.089.948-.39 1.869-.886 2.707-.495.838-1.174 1.575-1.994 2.165-.821.589-1.765 1.019-2.776 1.263zM464.933 271.013c-4.122-.779-14.53-9.841-14.53-9.841s13.508-4.535 17.634-3.756c1.868.473 3.467 1.575 4.475 3.083 1.009 1.507 1.35 3.307.955 5.035-.394 1.728-1.495 3.254-3.08 4.271-1.585 1.016-3.534 1.446-5.454 1.203v.005zM440.574 288.354c-4.208-.135-16.149-7.462-16.149-7.462s12.476-6.557 16.684-6.418c1.929.179 3.711 1.018 4.986 2.349 1.274 1.33 1.945 3.052 1.877 4.817-.068 1.764-.87 3.439-2.244 4.685-1.373 1.245-3.216 1.969-5.154 2.024v.005zM459.144 232.591c.539 3.805 9.657 13.945 9.657 13.945s6.004-11.914 5.469-15.719c-.066-.95-.345-1.878-.82-2.726-.475-.848-1.137-1.598-1.943-2.204-.806-.605-1.741-1.054-2.745-1.318-1.005-.264-2.059-.337-3.096-.216-1.037.122-2.035.436-2.933.923-.899.487-1.678 1.137-2.289 1.909-.612.772-1.042 1.65-1.266 2.58-.224.93-.235 1.892-.034 2.826zM430.935 253.219c1.763 3.479 13.799 10.675 13.799 10.675s1.815-13.005.052-16.484c-.375-.888-.947-1.696-1.679-2.375-.732-.679-1.61-1.213-2.578-1.571-.968-.358-2.007-.531-3.052-.509-1.044.022-2.073.239-3.022.637-.949.398-1.798.97-2.495 1.679-.697.708-1.227 1.54-1.556 2.443-.33.902-.453 1.857-.362 2.805.091.948.395 1.868.893 2.705v-.005zM406.538 276.674c1.089 3.705 11.621 12.645 11.621 12.645s4.203-12.536 3.109-16.241c-.203-.934-.615-1.821-1.21-2.604-.595-.784-1.361-1.447-2.249-1.951-.888-.503-1.881-.835-2.916-.974-1.035-.14-2.09-.085-3.1.162-1.011.246-1.955.679-2.774 1.272-.82.592-1.496 1.332-1.989 2.172-.493.84-.791 1.764-.875 2.713-.085.949.046 1.905.383 2.806z" fill="#000"/><path opacity=".1" d="M427.525 317.383s13.469-30.221 38.621-41.431c10.586-4.644 19.23-12.29 24.635-21.789 2.528-4.525 4.595-9.251 6.176-14.119" stroke="#535461" stroke-width="2" stroke-miterlimit="10"/><path opacity=".1" d="M512.752 232.895c-2.622 3.001-16.191 7.392-16.191 7.392s1.633-13.044 4.255-16.023c1.302-1.317 3.107-2.133 5.046-2.28 1.94-.147 3.868.385 5.392 1.488 1.523 1.103 2.527 2.693 2.806 4.447.279 1.753-.187 3.538-1.303 4.989l-.005-.013zM508.105 256.659c-3.993 1.222-17.997-1.818-17.997-1.818s9.146-10.123 13.139-11.344c1.876-.454 3.872-.24 5.581.598 1.709.837 3.005 2.235 3.623 3.91.618 1.676.513 3.502-.294 5.109-.808 1.607-2.256 2.875-4.052 3.545zM482.857 284.771c-4.121-.779-14.529-9.84-14.529-9.84s13.507-4.536 17.634-3.757c1.867.473 3.467 1.576 4.475 3.083 1.009 1.507 1.35 3.307.955 5.035-.394 1.728-1.496 3.254-3.08 4.271-1.585 1.016-3.535 1.447-5.455 1.203v.005zM458.494 302.09c-4.208-.135-16.148-7.462-16.148-7.462s12.475-6.548 16.683-6.413c1.929.178 3.712 1.018 4.986 2.349 1.274 1.33 1.946 3.052 1.878 4.816-.068 1.764-.871 3.439-2.244 4.685-1.374 1.246-3.217 1.97-5.155 2.025zM477.064 246.349c.54 3.805 9.658 13.945 9.658 13.945s6.004-11.914 5.469-15.719c-.066-.95-.345-1.878-.82-2.726-.475-.848-1.137-1.598-1.943-2.204-.807-.605-1.741-1.054-2.746-1.318-1.004-.264-2.058-.337-3.095-.216-1.037.122-2.035.436-2.934.923-.898.487-1.677 1.137-2.288 1.909-.612.772-1.043 1.65-1.266 2.58-.224.93-.236 1.892-.035 2.826zM448.861 266.943c1.762 3.478 13.798 10.675 13.798 10.675s1.815-13.006.053-16.485c-.925-1.554-2.465-2.729-4.307-3.288-1.843-.558-3.849-.456-5.612.284-1.764.74-3.151 2.063-3.882 3.701-.73 1.638-.748 3.467-.05 5.117v-.004zM424.464 290.423c1.089 3.705 11.62 12.645 11.62 12.645s4.203-12.536 3.11-16.241c-.626-1.671-1.925-3.063-3.636-3.894s-3.705-1.039-5.577-.582c-1.873.457-3.485 1.546-4.51 3.045-1.024 1.498-1.384 3.296-1.007 5.027z" fill="#6C63FF"/></g><path opacity=".1" d="M5.65967 186.964c8.29153 32.265 25.84413 60.155 53.58453 73.674 57.6488 28.094 187.6628 13.605 284.6968-3.044 49.028-8.382 93.531-31.54 126.345-65.747L5.65967 186.964zM514.495 35.0951h-53.24c-1.221 0-2.391-.4414-3.254-1.2271-.863-.7857-1.348-1.8514-1.348-2.9625 0-1.1112.485-2.1768 1.348-2.9625.863-.7857 2.033-1.2271 3.254-1.2271h9.204c-1.221 0-2.391-.4414-3.254-1.2271-.863-.7857-1.348-1.8514-1.348-2.9625 0-1.1112.485-2.1768 1.348-2.9625.863-.7857 2.033-1.2271 3.254-1.2271h-6.573c-1.22 0-2.391-.4414-3.254-1.2271-.863-.7857-1.347-1.8513-1.347-2.9625 0-1.1111.484-2.1768 1.347-2.9625.863-.7857 2.034-1.22709 3.254-1.22709h27.789C485.508 7.34853 478.301 5.4918 470 4.51778 394.23-4.34407 367.177 1.51745 357.634 7.5616c-11.773 7.4356-24.908 12.9058-38.945 15.5409-46.754 8.7705-134.183 19.3369-213.426-3.3917-39.3844-11.30563-68.6579 7.7921-86.201 39.6913h504.675c-.659-9.2706-2.631-17.828-6.252-25.3245-.83.6549-1.891 1.0161-2.99 1.0175zM1.14135 119.622c-2.043979 18.765-1.348563 37.694 2.06811 56.293L470.649 191.478c13.012-13.627 23.938-28.796 32.479-45.092L1.14135 119.622zM186.02 159.779h-9.204c1.22 0 2.391.441 3.254 1.227.863.785 1.348 1.851 1.348 2.962 0 1.111-.485 2.177-1.348 2.963-.863.785-2.034 1.227-3.254 1.227h-53.241c-1.22 0-2.391-.442-3.254-1.227-.863-.786-1.348-1.852-1.348-2.963s.485-2.177 1.348-2.962c.863-.786 2.034-1.227 3.254-1.227h9.204c-1.221 0-2.391-.442-3.254-1.228-.863-.785-1.348-1.851-1.348-2.962 0-1.111.485-2.177 1.348-2.963.863-.785 2.033-1.227 3.254-1.227h-6.572c-1.221 0-2.391-.441-3.254-1.227-.863-.785-1.348-1.851-1.348-2.962 0-1.111.485-2.177 1.348-2.963.863-.785 2.033-1.227 3.254-1.227h53.241c1.22 0 2.391.442 3.254 1.227.863.786 1.347 1.852 1.347 2.963s-.484 2.177-1.347 2.962c-.863.786-2.034 1.227-3.254 1.227h6.572c1.22 0 2.391.442 3.254 1.227.863.786 1.347 1.852 1.347 2.963s-.484 2.177-1.347 2.962c-.863.786-2.034 1.228-3.254 1.228zM523.761 59.6936L13.4258 70.9992C7.22149 85.5269 3.12826 101.95 1.21777 118.974H514.82c3.353-10 5.834-20.2257 7.417-30.5816 1.529-10.0054 2.14-19.6848 1.524-28.6988zM104.824 96.7281h-9.2041c1.2205 0 2.391.4414 3.2541 1.2271.863.7857 1.348 1.8514 1.348 2.9628 0 1.111-.485 2.177-1.348 2.962-.8631.786-2.0336 1.227-3.2541 1.227H42.3793c-1.2205 0-2.391-.441-3.254-1.227-.863-.785-1.3479-1.851-1.3479-2.962 0-1.1114.4849-2.1771 1.3479-2.9628.863-.7857 2.0335-1.2271 3.254-1.2271h9.2038c-1.2205 0-2.391-.4414-3.254-1.2271-.8631-.7857-1.3479-1.8513-1.3479-2.9625 0-1.1111.4848-2.1768 1.3479-2.9625.863-.7857 2.0335-1.2271 3.254-1.2271H45.011c-1.2205 0-2.391-.4414-3.254-1.2271-.863-.7857-1.3479-1.8513-1.3479-2.9624 0-1.1112.4849-2.1768 1.3479-2.9625.863-.7857 2.0335-1.2271 3.254-1.2271h53.2406c1.2205 0 2.3914.4414 3.2544 1.2271.863.7857 1.348 1.8513 1.348 2.9625 0 1.1111-.485 2.1767-1.348 2.9624-.863.7857-2.0339 1.2271-3.2544 1.2271h6.5724c1.22 0 2.391.4414 3.254 1.2271.863.7857 1.348 1.8514 1.348 2.9625 0 1.1112-.485 2.1768-1.348 2.9625-.863.7857-2.034 1.2271-3.254 1.2271z" fill="#6C63FF"/><path d="M448.335 352.778s-21.283-106.272-61.866-123.518c-34.389-14.623-71.577-24.481-82.152-27.155-1.579-2.316-3.404-4.484-5.449-6.475-14.453-13.736-23.136-13.479-24.541-13.31-.666-2.724-1.145-5.483-1.432-8.262-.043-.434-.086-.839-.125-1.269l.125-.057c-.086-.822-.163-1.67-.23-2.544 5.9-2.866 11.332-6.468 16.139-10.701.062.187.115.374.182.565 10.415-8.015 20.616-16.248 30.601-24.698 2.866-2.439 5.875-5.087 6.849-8.527.312-1.184.433-2.402.358-3.618.129-2.609-.549-5.274-.664-7.918 0-.435.053-.839.115-1.252.669-4.327 3.974-7.879 6.687-11.51 6.778-9.1758 10.315-20.0171 10.14-31.0733.074-5.2977-.731-10.5752-2.388-15.6539-2.116-6.4442-6.52-13.2145-13.851-14.6234-2.838-.5435-5.784-.2043-8.679-.3739-11.983-.6957-20.953-9.5663-30.51-16.067-11.665-7.8956-25.459-12.7699-39.92-14.1059-4.514-.4349-9.175-.4653-13.469.8392-9.643 2.9221-15.499 11.9448-24.789 15.6539-6.868 2.7568-14.806 2.309-21.97 4.3788-10.666 3.0873-19.717 13.0449-19.955 23.2764v1.3263c-.12 5.1701 1.91 10.4359 2.072 15.7278 0 .4783.008.9581.024 1.4393-.052 5.7137-.802 11.4448-3.09 16.8149-1.232 2.8916-2.818 6.2398-2.56 9.1315-.143 1.7693.234 3.4303 1.586 4.7833l2.307-1.853c-.774 3.813-1.163 7.681-1.161 11.558 0 19.542 9.763 37.039 25.161 48.814.089 1.302.175 2.696.258 4.183.363 6.445.65 14.528.568 23.338l-22.524 18.85-57.907 23.915s-52.959 10.184-41.5534 77.918l5.4449 42.057h48.3495l-.11.221h71.763l.043-.221h170.741l-.034.221h6.687v-.221l74.729-.005zM274.753 183.399c1.463 2.756 2.615 5.641 3.438 8.609-1.689-2.856-2.938-5.912-3.711-9.079l.072.117.201.353zm-82.066 8.696c0 .829-.016 1.666-.047 2.509l-.115.148c-.008-.895.046-1.79.162-2.679v.022z" fill="url(#paint0_linear)"/><path d="M293.643 202.762l-9.553 83.052-51.106 14.785s-66.389-11.306-49.195-43.918c12.232-23.199 11.893-64.655 10.68-86.658-.478-8.931-1.127-14.658-1.127-14.658s86.927-69.138 79.763-6.957c-1.385 12.04-1.467 21.454-.698 28.812 3.224 30.629 21.236 25.542 21.236 25.542z" fill="#FDC2CC"/><path opacity=".03" d="M293.643 202.762l-9.553 83.052-51.106 14.785s-66.389-11.306-49.195-43.918c12.232-23.199 11.893-64.655 10.68-86.658-.478-8.931-1.127-14.658-1.127-14.658s86.927-69.138 79.763-6.957c-1.385 12.04-1.467 21.454-.698 28.812 3.224 30.629 21.236 25.542 21.236 25.542z" fill="#000"/><path opacity=".1" d="M273.105 147.103c-1.385 12.041-1.467 21.455-.698 28.812-12.271 6.1-26.283 8.676-40.193 7.392-13.91-1.284-27.068-6.37-37.745-14.588-.478-8.932-1.127-14.658-1.127-14.658s86.927-69.1386 79.763-6.958z" fill="#000"/><path d="M239.193 181.024c38.249 0 69.256-28.228 69.256-63.05 0-34.8219-31.007-63.0505-69.256-63.0505-38.248 0-69.255 28.2286-69.255 63.0505 0 34.822 31.007 63.05 69.255 63.05z" fill="#FDC2CC"/><path opacity=".03" d="M239.193 181.024c38.249 0 69.256-28.228 69.256-63.05 0-34.8219-31.007-63.0505-69.256-63.0505-38.248 0-69.255 28.2286-69.255 63.0505 0 34.822 31.007 63.05 69.255 63.05z" fill="#000"/><path opacity=".1" d="M125.042 286.684s22.448 41.744 23.642 66.312zM369.585 310.604L363.137 353h6.448v-42.396z" fill="#000"/><path opacity=".1" d="M130.057 352.996l35.583-73.704s10.03-17.393 12.418-34.787c2.388-17.393 15.284-44.787 15.284-44.787s32-36.961 46.807-31.743c14.806 5.218-12.896 24.785-12.896 24.785s40.598 14.35 12.896 56.963c-27.702 42.614-28.18 34.787-28.18 34.787l-13.612 68.486h-68.3z" fill="#000"/><path d="M129.102 352.996l35.582-73.704s10.031-17.393 12.419-34.787c1.518-11.057 7.283-26.159 11.281-35.695 2.61-6.234 6.449-11.981 11.329-16.958 10.346-10.541 29.135-27.538 39.481-23.886 14.806 5.218-12.896 24.786-12.896 24.786s40.598 14.349 12.896 56.963c-27.703 42.613-28.18 34.786-28.18 34.786l-13.612 68.486-68.3.009z" fill="#FDC2CC"/><path opacity=".15" d="M260.448 83.8397c.791 0 1.432-.584 1.432-1.3045 0-.7204-.641-1.3045-1.432-1.3045-.792 0-1.433.5841-1.433 1.3045 0 .7205.641 1.3045 1.433 1.3045zM253.761 86.4487c.791 0 1.433-.584 1.433-1.3045 0-.7204-.642-1.3045-1.433-1.3045s-1.433.5841-1.433 1.3045c0 .7205.642 1.3045 1.433 1.3045z" fill="#fff"/><path opacity=".1" d="M189.994 38.5173c6.911-2.035 14.581-1.5958 21.211-4.3004 8.965-3.6613 14.615-12.5232 23.919-15.393 4.146-1.2784 8.645-1.2306 12.996-.8219 13.992 1.3258 27.317 6.1189 38.525 13.8581 9.223 6.3877 17.878 15.0973 29.441 15.78 2.794.1652 5.636-.1696 8.373.3653 7.088 1.3827 11.334 8.0313 13.373 14.3494 2.36 7.4877 2.913 15.3513 1.622 23.0518-1.291 7.7005-4.396 15.0554-9.101 21.5614-2.618 3.566-5.808 7.058-6.453 11.306-.631 4.166 1.318 8.484.181 12.562-.955 3.379-3.821 5.979-6.61 8.375-9.632 8.294-19.476 16.374-29.531 24.242-5.226-15.115 2.44-31.391 1.246-47.197-.477-6.157-2.865-12.879-8.831-15.784-5.583-2.7133-12.719-1.3044-18.369-3.9134-6.305-2.8917-8.894-9.7402-13.66-14.4799-8.12-8.0879-22.215-9.1314-33.568-5.4789-11.353 3.6526-20.633 11.1665-29.612 18.4934l-16.321 13.3278c-3.185-3.27-.769-8.288.956-12.3755 2.569-6.1268 3.133-12.7319 2.961-19.2369-.139-5.218-2.116-10.3708-2.001-15.4496.229-10.0185 8.96-19.8109 19.253-22.8417z" fill="#000"/><path d="M189.994 37.2128c6.911-2.035 14.581-1.5958 21.211-4.3005 8.965-3.6613 14.615-12.5231 23.919-15.393 4.146-1.2784 8.645-1.2306 12.996-.8218 13.992 1.3257 27.317 6.1188 38.525 13.858 9.223 6.3877 17.878 15.0974 29.441 15.78 2.794.1653 5.636-.1695 8.373.3653 7.088 1.3828 11.334 8.0313 13.373 14.3494 2.36 7.4877 2.913 15.3513 1.622 23.0518-1.291 7.7006-4.396 15.0559-9.101 21.562-2.618 3.565-5.808 7.057-6.453 11.305-.631 4.166 1.318 8.484.181 12.563-.955 3.378-3.821 5.979-6.61 8.375-9.632 8.293-19.476 16.374-29.531 24.241-5.226-15.114 2.44-31.39 1.246-47.196-.477-6.157-2.865-12.88-8.831-15.7845-5.583-2.7133-12.719-1.3045-18.369-3.9135-6.305-2.8916-8.894-9.7402-13.66-14.4799-8.12-8.0878-22.215-9.1314-33.568-5.4788-11.353 3.6526-20.633 11.1664-29.612 18.4933l-16.321 13.3274c-3.185-3.27-.769-8.2877.956-12.3751 2.569-6.1267 3.133-12.7318 2.961-19.2369-.139-5.218-2.116-10.3707-2.001-15.4495.229-10.0185 8.96-19.8109 19.253-22.8417z" fill="#865A61"/></g><defs><linearGradient id="paint0_linear" x1="258.719" y1="352.996" x2="258.719" y2="10.3402" gradientUnits="userSpaceOnUse"><stop stop-color="gray" stop-opacity=".25"/><stop offset=".54" stop-color="gray" stop-opacity=".12"/><stop offset="1" stop-color="gray" stop-opacity=".1"/></linearGradient><clipPath id="clip0"><path fill="#fff" d="M0 0h524v353H0z"/></clipPath></defs></svg>