<svg width="70" height="14" viewBox="0 0 70 14" fill="none" xmlns="http://www.w3.org/2000/svg"><path d="M.990234 11V2.46875H3.39844c.74218 0 1.39844.16406 1.96875.49219.57031.32812 1.00976.79492 1.31836 1.40039.3125.60547.4707 1.30078.47461 2.08594v.54492c0 .80469-.15625 1.50976-.46875 2.11523-.3086.60547-.75196 1.07028-1.33008 1.39458-.57422.3242-1.24414.4902-2.00977.498H.990234zM2.11523 3.39453v6.68557h1.1836c.86719 0 1.54101-.26955 2.02148-.80862.48438-.53906.72657-1.30664.72657-2.30273V6.4707c0-.96875-.22852-1.7207-.68555-2.25586-.45313-.53906-1.09766-.8125-1.9336-.82031h-1.3125zm9.21097 7.72267c-.8594 0-1.55862-.2813-2.09768-.8438-.53907-.56637-.8086-1.32223-.8086-2.26754v-.19922c0-.62891.11914-1.18945.35742-1.68164.24219-.49609.57813-.88281 1.00782-1.16016.43364-.28125.90234-.42187 1.40624-.42187.8242 0 1.4648.27148 1.9219.81445.457.54297.6855 1.32031.6855 2.33203v.45117H9.50391c.01562.625.19726 1.13086.54489 1.51758.3516.3828.7969.5742 1.336.5742.3828 0 .707-.0781.9726-.23435.2656-.15625.4981-.36328.6973-.6211l.6621.51563c-.5313.81642-1.3281 1.22462-2.3906 1.22462zm-.1348-5.68361c-.4375 0-.8047.16016-1.1016.48047-.29683.31641-.48042.76172-.55074 1.33594h3.17574v-.08203c-.0312-.55078-.1796-.97656-.4453-1.27735-.2656-.30468-.625-.45703-1.0781-.45703zm9.2227 2.4668c0 .96484-.2207 1.74219-.6621 2.33201-.4415.5899-1.0391.8848-1.793.8848-.7695 0-1.375-.2442-1.8164-.7324v3.0527h-1.084V4.66016h.9902l.0528.70312c.4414-.54687 1.0546-.82031 1.8398-.82031.7617 0 1.3633.28711 1.8047.86133.4453.57422.668 1.37304.668 2.39648v.09961zm-1.084-.12305c0-.71484-.1524-1.27929-.4571-1.69336-.3046-.41406-.7226-.62109-1.2539-.62109-.6562 0-1.1484.29102-1.4765.87305v3.02929c.3242.57813.8203.86717 1.4883.86717.5195 0 .9316-.2051 1.2363-.61521.3086-.41407.4629-1.02735.4629-1.83985zM25.7109 11c-.0625-.125-.1132-.3477-.1523-.668-.5039.5235-1.1055.7852-1.8047.7852-.625 0-1.1387-.1758-1.541-.5274-.3984-.3554-.5977-.80464-.5977-1.34761 0-.66016.25-1.17188.75-1.53516.5039-.36719 1.211-.55078 2.1211-.55078h1.0547V6.6582c0-.3789-.1133-.67968-.3398-.90234-.2266-.22656-.5606-.33984-1.002-.33984-.3867 0-.7109.09765-.9726.29296-.2618.19532-.3926.43164-.3926.70899h-1.0899c0-.31641.1114-.62109.334-.91406.2266-.29688.5313-.53125.9141-.70313.3867-.17187.8105-.25781 1.2715-.25781.7304 0 1.3027.18359 1.7168.55078.414.36328.6289.86523.6445 1.50586v2.91797c0 .58202.0742 1.04492.2227 1.38862V11h-1.1368zm-1.7988-.8262c.3399 0 .6621-.0879.9668-.26364.3047-.17578.5254-.4043.6621-.68555V7.92383h-.8496c-1.3281 0-1.9922.38867-1.9922 1.16601 0 .33985.1133.60547.3399.79688.2265.19138.5175.28708.873.28708zm7.4766-4.54099c-.1641-.02734-.3418-.04101-.5332-.04101-.711 0-1.1934.30273-1.4473.9082V11h-1.084V4.66016h1.0547l.0176.73242c.3555-.56641.8594-.84961 1.5117-.84961.2109 0 .3711.02734.4805.08203v1.00781zM34.1543 3.125v1.53516h1.1836v.83789h-1.1836v3.93164c0 .2539.0527.44531.1582.57421.1055.125.2852.1875.5391.1875.125 0 .2968-.0234.5156-.0703V11c-.2852.0781-.5625.1172-.832.1172-.4844 0-.8497-.1465-1.0957-.4395-.2461-.2929-.3692-.70895-.3692-1.24801V5.49805H31.916v-.83789h1.1543V3.125h1.084zm5.0859 7.9922c-.8593 0-1.5586-.2813-2.0976-.8438-.5391-.56637-.8086-1.32223-.8086-2.26754v-.19922c0-.62891.1191-1.18945.3574-1.68164.2422-.49609.5781-.88281 1.0078-1.16016.4336-.28125.9024-.42187 1.4063-.42187.8242 0 1.4648.27148 1.9218.81445.4571.54297.6856 1.32031.6856 2.33203v.45117H37.418c.0156.625.1972 1.13086.5449 1.51758.3516.3828.7969.5742 1.3359.5742.3828 0 .7071-.0781.9727-.23435.2656-.15625.498-.36328.6973-.6211l.6621.51563c-.5313.81642-1.3282 1.22462-2.3907 1.22462zm-.1347-5.68361c-.4375 0-.8047.16016-1.1016.48047-.2969.31641-.4805.76172-.5508 1.33594h3.1758v-.08203c-.0312-.55078-.1797-.97656-.4453-1.27735-.2656-.30468-.625-.45703-1.0781-.45703zm4.8867-.77343l.0293.70312c.4648-.54687 1.0918-.82031 1.8808-.82031.8868 0 1.4903.33984 1.8106 1.01953.2109-.30469.4844-.55078.8203-.73828.3398-.1875.7402-.28125 1.2012-.28125 1.3906 0 2.0976.73633 2.1211 2.20898V11h-1.084V6.81641c0-.45313-.1035-.79102-.3106-1.01368-.207-.22656-.5547-.33984-1.0429-.33984-.4024 0-.7364.12109-1.002.36328-.2656.23828-.4199.56055-.4629.9668V11h-1.0898V6.8457c0-.92187-.4512-1.38281-1.3535-1.38281-.711 0-1.1973.30273-1.459.9082V11h-1.084V4.66016h1.0254zM56.127 11.1172c-.8594 0-1.5586-.2813-2.0977-.8438-.5391-.56637-.8086-1.32223-.8086-2.26754v-.19922c0-.62891.1191-1.18945.3574-1.68164.2422-.49609.5781-.88281 1.0078-1.16016.4336-.28125.9024-.42187 1.4063-.42187.8242 0 1.4648.27148 1.9219.81445.457.54297.6855 1.32031.6855 2.33203v.45117h-4.2949c.0156.625.1973 1.13086.5449 1.51758.3516.3828.7969.5742 1.3359.5742.3829 0 .7071-.0781.9727-.23435.2656-.15625.498-.36328.6973-.6211l.6621.51563c-.5313.81642-1.3281 1.22462-2.3906 1.22462zm-.1348-5.68361c-.4375 0-.8047.16016-1.1016.48047-.2968.31641-.4804.76172-.5508 1.33594h3.1758v-.08203c-.0312-.55078-.1797-.97656-.4453-1.27735-.2656-.30468-.625-.45703-1.0781-.45703zm4.8926-.77343l.0351.79687c.4844-.60937 1.1172-.91406 1.8985-.91406 1.3398 0 2.0156.75586 2.0273 2.26758V11h-1.084V6.80469c-.0039-.45703-.1094-.79492-.3164-1.01367-.2031-.21875-.5215-.32813-.9551-.32813-.3515 0-.6601.09375-.9257.28125-.2657.1875-.4727.43359-.6211.73828V11h-1.084V4.66016h1.0254zM67.9512 3.125v1.53516h1.1836v.83789h-1.1836v3.93164c0 .2539.0527.44531.1582.57421.1054.125.2851.1875.539.1875.125 0 .2969-.0234.5157-.0703V11c-.2852.0781-.5625.1172-.8321.1172-.4843 0-.8496-.1465-1.0957-.4395-.2461-.2929-.3691-.70895-.3691-1.24801V5.49805h-1.1543v-.83789h1.1543V3.125h1.084z" fill="#1A7592"/></svg>