<svg width="54" height="26" viewBox="0 0 54 26" fill="none" xmlns="http://www.w3.org/2000/svg"><path d="M3.762 18.002h4.14V20h-6.66V7.436h2.52v10.566zm10.1697 2.16c-.96 0-1.824-.21-2.592-.63-.768-.432-1.37398-1.038-1.81798-1.818-.432-.78-.648-1.68-.648-2.7 0-1.02.222-1.92.666-2.7.456-.78 1.07398-1.38 1.85398-1.8.78-.432 1.65-.648 2.61-.648s1.83.216 2.61.648c.78.42 1.392 1.02 1.836 1.8.456.78.684 1.68.684 2.7 0 1.02-.234 1.92-.702 2.7-.456.78-1.08 1.386-1.872 1.818-.78.42-1.656.63-2.628.63zm0-2.196c.456 0 .882-.108 1.278-.324.408-.228.732-.564.972-1.008.24-.444.36-.984.36-1.62 0-.948-.252-1.674-.756-2.178-.492-.516-1.098-.774-1.818-.774s-1.326.258-1.818.774c-.48.504-.72 1.23-.72 2.178s.234 1.68.702 2.196c.48.504 1.08.756 1.8.756zm10.9565-8.1c.744 0 1.398.15 1.962.45.564.288 1.008.666 1.332 1.134v-1.422h2.538v10.044c0 .924-.186 1.746-.558 2.466-.372.732-.93 1.308-1.674 1.728-.744.432-1.644.648-2.7.648-1.416 0-2.58-.33-3.492-.99-.9-.66-1.41-1.56-1.53-2.7h2.502c.132.456.414.816.846 1.08.444.276.978.414 1.602.414.732 0 1.326-.222 1.782-.666.456-.432.684-1.092.684-1.98v-1.548c-.324.468-.774.858-1.35 1.17-.564.312-1.212.468-1.944.468-.84 0-1.608-.216-2.304-.648-.696-.432-1.248-1.038-1.656-1.818-.396-.792-.594-1.698-.594-2.718 0-1.008.198-1.902.594-2.682.408-.78.954-1.38 1.638-1.8.696-.42 1.47-.63 2.322-.63zm3.294 5.148c0-.612-.12-1.134-.36-1.566-.24-.444-.564-.78-.972-1.008-.408-.24-.846-.36-1.314-.36-.468 0-.9.114-1.296.342-.396.228-.72.564-.972 1.008-.24.432-.36.948-.36 1.548 0 .6.12 1.128.36 1.584.252.444.576.786.972 1.026.408.24.84.36 1.296.36.468 0 .906-.114 1.314-.342.408-.24.732-.576.972-1.008.24-.444.36-.972.36-1.584zm6.2773-6.174c-.444 0-.816-.138-1.116-.414-.288-.288-.432-.642-.432-1.062 0-.42.144-.768.432-1.044.3-.288.672-.432 1.116-.432.444 0 .81.144 1.098.432.3.276.45.624.45 1.044 0 .42-.15.774-.45 1.062-.288.276-.654.414-1.098.414zm1.242 1.188V20h-2.52v-9.972h2.52zm8.0157-.144c1.188 0 2.148.378 2.88 1.134.732.744 1.098 1.788 1.098 3.132V20h-2.52v-5.508c0-.792-.198-1.398-.594-1.818-.396-.432-.936-.648-1.62-.648-.696 0-1.248.216-1.656.648-.396.42-.594 1.026-.594 1.818V20h-2.52v-9.972h2.52v1.242c.336-.432.762-.768 1.278-1.008.528-.252 1.104-.378 1.728-.378z" fill="#585858"/></svg>