<svg width="96" height="14" viewBox="0 0 96 14" fill="none" xmlns="http://www.w3.org/2000/svg"><path d="M4.11914 7.54883H2.11523V11H.984375V2.46875H3.80859c.96094 0 1.69922.21875 2.21485.65625.51953.4375.77929 1.07422.77929 1.91016 0 .53125-.14453.99414-.43359 1.38867-.28516.39453-.68359.68945-1.19531.88476l2.0039 3.62111V11H5.9707L4.11914 7.54883zm-2.00391-.91992h1.72852c.55859 0 1.00195-.14453 1.33008-.4336.33203-.28906.49805-.67578.49805-1.16015 0-.52735-.15821-.93164-.47461-1.21289-.3125-.28125-.76563-.42383-1.35938-.42774H2.11523v3.23438zm8.73047 4.48829c-.85937 0-1.55859-.2813-2.09765-.8438-.53907-.56637-.8086-1.32223-.8086-2.26754v-.19922c0-.62891.11914-1.18945.35743-1.68164.24218-.49609.57812-.88281 1.00781-1.16016.43359-.28125.90231-.42187 1.40621-.42187.8243 0 1.4649.27148 1.9219.81445.457.54297.6856 1.32031.6856 2.33203v.45117H9.02344c.01562.625.19726 1.13086.54492 1.51758.35156.3828.79684.5742 1.33594.5742.3828 0 .707-.0781.9727-.23435.2656-.15625.498-.36328.6972-.6211l.6621.51563c-.5312.81642-1.3281 1.22462-2.3906 1.22462zm-.1348-5.68361c-.4375 0-.80465.16016-1.10152.48047-.29688.31641-.48047.76172-.55079 1.33594h3.17581v-.08203c-.0313-.55078-.1797-.97656-.4453-1.27735-.2657-.30468-.625-.45703-1.0782-.45703zm6.1231 2.38477h-2.8594v-.88477h2.8594v.88477zM19.3652 3.125v1.53516h1.1836v.83789h-1.1836v3.93164c0 .2539.0528.44531.1582.57421.1055.125.2852.1875.5391.1875.125 0 .2969-.0234.5156-.0703V11c-.2851.0781-.5625.1172-.832.1172-.4844 0-.8496-.1465-1.0957-.4395-.2461-.2929-.3692-.70895-.3692-1.24801V5.49805H17.127v-.83789h1.1542V3.125h1.084zm4.5293 6.28711l1.4766-4.75195h1.1601l-2.5488 7.31834c-.3945 1.0547-1.0215 1.582-1.8808 1.582l-.2051-.0175-.4043-.0762v-.8789l.293.0234c.3671 0 .6523-.0742.8554-.2226.2071-.1485.377-.4199.5098-.8145l.2402-.6445-2.2617-6.26954h1.1836l1.582 4.75195zm8.9649-1.51172c0 .96484-.2207 1.74219-.6621 2.33201-.4414.5899-1.0391.8848-1.793.8848-.7695 0-1.375-.2442-1.8164-.7324v3.0527h-1.084V4.66016h.9902l.0528.70312c.4414-.54687 1.0547-.82031 1.8398-.82031.7617 0 1.3633.28711 1.8047.86133.4453.57422.668 1.37304.668 2.39648v.09961zm-1.084-.12305c0-.71484-.1524-1.27929-.457-1.69336-.3047-.41406-.7227-.62109-1.2539-.62109-.6563 0-1.1485.29102-1.4766.87305v3.02929c.3242.57813.8203.86717 1.4883.86717.5195 0 .9316-.2051 1.2363-.61521.3086-.41407.4629-1.02735.4629-1.83985zm5.0976 3.33986c-.8593 0-1.5585-.2813-2.0976-.8438-.5391-.56637-.8086-1.32223-.8086-2.26754v-.19922c0-.62891.1191-1.18945.3574-1.68164.2422-.49609.5781-.88281 1.0078-1.16016.4336-.28125.9024-.42187 1.4063-.42187.8242 0 1.4648.27148 1.9219.81445.457.54297.6855 1.32031.6855 2.33203v.45117h-4.2949c.0156.625.1972 1.13086.5449 1.51758.3516.3828.7969.5742 1.3359.5742.3829 0 .7071-.0781.9727-.23435.2656-.15625.498-.36328.6973-.6211l.6621.51563c-.5313.81642-1.3282 1.22462-2.3907 1.22462zm-.1347-5.68361c-.4375 0-.8047.16016-1.1016.48047-.2969.31641-.4805.76172-.5508 1.33594h3.1758v-.08203c-.0312-.55078-.1797-.97656-.4453-1.27735-.2656-.30468-.625-.45703-1.0781-.45703zm8.1387 2.22657V11h-1.125V2.46875h3.1464c.9336 0 1.6641.23828 2.1914.71484.5313.47657.7969 1.10743.7969 1.89258 0 .82813-.2597 1.4668-.7793 1.91602-.5156.44531-1.2558.66797-2.2207.66797H44.877zm0-.91993h2.0214c.6016 0 1.0625-.14062 1.3828-.42187.3204-.28516.4805-.69531.4805-1.23047 0-.50781-.1601-.91406-.4805-1.21875-.3203-.30469-.7597-.46289-1.3183-.47461H44.877v3.3457zM54.9961 11c-.0625-.125-.1133-.3477-.1523-.668-.504.5235-1.1055.7852-1.8047.7852-.625 0-1.1387-.1758-1.5411-.5274-.3984-.3554-.5976-.80464-.5976-1.34761 0-.66016.25-1.17188.75-1.53516.5039-.36719 1.2109-.55078 2.1211-.55078h1.0547V6.6582c0-.3789-.1133-.67968-.3399-.90234-.2265-.22656-.5605-.33984-1.0019-.33984-.3867 0-.711.09765-.9727.29296-.2617.19532-.3926.43164-.3926.70899h-1.0898c0-.31641.1113-.62109.334-.91406.2265-.29688.5312-.53125.914-.70313.3868-.17187.8106-.25781 1.2715-.25781.7305 0 1.3028.18359 1.7168.55078.4141.36328.6289.86523.6446 1.50586v2.91797c0 .58202.0742 1.04492.2226 1.38862V11h-1.1367zm-1.7988-.8262c.3398 0 .6621-.0879.9668-.26364.3047-.17578.5254-.4043.6621-.68555V7.92383h-.8496c-1.3282 0-1.9922.38867-1.9922 1.16601 0 .33985.1133.60547.3398.79688.2266.19138.5176.28708.8731.28708zm8.1035-.85544c0-.29297-.1113-.51953-.334-.67969-.2188-.16406-.6035-.30469-1.1543-.42187-.5469-.11719-.9824-.25782-1.3066-.42188-.3204-.16406-.5586-.35937-.7149-.58594-.1523-.22656-.2285-.49609-.2285-.80859 0-.51953.2187-.95898.6563-1.31836.4414-.35937 1.0039-.53906 1.6874-.53906.7188 0 1.3008.18555 1.7461.55664.4493.37109.6739.8457.6739 1.42383h-1.0899c0-.29688-.1269-.55274-.3808-.76758-.25-.21484-.5664-.32227-.9493-.32227-.3945 0-.7031.08594-.9257.25782-.2227.17187-.334.39648-.334.67382 0 .26172.1035.45899.3105.5918.2071.13281.5801.25977 1.1192.38086.5429.12109.9824.26563 1.3183.43359.336.16797.584.3711.7442.60938.164.23437.2461.52148.2461.86133 0 .5664-.2266 1.02151-.6797 1.36521-.4531.3399-1.041.5098-1.7637.5098-.5078 0-.957-.0899-1.3476-.2695-.3907-.1797-.6973-.4297-.92-.75-.2187-.32426-.3281-.67387-.3281-1.04887h1.084c.0195.36328.1641.65234.4336.86719.2734.21098.6328.31638 1.0781.31638.4102 0 .7383-.082.9844-.24607.25-.16797.375-.39063.375-.66797zm6.1875 0c0-.29297-.1113-.51953-.334-.67969-.2188-.16406-.6035-.30469-1.1543-.42187-.5469-.11719-.9824-.25782-1.3066-.42188-.3204-.16406-.5586-.35937-.7149-.58594-.1523-.22656-.2285-.49609-.2285-.80859 0-.51953.2188-.95898.6562-1.31836.4415-.35937 1.004-.53906 1.6876-.53906.7187 0 1.3007.18555 1.746.55664.4493.37109.6739.8457.6739 1.42383h-1.0899c0-.29688-.1269-.55274-.3808-.76758-.25-.21484-.5664-.32227-.9492-.32227-.3946 0-.7032.08594-.9258.25782-.2227.17187-.334.39648-.334.67382 0 .26172.1035.45899.3105.5918.2071.13281.5801.25977 1.1192.38086.5429.12109.9824.26563 1.3183.43359.336.16797.584.3711.7442.60938.164.23437.2461.52148.2461.86133 0 .5664-.2266 1.02151-.6797 1.36521-.4531.3399-1.041.5098-1.7637.5098-.5078 0-.957-.0899-1.3477-.2695-.3906-.1797-.6972-.4297-.9199-.75-.2187-.32426-.3281-.67387-.3281-1.04887h1.084c.0195.36328.164.65234.4336.86719.2734.21098.6328.31638 1.0781.31638.4102 0 .7383-.082.9844-.24607.25-.16797.375-.39063.375-.66797zm8.1094.1875l1.2187-4.8457h1.084L76.0547 11h-.8789l-1.541-4.80469L72.1348 11h-.8789L69.416 4.66016h1.0781l1.2481 4.74609 1.4766-4.74609h.873l1.5059 4.8457zm3.123-1.73438c0-.62109.1211-1.17968.3633-1.67578.2461-.49609.5859-.8789 1.0195-1.14843.4375-.26954.9356-.4043 1.4942-.4043.8632 0 1.5605.29883 2.0918.89648.5351.59766.8027 1.39258.8027 2.38477v.07617c0 .61719-.1192 1.17188-.3574 1.66406-.2344.48825-.5723.86915-1.0137 1.14255-.4375.2735-.9414.4102-1.5117.4102-.8594 0-1.5567-.2988-2.0918-.8965-.5313-.59765-.7969-1.38867-.7969-2.37304v-.07618zm1.0898.12891c0 .70313.1622 1.26758.4864 1.69336.3281.42575.7656.63865 1.3125.63865.5508 0 .9883-.2148 1.3125-.64451.3242-.43359.4863-1.03906.4863-1.81641 0-.69531-.166-1.25781-.498-1.6875-.3282-.43359-.7657-.65039-1.3125-.65039-.5352 0-.9668.21289-1.295.63868-.3281.42578-.4922 1.03515-.4922 1.82812zm9.1055-2.26758c-.164-.02734-.3418-.04101-.5332-.04101-.7109 0-1.1933.30273-1.4473.9082V11h-1.0839V4.66016h1.0546l.0176.73242c.3555-.56641.8594-.84961 1.5117-.84961.211 0 .3711.02734.4805.08203v1.00781zm.6211 2.14453c0-.97265.2305-1.7539.6914-2.34375.461-.59375 1.0645-.89062 1.8106-.89062.7421 0 1.33.25391 1.7636.76172V2h1.084v9h-.9961l-.0527-.6797c-.4336.5313-1.0371.7969-1.8106.7969-.7343 0-1.3339-.3008-1.7988-.9024-.4609-.60152-.6914-1.38668-.6914-2.35542v-.08204zm1.084.12305c0 .71875.1484 1.28125.4453 1.6875.2969.40625.707.60941 1.2305.60941.6875 0 1.1894-.30863 1.5058-.92582v-2.9121c-.3242-.59766-.8222-.89649-1.4941-.89649-.5313 0-.9453.20508-1.2422.61523-.2969.41016-.4453 1.01758-.4453 1.82227z" fill="#1A7592"/></svg>