<svg width="58" height="26" viewBox="0 0 58 26" fill="none" xmlns="http://www.w3.org/2000/svg"><path d="M5.168 19.119c-.79333 0-1.50733-.136-2.142-.408-.63467-.2833-1.13333-.68-1.496-1.19-.36267-.51-.544-1.105-.544-1.785H3.06c.04533.51.24367.9293.595 1.258.36267.3287.867.493 1.513.493.66867 0 1.19-.1587 1.564-.476.374-.3287.561-.748.561-1.258 0-.3967-.119-.7197-.357-.969-.22667-.2493-.51567-.442-.867-.578-.34-.136-.816-.2833-1.428-.442-.77067-.204-1.39967-.408-1.887-.612-.476-.2153-.884-.544-1.224-.986-.34-.442-.51-1.0313-.51-1.768 0-.68.17-1.275.51-1.785.34-.51.816-.901 1.428-1.173s1.32033-.408 2.125-.408c1.14467 0 2.07967.289 2.805.867.73667.56667 1.14467 1.34867 1.224 2.346H6.97c-.034-.43067-.238-.799-.612-1.105-.374-.306-.867-.459-1.479-.459-.55533 0-1.00867.14167-1.36.425-.35133.28333-.527.69133-.527 1.224 0 .3627.10767.663.323.901.22667.2267.51.408.85.544.34.136.80467.2833 1.394.442.782.2153 1.41667.4307 1.904.646.49867.2153.918.5497 1.258 1.003.35133.442.527 1.037.527 1.785 0 .6007-.16433 1.1673-.493 1.7-.31733.5327-.78767.9633-1.411 1.292-.612.3173-1.33733.476-2.176.476zm7.3528-10.727c-.3514 0-.646-.119-.884-.357s-.357-.53267-.357-.884c0-.35133.119-.646.357-.884s.5326-.357.884-.357c.34 0 .629.119.867.357s.357.53267.357.884c0 .35133-.119.646-.357.884s-.527.357-.867.357zm.952 1.241V19h-1.938V9.633h1.938zm6.3184-.153c.7253 0 1.3657.14733 1.921.442.5667.2833 1.0087.6403 1.326 1.071v-1.36h1.955v9.52c0 .8613-.1813 1.6263-.544 2.295-.3627.68-.8897 1.2127-1.581 1.598-.68.3853-1.496.578-2.448.578-1.2693 0-2.3233-.3003-3.162-.901-.8387-.5893-1.3147-1.394-1.428-2.414h1.921c.1473.4873.459.8783.935 1.173.4873.306 1.0653.459 1.734.459.782 0 1.411-.238 1.887-.714.4873-.476.731-1.1673.731-2.074v-1.564c-.3287.442-.7763.816-1.343 1.122-.5553.2947-1.19.442-1.904.442-.816 0-1.564-.204-2.244-.612-.6687-.4193-1.2013-.9973-1.598-1.734-.3853-.748-.578-1.5923-.578-2.533 0-.9407.1927-1.7737.578-2.499.3967-.7253.9293-1.2863 1.598-1.683.68-.408 1.428-.612 2.244-.612zm3.247 4.828c0-.646-.136-1.207-.408-1.683-.2607-.476-.6063-.8387-1.037-1.088-.4307-.2493-.8953-.374-1.394-.374-.4987 0-.9633.1247-1.394.374-.4307.238-.782.595-1.054 1.071-.2607.4647-.391 1.02-.391 1.666 0 .646.1303 1.2127.391 1.7.272.4873.6233.8613 1.054 1.122.442.2493.9067.374 1.394.374.4987 0 .9633-.1247 1.394-.374.4307-.2493.7763-.612 1.037-1.088.272-.4873.408-1.054.408-1.7zm9.2265-4.828c.7366 0 1.394.153 1.972.459.5893.306 1.0483.7593 1.377 1.36.3286.6007.493 1.326.493 2.176V19h-1.921v-5.236c0-.8387-.2097-1.479-.629-1.921-.4194-.4533-.9917-.68-1.717-.68-.7254 0-1.3034.2267-1.734.68-.4194.442-.629 1.0823-.629 1.921V19h-1.938V9.633h1.938v1.071c.3173-.3853.7196-.6857 1.207-.901.4986-.21533 1.0256-.323 1.581-.323zm11.716-1.088c-.3513 0-.646-.119-.884-.357s-.357-.53267-.357-.884c0-.35133.119-.646.357-.884s.5327-.357.884-.357c.34 0 .629.119.867.357s.357.53267.357.884c0 .35133-.119.646-.357.884s-.527.357-.867.357zm.952 1.241V19h-1.938V9.633h1.938zm7.2704-.153c.7367 0 1.394.153 1.972.459.5894.306 1.0484.7593 1.377 1.36.3287.6007.493 1.326.493 2.176V19h-1.921v-5.236c0-.8387-.2096-1.479-.629-1.921-.4193-.4533-.9916-.68-1.717-.68-.7253 0-1.3033.2267-1.734.68-.4193.442-.629 1.0823-.629 1.921V19h-1.938V9.633h1.938v1.071c.3174-.3853.7197-.6857 1.207-.901.4987-.21533 1.0257-.323 1.581-.323z" fill="#fff"/></svg>