<svg width="84" height="26" viewBox="0 0 84 26" fill="none" xmlns="http://www.w3.org/2000/svg"><path d="M5.364 20.126c-.828 0-1.572-.144-2.232-.432-.648-.3-1.158-.708-1.53-1.224-.372-.528-.564-1.134-.576-1.818h1.746c.06.588.3 1.086.72 1.494.432.396 1.056.594 1.872.594.78 0 1.392-.192 1.836-.576.456-.396.684-.9.684-1.512 0-.48-.132-.87-.396-1.17-.264-.3-.594-.528-.99-.684-.396-.156-.93-.324-1.602-.504-.828-.216-1.494-.432-1.998-.648-.492-.216-.918-.552-1.278-1.008-.348-.468-.522-1.092-.522-1.872 0-.684.174-1.29.522-1.818.348-.528.834-.936 1.458-1.224.636-.288 1.362-.432 2.178-.432 1.176 0 2.136.294 2.88.882.756.588 1.182 1.368 1.278 2.34h-1.8c-.06-.48-.312-.9-.756-1.26-.444-.372-1.032-.558-1.764-.558-.684 0-1.242.18-1.674.54-.432.348-.648.84-.648 1.476 0 .456.126.828.378 1.116.264.288.582.51.954.666.384.144.918.312 1.602.504.828.228 1.494.456 1.998.684.504.216.936.558 1.296 1.026.36.456.54 1.08.54 1.872 0 .612-.162 1.188-.486 1.728-.324.54-.804.978-1.44 1.314-.636.336-1.386.504-2.25.504zm8.5845-8.64V17.3c0 .48.102.822.306 1.026.204.192.558.288 1.062.288h1.206V20h-1.476c-.912 0-1.596-.21-2.052-.63-.456-.42-.684-1.11-.684-2.07v-5.814h-1.278v-1.35h1.278V7.652h1.638v2.484h2.574v1.35h-2.574zm13.3066-1.35V20h-1.638v-1.458c-.312.504-.75.9-1.314 1.188-.552.276-1.164.414-1.836.414-.768 0-1.458-.156-2.07-.468-.612-.324-1.098-.804-1.458-1.44-.348-.636-.522-1.41-.522-2.322v-5.778h1.62v5.562c0 .972.246 1.722.738 2.25.492.516 1.164.774 2.016.774.876 0 1.566-.27 2.07-.81.504-.54.756-1.326.756-2.358v-5.418h1.638zm2.1537 4.896c0-1.008.204-1.89.612-2.646.408-.768.966-1.362 1.674-1.782.72-.42 1.524-.63 2.412-.63.768 0 1.482.18 2.142.54.66.348 1.164.81 1.512 1.386V6.68h1.656V20h-1.656v-1.854c-.324.588-.804 1.074-1.44 1.458-.636.372-1.38.558-2.232.558-.876 0-1.674-.216-2.394-.648-.708-.432-1.266-1.038-1.674-1.818-.408-.78-.612-1.668-.612-2.664zm8.352.018c0-.744-.15-1.392-.45-1.944-.3-.552-.708-.972-1.224-1.26-.504-.3-1.062-.45-1.674-.45-.612 0-1.17.144-1.674.432-.504.288-.906.708-1.206 1.26-.3.552-.45 1.2-.45 1.944 0 .756.15 1.416.45 1.98.3.552.702.978 1.206 1.278.504.288 1.062.432 1.674.432.612 0 1.17-.144 1.674-.432.516-.3.924-.726 1.224-1.278.3-.564.45-1.218.45-1.962zm13.424-.36c0 .312-.018.642-.054.99h-7.884c.06.972.39 1.734.99 2.286.612.54 1.35.81 2.214.81.708 0 1.296-.162 1.764-.486.48-.336.816-.78 1.008-1.332h1.764c-.264.948-.792 1.722-1.584 2.322-.792.588-1.776.882-2.952.882-.936 0-1.776-.21-2.52-.63-.732-.42-1.308-1.014-1.728-1.782-.42-.78-.63-1.68-.63-2.7 0-1.02.204-1.914.612-2.682.408-.768.978-1.356 1.71-1.764.744-.42 1.596-.63 2.556-.63.936 0 1.764.204 2.484.612.72.408 1.272.972 1.656 1.692.396.708.594 1.512.594 2.412zm-1.692-.342c0-.624-.138-1.158-.414-1.602-.276-.456-.654-.798-1.134-1.026-.468-.24-.99-.36-1.566-.36-.828 0-1.536.264-2.124.792-.576.528-.906 1.26-.99 2.196h6.228zm8.6601-4.392c1.2 0 2.172.366 2.916 1.098.744.72 1.116 1.764 1.116 3.132V20h-1.62v-5.58c0-.984-.246-1.734-.738-2.25-.492-.528-1.164-.792-2.016-.792-.864 0-1.554.27-2.07.81-.504.54-.756 1.326-.756 2.358V20h-1.638v-9.864h1.638v1.404c.324-.504.762-.894 1.314-1.17.564-.276 1.182-.414 1.854-.414zm8.7057 1.53V17.3c0 .48.102.822.306 1.026.204.192.558.288 1.062.288h1.206V20h-1.476c-.912 0-1.596-.21-2.052-.63-.456-.42-.684-1.11-.684-2.07v-5.814h-1.278v-1.35h1.278V7.652h1.638v2.484h2.574v1.35h-2.574z" fill="#ABABAB"/></svg>