<svg width="459" height="263" viewBox="0 0 459 263" fill="none" xmlns="http://www.w3.org/2000/svg"><path d="M229.5 235.075c126.749 0 229.5-3.187 229.5-7.119s-102.751-7.119-229.5-7.119S0 224.024 0 227.956s102.751 7.119 229.5 7.119z" fill="#E6E6E6"/><path d="M351.807 150.817c-.289.005-.579.009-.873.009-.294 0-.583-.004-.873-.009-15.363-.387-26.498-11.031-23.664-22.2l6.912-27.245 1.746-6.8937 30.964.5854 1.882 6.7443 7.407 26.545c3.136 11.23-7.999 22.077-23.501 22.464z" fill="#3F3D56"/><path opacity=".2" d="M367.901 101.808c-5.28 3.347-11.269 5.071-17.35 4.994-6.081-.077-12.033-1.951-17.242-5.43l1.746-6.8937 30.964.5854 1.882 6.7443z" fill="#000"/><path d="M366.594 129.521c1.337-5.528 5.733-13.503 18.062-23.118 21.501-16.771 8.675-29.3462 8.119-29.8731-1.166-1.1052-.994-2.3461.4-2.7701.81-.1795 1.645-.165 2.45.0426.804.2077 1.559.6036 2.214 1.1613.697.6385 16.758 15.8487-7.505 34.7713-21.835 17.032-17.192 28.15-17.139 28.256.585 1.189-.353 2.141-2.098 2.128-1.744-.013-3.634-.986-4.221-2.174-.123-.251-1.528-3.277-.282-8.424zM336.643 154.788c-.469 0-.934-.102-1.367-.301-.434-.199-.828-.491-1.159-.859-.332-.368-.595-.805-.775-1.286-.179-.48-.272-.995-.272-1.516v-17.168c0-1.051.377-2.059 1.047-2.802.67-.743 1.579-1.16 2.526-1.16.948 0 1.856.417 2.526 1.16.67.743 1.047 1.751 1.047 2.802v17.168c0 .521-.093 1.036-.272 1.516-.18.481-.443.918-.775 1.286-.331.368-.725.66-1.159.859-.433.199-.898.301-1.367.301zM339.776 114.029c-.196.473-.475.898-.819 1.252-.344.353-.748.628-1.188.808-.44.181-.908.263-1.377.243-.468-.02-.929-.142-1.355-.359l-14.065-7.176c-.86-.44-1.527-1.241-1.855-2.226-.328-.985-.29-2.074.106-3.028.396-.954 1.117-1.694 2.005-2.059.888-.365 1.87-.324 2.731.114l14.064 7.176c.426.218.81.526 1.129.908.318.382.566.829.729 1.317.163.488.237 1.007.219 1.527-.018.52-.128 1.031-.324 1.503z" fill="#3F3D56"/><path d="M362.092 114.029c.197.473.475.898.819 1.252.344.353.748.628 1.188.808.44.181.908.263 1.377.243.469-.02.929-.142 1.355-.359l14.065-7.176c.861-.439 1.529-1.24 1.858-2.225.328-.986.291-2.076-.106-3.031-.396-.954-1.117-1.695-2.006-2.06-.889-.364-1.872-.322-2.732.117l-14.065 7.176c-.426.218-.81.526-1.129.908-.318.382-.566.829-.729 1.317-.163.488-.237 1.007-.219 1.527.018.52.128 1.031.324 1.503zM365.225 154.788c.469 0 .934-.102 1.367-.301.434-.199.827-.491 1.159-.859.332-.368.595-.805.775-1.286.179-.48.272-.995.272-1.516v-17.168c0-1.051-.377-2.059-1.047-2.802-.67-.743-1.579-1.16-2.526-1.16-.948 0-1.856.417-2.526 1.16-.67.743-1.047 1.751-1.047 2.802v17.168c0 .521.092 1.036.272 1.516.18.481.443.918.775 1.286.331.368.725.66 1.159.859.433.199.898.301 1.367.301zM380.156 43.6394c.308-.4312.531-.9301.654-1.4638.122-.5338.141-1.0901.055-1.6325l-1.945-12.6852-1.944-12.6851c-.105-.6849-.371-1.3271-.771-1.862-.399-.535-.919-.9438-1.506-1.1854-.588-.2416-1.222-.3076-1.84-.1911-.617.1164-1.196.4111-1.679.8543l-8.934 8.21-5.383 4.9462c-3.589-.7078-7.258-.7692-10.865-.1817l-5.185-4.7645-8.934-8.21c-.483-.4432-1.062-.7379-1.68-.8543-.617-.1164-1.252-.0505-1.839.1911-.587.2416-1.107.6504-1.507 1.1854-.399.5349-.665 1.1771-.77 1.862l-1.945 12.6852-1.944 12.6851c-.104.6667-.05 1.3518.156 1.9887-3.333 5.6651-5.235 12.2168-5.511 18.9737-.275 6.7569 1.088 13.4721 3.946 19.4471 2.859 5.9751 7.109 10.9916 12.308 14.5278 5.199 3.5363 11.158 5.4626 17.256 5.5796 6.099.117 12.114-1.5802 17.42-4.9151 5.307-3.335 9.71-8.1857 12.753-14.0477 3.043-5.8619 4.614-12.5209 4.549-19.2843-.064-6.7634-1.761-13.3841-4.915-19.1735z" fill="#3F3D56"/><path d="M330.983 17.9869c-.212.0004-.422.0427-.62.1249-.292.1178-.55.3197-.749.5848-.198.2652-.329.5841-.379.924l-2.358 15.3831c-.052.3391-.022.6874.085 1.0099.108.3225.291.6078.53.8272.239.2195.525.3654.831.423.306.0576.62.025.911-.0947l13.192-5.4271c.291-.1196.548-.322.746-.5868.198-.2648.329-.5827.381-.9217.052-.3391.023-.6873-.085-1.0098-.108-.3224-.29-.6077-.529-.8271v-.0005l-10.834-9.9558c-.315-.2921-.712-.4525-1.122-.4534zM372.075 17.9869c-.41.0009-.806.1613-1.121.4534l-10.834 9.9563c-.239.2194-.421.5047-.529.8271-.108.3225-.138.6707-.086 1.0098.052.339.184.6569.382.9217.198.2648.455.4672.746.5868l13.192 5.4271c.291.1197.605.1523.911.0947.305-.0576.592-.2035.831-.423.239-.2194.421-.5047.529-.8272.108-.3225.138-.6708.086-1.0099l-2.358-15.3831c-.051-.3399-.182-.6588-.38-.924-.198-.2651-.456-.467-.748-.5848-.199-.0822-.409-.1245-.621-.1249zM350.934 73.788c2.631 0 4.764-2.3651 4.764-5.2826 0-2.9175-2.133-5.2826-4.764-5.2826-2.631 0-4.764 2.3651-4.764 5.2826 0 2.9175 2.133 5.2826 4.764 5.2826z" fill="#E6E6E6"/><path d="M350.934 67.1848c1.754 0 3.176-.5913 3.176-1.3207 0-.7294-1.422-1.3206-3.176-1.3206-1.754 0-3.176.5912-3.176 1.3206s1.422 1.3207 3.176 1.3207z" fill="#3F3D56"/><path d="M348.552 71.5869h4.367v5.943c0 .3179-.057.6328-.167.9265-.109.2938-.27.5607-.473.7855-.203.2248-.443.4032-.708.5249-.265.1216-.549.1843-.836.1843-.579 0-1.134-.2551-1.544-.7092-.409-.454-.639-1.0699-.639-1.712v-5.943z" fill="#FF6584"/><path d="M351.199 11.6675c-.229.5266-.451 1.0588-.66 1.602-2.464 6.3715-3.295 13.3733-2.401 20.2347.447-.7191.916-1.4683 1.394-2.2258-1.023-6.5852-.448-13.3537 1.667-19.6109zM354.772 16.5099c-.229.5266-.451 1.0588-.661 1.602-2.463 6.3716-3.294 13.3733-2.401 20.2348.447-.7192.917-1.4684 1.395-2.2258-1.023-6.5853-.448-13.3538 1.667-19.611z" fill="#3F3D56"/><path d="M365.787 111.576l-.503-7.098-.504-7.098c-.027-.3833-.145-.7519-.341-1.0687-.196-.3168-.464-.5708-.777-.7363-.313-.1655-.66-.2368-1.005-.2067-.346.0302-.678.1607-.964.3784l-5.292 4.0324-3.864 2.9449c-.247-.321-.553-.578-.899-.755-.345-.177-.721-.268-1.101-.268s-.756.091-1.101.268c-.346.177-.652.434-.899.755l-3.864-2.9449-5.292-4.0324c-.285-.2178-.618-.3482-.963-.3784-.346-.0301-.693.0411-1.006.2067-.312.1655-.581.4194-.777.7363-.196.3168-.314.6854-.341 1.0686l-.503 7.0981-.504 7.098c-.027.383.037.768.187 1.115.149.347.378.644.664.862.285.217.618.348.963.378.346.03.693-.041 1.005-.207l5.795-3.065 4.762-2.519c.245.275.536.494.858.643.322.149.667.226 1.016.226s.694-.077 1.016-.226c.322-.149.614-.368.859-.643l4.761 2.519 5.795 3.065c.313.166.659.237 1.005.207.345-.03.678-.161.963-.378.286-.218.515-.515.664-.862.15-.347.214-.732.187-1.115z" fill="#9A9EF5"/><path d="M344.583 64.1032c.657 0 1.19-.5913 1.19-1.3206 0-.7294-.533-1.3207-1.19-1.3207-.658 0-1.191.5913-1.191 1.3207 0 .7293.533 1.3206 1.191 1.3206zM357.285 64.1032c.658 0 1.191-.5913 1.191-1.3206 0-.7294-.533-1.3207-1.191-1.3207-.657 0-1.191.5913-1.191 1.3207 0 .7293.534 1.3206 1.191 1.3206z" fill="#E6E6E6"/><path d="M120.51 139.15c.29.004.579.009.873.009.294 0 .584-.005.873-.009 15.363-.387 26.498-11.032 23.664-22.2l-6.911-27.2454-1.747-6.8938-30.964.5855-1.881 6.7441-7.4079 26.5456c-3.1361 11.23 7.9989 22.077 23.5009 22.464z" fill="#3F3D56"/><path opacity=".2" d="M104.417 90.1404c5.279 3.3467 11.268 5.0707 17.349 4.9941 6.081-.0766 12.033-1.9511 17.243-5.4299l-1.747-6.8938-30.964.5855-1.881 6.7441z" fill="#000"/><path d="M101.963 114.625c-3.3425-4.362-10.393-9.484-25.2461-12.324-25.9049-4.9557-19.1642-22.4079-18.8652-23.1479.6274-1.5522-.0071-2.592-1.4307-2.3137-.8013.222-1.5505.6314-2.1975 1.2008-.6469.5694-1.1766 1.2855-1.5535 2.1005-.3828.9075-9.0306 22.2763 20.2 27.8653 26.3075 5.033 26.4013 17.285 26.3943 17.406-.07 1.353 1.1447 1.767 2.7167.928 1.572-.839 2.904-2.616 2.976-3.968.015-.286.117-3.687-2.994-7.747zM135.674 143.121c.469 0 .934-.103 1.367-.302.434-.199.828-.491 1.159-.859.332-.368.595-.804.775-1.285.179-.481.272-.996.272-1.516V121.99c-.001-1.05-.378-2.056-1.048-2.798s-1.578-1.159-2.525-1.159c-.947 0-1.855.417-2.525 1.159-.67.742-1.047 1.748-1.048 2.798v17.169c0 .52.093 1.035.272 1.516.18.481.443.917.775 1.285.331.368.725.66 1.159.859.433.199.898.302 1.367.302zM132.541 102.362c.197.473.475.898.819 1.251.344.354.748.628 1.188.809.44.18.908.263 1.377.243.469-.02.929-.142 1.355-.36l14.065-7.1758c.427-.2171.811-.5254 1.13-.9072.319-.3817.567-.8295.731-1.3178.163-.4882.237-1.0073.219-1.5276-.018-.5202-.128-1.0315-.324-1.5045-.196-.4729-.475-.8984-.819-1.252-.345-.3536-.749-.6284-1.189-.8087-.441-.1804-.909-.2626-1.378-.2422-.469.0205-.93.1433-1.357.3614l-14.064 7.1759c-.426.2175-.81.5259-1.129.9077-.318.3818-.566.8295-.729 1.3175-.163.488-.237 1.0063-.219 1.5263.018.52.128 1.031.324 1.504zM110.225 102.362c-.196.473-.475.898-.819 1.251-.344.354-.748.628-1.188.809-.44.18-.908.263-1.377.243-.468-.02-.929-.142-1.355-.36l-14.065-7.1758c-.4267-.2171-.8107-.5254-1.1299-.9072-.3192-.3817-.5675-.8295-.7306-1.3178-.163-.4882-.2377-1.0073-.2198-1.5276.018-.5202.1282-1.0315.3245-1.5045.1962-.4729.4746-.8984.8192-1.252s.7487-.6284 1.1891-.8087c.4405-.1804.9086-.2626 1.3778-.2422.4691.0205.93.1433 1.3563.3614l14.0644 7.1759c.427.2175.81.5259 1.129.9077.318.3818.566.8295.729 1.3175.163.488.237 1.0063.219 1.5263-.018.52-.128 1.031-.324 1.504z" fill="#3F3D56"/><path d="M107.092 143.121c-.469 0-.934-.103-1.367-.302-.434-.199-.827-.491-1.159-.859-.332-.368-.595-.804-.775-1.285-.179-.481-.272-.996-.272-1.516V121.99c.002-1.05.378-2.056 1.048-2.798s1.578-1.159 2.525-1.159c.947 0 1.855.417 2.525 1.159.67.742 1.047 1.748 1.048 2.798v17.169c0 .52-.093 1.035-.272 1.516-.18.481-.443.917-.775 1.285-.331.368-.725.66-1.159.859-.433.199-.898.302-1.367.302zM149.967 30.8644c.206-.6369.26-1.3221.156-1.9888l-1.944-12.6851-1.945-12.68515c-.105-.68491-.371-1.3271-.77-1.86204-.4-.53494-.92-.943755-1.507-1.185382-.587-.241628-1.222-.307548-1.839-.191123-.618.116425-1.197.411092-1.68.854375l-8.934 8.20997-5.185 4.76455c-3.607-.5875-7.276-.5262-10.866.1817l-5.382-4.94626-8.934-8.20998c-.483-.443282-1.062-.737947-1.6793-.854372-.6176-.116426-1.252-.050514-1.8394.191113-.5873.241628-1.107.650459-1.5068 1.185389-.3997.53494-.6654 1.17713-.7704 1.86204L93.3966 16.1905l-1.9444 12.6851c-.0858.5424-.067 1.0988.0552 1.6325.1222.5337.3451 1.0326.6539 1.4639-3.1579 5.7906-4.8587 12.414-4.9253 19.1808-.0666 6.7669 1.5034 13.4298 4.5466 19.2956 3.0432 5.8657 7.4484 10.7198 12.7574 14.0571 5.308 3.3373 11.327 5.0359 17.428 4.919 6.102-.1169 12.063-2.0451 17.265-5.5838s9.453-8.5586 12.311-14.5374c2.859-5.9788 4.221-12.698 3.943-19.4582-.277-6.7602-2.183-13.3145-5.52-18.9807z" fill="#3F3D56"/><path d="M140.212 6.77279l-10.834 9.95581v.0005c-.239.2194-.421.5047-.529.8272-.108.3224-.137.6706-.085 1.0097.052.339.183.6569.381.9218.198.2648.455.4671.746.5868l13.192 5.427c.291.1197.605.1523.911.0947.306-.0576.592-.2035.831-.423.239-.2194.422-.5047.53-.8272.107-.3225.137-.6708.085-1.0099l-2.358-15.38312c-.05-.33987-.181-.65876-.379-.92391-.199-.26516-.457-.46702-.749-.58482-.198-.08226-.408-.12456-.62-.12489-.41.00085-.807.16128-1.122.45333zM99.621 6.44435c-.2918.1178-.5501.31965-.7483.58481-.1982.26515-.3291.58405-.3794.92392l-2.358 15.38312c-.0519.3391-.0225.6874.0854 1.0099s.2904.6078.5292.8272c.2389.2195.5256.3654.8314.423.3058.0576.6198.025.9106-.0947l13.1921-5.427c.291-.1197.548-.322.746-.5869.198-.2648.33-.5827.382-.9217.051-.3391.022-.6873-.086-1.0097-.108-.3225-.29-.6078-.529-.8272l-10.834-9.95631c-.315-.29205-.711-.45248-1.122-.45333-.211.00033-.4215.04263-.62.12489zM121.383 62.1205c2.631 0 4.764-2.3651 4.764-5.2826 0-2.9175-2.133-5.2826-4.764-5.2826-2.631 0-4.764 2.3651-4.764 5.2826 0 2.9175 2.133 5.2826 4.764 5.2826z" fill="#E6E6E6"/><path d="M121.383 55.5173c1.754 0 3.176-.5913 3.176-1.3207 0-.7293-1.422-1.3206-3.176-1.3206-1.754 0-3.176.5913-3.176 1.3206 0 .7294 1.422 1.3207 3.176 1.3207z" fill="#3F3D56"/><path d="M121.582 68.2836c-.287 0-.571-.0627-.836-.1843-.265-.1217-.506-.3001-.708-.5249-.203-.2248-.364-.4917-.474-.7855-.109-.2938-.166-.6086-.166-.9266v-5.9429h4.367v5.9429c0 .318-.057.6328-.166.9266-.11.2938-.271.5607-.474.7855-.202.2248-.443.4032-.708.5249-.265.1216-.549.1843-.835.1843z" fill="#FF6584"/><path d="M121.118 0c.229.526573.451 1.05884.66 1.60199 2.464 6.37157 3.295 13.37331 2.401 20.23471-.447-.7191-.916-1.4683-1.394-2.2257 1.023-6.5853.448-13.35382-1.667-19.611zM117.545 4.84241c.229.52658.451 1.05884.661 1.60199 2.463 6.3716 3.294 13.3733 2.401 20.2348-.447-.7192-.917-1.4684-1.395-2.2258 1.023-6.5852.448-13.3538-1.667-19.61099z" fill="#3F3D56"/><path d="M106.53 22.8703l.504-7.098.503-7.09805c.027-.38325.145-.75182.341-1.06865.196-.31684.464-.57079.777-.73631.313-.16553.66-.2368 1.005-.20667.346.03014.678.16063.964.37836l5.292 4.03242 3.864 2.9445c.247-.3206.553-.5781.899-.7546.345-.1766.721-.268 1.101-.268s.756.0914 1.101.268c.346.1765.652.434.899.7546l3.864-2.9445 5.292-4.03242c.286-.21773.618-.34822.964-.37836.345-.03013.692.04114 1.005.20667.313.16552.581.41947.777.73631.196.31683.314.6854.341 1.06865l.503 7.09805.504 7.098c.027.3833-.037.7677-.187 1.1147-.149.3469-.378.6442-.664.8619-.285.2178-.618.3482-.963.3784-.346.0301-.692-.0412-1.005-.2067l-5.795-3.0656-4.762-2.519c-.245.2753-.536.4939-.858.6431-.322.1492-.667.226-1.016.226s-.694-.0768-1.016-.226c-.322-.1492-.613-.3678-.858-.6431l-4.762 2.519-5.795 3.0656c-.313.1656-.659.2368-1.005.2067-.345-.0301-.678-.1606-.963-.3783-.286-.2178-.515-.5151-.664-.862-.15-.347-.214-.7314-.187-1.1147z" fill="#9A9EF5"/><path d="M126.544 51.115c0 .7294.533 0 1.191 0 .657 0 1.191.7294 1.191 0-.001-.3498-.127-.685-.35-.9321-.223-.247-.526-.3858-.841-.3858-.316 0-.618.1388-.842.3858-.223.2471-.349.5823-.349.9321zM116.222 51.115c0 .7294-.533 0-1.191 0-.657 0-1.19.7294-1.19 0 0-.3498.126-.685.349-.9321.224-.247.526-.3858.841-.3858.316 0 .618.1388.842.3858.223.2471.349.5823.349.9321z" fill="#E6E6E6"/><path d="M248.35 150.829v-8.395H210.5V226.905h37.85v-8.395h-30.28v-67.681h30.28z" fill="#3F3D56"/><path d="M266.802 142.434v84.471h37.849v-84.471h-37.849zm30.279 76.076h-22.709v-67.681h22.709v67.681zM161.769 218.51v-75.551h-7.57v83.946h37.85v-8.395h-30.28z" fill="#9A9EF5"/><path d="M137.167 150.829v-8.395H99.3173V226.905h37.8497v-8.395h-30.28v-29.905h30.28v-8.395h-30.28v-29.381h30.28z" fill="#3F3D56"/><path d="M433.34 150.829v-8.395h-37.85V226.905h37.85v-8.395h-30.28v-29.905h30.28v-8.395h-30.28v-29.381h30.28z" fill="#9A9EF5"/><path d="M73.7689 142.959v69.38l-19.9594-22.134-.0454.051-.0424-.047-20.4044 22.628v-70.14h-7.57v83.946h7.57v-1.935l20.4504-22.678 20.0012 22.181v2.694h7.57v-83.946h-7.57zM370.415 142.959v1.934l-20.45 22.678-20.002-22.18v-2.694h-7.57v83.946h7.57v-69.38l19.959 22.133.046-.05.042.046 20.405-22.627v70.14h7.57v-83.946h-7.57z" fill="#3F3D56"/><path d="M172.988 91.2466c2.566 0 4.647-2.3069 4.647-5.1526 0-2.8457-2.081-5.1526-4.647-5.1526-2.566 0-4.646 2.3069-4.646 5.1526 0 2.8457 2.08 5.1526 4.646 5.1526zM58.3771 148.498c2.5661 0 4.6464-2.307 4.6464-5.153 0-2.846-2.0803-5.152-4.6464-5.152s-4.6464 2.306-4.6464 5.152 2.0803 5.153 4.6464 5.153zM150.273 263c2.566 0 4.646-2.307 4.646-5.153 0-2.845-2.08-5.152-4.646-5.152-2.567 0-4.647 2.307-4.647 5.152 0 2.846 2.08 5.153 4.647 5.153zM266.949 106.704c2.566 0 4.646-2.307 4.646-5.152 0-2.8459-2.08-5.1528-4.646-5.1528s-4.647 2.3069-4.647 5.1528c0 2.845 2.081 5.152 4.647 5.152zM403.759 258.42c2.567 0 4.647-2.307 4.647-5.153 0-2.845-2.08-5.152-4.647-5.152-2.566 0-4.646 2.307-4.646 5.152 0 2.846 2.08 5.153 4.646 5.153zM408.406 123.307c2.566 0 4.646-2.307 4.646-5.152 0-2.846-2.08-5.153-4.646-5.153s-4.646 2.307-4.646 5.153c0 2.845 2.08 5.152 4.646 5.152zM349.551 216.054c2.567 0 4.647-2.307 4.647-5.153 0-2.845-2.08-5.152-4.647-5.152-2.566 0-4.646 2.307-4.646 5.152 0 2.846 2.08 5.153 4.646 5.153z" fill="#9A9EF5"/></svg>