<svg width="55" height="14" viewBox="0 0 55 14" fill="none" xmlns="http://www.w3.org/2000/svg"><path d="M6.99609 2.46875v5.80078c-.0039.80469-.25781 1.46289-.76171 1.97457-.5.5118-1.17969.7989-2.03907.8614l-.29883.0117c-.93359 0-1.67773-.252-2.23242-.7559-.55468-.50388-.835935-1.19724-.843748-2.08005v-5.8125H1.93359v5.77734c0 .61719.16993 1.09766.50977 1.44141.33984.3398.82422.5098 1.45312.5098.63672 0 1.12305-.17 1.45899-.5098.33984-.33984.50976-.81836.50976-1.43555v-5.7832h1.13086zM12.293 9.31836c0-.29297-.1114-.51953-.334-.67969-.2188-.16406-.6035-.30469-1.1543-.42187-.5469-.11719-.98243-.25782-1.30665-.42188-.32032-.16406-.5586-.35937-.71485-.58594-.15234-.22656-.22851-.49609-.22851-.80859 0-.51953.21875-.95898.65625-1.31836.4414-.35937 1.00386-.53906 1.68746-.53906.7188 0 1.3008.18555 1.7461.55664.4493.37109.6739.8457.6739 1.42383h-1.0899c0-.29688-.1269-.55274-.3808-.76758-.25-.21484-.5665-.32227-.9493-.32227-.3945 0-.7031.08594-.92574.25782-.22266.17187-.33399.39648-.33399.67382 0 .26172.10352.45899.31055.5918.20698.13281.58008.25977 1.11918.38086.5429.12109.9824.26563 1.3183.43359.336.16797.584.3711.7442.60938.164.23437.2461.52148.2461.86133 0 .5664-.2266 1.02151-.6797 1.36521-.4532.3399-1.0411.5098-1.7637.5098-.5078 0-.95704-.0899-1.34766-.2695-.39063-.1797-.69727-.4297-.91992-.75-.21875-.32426-.32813-.67387-.32813-1.04887h1.08399c.01953.36328.16406.65234.43359.86719.27343.21098.63283.31638 1.07813.31638.4102 0 .7383-.082.9844-.24607.25-.16797.375-.39063.375-.66797zm5.1269 1.79884c-.8594 0-1.5586-.2813-2.0976-.8438-.5391-.56637-.8086-1.32223-.8086-2.26754v-.19922c0-.62891.1191-1.18945.3574-1.68164.2422-.49609.5781-.88281 1.0078-1.16016.4336-.28125.9023-.42187 1.4063-.42187.8242 0 1.4648.27148 1.9218.81445.4571.54297.6856 1.32031.6856 2.33203v.45117h-4.2949c.0156.625.1972 1.13086.5449 1.51758.3515.3828.7969.5742 1.3359.5742.3828 0 .707-.0781.9727-.23435.2656-.15625.498-.36328.6972-.6211l.6621.51563c-.5312.81642-1.3281 1.22462-2.3906 1.22462zm-.1347-5.68361c-.4375 0-.8047.16016-1.1016.48047-.2969.31641-.4805.76172-.5508 1.33594h3.1758v-.08203c-.0313-.55078-.1797-.97656-.4453-1.27735-.2656-.30468-.625-.45703-1.0781-.45703zm6.9316.19922c-.1641-.02734-.3418-.04101-.5332-.04101-.7109 0-1.1934.30273-1.4473.9082V11h-1.084V4.66016h1.0547l.0176.73242c.3555-.56641.8594-.84961 1.5117-.84961.211 0 .3711.02734.4805.08203v1.00781zm2.0273-.97265l.0352.79687c.4844-.60937 1.1172-.91406 1.8984-.91406 1.3399 0 2.0157.75586 2.0274 2.26758V11h-1.084V6.80469c-.0039-.45703-.1094-.79492-.3164-1.01367-.2031-.21875-.5215-.32813-.9551-.32813-.3516 0-.6601.09375-.9258.28125-.2656.1875-.4726.43359-.6211.73828V11h-1.0839V4.66016h1.0253zM35.7539 11c-.0625-.125-.1133-.3477-.1523-.668-.5039.5235-1.1055.7852-1.8047.7852-.625 0-1.1387-.1758-1.541-.5274-.3985-.3554-.5977-.80464-.5977-1.34761 0-.66016.25-1.17188.75-1.53516.5039-.36719 1.2109-.55078 2.1211-.55078h1.0547V6.6582c0-.3789-.1133-.67968-.3399-.90234-.2265-.22656-.5605-.33984-1.0019-.33984-.3867 0-.711.09765-.9727.29296-.2617.19532-.3925.43164-.3925.70899h-1.0899c0-.31641.1113-.62109.334-.91406.2266-.29688.5312-.53125.9141-.70313.3867-.17187.8105-.25781 1.2714-.25781.7305 0 1.3028.18359 1.7168.55078.4141.36328.6289.86523.6446 1.50586v2.91797c0 .58202.0742 1.04492.2226 1.38862V11h-1.1367zm-1.7988-.8262c.3398 0 .6621-.0879.9668-.26364.3047-.17578.5254-.4043.6621-.68555V7.92383h-.8496c-1.3282 0-1.9922.38867-1.9922 1.16601 0 .33985.1133.60547.3398.79688.2266.19138.5176.28708.8731.28708zm5.4316-5.51364l.0293.70312c.4649-.54687 1.0918-.82031 1.8809-.82031.8867 0 1.4902.33984 1.8105 1.01953.211-.30469.4844-.55078.8203-.73828.3399-.1875.7403-.28125 1.2012-.28125 1.3906 0 2.0977.73633 2.1211 2.20898V11h-1.084V6.81641c0-.45313-.1035-.79102-.3105-1.01368-.2071-.22656-.5547-.33984-1.043-.33984-.4023 0-.7363.12109-1.002.36328-.2656.23828-.4199.56055-.4628.9668V11h-1.0899V6.8457c0-.92187-.4512-1.38281-1.3535-1.38281-.7109 0-1.1973.30273-1.459.9082V11h-1.084V4.66016h1.0254zm12.1348 6.45704c-.8594 0-1.5586-.2813-2.0977-.8438-.539-.56637-.8086-1.32223-.8086-2.26754v-.19922c0-.62891.1192-1.18945.3575-1.68164.2421-.49609.5781-.88281 1.0078-1.16016.4336-.28125.9023-.42187 1.4062-.42187.8242 0 1.4649.27148 1.9219.81445.457.54297.6855 1.32031.6855 2.33203v.45117h-4.2949c.0156.625.1973 1.13086.5449 1.51758.3516.3828.7969.5742 1.336.5742.3828 0 .707-.0781.9726-.23435.2657-.15625.4981-.36328.6973-.6211l.6621.51563c-.5312.81642-1.3281 1.22462-2.3906 1.22462zm-.1348-5.68361c-.4375 0-.8047.16016-1.1015.48047-.2969.31641-.4805.76172-.5508 1.33594h3.1758v-.08203c-.0313-.55078-.1797-.97656-.4454-1.27735-.2656-.30468-.625-.45703-1.0781-.45703z" fill="#1A7592"/></svg>