<svg width="30" height="14" viewBox="0 0 30 14" fill="none" xmlns="http://www.w3.org/2000/svg"><path d="M7.26562 8.29297c-.10546.90234-.43945 1.59961-1.00195 2.09183-.55859.4882-1.30273.7324-2.23242.7324-1.00781 0-1.81641-.3613-2.42578-1.084C1 9.31055.697266 8.34375.697266 7.13281V6.3125c0-.79297.140625-1.49023.421874-2.0918.28516-.60156.6875-1.0625 1.20703-1.38281.51953-.32422 1.1211-.48633 1.80469-.48633.90625 0 1.63281.25391 2.17969.76172.54687.50391.86523 1.20313.95507 2.09766H6.13477c-.09766-.67969-.31055-1.17188-.63868-1.47656-.32421-.30469-.77929-.45704-1.36523-.45704-.71875 0-1.2832.26563-1.69336.79688-.40625.53125-.60938 1.28711-.60938 2.26758v.82617c0 .92578.19336 1.66211.58008 2.20898.38672.54688.92774.82035 1.62305.82035.625 0 1.10352-.1407 1.43555-.42191.33593-.28516.55859-.7793.66797-1.48242h1.13085zM9.81445 11H8.73047V2h1.08398v9zm5.65435 0c-.0626-.125-.1133-.3477-.1524-.668-.5039.5235-1.1055.7852-1.8047.7852-.625 0-1.1387-.1758-1.541-.5274-.3984-.3554-.5977-.80464-.5977-1.34761 0-.66016.25-1.17188.75-1.53516.504-.36719 1.211-.55078 2.1211-.55078h1.0547V6.6582c0-.3789-.1133-.67968-.3398-.90234-.2266-.22656-.5606-.33984-1.002-.33984-.3867 0-.7109.09765-.9726.29296-.2617.19532-.3926.43164-.3926.70899H11.502c0-.31641.1113-.62109.3339-.91406.2266-.29688.5313-.53125.9141-.70313.3867-.17187.8105-.25781 1.2715-.25781.7305 0 1.3027.18359 1.7168.55078.414.36328.6289.86523.6445 1.50586v2.91797c0 .58202.0742 1.04492.2227 1.38862V11h-1.1367zm-1.7989-.8262c.3399 0 .6621-.0879.9668-.26364.3047-.17578.5254-.4043.6621-.68555V7.92383h-.8496c-1.3281 0-1.9922.38867-1.9922 1.16601 0 .33985.1133.60547.3399.79688.2265.19138.5176.28708.873.28708zm8.1035-.85544c0-.29297-.1113-.51953-.3339-.67969-.2188-.16406-.6036-.30469-1.1543-.42187-.5469-.11719-.9825-.25782-1.3067-.42188-.3203-.16406-.5586-.35937-.7148-.58594-.1524-.22656-.2285-.49609-.2285-.80859 0-.51953.2187-.95898.6562-1.31836.4414-.35937 1.0039-.53906 1.6875-.53906.7188 0 1.3008.18555 1.7461.55664.4492.37109.6738.8457.6738 1.42383H21.709c0-.29688-.127-.55274-.3809-.76758-.25-.21484-.5664-.32227-.9492-.32227-.3945 0-.7031.08594-.9258.25782-.2226.17187-.334.39648-.334.67382 0 .26172.1036.45899.3106.5918.207.13281.5801.25977 1.1191.38086.543.12109.9824.26563 1.3184.43359.3359.16797.584.3711.7441.60938.1641.23437.2461.52148.2461.86133 0 .5664-.2265 1.02151-.6797 1.36521-.4531.3399-1.041.5098-1.7636.5098-.5079 0-.9571-.0899-1.3477-.2695-.3906-.1797-.6973-.4297-.9199-.75-.2188-.32426-.3281-.67387-.3281-1.04887h1.0839c.0196.36328.1641.65234.4336.86719.2735.21098.6329.31638 1.0782.31638.4101 0 .7382-.082.9843-.24607.25-.16797.375-.39063.375-.66797zm6.1875 0c0-.29297-.1113-.51953-.3339-.67969-.2188-.16406-.6036-.30469-1.1543-.42187-.5469-.11719-.9825-.25782-1.3067-.42188-.3203-.16406-.5586-.35937-.7148-.58594-.1524-.22656-.2285-.49609-.2285-.80859 0-.51953.2187-.95898.6562-1.31836.4414-.35937 1.0039-.53906 1.6875-.53906.7188 0 1.3008.18555 1.7461.55664.4492.37109.6738.8457.6738 1.42383h-1.0898c0-.29688-.127-.55274-.3809-.76758-.25-.21484-.5664-.32227-.9492-.32227-.3945 0-.7031.08594-.9258.25782-.2226.17187-.334.39648-.334.67382 0 .26172.1036.45899.3106.5918.207.13281.5801.25977 1.1191.38086.543.12109.9825.26563 1.3184.43359.3359.16797.584.3711.7441.60938.1641.23437.2461.52148.2461.86133 0 .5664-.2265 1.02151-.6797 1.36521-.4531.3399-1.041.5098-1.7636.5098-.5078 0-.9571-.0899-1.3477-.2695-.3906-.1797-.6973-.4297-.9199-.75-.2188-.32426-.3281-.67387-.3281-1.04887h1.0839c.0196.36328.1641.65234.4336.86719.2735.21098.6328.31638 1.0782.31638.4101 0 .7382-.082.9843-.24607.25-.16797.375-.39063.375-.66797z" fill="#1A7592"/></svg>