<svg width="59" height="14" viewBox="0 0 59 14" fill="none" xmlns="http://www.w3.org/2000/svg"><path d="M5.69531 7.23242H2.11523V11H.990234V2.46875H6.27539v.92578H2.11523V6.3125h3.58008v.91992zM8.63086 11H7.54688V4.66016h1.08398V11zM7.45898 2.97852c0-.17579.05274-.32422.15821-.44532.10937-.12109.26953-.18164.48047-.18164.21093 0 .37109.06055.48046.18164.10938.1211.16407.26953.16407.44532 0 .17578-.05469.32226-.16407.43945-.10937.11719-.26953.17578-.48046.17578-.21094 0-.3711-.05859-.48047-.17578-.10547-.11719-.15821-.26367-.15821-.43945zm5.97652 2.65429c-.164-.02734-.3417-.04101-.5332-.04101-.7109 0-1.1933.30273-1.4472.9082V11h-1.084V4.66016h1.0547l.0176.73242c.3554-.56641.8593-.84961 1.5117-.84961.2109 0 .3711.02734.4804.08203v1.00781zm4.6934 3.68555c0-.29297-.1113-.51953-.334-.67969-.2187-.16406-.6035-.30469-1.1543-.42187-.5468-.11719-.9824-.25782-1.3066-.42188-.3203-.16406-.5586-.35937-.7149-.58594-.1523-.22656-.2285-.49609-.2285-.80859 0-.51953.2188-.95898.6563-1.31836.4414-.35937 1.0039-.53906 1.6875-.53906.7187 0 1.3008.18555 1.7461.55664.4492.37109.6738.8457.6738 1.42383h-1.0898c0-.29688-.127-.55274-.3809-.76758-.25-.21484-.5664-.32227-.9492-.32227-.3946 0-.7032.08594-.9258.25782-.2227.17187-.334.39648-.334.67382 0 .26172.1035.45899.3106.5918.207.13281.58.25977 1.1191.38086.543.12109.9824.26563 1.3184.43359.3359.16797.5839.3711.7441.60938.1641.23437.2461.52148.2461.86133 0 .5664-.2266 1.02151-.6797 1.36521-.4531.3399-1.041.5098-1.7637.5098-.5078 0-.957-.0899-1.3476-.2695-.3907-.1797-.6973-.4297-.9199-.75-.2188-.32426-.3282-.67387-.3282-1.04887h1.084c.0195.36328.1641.65234.4336.86719.2734.21098.6328.31638 1.0781.31638.4102 0 .7383-.082.9844-.24607.25-.16797.375-.39063.375-.66797zM22.0957 3.125v1.53516h1.1836v.83789h-1.1836v3.93164c0 .2539.0527.44531.1582.57421.1055.125.2852.1875.5391.1875.125 0 .2968-.0234.5156-.0703V11c-.2852.0781-.5625.1172-.832.1172-.4844 0-.8496-.1465-1.0957-.4395-.2461-.2929-.3692-.70895-.3692-1.24801V5.49805h-1.1543v-.83789h1.1543V3.125h1.084zM34.2539 11H33.123l-4.2949-6.57422V11h-1.1308V2.46875h1.1308l4.3067 6.60352V2.46875h1.1191V11zm5.7422 0c-.0625-.125-.1133-.3477-.1523-.668-.504.5235-1.1055.7852-1.8047.7852-.625 0-1.1387-.1758-1.5411-.5274-.3984-.3554-.5976-.80464-.5976-1.34761 0-.66016.25-1.17188.75-1.53516.5039-.36719 1.2109-.55078 2.1211-.55078h1.0547V6.6582c0-.3789-.1133-.67968-.3399-.90234-.2265-.22656-.5605-.33984-1.0019-.33984-.3867 0-.711.09765-.9727.29296-.2617.19532-.3926.43164-.3926.70899h-1.0898c0-.31641.1113-.62109.334-.91406.2265-.29688.5312-.53125.914-.70313.3868-.17187.8106-.25781 1.2715-.25781.7305 0 1.3028.18359 1.7168.55078.4141.36328.6289.86523.6446 1.50586v2.91797c0 .58202.0742 1.04492.2226 1.38862V11h-1.1367zm-1.7988-.8262c.3398 0 .6621-.0879.9668-.26364.3047-.17578.5254-.4043.6621-.68555V7.92383h-.8496c-1.3282 0-1.9922.38867-1.9922 1.16601 0 .33985.1133.60547.3398.79688.2266.19138.5176.28708.8731.28708zm5.4316-5.51364l.0293.70312c.4648-.54687 1.0918-.82031 1.8809-.82031.8867 0 1.4902.33984 1.8105 1.01953.2109-.30469.4844-.55078.8203-.73828.3399-.1875.7403-.28125 1.2012-.28125 1.3906 0 2.0977.73633 2.1211 2.20898V11h-1.084V6.81641c0-.45313-.1035-.79102-.3105-1.01368-.2071-.22656-.5547-.33984-1.043-.33984-.4024 0-.7363.12109-1.002.36328-.2656.23828-.4199.56055-.4629.9668V11H46.5V6.8457c0-.92187-.4512-1.38281-1.3535-1.38281-.711 0-1.1973.30273-1.459.9082V11h-1.084V4.66016h1.0254zm12.1348 6.45704c-.8594 0-1.5586-.2813-2.0977-.8438-.539-.56637-.8086-1.32223-.8086-2.26754v-.19922c0-.62891.1192-1.18945.3574-1.68164.2422-.49609.5782-.88281 1.0079-1.16016.4335-.28125.9023-.42187 1.4062-.42187.8242 0 1.4649.27148 1.9219.81445.457.54297.6855 1.32031.6855 2.33203v.45117h-4.2949c.0156.625.1973 1.13086.5449 1.51758.3516.3828.7969.5742 1.336.5742.3828 0 .707-.0781.9726-.23435.2656-.15625.4981-.36328.6973-.6211l.6621.51563c-.5313.81642-1.3281 1.22462-2.3906 1.22462zm-.1348-5.68361c-.4375 0-.8047.16016-1.1016.48047-.2968.31641-.4804.76172-.5507 1.33594h3.1757v-.08203c-.0312-.55078-.1796-.97656-.4453-1.27735-.2656-.30468-.625-.45703-1.0781-.45703z" fill="#1A7592"/></svg>