<svg width="57" height="14" viewBox="0 0 57 14" fill="none" xmlns="http://www.w3.org/2000/svg"><path d="M2.19727 11h-1.125V2.46875h1.125V11zm2.0625 0V2.46875h2.4082c.74219 0 1.39844.16406 1.96875.49219.57031.32812 1.00976.79492 1.31836 1.40039.31252.60547.47072 1.30078.47462 2.08594v.54492c0 .80469-.1563 1.50976-.46876 2.11523-.3086.60547-.75196 1.07028-1.33008 1.39458-.57422.3242-1.24414.4902-2.00977.498H4.25977zm1.125-7.60547v6.68557h1.18359c.86719 0 1.54102-.26955 2.02148-.80862.48438-.53906.72657-1.30664.72657-2.30273V6.4707c0-.96875-.22852-1.7207-.68555-2.25586-.45313-.53906-1.09766-.8125-1.93359-.82031h-1.3125zM21.668 11h-1.1309l-4.2949-6.57422V11h-1.1309V2.46875h1.1309l4.3066 6.60352V2.46875h1.1192V11zm5.7422-.627c-.4219.4961-1.0411.7442-1.8575.7442-.6757 0-1.1914-.1953-1.5468-.586-.3516-.3945-.5293-.97651-.5332-1.74604v-4.125h1.0839v4.0957c0 .96094.3907 1.44144 1.1719 1.44144.8281 0 1.3789-.30863 1.6524-.92582V4.66016h1.0839V11h-1.0312l-.0234-.627zm3.7265-5.71284l.0293.70312c.4649-.54687 1.0918-.82031 1.8809-.82031.8867 0 1.4902.33984 1.8105 1.01953.211-.30469.4844-.55078.8203-.73828.3399-.1875.7403-.28125 1.2012-.28125 1.3906 0 2.0977.73633 2.1211 2.20898V11h-1.084V6.81641c0-.45313-.1035-.79102-.3105-1.01368-.2071-.22656-.5547-.33984-1.043-.33984-.4023 0-.7363.12109-1.002.36328-.2656.23828-.4199.56055-.4628.9668V11h-1.0899V6.8457c0-.92187-.4512-1.38281-1.3535-1.38281-.7109 0-1.1973.30273-1.459.9082V11h-1.084V4.66016h1.0254zm14.8711 3.24023c0 .96875-.2226 1.74805-.668 2.33791-.4453.5859-1.0429.8789-1.7929.8789-.8008 0-1.4199-.2832-1.8574-.8496L41.6367 11h-.9961V2h1.084v3.35742c.4375-.54297 1.041-.81445 1.8106-.81445.7695 0 1.373.29101 1.8105.87305.4414.58203.6621 1.3789.6621 2.39062v.09375zm-1.084-.12305c0-.73828-.1426-1.30859-.4277-1.71093-.2852-.40235-.6953-.60352-1.2305-.60352-.7148 0-1.2285.33203-1.541.99609v2.74219c.332.66406.8496.99613 1.5527.99613.5196 0 .9239-.20121 1.2129-.60355.2891-.40234.4336-1.00781.4336-1.81641zm5.086 3.33986c-.8594 0-1.5586-.2813-2.0977-.8438-.5391-.56637-.8086-1.32223-.8086-2.26754v-.19922c0-.62891.1192-1.18945.3574-1.68164.2422-.49609.5782-.88281 1.0079-1.16016.4335-.28125.9023-.42187 1.4062-.42187.8242 0 1.4648.27148 1.9219.81445.457.54297.6855 1.32031.6855 2.33203v.45117h-4.2949c.0156.625.1973 1.13086.5449 1.51758.3516.3828.7969.5742 1.336.5742.3828 0 .707-.0781.9726-.23435.2656-.15625.4981-.36328.6973-.6211l.6621.51563c-.5313.81642-1.3281 1.22462-2.3906 1.22462zm-.1348-5.68361c-.4375 0-.8047.16016-1.1016.48047-.2968.31641-.4804.76172-.5507 1.33594h3.1757v-.08203c-.0312-.55078-.1796-.97656-.4453-1.27735-.2656-.30468-.625-.45703-1.0781-.45703zm6.9316.19922c-.164-.02734-.3418-.04101-.5332-.04101-.7109 0-1.1933.30273-1.4472.9082V11h-1.084V4.66016h1.0547l.0176.73242c.3554-.56641.8593-.84961 1.5117-.84961.2109 0 .3711.02734.4804.08203v1.00781z" fill="#1A7592"/></svg>