<svg width="72" height="25" viewBox="0 0 72 25" fill="none" xmlns="http://www.w3.org/2000/svg"><path d="M5.796 20.126c-1.476 0-2.688-.348-3.636-1.044-.948-.708-1.458-1.716-1.53-3.024h3.762c.036.444.168.768.396.972.228.204.522.306.882.306.324 0 .588-.078.792-.234.216-.168.324-.396.324-.684 0-.372-.174-.66-.522-.864-.348-.204-.912-.432-1.692-.684-.828-.276-1.5-.54-2.016-.792-.504-.264-.948-.642-1.332-1.134-.372-.504-.558-1.158-.558-1.962 0-.816.204-1.512.612-2.088.408-.588.972-1.032 1.692-1.332.72-.3 1.536-.45 2.448-.45 1.476 0 2.652.348 3.528 1.044.888.684 1.362 1.65 1.422 2.898H6.534c-.012-.384-.132-.672-.36-.864-.216-.192-.498-.288-.846-.288-.264 0-.48.078-.648.234-.168.156-.252.378-.252.666 0 .24.09.45.27.63.192.168.426.318.702.45.276.12.684.276 1.224.468.804.276 1.464.552 1.98.828.528.264.978.642 1.35 1.134.384.48.576 1.092.576 1.836 0 .756-.192 1.434-.576 2.034-.372.6-.918 1.074-1.638 1.422-.708.348-1.548.522-2.52.522zm8.1561-11.16c-.624 0-1.128-.168-1.512-.504-.372-.348-.558-.78-.558-1.296 0-.528.186-.966.558-1.314.384-.348.888-.522 1.512-.522.612 0 1.104.174 1.476.522.384.348.576.786.576 1.314 0 .516-.192.948-.576 1.296-.372.336-.864.504-1.476.504zm1.746.936V20h-3.528V9.902h3.528zm5.7351-.126c.684 0 1.278.138 1.782.414.516.276.912.648 1.188 1.116V9.902h3.528v9.99c0 .948-.18 1.8-.54 2.556-.36.768-.924 1.38-1.692 1.836-.756.456-1.716.684-2.88.684-1.56 0-2.808-.366-3.744-1.098-.936-.732-1.47-1.728-1.602-2.988h3.474c.072.324.252.576.54.756.288.18.66.27 1.116.27 1.2 0 1.8-.672 1.8-2.016v-1.296c-.276.468-.672.84-1.188 1.116-.504.276-1.098.414-1.782.414-.804 0-1.536-.21-2.196-.63-.648-.42-1.164-1.02-1.548-1.8-.372-.792-.558-1.71-.558-2.754s.186-1.956.558-2.736c.384-.78.9-1.38 1.548-1.8.66-.42 1.392-.63 2.196-.63zm2.97 5.166c0-.648-.18-1.158-.54-1.53-.348-.372-.78-.558-1.296-.558-.528 0-.966.186-1.314.558-.348.36-.522.87-.522 1.53 0 .648.174 1.164.522 1.548.348.372.786.558 1.314.558.516 0 .948-.186 1.296-.558.36-.372.54-.888.54-1.548zm12.1444-5.13c1.164 0 2.088.39 2.772 1.17.684.768 1.026 1.812 1.026 3.132V20h-3.528v-5.418c0-.576-.15-1.026-.45-1.35-.3-.336-.702-.504-1.206-.504-.528 0-.942.168-1.242.504-.3.324-.45.774-.45 1.35V20h-3.528V9.902h3.528v1.44c.312-.456.732-.822 1.26-1.098.528-.288 1.134-.432 1.818-.432zM49.1828 7.31v7.362c0 .684.156 1.212.468 1.584.324.372.81.558 1.458.558.648 0 1.134-.186 1.458-.558.336-.384.504-.912.504-1.584V7.31h3.528v7.362c0 1.164-.246 2.16-.738 2.988-.492.816-1.164 1.434-2.016 1.854-.84.408-1.776.612-2.808.612-1.032 0-1.956-.204-2.772-.612-.804-.42-1.44-1.038-1.908-1.854-.456-.816-.684-1.812-.684-2.988V7.31h3.51zm12.8864 3.996c.276-.468.666-.84 1.17-1.116.504-.276 1.098-.414 1.782-.414.804 0 1.53.21 2.178.63.66.42 1.176 1.02 1.548 1.8.384.78.576 1.692.576 2.736 0 1.044-.192 1.962-.576 2.754-.372.78-.888 1.38-1.548 1.8-.648.42-1.374.63-2.178.63-.684 0-1.278-.138-1.782-.414-.492-.276-.882-.648-1.17-1.116v6.228h-3.528V9.902h3.528v1.404zm3.672 3.636c0-.66-.18-1.17-.54-1.53-.348-.372-.78-.558-1.296-.558s-.954.186-1.314.558c-.348.372-.522.882-.522 1.53 0 .66.174 1.176.522 1.548.36.372.798.558 1.314.558s.948-.186 1.296-.558c.36-.384.54-.9.54-1.548z" fill="#1C7895"/></svg>