<svg width="243" height="24" viewBox="0 0 243 24" fill="none" xmlns="http://www.w3.org/2000/svg"><path d="M4.864 18.112c-.74667 0-1.41867-.128-2.016-.384-.59733-.2667-1.06667-.64-1.408-1.12-.34133-.48-.512-1.04-.512-1.68H2.88c.04267.48.22933.8747.56 1.184.34133.3093.816.464 1.424.464.62933 0 1.12-.1493 1.472-.448.352-.3093.528-.704.528-1.184 0-.3733-.112-.6773-.336-.912-.21333-.2347-.48533-.416-.816-.544-.32-.128-.768-.2667-1.344-.416-.72533-.192-1.31733-.384-1.776-.576-.448-.2027-.832-.512-1.152-.928-.32-.416-.48-.9707-.48-1.664 0-.64.16-1.2.48-1.68.32-.48.768-.848 1.344-1.104.576-.256 1.24267-.384 2-.384 1.07733 0 1.95733.272 2.64.816.69333.53333 1.07733 1.26933 1.152 2.208H6.56c-.032-.40533-.224-.752-.576-1.04-.352-.288-.816-.432-1.392-.432-.52267 0-.94933.13333-1.28.4s-.496.65067-.496 1.152c0 .3413.10133.624.304.848.21333.2133.48.384.8.512.32.128.75733.2667 1.312.416.736.2027 1.33333.4053 1.792.608.46933.2027.864.5173 1.184.944.33067.416.496.976.496 1.68 0 .5653-.15467 1.0987-.464 1.6-.29867.5013-.74133.9067-1.328 1.216-.576.2987-1.25867.448-2.048.448zm6.9203-10.096c-.3307 0-.608-.112-.832-.336-.224-.224-.336-.50133-.336-.832 0-.33067.112-.608.336-.832.224-.224.5013-.336.832-.336.32 0 .592.112.816.336.224.224.336.50133.336.832 0 .33067-.112.608-.336.832-.224.224-.496.336-.816.336zm.896 1.168V18h-1.824V9.184h1.824zm5.9467-.144c.6827 0 1.2853.13867 1.808.416.5333.26667.9493.6027 1.248 1.008v-1.28h1.84v8.96c0 .8107-.1707 1.5307-.512 2.16-.3413.64-.8373 1.1413-1.488 1.504-.64.3627-1.408.544-2.304.544-1.1947 0-2.1867-.2827-2.976-.848-.7893-.5547-1.2373-1.312-1.344-2.272h1.808c.1387.4587.432.8267.88 1.104.4587.288 1.0027.432 1.632.432.736 0 1.328-.224 1.776-.672.4587-.448.688-1.0987.688-1.952v-1.472c-.3093.416-.7307.768-1.264 1.056-.5227.2773-1.12.416-1.792.416-.768 0-1.472-.192-2.112-.576-.6293-.3947-1.1307-.9387-1.504-1.632-.3627-.704-.544-1.4987-.544-2.384s.1813-1.6693.544-2.352c.3733-.6827.8747-1.21067 1.504-1.584.64-.384 1.344-.576 2.112-.576zm3.056 4.544c0-.608-.128-1.136-.384-1.584-.2453-.448-.5707-.7893-.976-1.024-.4053-.2347-.8427-.352-1.312-.352-.4693 0-.9067.1173-1.312.352-.4053.224-.736.56-.992 1.008-.2453.4373-.368.96-.368 1.568 0 .608.1227 1.1413.368 1.6.256.4587.5867.8107.992 1.056.416.2347.8533.352 1.312.352.4693 0 .9067-.1173 1.312-.352.4053-.2347.7307-.576.976-1.024.256-.4587.384-.992.384-1.6zm8.6838-4.544c.6933 0 1.312.144 1.856.432.5546.288.9866.7147 1.296 1.28.3093.5653.464 1.248.464 2.048V18h-1.808v-4.928c0-.7893-.1974-1.392-.592-1.808-.3947-.4267-.9334-.64-1.616-.64-.6827 0-1.2267.2133-1.632.64-.3947.416-.592 1.0187-.592 1.808V18h-1.824V9.184h1.824v1.008c.2986-.36267.6773-.64533 1.136-.848.4693-.20267.9653-.304 1.488-.304zm11.9068-2.16v7.088c0 .8427.2187 1.4773.656 1.904.448.4267 1.0667.64 1.856.64.8 0 1.4187-.2133 1.856-.64.448-.4267.672-1.0613.672-1.904V6.88h1.824v7.056c0 .9067-.1973 1.6747-.592 2.304-.3946.6293-.9226 1.0987-1.584 1.408-.6613.3093-1.392.464-2.192.464-.8 0-1.5306-.1547-2.192-.464-.6506-.3093-1.168-.7787-1.552-1.408-.384-.6293-.576-1.3973-.576-2.304V6.88h1.824zm11.0629 3.6c.3093-.4053.7307-.74667 1.264-1.024.5333-.27733 1.136-.416 1.808-.416.768 0 1.4667.192 2.096.576.64.37333 1.1413.9013 1.504 1.584.3627.6827.544 1.4667.544 2.352s-.1813 1.68-.544 2.384c-.3627.6933-.864 1.2373-1.504 1.632-.6293.384-1.328.576-2.096.576-.672 0-1.2693-.1333-1.792-.4-.5227-.2773-.9493-.6187-1.28-1.024v5.472h-1.824V9.184h1.824v1.296zm5.36 3.072c0-.608-.128-1.1307-.384-1.568-.2453-.448-.576-.784-.992-1.008-.4053-.2347-.8427-.352-1.312-.352-.4587 0-.896.1173-1.312.352-.4053.2347-.736.576-.992 1.024-.2453.448-.368.976-.368 1.584 0 .608.1227 1.1413.368 1.6.256.448.5867.7893.992 1.024.416.2347.8533.352 1.312.352.4693 0 .9067-.1173 1.312-.352.416-.2453.7467-.5973.992-1.056.256-.4587.384-.992.384-1.6zm9.944-2.88v4.88c0 .3307.0747.5707.224.72.16.1387.4267.208.8.208h1.12V18h-1.44c-.8213 0-1.4507-.192-1.888-.576-.4373-.384-.656-1.008-.656-1.872v-4.88h-1.04V9.184h1.04V6.992h1.84v2.192h2.144v1.488h-2.144zm7.6491 7.472c-.832 0-1.584-.1867-2.256-.56-.672-.384-1.2-.9173-1.584-1.6-.384-.6933-.576-1.4933-.576-2.4 0-.896.1974-1.6907.592-2.384.3947-.6933.9334-1.22667 1.616-1.6.6827-.37333 1.4454-.56 2.288-.56.8427 0 1.6054.18667 2.288.56.6827.37333 1.2214.9067 1.616 1.6.3947.6933.592 1.488.592 2.384 0 .896-.2026 1.6907-.608 2.384-.4053.6933-.96 1.232-1.664 1.616-.6933.3733-1.4613.56-2.304.56zm0-1.584c.4694 0 .9067-.112 1.312-.336.416-.224.752-.56 1.008-1.008.256-.448.384-.992.384-1.632 0-.64-.1226-1.1787-.368-1.616-.2453-.448-.5706-.784-.976-1.008-.4053-.224-.8426-.336-1.312-.336-.4693 0-.9066.112-1.312.336-.3946.224-.7093.56-.944 1.008-.2346.4373-.352.976-.352 1.616 0 .9493.24 1.6853.72 2.208.4907.512 1.104.768 1.84.768zM88.633 6.88v7.088c0 .8427.2187 1.4773.656 1.904.448.4267 1.0667.64 1.856.64.8 0 1.4187-.2133 1.856-.64.448-.4267.672-1.0613.672-1.904V6.88h1.824v7.056c0 .9067-.1973 1.6747-.592 2.304-.3947.6293-.9227 1.0987-1.584 1.408-.6613.3093-1.392.464-2.192.464-.8 0-1.5307-.1547-2.192-.464-.6507-.3093-1.168-.7787-1.552-1.408-.384-.6293-.576-1.3973-.576-2.304V6.88h1.824zm12.439 11.264c-.693 0-1.3175-.1227-1.8721-.368-.544-.256-.976-.5973-1.296-1.024-.32-.4373-.4907-.9227-.512-1.456h1.888c.032.3733.208.688.528.944.3311.2453.7411.368 1.2321.368.512 0 .907-.096 1.184-.288.288-.2027.432-.4587.432-.768 0-.3307-.16-.576-.48-.736-.309-.16-.805-.336-1.488-.528-.661-.1813-1.2001-.3573-1.6161-.528-.416-.1707-.7787-.432-1.088-.784-.2987-.352-.448-.816-.448-1.392 0-.4693.1386-.896.416-1.28.2773-.39467.672-.704 1.184-.928.5226-.224 1.1201-.336 1.7921-.336 1.003 0 1.808.256 2.416.768.619.5013.949 1.1893.992 2.064h-1.824c-.032-.3947-.192-.7093-.48-.944-.288-.2347-.677-.352-1.168-.352-.48 0-.848.0907-1.1041.272-.256.1813-.384.4213-.384.72 0 .2347.0853.432.256.592.1706.16.3791.288.6241.384.245.0853.608.1973 1.088.336.64.1707 1.163.3467 1.568.528.416.1707.773.4267 1.072.768.299.3413.453.7947.464 1.36 0 .5013-.139.9493-.416 1.344-.277.3947-.672.704-1.184.928-.501.224-1.093.336-1.776.336zm13.427-4.768c0 .3307-.022.6293-.064.896h-6.736c.053.704.314 1.2693.784 1.696.469.4267 1.045.64 1.728.64.981 0 1.674-.4107 2.08-1.232h1.968c-.267.8107-.752 1.4773-1.456 2-.694.512-1.558.768-2.592.768-.843 0-1.6-.1867-2.272-.56-.662-.384-1.184-.9173-1.568-1.6-.374-.6933-.56-1.4933-.56-2.4 0-.9067.181-1.7013.544-2.384.373-.6933.89-1.22667 1.552-1.6.672-.37333 1.44-.56 2.304-.56.832 0 1.573.18133 2.224.544.65.36267 1.157.8747 1.52 1.536.362.6507.544 1.4027.544 2.256zm-1.904-.576c-.011-.672-.251-1.2107-.72-1.616-.47-.4053-1.051-.608-1.744-.608-.63 0-1.168.2027-1.616.608-.448.3947-.715.9333-.8 1.616h4.88zm11.679 5.344c-.832 0-1.584-.1867-2.256-.56-.672-.384-1.2-.9173-1.584-1.6-.384-.6933-.576-1.4933-.576-2.4 0-.896.197-1.6907.592-2.384.395-.6933.933-1.22667 1.616-1.6.683-.37333 1.445-.56 2.288-.56.843 0 1.605.18667 2.288.56.683.37333 1.221.9067 1.616 1.6.395.6933.592 1.488.592 2.384 0 .896-.203 1.6907-.608 2.384-.405.6933-.96 1.232-1.664 1.616-.693.3733-1.461.56-2.304.56zm0-1.584c.469 0 .907-.112 1.312-.336.416-.224.752-.56 1.008-1.008.256-.448.384-.992.384-1.632 0-.64-.123-1.1787-.368-1.616-.245-.448-.571-.784-.976-1.008-.405-.224-.843-.336-1.312-.336-.469 0-.907.112-1.312.336-.395.224-.709.56-.944 1.008-.235.4373-.352.976-.352 1.616 0 .9493.24 1.6853.72 2.208.491.512 1.104.768 1.84.768zm14.363-7.376V18h-1.824v-1.04c-.288.3627-.667.6507-1.136.864-.459.2027-.949.304-1.472.304-.693 0-1.317-.144-1.872-.432-.544-.288-.976-.7147-1.296-1.28-.309-.5653-.464-1.248-.464-2.048V9.184h1.808v4.912c0 .7893.197 1.3973.592 1.824.395.416.933.624 1.616.624s1.221-.208 1.616-.624c.405-.4267.608-1.0347.608-1.824V9.184h1.824zm4.231 1.28c.266-.448.618-.79467 1.056-1.04.448-.256.976-.384 1.584-.384v1.888h-.464c-.715 0-1.259.1813-1.632.544-.363.3627-.544.992-.544 1.888V18h-1.824V9.184h1.824v1.28zm7.865 3.088c0-.8853.181-1.6693.544-2.352.373-.6827.874-1.21067 1.504-1.584.64-.384 1.344-.576 2.112-.576.693 0 1.296.13867 1.808.416.522.26667.938.6027 1.248 1.008v-1.28h1.84V18h-1.84v-1.312c-.31.416-.731.7627-1.264 1.04-.534.2773-1.142.416-1.824.416-.758 0-1.451-.192-2.08-.576-.63-.3947-1.131-.9387-1.504-1.632-.363-.704-.544-1.4987-.544-2.384zm7.216.032c0-.608-.128-1.136-.384-1.584-.246-.448-.571-.7893-.976-1.024-.406-.2347-.843-.352-1.312-.352-.47 0-.907.1173-1.312.352-.406.224-.736.56-.992 1.008-.246.4373-.368.96-.368 1.568 0 .608.122 1.1413.368 1.6.256.4587.586.8107.992 1.056.416.2347.853.352 1.312.352.469 0 .906-.1173 1.312-.352.405-.2347.73-.576.976-1.024.256-.4587.384-.992.384-1.6zm6.059-3.104c.31-.4053.731-.74667 1.264-1.024.534-.27733 1.136-.416 1.808-.416.768 0 1.467.192 2.096.576.64.37333 1.142.9013 1.504 1.584.363.6827.544 1.4667.544 2.352s-.181 1.68-.544 2.384c-.362.6933-.864 1.2373-1.504 1.632-.629.384-1.328.576-2.096.576-.672 0-1.269-.1333-1.792-.4-.522-.2773-.949-.6187-1.28-1.024v5.472h-1.824V9.184h1.824v1.296zm5.36 3.072c0-.608-.128-1.1307-.384-1.568-.245-.448-.576-.784-.992-1.008-.405-.2347-.842-.352-1.312-.352-.458 0-.896.1173-1.312.352-.405.2347-.736.576-.992 1.024-.245.448-.368.976-.368 1.584 0 .608.123 1.1413.368 1.6.256.448.587.7893.992 1.024.416.2347.854.352 1.312.352.47 0 .907-.1173 1.312-.352.416-.2453.747-.5973.992-1.056.256-.4587.384-.992.384-1.6zm5.484-3.072c.309-.4053.731-.74667 1.264-1.024.533-.27733 1.136-.416 1.808-.416.768 0 1.467.192 2.096.576.64.37333 1.141.9013 1.504 1.584.363.6827.544 1.4667.544 2.352s-.181 1.68-.544 2.384c-.363.6933-.864 1.2373-1.504 1.632-.629.384-1.328.576-2.096.576-.672 0-1.269-.1333-1.792-.4-.523-.2773-.949-.6187-1.28-1.024v5.472h-1.824V9.184h1.824v1.296zm5.36 3.072c0-.608-.128-1.1307-.384-1.568-.245-.448-.576-.784-.992-1.008-.405-.2347-.843-.352-1.312-.352-.459 0-.896.1173-1.312.352-.405.2347-.736.576-.992 1.024-.245.448-.368.976-.368 1.584 0 .608.123 1.1413.368 1.6.256.448.587.7893.992 1.024.416.2347.853.352 1.312.352.469 0 .907-.1173 1.312-.352.416-.2453.747-.5973.992-1.056.256-.4587.384-.992.384-1.6zm5.484-7.392V18h-1.824V6.16h1.824zm3.323 1.856c-.331 0-.608-.112-.832-.336-.224-.224-.336-.50133-.336-.832 0-.33067.112-.608.336-.832.224-.224.501-.336.832-.336.32 0 .592.112.816.336.224.224.336.50133.336.832 0 .33067-.112.608-.336.832-.224.224-.496.336-.816.336zm.896 1.168V18h-1.824V9.184h1.824zm1.786 4.4c0-.9067.182-1.7013.544-2.384.374-.6933.886-1.22667 1.536-1.6.651-.37333 1.398-.56 2.24-.56 1.067 0 1.947.256 2.64.768.704.5013 1.179 1.2213 1.424 2.16h-1.968c-.16-.4373-.416-.7787-.768-1.024-.352-.2453-.794-.368-1.328-.368-.746 0-1.344.2667-1.792.8-.437.5227-.656 1.2587-.656 2.208 0 .9493.219 1.6907.656 2.224.448.5333 1.046.8 1.792.8 1.056 0 1.755-.464 2.096-1.392h1.968c-.256.896-.736 1.6107-1.44 2.144-.704.5227-1.578.784-2.624.784-.842 0-1.589-.1867-2.24-.56-.65-.384-1.162-.9173-1.536-1.6-.362-.6933-.544-1.4933-.544-2.4zm9.594-.032c0-.8853.181-1.6693.544-2.352.373-.6827.875-1.21067 1.504-1.584.64-.384 1.344-.576 2.112-.576.693 0 1.296.13867 1.808.416.523.26667.939.6027 1.248 1.008v-1.28h1.84V18h-1.84v-1.312c-.309.416-.731.7627-1.264 1.04s-1.141.416-1.824.416c-.757 0-1.451-.192-2.08-.576-.629-.3947-1.131-.9387-1.504-1.632-.363-.704-.544-1.4987-.544-2.384zm7.216.032c0-.608-.128-1.136-.384-1.584-.245-.448-.571-.7893-.976-1.024-.405-.2347-.843-.352-1.312-.352-.469 0-.907.1173-1.312.352-.405.224-.736.56-.992 1.008-.245.4373-.368.96-.368 1.568 0 .608.123 1.1413.368 1.6.256.4587.587.8107.992 1.056.416.2347.853.352 1.312.352.469 0 .907-.1173 1.312-.352.405-.2347.731-.576.976-1.024.256-.4587.384-.992.384-1.6zm6.364-2.912v4.88c0 .3307.075.5707.224.72.16.1387.427.208.8.208h1.12V18h-1.44c-.821 0-1.451-.192-1.888-.576-.437-.384-.656-1.008-.656-1.872v-4.88h-1.04V9.184h1.04V6.992h1.84v2.192h2.144v1.488h-2.144zm4.753-2.656c-.331 0-.608-.112-.832-.336-.224-.224-.336-.50133-.336-.832 0-.33067.112-.608.336-.832.224-.224.501-.336.832-.336.32 0 .592.112.816.336.224.224.336.50133.336.832 0 .33067-.112.608-.336.832-.224.224-.496.336-.816.336zm.896 1.168V18H218.7V9.184h1.824zm6.219 8.96c-.832 0-1.584-.1867-2.256-.56-.672-.384-1.2-.9173-1.584-1.6-.384-.6933-.576-1.4933-.576-2.4 0-.896.197-1.6907.592-2.384.394-.6933.933-1.22667 1.616-1.6.682-.37333 1.445-.56 2.288-.56.842 0 1.605.18667 2.288.56.682.37333 1.221.9067 1.616 1.6.394.6933.592 1.488.592 2.384 0 .896-.203 1.6907-.608 2.384-.406.6933-.96 1.232-1.664 1.616-.694.3733-1.462.56-2.304.56zm0-1.584c.469 0 .906-.112 1.312-.336.416-.224.752-.56 1.008-1.008.256-.448.384-.992.384-1.632 0-.64-.123-1.1787-.368-1.616-.246-.448-.571-.784-.976-1.008-.406-.224-.843-.336-1.312-.336-.47 0-.907.112-1.312.336-.395.224-.71.56-.944 1.008-.235.4373-.352.976-.352 1.616 0 .9493.24 1.6853.72 2.208.49.512 1.104.768 1.84.768zm10.827-7.52c.693 0 1.312.144 1.856.432.555.288.987.7147 1.296 1.28.309.5653.464 1.248.464 2.048V18h-1.808v-4.928c0-.7893-.197-1.392-.592-1.808-.395-.4267-.933-.64-1.616-.64s-1.227.2133-1.632.64c-.395.416-.592 1.0187-.592 1.808V18h-1.824V9.184h1.824v1.008c.299-.36267.677-.64533 1.136-.848.469-.20267.965-.304 1.488-.304z" fill="#585858"/></svg>