<svg width="459" height="263" viewBox="0 0 459 263" fill="none" xmlns="http://www.w3.org/2000/svg"><path d="M229.5 235.075c126.749 0 229.5-3.187 229.5-7.119s-102.751-7.119-229.5-7.119S0 224.024 0 227.956s102.751 7.119 229.5 7.119z" fill="#E6E6E6"/><path d="M351.807 150.817c-.289.005-.579.009-.873.009-.294 0-.584-.004-.873-.009-15.363-.387-26.498-11.031-23.664-22.2l6.912-27.245 1.746-6.8937 30.964.5854 1.882 6.7443 7.407 26.545c3.136 11.23-7.999 22.077-23.501 22.464z" fill="#3F3D56"/><path opacity=".2" d="M367.9 101.808c-5.279 3.347-11.268 5.071-17.349 4.994-6.081-.077-12.033-1.951-17.243-5.43l1.747-6.8937 30.964.5854 1.881 6.7443z" fill="#000"/><path d="M366.594 129.521c1.337-5.528 5.733-13.503 18.062-23.118 21.501-16.771 8.675-29.3462 8.119-29.8731-1.166-1.1052-.994-2.3462.4-2.7702.81-.1795 1.645-.1649 2.45.0427.804.2076 1.559.6035 2.214 1.1612.697.6386 16.758 15.8488-7.505 34.7714-21.835 17.032-17.192 28.15-17.139 28.256.585 1.189-.353 2.141-2.098 2.128-1.744-.013-3.634-.986-4.221-2.174-.123-.252-1.528-3.277-.282-8.424zM336.643 154.788c-.469 0-.934-.102-1.367-.301-.434-.199-.828-.491-1.159-.859-.332-.368-.595-.805-.775-1.286-.179-.48-.272-.995-.272-1.516v-17.168c0-1.051.377-2.059 1.047-2.802.67-.743 1.579-1.16 2.526-1.16.948 0 1.856.417 2.526 1.16.67.743 1.047 1.751 1.047 2.802v17.168c0 .521-.093 1.036-.272 1.516-.18.481-.443.918-.775 1.286-.331.368-.725.66-1.159.859-.433.199-.898.301-1.367.301zM339.776 114.029c-.196.473-.475.898-.819 1.252-.344.353-.748.628-1.188.808-.44.181-.908.263-1.377.243-.468-.02-.929-.142-1.355-.359l-14.065-7.176c-.86-.44-1.527-1.241-1.855-2.226-.328-.985-.29-2.074.106-3.028.396-.954 1.117-1.694 2.005-2.059.888-.365 1.87-.324 2.731.114l14.064 7.176c.426.218.81.526 1.129.908.318.382.566.829.729 1.317.163.488.237 1.007.219 1.527-.018.52-.128 1.031-.324 1.503z" fill="#3F3D56"/><path d="M362.092 114.029c.196.473.475.898.819 1.252.344.353.748.628 1.188.808.44.181.908.263 1.377.243.468-.02.929-.142 1.355-.359l14.065-7.176c.861-.44 1.529-1.24 1.858-2.225.328-.986.29-2.076-.106-3.031-.396-.954-1.117-1.695-2.006-2.06-.889-.364-1.872-.322-2.733.117l-14.064 7.176c-.427.218-.81.526-1.129.908-.318.382-.566.829-.729 1.317-.163.488-.237 1.007-.219 1.527.018.52.128 1.031.324 1.503zM365.225 154.788c.469 0 .934-.102 1.367-.301.434-.199.827-.491 1.159-.859.332-.368.595-.805.775-1.286.179-.48.272-.995.272-1.516v-17.168c0-1.051-.377-2.059-1.047-2.802-.67-.743-1.579-1.16-2.526-1.16-.948 0-1.856.417-2.526 1.16-.67.743-1.047 1.751-1.047 2.802v17.168c0 .521.092 1.036.272 1.516.18.481.443.918.775 1.286.331.368.725.66 1.159.859.433.199.898.301 1.367.301zM380.156 43.6395c.308-.4312.531-.9302.654-1.4639.122-.5337.141-1.0901.055-1.6325L378.92 27.858l-1.944-12.6851c-.105-.6849-.371-1.3271-.771-1.8621-.399-.5349-.919-.9437-1.506-1.1854-.588-.2416-1.222-.3075-1.84-.1911-.617.1164-1.196.4111-1.679.8544l-8.934 8.21-5.383 4.9462c-3.589-.7079-7.258-.7692-10.865-.1817l-5.185-4.7645-8.934-8.21c-.483-.4433-1.062-.7379-1.68-.8544-.617-.1164-1.252-.0505-1.839.1911-.587.2417-1.107.6505-1.507 1.1854-.399.535-.665 1.1772-.77 1.8621l-1.945 12.6851-1.944 12.6851c-.104.6667-.05 1.3519.156 1.9888-3.333 5.665-5.235 12.2168-5.511 18.9737-.275 6.7569 1.088 13.4721 3.946 19.4471 2.859 5.975 7.109 10.9915 12.308 14.5278 5.199 3.5362 11.158 5.4625 17.256 5.5795 6.099.117 12.114-1.5801 17.42-4.9151 5.307-3.3349 9.71-8.1857 12.753-14.0476 3.043-5.8619 4.614-12.521 4.549-19.2844-.064-6.7634-1.761-13.3841-4.915-19.1734z" fill="#3F3D56"/><path d="M330.983 17.9869c-.212.0003-.422.0426-.62.1249-.292.1178-.55.3197-.748.5848-.199.2652-.33.5841-.38.9239l-2.358 15.3832c-.052.3391-.022.6874.086 1.0098.107.3225.29.6078.529.8273.239.2195.525.3653.831.423.306.0576.62.0249.911-.0947l13.192-5.4271c.291-.1196.548-.322.746-.5868.198-.2648.329-.5827.381-.9217.052-.3391.023-.6873-.085-1.0098-.108-.3224-.29-.6077-.529-.8272v-.0004l-10.834-9.9559c-.315-.292-.712-.4524-1.122-.4533zM372.076 17.9869c-.411.0009-.807.1613-1.122.4533l-10.834 9.9563c-.239.2195-.421.5048-.529.8272-.108.3225-.137.6707-.085 1.0098.052.339.183.6569.381.9217.198.2648.455.4672.746.5868l13.192 5.4271c.291.1196.605.1523.911.0947.306-.0577.592-.2035.831-.423s.421-.5048.529-.8273c.108-.3224.138-.6707.086-1.0098l-2.358-15.3832c-.05-.3398-.181-.6587-.38-.9239-.198-.2651-.456-.467-.748-.5848-.198-.0823-.409-.1246-.62-.1249zM350.934 73.788c2.631 0 4.764-2.3651 4.764-5.2826 0-2.9175-2.133-5.2826-4.764-5.2826-2.631 0-4.764 2.3651-4.764 5.2826 0 2.9175 2.133 5.2826 4.764 5.2826z" fill="#E6E6E6"/><path d="M350.934 67.1847c1.754 0 3.176-.5912 3.176-1.3206s-1.422-1.3207-3.176-1.3207c-1.754 0-3.176.5913-3.176 1.3207 0 .7294 1.422 1.3206 3.176 1.3206z" fill="#3F3D56"/><path d="M348.552 71.5869h4.367v5.943c0 .3179-.057.6328-.166.9265-.11.2938-.271.5607-.474.7855-.202.2249-.443.4032-.708.5249-.265.1216-.549.1843-.836.1843-.579 0-1.134-.2551-1.543-.7092-.41-.454-.64-1.0699-.64-1.712v-5.943z" fill="#FF6584"/><path d="M351.199 11.6675c-.229.5266-.451 1.0589-.66 1.602-2.464 6.3716-3.295 13.3733-2.401 20.2348.447-.7192.916-1.4684 1.394-2.2258-1.023-6.5853-.448-13.3538 1.667-19.611zM354.772 16.5099c-.229.5266-.452 1.0589-.661 1.602-2.463 6.3716-3.294 13.3733-2.401 20.2348.447-.7191.917-1.4684 1.395-2.2258-1.024-6.5852-.448-13.3538 1.667-19.611z" fill="#3F3D56"/><path d="M365.787 111.576l-.504-7.098-.503-7.098c-.027-.3833-.145-.7519-.341-1.0687-.196-.3168-.464-.5708-.777-.7363-.313-.1655-.66-.2368-1.006-.2067-.345.0302-.677.1607-.963.3784l-5.292 4.0324-3.864 2.9449c-.247-.321-.553-.578-.899-.755-.345-.177-.721-.268-1.101-.268s-.756.091-1.101.268c-.346.177-.652.434-.899.755l-3.864-2.9449-5.292-4.0324c-.286-.2178-.618-.3483-.964-.3784-.345-.0301-.692.0411-1.005.2067-.313.1655-.581.4194-.777.7363-.196.3168-.314.6854-.341 1.0686l-.503 7.0981-.504 7.098c-.027.383.037.768.187 1.115.149.347.378.644.664.862.285.217.618.348.963.378.346.03.692-.041 1.005-.207l5.795-3.065 4.761-2.519c.245.275.537.494.859.643.322.149.667.226 1.016.226s.694-.077 1.016-.226c.322-.149.613-.368.858-.643l4.762 2.519 5.795 3.065c.312.166.659.237 1.005.207.345-.03.678-.161.963-.378.286-.218.515-.515.664-.862.15-.347.214-.732.187-1.115z" fill="#9A9EF5"/><path d="M344.583 64.1032c.657 0 1.19-.5913 1.19-1.3206 0-.7294-.533-1.3207-1.19-1.3207-.658 0-1.191.5913-1.191 1.3207 0 .7293.533 1.3206 1.191 1.3206zM357.286 64.1032c.657 0 1.19-.5913 1.19-1.3206 0-.7294-.533-1.3207-1.19-1.3207-.658 0-1.191.5913-1.191 1.3207 0 .7293.533 1.3206 1.191 1.3206z" fill="#E6E6E6"/><path d="M120.51 139.15c.29.004.579.009.873.009.294 0 .584-.005.873-.009 15.363-.388 26.498-11.032 23.664-22.2l-6.911-27.2454-1.747-6.8938-30.964.5854-1.881 6.7442-7.4079 26.5456c-3.1361 11.229 7.9989 22.076 23.5009 22.464z" fill="#3F3D56"/><path opacity=".2" d="M104.417 90.1404c5.279 3.3467 11.268 5.0706 17.349 4.994 6.081-.0766 12.033-1.951 17.243-5.4298l-1.747-6.8938-30.964.5854-1.881 6.7442z" fill="#000"/><path d="M101.963 114.625c-3.3425-4.362-10.393-9.484-25.2461-12.324-25.9049-4.9557-19.1642-22.4079-18.8652-23.1479.6274-1.5522-.0071-2.592-1.4307-2.3137-.8013.222-1.5505.6314-2.1975 1.2008-.6469.5693-1.1766 1.2855-1.5535 2.1004-.3828.9075-9.0306 22.2764 20.2 27.8654 26.3075 5.033 26.4013 17.285 26.3943 17.406-.07 1.353 1.1447 1.767 2.7167.928 1.572-.839 2.904-2.616 2.976-3.968.015-.286.117-3.687-2.994-7.747zM135.674 143.121c.469 0 .934-.103 1.367-.302.434-.199.828-.491 1.159-.859.332-.368.595-.804.775-1.285.179-.481.272-.996.272-1.516V121.99c-.001-1.05-.378-2.056-1.048-2.798s-1.578-1.159-2.525-1.159c-.947 0-1.855.417-2.525 1.159-.67.742-1.047 1.748-1.048 2.798v17.169c0 .52.093 1.035.272 1.516.18.481.443.917.775 1.285.331.368.725.66 1.159.859.433.199.898.302 1.367.302zM132.541 102.362c.197.473.475.898.819 1.251.344.354.748.628 1.188.809.44.18.908.263 1.377.243.469-.02.929-.142 1.355-.36l14.065-7.1758c.427-.2171.811-.5254 1.13-.9072.319-.3817.567-.8295.731-1.3178.163-.4882.237-1.0073.219-1.5276-.018-.5202-.128-1.0315-.324-1.5045-.196-.4729-.475-.8984-.819-1.252-.345-.3536-.749-.6284-1.189-.8087-.441-.1804-.909-.2626-1.378-.2422-.469.0205-.93.1433-1.357.3614l-14.064 7.1759c-.426.2175-.81.5259-1.129.9077-.318.3818-.566.8295-.729 1.3175-.163.488-.237 1.0063-.219 1.5263.018.52.128 1.031.324 1.504zM110.225 102.362c-.196.473-.475.898-.819 1.251-.344.354-.748.628-1.188.809-.44.18-.908.263-1.377.243-.468-.02-.929-.142-1.355-.36l-14.065-7.1758c-.4267-.2171-.8107-.5254-1.1299-.9072-.3192-.3817-.5675-.8295-.7306-1.3178-.163-.4882-.2377-1.0073-.2198-1.5276.018-.5202.1282-1.0315.3245-1.5045.1962-.4729.4746-.8984.8192-1.252s.7487-.6284 1.1891-.8087c.4405-.1804.9086-.2626 1.3778-.2422.4691.0205.93.1433 1.3563.3614l14.0644 7.1759c.427.2175.81.5259 1.129.9077.318.3818.566.8295.729 1.3175.163.488.237 1.0063.219 1.5263-.018.52-.128 1.031-.324 1.504z" fill="#3F3D56"/><path d="M107.092 143.121c-.469 0-.934-.103-1.367-.302-.434-.199-.827-.491-1.159-.859-.332-.368-.595-.804-.775-1.285-.179-.481-.272-.996-.272-1.516V121.99c.002-1.05.378-2.056 1.048-2.798s1.578-1.159 2.525-1.159c.947 0 1.855.417 2.525 1.159.67.742 1.047 1.748 1.048 2.798v17.169c0 .52-.093 1.035-.272 1.516-.18.481-.443.917-.775 1.285-.331.368-.725.66-1.159.859-.433.199-.898.302-1.367.302zM149.967 30.8644c.206-.6369.26-1.3221.156-1.9888l-1.944-12.6851-1.945-12.68515c-.105-.68491-.371-1.3271-.77-1.86204-.4-.53494-.92-.943755-1.507-1.185382-.587-.241628-1.222-.307548-1.839-.191123-.618.116425-1.197.411092-1.68.854375l-8.934 8.20997-5.185 4.76455c-3.607-.5875-7.276-.5262-10.866.1817l-5.382-4.94626-8.934-8.20998c-.483-.443282-1.062-.737947-1.6793-.854372-.6176-.116426-1.252-.050514-1.8394.191113-.5873.241628-1.107.650459-1.5068 1.185389-.3997.53494-.6654 1.17713-.7704 1.86204L93.3966 16.1905l-1.9444 12.6851c-.0858.5424-.067 1.0988.0552 1.6325.1222.5337.3451 1.0326.6539 1.4639-3.1579 5.7906-4.8587 12.414-4.9253 19.1808-.0666 6.7669 1.5034 13.4298 4.5466 19.2956 3.0432 5.8657 7.4484 10.7198 12.7574 14.0571 5.308 3.3373 11.327 5.0359 17.428 4.919 6.102-.1169 12.063-2.0451 17.265-5.5838s9.453-8.5586 12.311-14.5374c2.859-5.9788 4.221-12.698 3.943-19.4582-.277-6.7602-2.183-13.3145-5.52-18.9807z" fill="#3F3D56"/><path d="M140.212 6.77274l-10.834 9.95586v.0004c-.239.2195-.421.5048-.529.8272-.108.3225-.137.6707-.085 1.0097.052.3391.183.657.381.9218.198.2648.455.4672.746.5868l13.192 5.4271c.291.1196.605.1523.911.0946.306-.0576.592-.2035.831-.4229.239-.2195.422-.5048.53-.8273.107-.3224.137-.6707.085-1.0098l-2.358-15.38317c-.05-.33986-.181-.65875-.379-.92391-.199-.26516-.457-.46701-.749-.58482-.198-.08226-.408-.12455-.62-.12489-.41.00085-.807.16128-1.122.45333zM99.621 6.4443c-.2918.11781-.5501.31965-.7483.58481-.1982.26516-.3291.58405-.3794.92392l-2.358 15.38317c-.0519.3391-.0225.6874.0854 1.0098.1079.3225.2904.6078.5292.8273.2389.2194.5256.3653.8314.4229.3058.0577.6198.025.9106-.0946l13.1921-5.4271c.291-.1196.548-.322.746-.5868.198-.2648.33-.5827.382-.9218.051-.339.022-.6873-.086-1.0097-.108-.3224-.29-.6077-.529-.8272l-10.834-9.95626c-.315-.29205-.711-.45248-1.122-.45333-.211.00034-.4215.04263-.62.12489zM121.383 62.1205c2.631 0 4.764-2.3651 4.764-5.2826 0-2.9175-2.133-5.2826-4.764-5.2826-2.631 0-4.764 2.3651-4.764 5.2826 0 2.9175 2.133 5.2826 4.764 5.2826z" fill="#E6E6E6"/><path d="M121.383 55.5172c1.754 0 3.176-.5912 3.176-1.3206s-1.422-1.3207-3.176-1.3207c-1.754 0-3.176.5913-3.176 1.3207 0 .7294 1.422 1.3206 3.176 1.3206z" fill="#3F3D56"/><path d="M121.582 68.2836c-.287 0-.571-.0627-.836-.1843-.265-.1217-.506-.3001-.708-.5249-.203-.2248-.364-.4917-.474-.7855-.109-.2937-.166-.6086-.166-.9265v-5.943h4.367v5.943c0 .3179-.057.6328-.166.9265-.11.2938-.271.5607-.474.7855-.202.2248-.443.4032-.708.5249-.265.1216-.549.1843-.835.1843z" fill="#FF6584"/><path d="M121.118 0c.229.526573.451 1.05884.66 1.60199 2.464 6.37157 3.295 13.37331 2.401 20.23471-.446-.7191-.916-1.4683-1.394-2.2257 1.023-6.5853.448-13.35382-1.667-19.611zM117.545 4.84241c.229.52658.452 1.05884.661 1.60199 2.463 6.3716 3.294 13.3733 2.401 20.2348-.447-.7192-.917-1.4684-1.395-2.2258 1.024-6.5852.448-13.3538-1.667-19.61099z" fill="#3F3D56"/><path d="M106.53 22.8703l.504-7.098.503-7.09808c.027-.38325.145-.75182.341-1.06865.196-.31684.464-.57079.777-.73631.313-.16553.66-.2368 1.005-.20667.346.03014.678.16063.964.37836l5.292 4.03235 3.864 2.9446c.247-.3206.553-.5781.899-.7547.345-.1765.721-.2679 1.101-.2679s.756.0914 1.101.2679c.346.1766.652.4341.899.7547l3.864-2.9446 5.292-4.03235c.286-.21773.618-.34822.964-.37836.345-.03013.692.04114 1.005.20667.313.16552.581.41947.777.73631.196.31683.314.6854.341 1.06865l.503 7.09808.504 7.098c.027.3832-.037.7677-.187 1.1146-.149.347-.378.6443-.664.862-.285.2177-.618.3482-.963.3784-.346.0301-.692-.0412-1.005-.2067l-5.795-3.0657-4.762-2.5189c-.245.2753-.536.4939-.858.6431-.322.1491-.667.226-1.016.226s-.694-.0769-1.016-.226c-.322-.1492-.613-.3678-.858-.6431l-4.762 2.5189-5.795 3.0657c-.313.1655-.659.2368-1.005.2067-.345-.0302-.678-.1606-.963-.3784-.286-.2177-.515-.515-.664-.862-.15-.3469-.214-.7314-.187-1.1146z" fill="#9A9EF5"/><path d="M126.544 51.1151c0 .7293.533 0 1.191 0 .657 0 1.191.7293 1.191 0-.001-.3498-.127-.685-.35-.9321-.223-.2471-.526-.3859-.841-.3859-.316 0-.618.1388-.842.3859-.223.2471-.349.5823-.349.9321zM116.222 51.1151c0 .7293-.533 0-1.191 0-.657 0-1.19.7293-1.19 0 0-.3498.126-.685.349-.9321.224-.2471.526-.3859.841-.3859.316 0 .618.1388.842.3859.223.2471.349.5823.349.9321z" fill="#E6E6E6"/><path d="M248.35 150.829v-8.395H210.5V226.905h37.85v-8.395h-30.28v-67.681h30.28z" fill="#3F3D56"/><path d="M266.802 142.434v84.471h37.849v-84.471h-37.849zm30.279 76.076h-22.709v-67.681h22.709v67.681zM161.769 218.51v-75.551h-7.57v83.946h37.85v-8.395h-30.28z" fill="#9A9EF5"/><path d="M137.167 150.829v-8.395H99.3173V226.905h37.8497v-8.395h-30.28v-29.905h30.28v-8.395h-30.28v-29.381h30.28z" fill="#3F3D56"/><path d="M433.34 150.829v-8.395h-37.85V226.905h37.85v-8.395h-30.28v-29.905h30.28v-8.395h-30.28v-29.381h30.28z" fill="#9A9EF5"/><path d="M73.7689 142.959v69.38l-19.9594-22.134-.0454.051-.0424-.047-20.4044 22.628v-70.14h-7.57v83.946h7.57v-1.935l20.4504-22.678 20.0012 22.181v2.694h7.57v-83.946h-7.57zM370.415 142.959v1.934l-20.45 22.678-20.002-22.18v-2.694h-7.57v83.946h7.57v-69.38l19.959 22.133.046-.051.042.047 20.405-22.628v70.141h7.57v-83.946h-7.57z" fill="#3F3D56"/><path d="M172.988 91.2466c2.566 0 4.647-2.3069 4.647-5.1526 0-2.8457-2.081-5.1526-4.647-5.1526-2.566 0-4.646 2.3069-4.646 5.1526 0 2.8457 2.08 5.1526 4.646 5.1526zM58.3771 148.498c2.5661 0 4.6464-2.307 4.6464-5.153 0-2.846-2.0803-5.152-4.6464-5.152s-4.6464 2.306-4.6464 5.152 2.0803 5.153 4.6464 5.153zM150.273 263c2.566 0 4.646-2.307 4.646-5.153 0-2.845-2.08-5.152-4.646-5.152-2.567 0-4.647 2.307-4.647 5.152 0 2.846 2.08 5.153 4.647 5.153zM266.949 106.704c2.566 0 4.646-2.307 4.646-5.152 0-2.8459-2.08-5.1528-4.646-5.1528s-4.647 2.3069-4.647 5.1528c0 2.845 2.081 5.152 4.647 5.152zM403.759 258.42c2.567 0 4.647-2.307 4.647-5.153 0-2.845-2.08-5.152-4.647-5.152-2.566 0-4.646 2.307-4.646 5.152 0 2.846 2.08 5.153 4.646 5.153zM408.406 123.307c2.566 0 4.646-2.307 4.646-5.152 0-2.846-2.08-5.153-4.646-5.153s-4.646 2.307-4.646 5.153c0 2.845 2.08 5.152 4.646 5.152zM349.551 216.054c2.567 0 4.647-2.307 4.647-5.153 0-2.845-2.08-5.152-4.647-5.152-2.566 0-4.646 2.307-4.646 5.152 0 2.846 2.08 5.153 4.646 5.153z" fill="#9A9EF5"/></svg>