<svg width="13" height="13" viewBox="0 0 13 13" fill="none" xmlns="http://www.w3.org/2000/svg"><g clip-path="url(#clip0)" fill="#949494"><path d="M11.8574 1.54883H1.14257c-.175876 0-.340535.04324-.489501.11451L6.47461 7.48488 7.7794 6.23091s.00011-.00013.00013-.00018c.00003-.00005.00013-.0001.00013-.0001l4.56744-4.56719c-.149-.07132-.3138-.11461-.4897-.11461zM12.8856 2.20208L8.58744 6.50005l4.29806 4.29805c.0713-.149.1145-.3136.1145-.4895V2.69141c0-.17578-.0431-.34041-.1144-.48933zM.114512 2.2019C.04324 2.35087 0 2.51553 0 2.69141v7.61719c0 .1758.04319.3405.11441.4894L4.41261 6.5.114512 2.2019z"/><path d="M8.04888 7.03861L6.7439 8.29273c-.0744.07439-.17184.11159-.26927.11159-.09742 0-.1949-.0372-.26927-.11159L4.95117 7.03856.652893 11.3366c.148992.0713.313752.1146.489687.1146H11.8574c.1759 0 .3406-.0433.4895-.1145L8.04888 7.03861z"/></g><defs><clipPath id="clip0"><path fill="#fff" d="M0 0h13v13H0z"/></clipPath></defs></svg>