<svg width="132" height="23" viewBox="0 0 132 23" fill="none" xmlns="http://www.w3.org/2000/svg"><path d="M7.065 6.545v1.11H2.52v3.525h3.69v1.11H2.52V17H1.155V6.545h5.91zm5.2336 10.59c-.77 0-1.47-.175-2.1-.525-.62001-.35-1.11001-.845-1.47001-1.485-.35-.65-.525-1.4-.525-2.25 0-.84.18-1.58.54-2.22.37-.65.87-1.145 1.50001-1.485.63-.35 1.335-.525 2.115-.525.78 0 1.485.175 2.115.525.63.34 1.125.83 1.485 1.47.37.64.555 1.385.555 2.235 0 .85-.19 1.6-.57 2.25-.37.64-.875 1.135-1.515 1.485-.64.35-1.35.525-2.13.525zm0-1.2c.49 0 .95-.115 1.38-.345.43-.23.775-.575 1.035-1.035.27-.46.405-1.02.405-1.68 0-.66-.13-1.22-.39-1.68-.26-.46-.6-.8-1.02-1.02-.42-.23-.875-.345-1.365-.345-.5 0-.96.115-1.38.345-.41.22-.74.56-.99001 1.02-.25.46-.375 1.02-.375 1.68 0 .67.12 1.235.36 1.695.25001.46.58001.805.99001 1.035.41.22.86.33 1.35.33zm7.3747-5.82c.24-.47.58-.835 1.02-1.095.45-.26.995-.39 1.635-.39v1.41h-.36c-1.53 0-2.295.83-2.295 2.49V17h-1.365V8.78h1.365v1.335zm7.6207-1.47c.71 0 1.33.155 1.86.465.54.31.94.7 1.2 1.17v-1.5h1.38v8.4c0 .75-.16 1.415-.48 1.995-.32.59-.78 1.05-1.38 1.38-.59.33-1.28.495-2.07.495-1.08 0-1.98-.255-2.7-.765-.72-.51-1.145-1.205-1.275-2.085h1.35c.15.5.46.9.93 1.2.47.31 1.035.465 1.695.465.75 0 1.36-.235 1.83-.705.48-.47.72-1.13.72-1.98v-1.725c-.27.48-.67.88-1.2 1.2-.53.32-1.15.48-1.86.48-.73 0-1.395-.18-1.995-.54-.59-.36-1.055-.865-1.395-1.515-.34-.65-.51-1.39-.51-2.22 0-.84.17-1.575.51-2.205.34-.64.805-1.135 1.395-1.485.6-.35 1.265-.525 1.995-.525zm3.06 4.23c0-.62-.125-1.16-.375-1.62-.25-.46-.59-.81-1.02-1.05-.42-.25-.885-.375-1.395-.375s-.975.12-1.395.36c-.42.24-.755.59-1.005 1.05-.25.46-.375 1-.375 1.62 0 .63.125 1.18.375 1.65.25.46.585.815 1.005 1.065.42.24.885.36 1.395.36s.975-.12 1.395-.36c.43-.25.77-.605 1.02-1.065.25-.47.375-1.015.375-1.635zm7.2717 4.26c-.77 0-1.47-.175-2.1-.525-.62-.35-1.11-.845-1.47-1.485-.35-.65-.525-1.4-.525-2.25 0-.84.18-1.58.54-2.22.37-.65.87-1.145 1.5-1.485.63-.35 1.335-.525 2.115-.525.78 0 1.485.175 2.115.525.63.34 1.125.83 1.485 1.47.37.64.555 1.385.555 2.235 0 .85-.19 1.6-.57 2.25-.37.64-.875 1.135-1.515 1.485-.64.35-1.35.525-2.13.525zm0-1.2c.49 0 .95-.115 1.38-.345.43-.23.775-.575 1.035-1.035.27-.46.405-1.02.405-1.68 0-.66-.13-1.22-.39-1.68-.26-.46-.6-.8-1.02-1.02-.42-.23-.875-.345-1.365-.345-.5 0-.96.115-1.38.345-.41.22-.74.56-.99 1.02-.25.46-.375 1.02-.375 1.68 0 .67.12 1.235.36 1.695.25.46.58.805.99 1.035.41.22.86.33 1.35.33zm7.6748-6.03v4.845c0 .4.085.685.255.855.17.16.465.24.885.24h1.005V17h-1.23c-.76 0-1.33-.175-1.71-.525-.38-.35-.57-.925-.57-1.725V9.905h-1.065V8.78h1.065V6.71h1.365v2.07h2.145v1.125h-2.145zm14.7879-.3c0 .87-.3 1.595-.9 2.175-.59.57-1.495.855-2.715.855h-2.01V17h-1.365V6.545h3.375c1.18 0 2.075.285 2.685.855.62.57.93 1.305.93 2.205zm-3.615 1.905c.76 0 1.32-.165 1.68-.495.36-.33.54-.8.54-1.41 0-1.29-.74-1.935-2.22-1.935h-2.01v3.84h2.01zm4.8015 1.35c0-.84.17-1.575.51-2.205.34-.64.805-1.135 1.395-1.485.6-.35 1.265-.525 1.995-.525.72 0 1.345.155 1.875.465.53.31.925.7 1.185 1.17v-1.5h1.38V17h-1.38v-1.53c-.27.48-.675.88-1.215 1.2-.53.31-1.15.465-1.86.465-.73 0-1.39-.18-1.98-.54-.59-.36-1.055-.865-1.395-1.515-.34-.65-.51-1.39-.51-2.22zm6.96.015c0-.62-.125-1.16-.375-1.62-.25-.46-.59-.81-1.02-1.05-.42-.25-.885-.375-1.395-.375s-.975.12-1.395.36c-.42.24-.755.59-1.005 1.05-.25.46-.375 1-.375 1.62 0 .63.125 1.18.375 1.65.25.46.585.815 1.005 1.065.42.24.885.36 1.395.36s.975-.12 1.395-.36c.43-.25.77-.605 1.02-1.065.25-.47.375-1.015.375-1.635zm6.5967 4.26c-.63 0-1.195-.105-1.695-.315-.5-.22-.895-.52-1.185-.9-.29-.39-.45-.835-.48-1.335h1.41c.04.41.23.745.57 1.005.35.26.805.39 1.365.39.52 0 .93-.115 1.23-.345.3-.23.45-.52.45-.87 0-.36-.16-.625-.48-.795-.32-.18-.815-.355-1.485-.525-.61-.16-1.11-.32-1.5-.48-.38-.17-.71-.415-.99-.735-.27-.33-.405-.76-.405-1.29 0-.42.125-.805.375-1.155s.605-.625 1.065-.825c.46-.21.985-.315 1.575-.315.91 0 1.645.23 2.205.69.56.46.86 1.09.9 1.89h-1.365c-.03-.43-.205-.775-.525-1.035-.31-.26-.73-.39-1.26-.39-.49 0-.88.105-1.17.315-.29.21-.435.485-.435.825 0 .27.085.495.255.675.18.17.4.31.66.42.27.1.64.215 1.11.345.59.16 1.07.32 1.44.48.37.15.685.38.945.69.27.31.41.715.42 1.215 0 .45-.125.855-.375 1.215-.25.36-.605.645-1.065.855-.45.2-.97.3-1.56.3zm7.8369 0c-.63 0-1.195-.105-1.695-.315-.5-.22-.895-.52-1.185-.9-.29-.39-.45-.835-.48-1.335h1.41c.04.41.23.745.57 1.005.35.26.805.39 1.365.39.52 0 .93-.115 1.23-.345.3-.23.45-.52.45-.87 0-.36-.16-.625-.48-.795-.32-.18-.815-.355-1.485-.525-.61-.16-1.11-.32-1.5-.48-.38-.17-.71-.415-.99-.735-.27-.33-.405-.76-.405-1.29 0-.42.125-.805.375-1.155s.605-.625 1.065-.825c.46-.21.985-.315 1.575-.315.91 0 1.645.23 2.205.69.56.46.86 1.09.9 1.89h-1.365c-.03-.43-.205-.775-.525-1.035-.31-.26-.73-.39-1.26-.39-.49 0-.88.105-1.17.315-.29.21-.435.485-.435.825 0 .27.085.495.255.675.18.17.4.31.66.42.27.1.64.215 1.11.345.59.16 1.07.32 1.44.48.37.15.685.38.945.69.27.31.41.715.42 1.215 0 .45-.125.855-.375 1.215-.25.36-.605.645-1.065.855-.45.2-.97.3-1.56.3zM98.5454 8.78L95.9804 17h-1.41l-1.98-6.525-1.98 6.525h-1.41l-2.58-8.22h1.395l1.89 6.9 2.04-6.9h1.395l1.995 6.915 1.86-6.915h1.35zm4.9396 8.355c-.77 0-1.47-.175-2.1-.525-.62-.35-1.11-.845-1.4699-1.485-.35-.65-.525-1.4-.525-2.25 0-.84.18-1.58.54-2.22.3699-.65.8699-1.145 1.4999-1.485.63-.35 1.335-.525 2.115-.525.78 0 1.485.175 2.115.525.63.34 1.125.83 1.485 1.47.37.64.555 1.385.555 2.235 0 .85-.19 1.6-.57 2.25-.37.64-.875 1.135-1.515 1.485-.64.35-1.35.525-2.13.525zm0-1.2c.49 0 .95-.115 1.38-.345.43-.23.775-.575 1.035-1.035.27-.46.405-1.02.405-1.68 0-.66-.13-1.22-.39-1.68-.26-.46-.6-.8-1.02-1.02-.42-.23-.875-.345-1.365-.345-.5 0-.96.115-1.38.345-.41.22-.74.56-.99 1.02-.25.46-.375 1.02-.375 1.68 0 .67.12 1.235.36 1.695.25.46.58.805.99 1.035.41.22.86.33 1.35.33zm7.375-5.82c.24-.47.58-.835 1.02-1.095.45-.26.995-.39 1.635-.39v1.41h-.36c-1.53 0-2.295.83-2.295 2.49V17h-1.365V8.78h1.365v1.335zm3.721 2.745c0-.84.17-1.575.51-2.205.34-.64.805-1.135 1.395-1.485.6-.35 1.27-.525 2.01-.525.64 0 1.235.15 1.785.45.55.29.97.675 1.26 1.155V5.9h1.38V17h-1.38v-1.545c-.27.49-.67.895-1.2 1.215-.53.31-1.15.465-1.86.465-.73 0-1.395-.18-1.995-.54-.59-.36-1.055-.865-1.395-1.515-.34-.65-.51-1.39-.51-2.22zm6.96.015c0-.62-.125-1.16-.375-1.62-.25-.46-.59-.81-1.02-1.05-.42-.25-.885-.375-1.395-.375s-.975.12-1.395.36c-.42.24-.755.59-1.005 1.05-.25.46-.375 1-.375 1.62 0 .63.125 1.18.375 1.65.25.46.585.815 1.005 1.065.42.24.885.36 1.395.36s.975-.12 1.395-.36c.43-.25.77-.605 1.02-1.065.25-.47.375-1.015.375-1.635zm6.356-6.465c.99 0 1.79.28 2.4.84.61.56.915 1.31.915 2.25 0 1.05-.325 1.83-.975 2.34-.65.5-1.53.75-2.64.75l-.045 1.425h-1.185l-.06-2.37h.435c.99 0 1.765-.15 2.325-.45.56-.3.84-.865.84-1.695 0-.6-.18-1.075-.54-1.425-.36-.35-.845-.525-1.455-.525-.62 0-1.11.17-1.47.51-.35.33-.525.785-.525 1.365h-1.29c0-.6.135-1.125.405-1.575.27-.46.65-.815 1.14-1.065.5-.25 1.075-.375 1.725-.375zm-.945 10.68c-.26 0-.48-.09-.66-.27-.18-.18-.27-.4-.27-.66s.09-.48.27-.66c.18-.18.4-.27.66-.27.25 0 .46.09.63.27.18.18.27.4.27.66s-.09.48-.27.66c-.17.18-.38.27-.63.27z" fill="#6C6C6C"/></svg>