<svg width="23" height="22" viewBox="0 0 23 22" fill="none" xmlns="http://www.w3.org/2000/svg"><path d="M13.6111 13.25h-1.1667v-1.1667C12.4444 9.83176 10.0021 8 7 8c-3.00213 0-5.44443 1.83176-5.44443 4.0833V13.25H.388901C.173943 13.25 0 13.3805 0 13.5417v7.2917C0 21.4768.69763 22 1.55557 22H12.4445C13.3024 22 14 21.4768 14 20.8333v-7.2916c0-.1612-.1739-.2917-.3889-.2917zm-5.44669 6.0928c.01214.0823-.02315.1649-.09684.2268-.07368.0617-.17926.0971-.28977.0971H6.22223c-.1105 0-.21608-.0354-.28977-.0971-.07368-.0618-.10901-.1445-.09683-.2268l.24533-1.6546c-.39838-.2173-.63649-.5611-.63649-.9382 0-.6434.69763-1.1667 1.55557-1.1667.85793 0 1.55556.5232 1.55556 1.1667 0 .3771-.23811.7209-.63649.9382l.2453 1.6546zM10.1111 13.25H3.8889v-1.1667C3.8889 10.7967 5.28456 9.75 7 9.75s3.1111 1.0467 3.1111 2.3333V13.25z" fill="#929292"/></svg>