<svg width="53" height="14" viewBox="0 0 53 14" fill="none" xmlns="http://www.w3.org/2000/svg"><path d="M2.11523 7.66016V11H.990234V2.46875H4.13672c.93359 0 1.66406.23828 2.1914.71484.53126.47657.79688 1.10743.79688 1.89258 0 .82813-.25977 1.4668-.7793 1.91602-.51562.44531-1.25586.66797-2.2207.66797H2.11523zm0-.91993h2.02149c.60156 0 1.0625-.14062 1.38281-.42187C5.83984 6.0332 6 5.62305 6 5.08789c0-.50781-.16016-.91406-.48047-1.21875s-.75976-.46289-1.31836-.47461H2.11523v3.3457zM12.2344 11c-.0625-.125-.1133-.3477-.1524-.668-.5039.5235-1.1054.7852-1.8047.7852-.62496 0-1.13863-.1758-1.54097-.5274-.39844-.3554-.59766-.80464-.59766-1.34761 0-.66016.25-1.17188.75-1.53516.50391-.36719 1.21093-.55078 2.12113-.55078h1.0547V6.6582c0-.3789-.1133-.67968-.3399-.90234-.2266-.22656-.5605-.33984-1.0019-.33984-.3868 0-.711.09765-.9727.29296-.26172.19532-.39258.43164-.39258.70899H8.26758c0-.31641.11133-.62109.33398-.91406.22656-.29688.53125-.53125.91406-.70313.38672-.17187.81058-.25781 1.27148-.25781.7305 0 1.3027.18359 1.7168.55078.4141.36328.6289.86523.6445 1.50586v2.91797c0 .58202.0743 1.04492.2227 1.38862V11h-1.1367zm-1.7989-.8262c.3399 0 .6622-.0879.9668-.26364.3047-.17578.5254-.4043.6622-.68555V7.92383h-.8497c-1.32808 0-1.99214.38867-1.99214 1.16601 0 .33985.11328.60547.33984.79688.22656.19138.5176.28708.873.28708zm8.1036-.85544c0-.29297-.1114-.51953-.334-.67969-.2188-.16406-.6035-.30469-1.1543-.42187-.5469-.11719-.9824-.25782-1.3067-.42188-.3203-.16406-.5586-.35937-.7148-.58594-.1523-.22656-.2285-.49609-.2285-.80859 0-.51953.2187-.95898.6562-1.31836.4414-.35937 1.0039-.53906 1.6875-.53906.7188 0 1.3008.18555 1.7461.55664.4492.37109.6739.8457.6739 1.42383h-1.0899c0-.29688-.1269-.55274-.3808-.76758-.25-.21484-.5665-.32227-.9493-.32227-.3945 0-.7031.08594-.9257.25782-.2227.17187-.334.39648-.334.67382 0 .26172.1035.45899.3105.5918.207.13281.5801.25977 1.1192.38086.5429.12109.9824.26563 1.3183.43359.336.16797.584.3711.7442.60938.164.23437.246.52148.246.86133 0 .5664-.2265 1.02151-.6796 1.36521-.4532.3399-1.0411.5098-1.7637.5098-.5078 0-.957-.0899-1.3477-.2695-.3906-.1797-.6972-.4297-.9199-.75-.2187-.32426-.3281-.67387-.3281-1.04887h1.084c.0195.36328.164.65234.4336.86719.2734.21098.6328.31638 1.0781.31638.4101 0 .7383-.082.9844-.24607.25-.16797.375-.39063.375-.66797zm6.1875 0c0-.29297-.1114-.51953-.334-.67969-.2188-.16406-.6035-.30469-1.1543-.42187-.5469-.11719-.9824-.25782-1.3067-.42188-.3203-.16406-.5586-.35937-.7148-.58594-.1523-.22656-.2285-.49609-.2285-.80859 0-.51953.2187-.95898.6562-1.31836.4414-.35937 1.0039-.53906 1.6875-.53906.7188 0 1.3008.18555 1.7461.55664.4492.37109.6739.8457.6739 1.42383h-1.0899c0-.29688-.1269-.55274-.3809-.76758-.25-.21484-.5664-.32227-.9492-.32227-.3945 0-.7031.08594-.9258.25782-.2226.17187-.3339.39648-.3339.67382 0 .26172.1035.45899.3105.5918.207.13281.5801.25977 1.1192.38086.5429.12109.9824.26563 1.3183.43359.3359.16797.584.3711.7442.60938.164.23437.246.52148.246.86133 0 .5664-.2265 1.02151-.6796 1.36521-.4532.3399-1.0411.5098-1.7637.5098-.5078 0-.957-.0899-1.3477-.2695-.3906-.1797-.6972-.4297-.9199-.75-.2187-.32426-.3281-.67387-.3281-1.04887h1.084c.0195.36328.164.65234.4336.86719.2734.21098.6328.31638 1.0781.31638.4101 0 .7383-.082.9844-.24607.25-.16797.375-.39063.375-.66797zm8.1093.1875l1.2188-4.8457h1.084L33.293 11h-.8789L30.873 6.19531 29.373 11h-.8789l-1.8398-6.33984h1.0781l1.2481 4.74609 1.4765-4.74609h.8731l1.5058 4.8457zm3.1231-1.73438c0-.62109.1211-1.17968.3633-1.67578.2461-.49609.5859-.8789 1.0195-1.14843.4375-.26954.9355-.4043 1.4941-.4043.8633 0 1.5606.29883 2.0918.89648.5352.59766.8028 1.39258.8028 2.38477v.07617c0 .61719-.1192 1.17188-.3575 1.66406-.2343.48825-.5722.86915-1.0136 1.14255-.4375.2735-.9414.4102-1.5117.4102-.8594 0-1.5567-.2988-2.0918-.8965-.5313-.59765-.7969-1.38867-.7969-2.37304v-.07618zm1.0898.12891c0 .70313.1621 1.26758.4864 1.69336.3281.42575.7656.63865 1.3125.63865.5507 0 .9882-.2148 1.3125-.64451.3242-.43359.4863-1.03906.4863-1.81641 0-.69531-.166-1.25781-.4981-1.6875-.3281-.43359-.7656-.65039-1.3125-.65039-.5351 0-.9668.21289-1.2949.63868-.3281.42578-.4922 1.03515-.4922 1.82812zm9.1055-2.26758c-.1641-.02734-.3418-.04101-.5332-.04101-.7109 0-1.1934.30273-1.4473.9082V11h-1.084V4.66016h1.0547l.0176.73242c.3555-.56641.8594-.84961 1.5117-.84961.211 0 .3711.02734.4805.08203v1.00781zm.6211 2.14453c0-.97265.2305-1.7539.6914-2.34375.4609-.59375 1.0644-.89062 1.8105-.89062.7422 0 1.3301.25391 1.7637.76172V2h1.084v9h-.9961l-.0527-.6797c-.4336.5313-1.0371.7969-1.8106.7969-.7344 0-1.334-.3008-1.7988-.9024-.4609-.60152-.6914-1.38668-.6914-2.35542v-.08204zm1.084.12305c0 .71875.1484 1.28125.4453 1.6875.2969.40625.707.60941 1.2305.60941.6875 0 1.1894-.30863 1.5058-.92582v-2.9121c-.3242-.59766-.8222-.89649-1.4941-.89649-.5313 0-.9453.20508-1.2422.61523-.2969.41016-.4453 1.01758-.4453 1.82227z" fill="#9E9E9E"/></svg>