<svg width="297" height="24" viewBox="0 0 297 24" fill="none" xmlns="http://www.w3.org/2000/svg"><path d="M4.864 18.112c-.74667 0-1.41867-.128-2.016-.384-.59733-.2667-1.06667-.64-1.408-1.12-.34133-.48-.512-1.04-.512-1.68H2.88c.04267.48.22933.8747.56 1.184.34133.3093.816.464 1.424.464.62933 0 1.12-.1493 1.472-.448.352-.3093.528-.704.528-1.184 0-.3733-.112-.6773-.336-.912-.21333-.2347-.48533-.416-.816-.544-.32-.128-.768-.2667-1.344-.416-.72533-.192-1.31733-.384-1.776-.576-.448-.2027-.832-.512-1.152-.928-.32-.416-.48-.9707-.48-1.664 0-.64.16-1.2.48-1.68.32-.48.768-.848 1.344-1.104.576-.256 1.24267-.384 2-.384 1.07733 0 1.95733.272 2.64.816.69333.53333 1.07733 1.26933 1.152 2.208H6.56c-.032-.40533-.224-.752-.576-1.04-.352-.288-.816-.432-1.392-.432-.52267 0-.94933.13333-1.28.4s-.496.65067-.496 1.152c0 .3413.10133.624.304.848.21333.2133.48.384.8.512.32.128.75733.2667 1.312.416.736.2027 1.33333.4053 1.792.608.46933.2027.864.5173 1.184.944.33067.416.496.976.496 1.68 0 .5653-.15467 1.0987-.464 1.6-.29867.5013-.74133.9067-1.328 1.216-.576.2987-1.25867.448-2.048.448zm6.9203-10.096c-.3307 0-.608-.112-.832-.336-.224-.224-.336-.50133-.336-.832 0-.33067.112-.608.336-.832.224-.224.5013-.336.832-.336.32 0 .592.112.816.336.224.224.336.50133.336.832 0 .33067-.112.608-.336.832-.224.224-.496.336-.816.336zm.896 1.168V18h-1.824V9.184h1.824zm5.9467-.144c.6827 0 1.2853.13867 1.808.416.5333.26667.9493.6027 1.248 1.008v-1.28h1.84v8.96c0 .8107-.1707 1.5307-.512 2.16-.3413.64-.8373 1.1413-1.488 1.504-.64.3627-1.408.544-2.304.544-1.1947 0-2.1867-.2827-2.976-.848-.7893-.5547-1.2373-1.312-1.344-2.272h1.808c.1387.4587.432.8267.88 1.104.4587.288 1.0027.432 1.632.432.736 0 1.328-.224 1.776-.672.4587-.448.688-1.0987.688-1.952v-1.472c-.3093.416-.7307.768-1.264 1.056-.5227.2773-1.12.416-1.792.416-.768 0-1.472-.192-2.112-.576-.6293-.3947-1.1307-.9387-1.504-1.632-.3627-.704-.544-1.4987-.544-2.384s.1813-1.6693.544-2.352c.3733-.6827.8747-1.21067 1.504-1.584.64-.384 1.344-.576 2.112-.576zm3.056 4.544c0-.608-.128-1.136-.384-1.584-.2453-.448-.5707-.7893-.976-1.024-.4053-.2347-.8427-.352-1.312-.352-.4693 0-.9067.1173-1.312.352-.4053.224-.736.56-.992 1.008-.2453.4373-.368.96-.368 1.568 0 .608.1227 1.1413.368 1.6.256.4587.5867.8107.992 1.056.416.2347.8533.352 1.312.352.4693 0 .9067-.1173 1.312-.352.4053-.2347.7307-.576.976-1.024.256-.4587.384-.992.384-1.6zm8.6838-4.544c.6933 0 1.312.144 1.856.432.5546.288.9866.7147 1.296 1.28.3093.5653.464 1.248.464 2.048V18h-1.808v-4.928c0-.7893-.1974-1.392-.592-1.808-.3947-.4267-.9334-.64-1.616-.64-.6827 0-1.2267.2133-1.632.64-.3947.416-.592 1.0187-.592 1.808V18h-1.824V9.184h1.824v1.008c.2986-.36267.6773-.64533 1.136-.848.4693-.20267.9653-.304 1.488-.304zm11.0268-1.024c-.3306 0-.608-.112-.832-.336-.224-.224-.336-.50133-.336-.832 0-.33067.112-.608.336-.832.224-.224.5014-.336.832-.336.32 0 .592.112.816.336.224.224.336.50133.336.832 0 .33067-.112.608-.336.832-.224.224-.496.336-.816.336zm.896 1.168V18h-1.824V9.184h1.824zm6.8428-.144c.6933 0 1.312.144 1.856.432.5546.288.9866.7147 1.296 1.28.3093.5653.464 1.248.464 2.048V18h-1.808v-4.928c0-.7893-.1974-1.392-.592-1.808-.3947-.4267-.9334-.64-1.616-.64-.6827 0-1.2267.2133-1.632.64-.3947.416-.592 1.0187-.592 1.808V18h-1.824V9.184h1.824v1.008c.2986-.36267.6773-.64533 1.136-.848.4693-.20267.9653-.304 1.488-.304zm12.2269 1.632v4.88c0 .3307.0746.5707.224.72.16.1387.4266.208.8.208h1.12V18h-1.44c-.8214 0-1.4507-.192-1.888-.576-.4374-.384-.656-1.008-.656-1.872v-4.88h-1.04V9.184h1.04V6.992h1.84v2.192h2.144v1.488h-2.144zm7.6491 7.472c-.832 0-1.584-.1867-2.256-.56-.672-.384-1.2-.9173-1.584-1.6-.384-.6933-.576-1.4933-.576-2.4 0-.896.1973-1.6907.592-2.384.3946-.6933.9333-1.22667 1.616-1.6.6826-.37333 1.4453-.56 2.288-.56.8426 0 1.6053.18667 2.288.56.6826.37333 1.2213.9067 1.616 1.6.3946.6933.592 1.488.592 2.384 0 .896-.2027 1.6907-.608 2.384-.4054.6933-.96 1.232-1.664 1.616-.6934.3733-1.4614.56-2.304.56zm0-1.584c.4693 0 .9066-.112 1.312-.336.416-.224.752-.56 1.008-1.008.256-.448.384-.992.384-1.632 0-.64-.1227-1.1787-.368-1.616-.2454-.448-.5707-.784-.976-1.008-.4054-.224-.8427-.336-1.312-.336-.4694 0-.9067.112-1.312.336-.3947.224-.7094.56-.944 1.008-.2347.4373-.352.976-.352 1.616 0 .9493.24 1.6853.72 2.208.4906.512 1.104.768 1.84.768zm9.9274-2.976c0-.9067.1813-1.7013.544-2.384.3733-.6933.8853-1.22667 1.536-1.6.6506-.37333 1.3973-.56 2.24-.56 1.0666 0 1.9466.256 2.64.768.704.5013 1.1786 1.2213 1.424 2.16h-1.968c-.16-.4373-.416-.7787-.768-1.024-.352-.2453-.7947-.368-1.328-.368-.7467 0-1.344.2667-1.792.8-.4374.5227-.656 1.2587-.656 2.208 0 .9493.2186 1.6907.656 2.224.448.5333 1.0453.8 1.792.8 1.056 0 1.7546-.464 2.096-1.392h1.968c-.256.896-.736 1.6107-1.44 2.144-.704.5227-1.5787.784-2.624.784-.8427 0-1.5894-.1867-2.24-.56-.6507-.384-1.1627-.9173-1.536-1.6-.3627-.6933-.544-1.4933-.544-2.4zm14.0257 4.56c-.832 0-1.584-.1867-2.256-.56-.672-.384-1.2-.9173-1.584-1.6-.384-.6933-.576-1.4933-.576-2.4 0-.896.1973-1.6907.592-2.384.3947-.6933.9333-1.22667 1.616-1.6.6827-.37333 1.4453-.56 2.288-.56.8427 0 1.6053.18667 2.288.56.6827.37333 1.2213.9067 1.616 1.6.3947.6933.592 1.488.592 2.384 0 .896-.2027 1.6907-.608 2.384-.4053.6933-.96 1.232-1.664 1.616-.6933.3733-1.4613.56-2.304.56zm0-1.584c.4693 0 .9067-.112 1.312-.336.416-.224.752-.56 1.008-1.008.256-.448.384-.992.384-1.632 0-.64-.1227-1.1787-.368-1.616-.2453-.448-.5707-.784-.976-1.008-.4053-.224-.8427-.336-1.312-.336-.4693 0-.9067.112-1.312.336-.3947.224-.7093.56-.944 1.008-.2347.4373-.352.976-.352 1.616 0 .9493.24 1.6853.72 2.208.4907.512 1.104.768 1.84.768zm10.8275-7.52c.693 0 1.312.144 1.856.432.554.288.986.7147 1.296 1.28.309.5653.464 1.248.464 2.048V18h-1.808v-4.928c0-.7893-.198-1.392-.592-1.808-.395-.4267-.934-.64-1.616-.64-.683 0-1.227.2133-1.632.64-.395.416-.592 1.0187-.592 1.808V18h-1.8244V9.184h1.8244v1.008c.298-.36267.677-.64533 1.136-.848.469-.20267.965-.304 1.488-.304zm8.07 1.632v4.88c0 .3307.075.5707.224.72.16.1387.427.208.8.208h1.12V18h-1.44c-.821 0-1.45-.192-1.888-.576-.437-.384-.656-1.008-.656-1.872v-4.88h-1.04V9.184h1.04V6.992h1.84v2.192h2.144v1.488h-2.144zm4.753-2.656c-.33 0-.608-.112-.832-.336-.224-.224-.336-.50133-.336-.832 0-.33067.112-.608.336-.832.224-.224.502-.336.832-.336.32 0 .592.112.816.336.224.224.336.50133.336.832 0 .33067-.112.608-.336.832-.224.224-.496.336-.816.336zm.896 1.168V18h-1.824V9.184h1.824zm6.843-.144c.693 0 1.312.144 1.856.432.555.288.987.7147 1.296 1.28.309.5653.464 1.248.464 2.048V18h-1.808v-4.928c0-.7893-.197-1.392-.592-1.808-.395-.4267-.933-.64-1.616-.64s-1.227.2133-1.632.64c-.395.416-.592 1.0187-.592 1.808V18h-1.824V9.184h1.824v1.008c.299-.36267.677-.64533 1.136-.848.469-.20267.965-.304 1.488-.304zm13.927.144V18h-1.824v-1.04c-.288.3627-.667.6507-1.136.864-.459.2027-.95.304-1.472.304-.694 0-1.318-.144-1.872-.432-.544-.288-.976-.7147-1.296-1.28-.31-.5653-.464-1.248-.464-2.048V9.184h1.808v4.912c0 .7893.197 1.3973.592 1.824.394.416.933.624 1.616.624.682 0 1.221-.208 1.616-.624.405-.4267.608-1.0347.608-1.824V9.184h1.824zm10.486 4.192c0 .3307-.021.6293-.064.896h-6.736c.054.704.315 1.2693.784 1.696.47.4267 1.046.64 1.728.64.982 0 1.675-.4107 2.08-1.232h1.968c-.266.8107-.752 1.4773-1.456 2-.693.512-1.557.768-2.592.768-.842 0-1.6-.1867-2.272-.56-.661-.384-1.184-.9173-1.568-1.6-.373-.6933-.56-1.4933-.56-2.4 0-.9067.182-1.7013.544-2.384.374-.6933.891-1.22667 1.552-1.6.672-.37333 1.44-.56 2.304-.56.832 0 1.574.18133 2.224.544.651.36267 1.158.8747 1.52 1.536.363.6507.544 1.4027.544 2.256zm-1.904-.576c-.01-.672-.25-1.2107-.72-1.616-.469-.4053-1.05-.608-1.744-.608-.629 0-1.168.2027-1.616.608-.448.3947-.714.9333-.8 1.616h4.88zm9.984-2.128v4.88c0 .3307.074.5707.224.72.16.1387.426.208.8.208h1.12V18h-1.44c-.822 0-1.451-.192-1.888-.576-.438-.384-.656-1.008-.656-1.872v-4.88h-1.04V9.184h1.04V6.992h1.84v2.192h2.144v1.488h-2.144zm7.649 7.472c-.832 0-1.584-.1867-2.256-.56-.672-.384-1.2-.9173-1.584-1.6-.384-.6933-.576-1.4933-.576-2.4 0-.896.197-1.6907.592-2.384.394-.6933.933-1.22667 1.616-1.6.682-.37333 1.445-.56 2.288-.56.842 0 1.605.18667 2.288.56.682.37333 1.221.9067 1.616 1.6.394.6933.592 1.488.592 2.384 0 .896-.203 1.6907-.608 2.384-.406.6933-.96 1.232-1.664 1.616-.694.3733-1.462.56-2.304.56zm0-1.584c.469 0 .906-.112 1.312-.336.416-.224.752-.56 1.008-1.008.256-.448.384-.992.384-1.632 0-.64-.123-1.1787-.368-1.616-.246-.448-.571-.784-.976-1.008-.406-.224-.843-.336-1.312-.336-.47 0-.907.112-1.312.336-.395.224-.71.56-.944 1.008-.235.4373-.352.976-.352 1.616 0 .9493.24 1.6853.72 2.208.49.512 1.104.768 1.84.768zm14.359 1.584c-.832 0-1.584-.1867-2.256-.56-.672-.384-1.2-.9173-1.584-1.6-.384-.6933-.576-1.4933-.576-2.4 0-.896.197-1.6907.592-2.384.395-.6933.933-1.22667 1.616-1.6.683-.37333 1.445-.56 2.288-.56.843 0 1.605.18667 2.288.56.683.37333 1.221.9067 1.616 1.6.395.6933.592 1.488.592 2.384 0 .896-.203 1.6907-.608 2.384-.405.6933-.96 1.232-1.664 1.616-.693.3733-1.461.56-2.304.56zm0-1.584c.469 0 .907-.112 1.312-.336.416-.224.752-.56 1.008-1.008.256-.448.384-.992.384-1.632 0-.64-.123-1.1787-.368-1.616-.245-.448-.571-.784-.976-1.008-.405-.224-.843-.336-1.312-.336-.469 0-.907.112-1.312.336-.395.224-.709.56-.944 1.008-.235.4373-.352.976-.352 1.616 0 .9493.24 1.6853.72 2.208.491.512 1.104.768 1.84.768zm14.363-7.376V18h-1.824v-1.04c-.288.3627-.666.6507-1.136.864-.458.2027-.949.304-1.472.304-.693 0-1.317-.144-1.872-.432-.544-.288-.976-.7147-1.296-1.28-.309-.5653-.464-1.248-.464-2.048V9.184h1.808v4.912c0 .7893.198 1.3973.592 1.824.395.416.934.624 1.616.624.683 0 1.222-.208 1.616-.624.406-.4267.608-1.0347.608-1.824V9.184h1.824zm4.231 1.28c.267-.448.619-.79467 1.056-1.04.448-.256.976-.384 1.584-.384v1.888h-.464c-.715 0-1.259.1813-1.632.544-.363.3627-.544.992-.544 1.888V18h-1.824V9.184h1.824v1.28zm7.865 3.088c0-.8853.181-1.6693.544-2.352.373-.6827.874-1.21067 1.504-1.584.64-.384 1.344-.576 2.112-.576.693 0 1.296.13867 1.808.416.522.26667.938.6027 1.248 1.008v-1.28h1.84V18h-1.84v-1.312c-.31.416-.731.7627-1.264 1.04-.534.2773-1.142.416-1.824.416-.758 0-1.451-.192-2.08-.576-.63-.3947-1.131-.9387-1.504-1.632-.363-.704-.544-1.4987-.544-2.384zm7.216.032c0-.608-.128-1.136-.384-1.584-.246-.448-.571-.7893-.976-1.024-.406-.2347-.843-.352-1.312-.352-.47 0-.907.1173-1.312.352-.406.224-.736.56-.992 1.008-.246.4373-.368.96-.368 1.568 0 .608.122 1.1413.368 1.6.256.4587.586.8107.992 1.056.416.2347.853.352 1.312.352.469 0 .906-.1173 1.312-.352.405-.2347.73-.576.976-1.024.256-.4587.384-.992.384-1.6zm6.06-3.104c.309-.4053.73-.74667 1.264-1.024.533-.27733 1.136-.416 1.808-.416.768 0 1.466.192 2.096.576.64.37333 1.141.9013 1.504 1.584.362.6827.544 1.4667.544 2.352s-.182 1.68-.544 2.384c-.363.6933-.864 1.2373-1.504 1.632-.63.384-1.328.576-2.096.576-.672 0-1.27-.1333-1.792-.4-.523-.2773-.95-.6187-1.28-1.024v5.472h-1.824V9.184h1.824v1.296zm5.36 3.072c0-.608-.128-1.1307-.385-1.568-.245-.448-.575-.784-.991-1.008-.406-.2347-.843-.352-1.312-.352-.459 0-.896.1173-1.312.352-.406.2347-.736.576-.992 1.024-.246.448-.368.976-.368 1.584 0 .608.122 1.1413.368 1.6.256.448.586.7893.992 1.024.416.2347.853.352 1.312.352.469 0 .906-.1173 1.312-.352.416-.2453.746-.5973.991-1.056.257-.4587.385-.992.385-1.6zm5.483-3.072c.31-.4053.731-.74667 1.264-1.024.534-.27733 1.136-.416 1.808-.416.768 0 1.467.192 2.096.576.64.37333 1.142.9013 1.504 1.584.363.6827.544 1.4667.544 2.352s-.181 1.68-.544 2.384c-.362.6933-.864 1.2373-1.504 1.632-.629.384-1.328.576-2.096.576-.672 0-1.269-.1333-1.792-.4-.522-.2773-.949-.6187-1.28-1.024v5.472h-1.824V9.184h1.824v1.296zm5.36 3.072c0-.608-.128-1.1307-.384-1.568-.245-.448-.576-.784-.992-1.008-.405-.2347-.842-.352-1.312-.352-.458 0-.896.1173-1.312.352-.405.2347-.736.576-.992 1.024-.245.448-.368.976-.368 1.584 0 .608.123 1.1413.368 1.6.256.448.587.7893.992 1.024.416.2347.854.352 1.312.352.47 0 .907-.1173 1.312-.352.416-.2453.747-.5973.992-1.056.256-.4587.384-.992.384-1.6zm5.484-7.392V18h-1.824V6.16h1.824zm3.323 1.856c-.331 0-.608-.112-.832-.336-.224-.224-.336-.50133-.336-.832 0-.33067.112-.608.336-.832.224-.224.501-.336.832-.336.32 0 .592.112.816.336.224.224.336.50133.336.832 0 .33067-.112.608-.336.832-.224.224-.496.336-.816.336zm.896 1.168V18h-1.824V9.184h1.824zm1.787 4.4c0-.9067.181-1.7013.544-2.384.373-.6933.885-1.22667 1.536-1.6.65-.37333 1.397-.56 2.24-.56 1.066 0 1.946.256 2.64.768.704.5013 1.178 1.2213 1.424 2.16h-1.968c-.16-.4373-.416-.7787-.768-1.024-.352-.2453-.795-.368-1.328-.368-.747 0-1.344.2667-1.792.8-.438.5227-.656 1.2587-.656 2.208 0 .9493.218 1.6907.656 2.224.448.5333 1.045.8 1.792.8 1.056 0 1.754-.464 2.096-1.392h1.968c-.256.896-.736 1.6107-1.44 2.144-.704.5227-1.579.784-2.624.784-.843 0-1.59-.1867-2.24-.56-.651-.384-1.163-.9173-1.536-1.6-.363-.6933-.544-1.4933-.544-2.4zm9.593-.032c0-.8853.182-1.6693.544-2.352.374-.6827.875-1.21067 1.504-1.584.64-.384 1.344-.576 2.112-.576.694 0 1.296.13867 1.808.416.523.26667.939.6027 1.248 1.008v-1.28h1.84V18h-1.84v-1.312c-.309.416-.73.7627-1.264 1.04-.533.2773-1.141.416-1.824.416-.757 0-1.45-.192-2.08-.576-.629-.3947-1.13-.9387-1.504-1.632-.362-.704-.544-1.4987-.544-2.384zm7.216.032c0-.608-.128-1.136-.384-1.584-.245-.448-.57-.7893-.976-1.024-.405-.2347-.842-.352-1.312-.352-.469 0-.906.1173-1.312.352-.405.224-.736.56-.992 1.008-.245.4373-.368.96-.368 1.568 0 .608.123 1.1413.368 1.6.256.4587.587.8107.992 1.056.416.2347.854.352 1.312.352.47 0 .907-.1173 1.312-.352.406-.2347.731-.576.976-1.024.256-.4587.384-.992.384-1.6zm6.364-2.912v4.88c0 .3307.075.5707.224.72.16.1387.427.208.8.208h1.12V18h-1.44c-.821 0-1.451-.192-1.888-.576-.437-.384-.656-1.008-.656-1.872v-4.88h-1.04V9.184h1.04V6.992h1.84v2.192h2.144v1.488h-2.144zm4.753-2.656c-.331 0-.608-.112-.832-.336-.224-.224-.336-.50133-.336-.832 0-.33067.112-.608.336-.832.224-.224.501-.336.832-.336.32 0 .592.112.816.336.224.224.336.50133.336.832 0 .33067-.112.608-.336.832-.224.224-.496.336-.816.336zm.896 1.168V18h-1.824V9.184h1.824zm6.219 8.96c-.832 0-1.584-.1867-2.256-.56-.672-.384-1.2-.9173-1.584-1.6-.384-.6933-.576-1.4933-.576-2.4 0-.896.197-1.6907.592-2.384.395-.6933.933-1.22667 1.616-1.6.683-.37333 1.445-.56 2.288-.56.843 0 1.605.18667 2.288.56.683.37333 1.221.9067 1.616 1.6.395.6933.592 1.488.592 2.384 0 .896-.203 1.6907-.608 2.384-.405.6933-.96 1.232-1.664 1.616-.693.3733-1.461.56-2.304.56zm0-1.584c.469 0 .907-.112 1.312-.336.416-.224.752-.56 1.008-1.008.256-.448.384-.992.384-1.632 0-.64-.123-1.1787-.368-1.616-.245-.448-.571-.784-.976-1.008-.405-.224-.843-.336-1.312-.336-.469 0-.907.112-1.312.336-.395.224-.709.56-.944 1.008-.235.4373-.352.976-.352 1.616 0 .9493.24 1.6853.72 2.208.491.512 1.104.768 1.84.768zm10.827-7.52c.693 0 1.312.144 1.856.432.555.288.987.7147 1.296 1.28.309.5653.464 1.248.464 2.048V18h-1.808v-4.928c0-.7893-.197-1.392-.592-1.808-.395-.4267-.933-.64-1.616-.64s-1.227.2133-1.632.64c-.395.416-.592 1.0187-.592 1.808V18H287.7V9.184h1.824v1.008c.299-.36267.677-.64533 1.136-.848.469-.20267.965-.304 1.488-.304z" fill="#585858"/></svg>