<svg width="83" height="35" viewBox="0 0 83 35" fill="none" xmlns="http://www.w3.org/2000/svg"><path d="M6.992 26.161c-1.07333 0-2.03933-.184-2.898-.552-.85867-.3833-1.53333-.92-2.024-1.61-.49067-.69-.736-1.495-.736-2.415H4.14c.06133.69.32967 1.2573.805 1.702.49067.4447 1.173.667 2.047.667.90467 0 1.61-.2147 2.116-.644.506-.4447.759-1.012.759-1.702 0-.5367-.161-.9737-.483-1.311-.30667-.3373-.69767-.598-1.173-.782-.46-.184-1.104-.3833-1.932-.598-1.04267-.276-1.89367-.552-2.553-.828-.644-.2913-1.196-.736-1.656-1.334-.46-.598-.69-1.3953-.69-2.392 0-.92.23-1.725.69-2.415.46-.69 1.104-1.219 1.932-1.587.828-.368 1.78633-.552 2.875-.552 1.54867 0 2.81367.391 3.795 1.173.9967.7667 1.5487 1.8247 1.656 3.174H9.43c-.046-.5827-.322-1.081-.828-1.495-.506-.414-1.173-.621-2.001-.621-.75133 0-1.36467.1917-1.84.575-.47533.3833-.713.9353-.713 1.656 0 .4907.14567.897.437 1.219.30667.3067.69.552 1.15.736.46.184 1.08867.3833 1.886.598 1.058.2913 1.91667.5827 2.576.874.6747.2913 1.242.7437 1.702 1.357.4753.598.713 1.403.713 2.415 0 .8127-.2223 1.5793-.667 2.3-.4293.7207-1.0657 1.3033-1.909 1.748-.828.4293-1.80933.644-2.944.644zm11.2359-16.146V26h-2.622V10.015h2.622zm15.0114 4.6c-.414-.7973-.989-1.3953-1.725-1.794-.736-.414-1.587-.621-2.553-.621-1.058 0-2.001.2377-2.829.713-.828.4753-1.4797 1.15-1.955 2.024-.46.874-.69 1.886-.69 3.036 0 1.15.23 2.1697.69 3.059.4753.874 1.127 1.5487 1.955 2.024.828.4753 1.771.713 2.829.713 1.426 0 2.5837-.3987 3.473-1.196.8893-.7973 1.4337-1.8783 1.633-3.243h-6.003v-2.093h8.809v2.047c-.1687 1.242-.6133 2.3843-1.334 3.427-.7053 1.0427-1.633 1.8783-2.783 2.507-1.1347.6133-2.3997.92-3.795.92-1.5027 0-2.875-.345-4.117-1.035-1.242-.7053-2.231-1.679-2.967-2.921-.7207-1.242-1.081-2.645-1.081-4.209 0-1.564.3603-2.967 1.081-4.209.736-1.242 1.725-2.208 2.967-2.898 1.2573-.7053 2.6297-1.058 4.117-1.058 1.702 0 3.2123.4217 4.531 1.265 1.334.828 2.3 2.0087 2.898 3.542h-3.151zM52.5924 26h-2.622l-7.889-11.937V26h-2.622V9.992h2.622l7.889 11.914V9.992h2.622V26zm12.0398-15.985V26h-2.622V10.015h2.622zM81.2076 26h-2.622l-7.889-11.937V26h-2.622V9.992h2.622l7.889 11.914V9.992h2.622V26z" fill="#545454"/></svg>