<svg width="372" height="335" viewBox="0 0 372 335" fill="none" xmlns="http://www.w3.org/2000/svg"><path d="M352.533 312.163c0 12.612-78.916 22.837-176.266 22.837C78.9162 335 0 324.775 0 312.163c0-8.929 39.5576-16.664 97.2081-20.416 23.7729-1.552 50.6339-2.421 79.0589-2.421 11.684 0 23.102.147 34.144.427 81.009 2.063 142.122 11.311 142.122 22.41z" fill="#3F3D56"/><path opacity=".1" d="M153.522 316.829c37.37 0 67.664-3.189 67.664-7.122s-30.294-7.121-67.664-7.121c-37.369 0-67.6631 3.188-67.6631 7.121 0 3.933 30.2941 7.122 67.6631 7.122z" fill="#000"/><path d="M153.238 314.864c35.329 0 63.968-26.386 63.968-58.934 0-32.549-28.639-58.935-63.968-58.935-35.328 0-63.9676 26.386-63.9676 58.935 0 32.548 28.6396 58.934 63.9676 58.934z" fill="#3F3D56"/><path d="M173.424 290.799h-39.803v31.432h39.803v-31.432z" fill="#9A9EF5"/><path d="M225.451 298.412l-2.275 10.804 14.784 1.965 9.666-4.911-.569-7.858h-21.606z" fill="#262D93"/><path d="M150.964 95.5787s-1.137 11.2953-3.98 11.7873c-2.843.491 6.254 20.136 6.254 20.136h13.647l10.803-2.456-5.117-10.805s-6.824-7.858-1.706-14.2422c5.117-6.3846-19.901-4.4201-19.901-4.4201z" fill="#A0616A"/><path opacity=".1" d="M150.964 95.5787s-1.137 11.2953-3.98 11.7873c-2.843.491 6.254 20.136 6.254 20.136h13.647l10.803-2.456-5.117-10.805s-6.824-7.858-1.706-14.2422c5.117-6.3846-19.901-4.4201-19.901-4.4201z" fill="#000"/><path d="M122.534 182.016s-14.784 24.556-2.843 29.467c11.94 4.911 14.783 4.42 14.783 5.894 0 1.473-2.274.982-1.137 3.437 1.137 2.456-2.274 12.278 1.137 18.172 3.412 5.893 2.275 10.313 2.275 10.313s0 .492 1.137 2.456c1.137 1.965 1.706 3.438 1.137 4.42-.568.982-3.98 7.367-.568 8.84 3.411 1.474 21.038 2.456 22.744 0 1.705-2.455-1.706-3.929 0-5.402 1.705-1.473 2.843-1.964 1.705-2.947-1.137-.982-2.274-13.26-2.274-13.26s2.843-14.242 1.706-16.207c-1.137-1.964-2.843-3.929-1.706-5.402 1.137-1.474 2.274-.983 2.843-2.947.569-1.965 1.706-6.385 1.706-6.385l6.254-.491 14.784 2.456s16.489 15.716 34.685 20.627c0 0 5.117 4.42 6.823 4.42 1.706 0 1.706 0 1.137.982-.568.983-2.274.983-1.137 1.965 1.137.982 2.843-.491 1.706.982-1.137 1.473-2.275 1.473-1.137 2.456 1.137.982-.569 6.384-.569 6.875 0 .491-5.117 46.657-3.412 47.639 1.706.982 25.587 3.929 27.293 0 1.706-3.929-1.137-8.84-1.137-8.84s8.529-58.935 6.255-62.864c-2.275-3.929-10.235-21.609-52.88-32.905 0 0-11.941-1.964-11.941-3.438 0-1.473-1.137-10.804-3.412-11.295-2.274-.491-15.352-.983-15.352-.983l-16.489 4.421-22.744-3.438-11.372.982z" fill="#2F2E41"/><path d="M142.435 264.524l-2.843 8.84s-2.275 14.243.568 17.681c2.233 2.7 6.221 6.006 13.615 6.587 2.073.164 4.148-.288 5.883-1.281 1.734-.992 3.025-2.467 3.658-4.179.084-.205.137-.419.157-.636 0-.982-1.706-12.769-1.706-12.769l-2.843-12.278-.568-3.438-15.921 1.473zM225.451 306.761s-2.843-2.456-3.412 0c-.569 2.455-2.843 12.769 1.137 13.26 3.98.491 42.077 5.402 46.057 3.438 3.98-1.965 11.372-4.912 6.823-6.385-4.549-1.473-17.627-5.893-17.627-5.893s-7.391-8.349-8.529-8.841c-1.137-.491-7.391.492-10.234 2.456-2.843 1.965-14.215 1.965-14.215 1.965z" fill="#2F2E41"/><path d="M164.61 105.892c9.735 0 17.627-6.8161 17.627-15.2245s-7.892-15.2247-17.627-15.2247-17.626 6.8163-17.626 15.2247 7.891 15.2245 17.626 15.2245z" fill="#A0616A"/><path d="M162.904 125.046l-6.823-6.385-7.563-12.769s-5.515-1.473-6.652.982c-1.137 2.456-21.607 10.314-21.607 10.314s5.118 41.254 2.843 45.183c-2.274 3.929-6.254 19.645-2.843 21.118 3.412 1.474 19.333 0 24.45 1.965 5.118 1.964 19.901 1.964 23.881-.491 3.981-2.456 5.118-4.42 9.098-2.947 3.388 1.254 11.31-41.628 13.591-54.407.192-1.073.032-2.171-.461-3.171-.493-.999-1.3-1.858-2.33-2.482-5.102-3.091-14.291-8.417-15.917-7.715-2.275.983-9.667 10.805-9.667 10.805z" fill="#262D93"/><path d="M187.354 123.081c1.335.289 2.537.923 3.442 1.818.906.895 1.473 2.008 1.625 3.19l4.599 35.755s-11.372 21.119-17.058 6.876c-5.686-14.242 7.392-47.639 7.392-47.639z" fill="#262D93"/><path d="M186.217 167.282l12.509-2.946s2.275 13.751 4.549 13.751c2.274 0-7.96 7.858-13.078 6.876-5.117-.983-12.509-4.42-13.078-6.876-.568-2.456 5.118-12.769 5.118-12.769l3.98 1.964z" fill="#262D93"/><path d="M151.304 97.2353c1.198-2.2828.99-4.9455 1.981-7.3013.531-1.2615 1.392-2.3999 2.516-3.3264 1.124-.9264 2.482-1.6158 3.965-2.0143 1.484-.3985 3.055-.4953 4.589-.2829 1.534.2125 2.991.7285 4.256 1.5077 1.275.785 2.553 1.8879 4.108 1.738 1.676-.1613 3.17-1.7758 4.711-1.1841 1.707.6558 1.246 3.2987 2.976 3.9091.91.3214 1.986-.1734 2.511-.8917.46-.7548.71-1.5914.732-2.4439.238-2.0947.454-4.3115-.598-6.2102-.442-.6435-.828-1.315-1.153-2.0086-.184-.6478-.258-1.3153-.219-1.9814-.01-2.462-.218-5.0301-1.653-7.1577-1.591-2.3609-4.534-3.8705-7.604-4.5292-3.069-.6588-6.286-.5578-9.437-.3273-5.211.381-10.644 1.1976-14.749 3.9953-.558.352-1.038.7878-1.418 1.2865-.36.5924-.615 1.2285-.755 1.8866-.887 3.1216-2.218 6.1366-3.962 8.9763-.838 1.2039-1.524 2.4826-2.044 3.8138-.435 1.3527-.406 2.8944.505 4.057.742.9467 1.928 1.4511 2.86 2.225.923.7669 1.355 2.2417 2.378 2.8224.893.5069 1.963.1491 2.873.6863 1.169.6898 1.254 2.2023 2.631 2.755z" fill="#2F2E41"/><path d="M165.747 132.413l1.706-2.947s25.019 6.385 30.136 12.278c0 0 12.509-6.876 19.333-5.893l6.823.982-21.039 16.207-26.724-1.965-10.235-18.662z" fill="#F2F2F2"/><path d="M164.61 129.466l-23.312 27.994 33.547 14.242s3.136 1.474 5.548 0l22.313-8.84 21.039-26.029-21.039 9.331s-2.274-3.929-6.823-1.964l-31.273-14.734z" fill="#9A9EF5"/><path d="M200.432 179.069l4.549-10.313s10.235-11.296 4.549-16.698c-5.686-5.403-11.941 15.715-11.941 15.715l2.843 11.296zM147.949 177.423l9.925-6.95s15.415-5.336 13.635-12.473c-1.781-7.137-19.458 8.42-19.458 8.42l-4.102 11.003z" fill="#A0616A"/><path opacity=".1" d="M123.387 127.747h-.569s-8.813-9.086-10.519 3.192c-1.706 12.278-7.392 53.041 7.392 54.515 14.783 1.473 25.302-6.139 25.302-6.139s10.804-14.243 6.824-14.243c-1.926 0-7.164-.747-11.941-.491-5.096.273-9.675 1.513-9.382.246.569-2.456 8.813-33.642-7.107-37.08z" fill="#000"/><path d="M122.534 118.17l-2.275-.982s-9.097 1.473-10.803 13.751c-1.706 12.278-7.392 53.041 7.392 54.515 14.783 1.473 34.684-1.965 34.684-1.965s3.981-18.662 0-18.662c-3.98 0-24.45 2.455-23.881 0 .569-2.456 10.804-43.219-5.117-46.657zM192.187 173.422l6.27-8.301 3.965 13.703-10.235 3.929v-9.331z" fill="#262D93"/><path d="M63.3838 55.0613c8.4788 0 15.3523-5.9369 15.3523-13.2603 0-7.3234-6.8735-13.2602-15.3523-13.2602S48.0316 34.4776 48.0316 41.801c0 7.3234 6.8734 13.2603 15.3522 13.2603zM81.5791 140.516H45.1886v31.432h36.3905v-31.432zM211.52 0l9.211 13.7794 9.21 13.7793h-36.842l9.21-13.7793L211.52 0z" fill="#F2F2F2"/><path d="M327.142 104.138c-.22 5.879-1.878 10.591-4.972 14.136-3.096 3.546-6.773 5.319-11.032 5.319-3.469 0-6.51-1.735-9.122-5.205-2.613-3.47-3.919-8.808-3.919-16.014 0-1.592.044-3.1094.132-4.5505.088-1.4409.197-2.8061.329-4.0958l2.306-18.7157H285.65c-2.635 23.6648-4.797 37.744-6.488 42.238-1.69 4.494-4.555 6.741-8.594 6.741-1.824-.038-3.563-.668-4.874-1.763-.76-.582-1.361-1.302-1.76-2.109-.399-.806-.585-1.68-.545-2.556 0-1.744 1.591-4.18 4.774-7.31 3.184-3.129 4.951-5.982 5.302-8.561l3.952-26.6799h-6.388c-1.801.0092-3.574.3895-5.17 1.1092-1.47.583-2.749 1.4724-3.722 2.5883l-2.832 3.6407H257c2.151-5.7642 4.796-10.097 7.936-12.9985C268.075 66.4506 271.686 65 275.77 65h50.318v10.012h-16.992c-.527 4.551-.933 9.1019-1.218 13.6527-.286 4.551-.429 9.1208-.428 13.7093 0 3.111.834 5.632 2.502 7.566 1.669 1.935 3.754 2.902 6.257 2.901 1.537 0 3.15-.54 4.841-1.621.803-.486 1.474-1.117 1.969-1.848.494-.732.8-1.547.896-2.39.132-.834.231-1.488.296-1.962.066-.474.099-.768.099-.882h2.832z" fill="#5C5E91"/></svg>