<svg width="120" height="14" viewBox="0 0 120 14" fill="none" xmlns="http://www.w3.org/2000/svg"><path d="M2.89453 9.41211l1.47656-4.75195h1.16016L2.98242 11.9785c-.39453 1.0547-1.02148 1.582-1.88086 1.582l-.205076-.0175-.404296-.0762v-.8789l.292968.0234c.367184 0 .652344-.0742.855464-.2226.20704-.1485.37696-.4199.50977-.8145l.24023-.6445L.128906 4.66016H1.3125l1.58203 4.75195zm3.22852-1.64063c0-.62109.12109-1.17968.36328-1.67578.24609-.49609.58594-.8789 1.01953-1.14843.4375-.26954.93555-.4043 1.49414-.4043.86328 0 1.5605.29883 2.0918.89648.5352.59766.8027 1.39258.8027 2.38477v.07617c0 .61719-.1191 1.17188-.3574 1.66406-.2344.48825-.5723.86915-1.0137 1.14255-.4375.2735-.94137.4102-1.51168.4102-.85938 0-1.55664-.2988-2.0918-.8965-.53125-.59765-.79687-1.38867-.79687-2.37304v-.07618zm1.08984.12891c0 .70313.16211 1.26758.48633 1.69336.32812.42575.76562.63865 1.3125.63865.55078 0 .98828-.2148 1.31248-.64451.3242-.43359.4863-1.03906.4863-1.81641 0-.69531-.166-1.25781-.498-1.6875-.32812-.43359-.76562-.65039-1.3125-.65039-.53516 0-.9668.21289-1.29492.63868-.32813.42578-.49219 1.03515-.49219 1.82812zM17.168 10.373c-.4219.4961-1.041.7442-1.8575.7442-.6757 0-1.1914-.1953-1.5468-.586-.3516-.3945-.5293-.97651-.5332-1.74604v-4.125h1.084v4.0957c0 .96094.3906 1.44144 1.1718 1.44144.8282 0 1.3789-.30863 1.6524-.92582V4.66016h1.084V11h-1.0313l-.0234-.627zm5.7715-4.74019c-.1641-.02734-.3418-.04101-.5333-.04101-.7109 0-1.1933.30273-1.4472.9082V11h-1.084V4.66016h1.0547l.0176.73242c.3554-.56641.8593-.84961 1.5117-.84961.2109 0 .3711.02734.4805.08203v1.00781zm3.5156 5.48439c-.8594 0-1.5586-.2813-2.0977-.8438-.539-.56637-.8086-1.32223-.8086-2.26754v-.19922c0-.62891.1192-1.18945.3574-1.68164.2422-.49609.5782-.88281 1.0079-1.16016.4336-.28125.9023-.42187 1.4062-.42187.8242 0 1.4649.27148 1.9219.81445.457.54297.6855 1.32031.6855 2.33203v.45117h-4.2949c.0156.625.1973 1.13086.5449 1.51758.3516.3828.7969.5742 1.336.5742.3828 0 .707-.0781.9726-.23435.2657-.15625.4981-.36328.6973-.6211l.6621.51563c-.5312.81642-1.3281 1.22462-2.3906 1.22462zm-.1348-5.68361c-.4375 0-.8047.16016-1.1015.48047-.2969.31641-.4805.76172-.5508 1.33594h3.1758v-.08203c-.0313-.55078-.1797-.97656-.4454-1.27735-.2656-.30468-.625-.45703-1.0781-.45703zm4.8867-.77343l.0293.70312c.4649-.54687 1.0918-.82031 1.8809-.82031.8867 0 1.4902.33984 1.8105 1.01953.211-.30469.4844-.55078.8203-.73828.3399-.1875.7403-.28125 1.2012-.28125 1.3906 0 2.0977.73633 2.1211 2.20898V11h-1.084V6.81641c0-.45313-.1035-.79102-.3105-1.01368-.207-.22656-.5547-.33984-1.043-.33984-.4023 0-.7363.12109-1.0019.36328-.2657.23828-.42.56055-.4629.9668V11h-1.0899V6.8457c0-.92187-.4511-1.38281-1.3535-1.38281-.7109 0-1.1973.30273-1.459.9082V11h-1.084V4.66016h1.0254zM44.625 11c-.0625-.125-.1133-.3477-.1523-.668-.5039.5235-1.1055.7852-1.8047.7852-.625 0-1.1387-.1758-1.541-.5274-.3985-.3554-.5977-.80464-.5977-1.34761 0-.66016.25-1.17188.75-1.53516.5039-.36719 1.2109-.55078 2.1211-.55078h1.0547V6.6582c0-.3789-.1133-.67968-.3399-.90234-.2265-.22656-.5605-.33984-1.0019-.33984-.3867 0-.711.09765-.9727.29296-.2617.19532-.3926.43164-.3926.70899h-1.0898c0-.31641.1113-.62109.334-.91406.2266-.29688.5312-.53125.914-.70313.3868-.17187.8106-.25781 1.2715-.25781.7305 0 1.3028.18359 1.7168.55078.4141.36328.6289.86523.6446 1.50586v2.91797c0 .58202.0742 1.04492.2226 1.38862V11H44.625zm-1.7988-.8262c.3398 0 .6621-.0879.9668-.26364.3047-.17578.5254-.4043.6621-.68555V7.92383h-.8496c-1.3282 0-1.9922.38867-1.9922 1.16601 0 .33985.1133.60547.3398.79688.2266.19138.5176.28708.8731.28708zM48.416 11h-1.084V4.66016h1.084V11zm-1.1719-8.02148c0-.17579.0528-.32422.1582-.44532.1094-.12109.2696-.18164.4805-.18164.211 0 .3711.06055.4805.18164.1094.1211.164.26953.164.44532 0 .17578-.0546.32226-.164.43945-.1094.11719-.2695.17578-.4805.17578-.2109 0-.3711-.05859-.4805-.17578-.1054-.11719-.1582-.26367-.1582-.43945zM51.334 11H50.25V2h1.084v9zm11.1035-2.94141c-.0469.94532-.2813 1.69141-.7031 2.23831-.4219.5469-.9864.8203-1.6934.8203-.7305 0-1.1992-.3281-1.4062-.9844-.211.332-.4532.5801-.7266.7442-.2695.1601-.5488.2402-.8379.2402-.5547 0-.9746-.2266-1.2598-.6797-.2851-.45312-.3906-1.08008-.3164-1.88086.0586-.64453.2051-1.21875.4395-1.72266.2383-.50781.543-.90625.9141-1.19531.375-.28906.7675-.43359 1.1777-.43359.3164 0 .5996.04297.8496.1289.25.08204.5312.2461.8438.49219l-.3047 3.2461c-.0743.90234.1757 1.35353.75 1.35353.4414 0 .7988-.2188 1.0722-.65627.2735-.4375.4219-1.00781.4453-1.71094.0743-1.51953-.2089-2.67773-.8496-3.47461-.6367-.79687-1.6074-1.19531-2.9121-1.19531-.7851 0-1.4824.19531-2.0918.58594-.6093.38672-1.0898.94727-1.4414 1.68164-.3515.73437-.5488 1.58203-.5918 2.54297-.0469.96875.0703 1.81058.3516 2.52538.2812.7109.709 1.2539 1.2832 1.6289.5781.3789 1.2754.5684 2.0918.5684.3515 0 .7031-.043 1.0547-.1289.3554-.086.6504-.1973.8847-.334l.2168.6738c-.2422.1524-.5644.2774-.9668.375-.3984.0977-.8027.1465-1.2129.1465-.9765 0-1.8164-.2207-2.5195-.6621-.7031-.4375-1.2305-1.0703-1.582-1.8984-.3477-.8243-.4981-1.78911-.4512-2.89458.0469-1.07422.2871-2.03906.7207-2.89453.4336-.85938 1.0215-1.52149 1.7637-1.98633.7422-.46875 1.5801-.70313 2.5137-.70313.9726 0 1.8066.21875 2.5019.65625s1.2129 1.06836 1.5527 1.89258c.3399.82422.4864 1.78906.4395 2.89453zm-6.0117.49805c-.0547.55469-.0039.98047.1523 1.27734.1602.29692.4121.44532.7559.44532.2344 0 .459-.0996.6738-.29883.2188-.19922.3984-.48438.5391-.85547l.0058-.05273.2696-2.94727c-.2188-.11328-.4532-.16992-.7032-.16992-.457 0-.8359.23242-1.1367.69726-.2969.46485-.4824 1.09961-.5566 1.9043zm7.1719-.7793c0-.98828.2285-1.77343.6855-2.35546.457-.58594 1.0625-.87891 1.8164-.87891.7734 0 1.377.27344 1.8106.82031l.0527-.70312h.9902v6.18754c0 .8203-.2441 1.4668-.7324 1.9394-.4844.4727-1.1367.709-1.957.709-.4571 0-.9043-.0977-1.3418-.293-.4375-.1953-.7715-.4629-1.002-.8027l.5625-.6504c.4649.5742 1.0332.8613 1.7051.8613.5273 0 .9375-.1484 1.2305-.4453.2968-.2969.4453-.7148.4453-1.2539v-.5449c-.4336.5-1.0254.75-1.7754.75-.7422 0-1.3438-.2988-1.8047-.8965-.457-.59765-.6855-1.41211-.6855-2.44336zm1.0898.12305c0 .71484.1465 1.27734.4395 1.6875.2929.40625.7031.60941 1.2304.60941.6836 0 1.1856-.31058 1.5059-.93168V6.37109c-.3321-.60547-.8301-.9082-1.4942-.9082-.5273 0-.9394.20508-1.2363.61523-.2969.41016-.4453 1.01758-.4453 1.82227zm6.9258-3.24023l.0293.70312c.4648-.54687 1.0918-.82031 1.8808-.82031.8868 0 1.4903.33984 1.8106 1.01953.2109-.30469.4844-.55078.8203-.73828.3398-.1875.7402-.28125 1.2012-.28125 1.3906 0 2.0976.73633 2.1211 2.20898V11h-1.084V6.81641c0-.45313-.1035-.79102-.3106-1.01368-.207-.22656-.5547-.33984-1.0429-.33984-.4024 0-.7364.12109-1.002.36328-.2656.23828-.4199.56055-.4629.9668V11h-1.0898V6.8457c0-.92187-.4512-1.38281-1.3535-1.38281-.711 0-1.1973.30273-1.459.9082V11h-1.084V4.66016h1.0254zM85.0312 11c-.0624-.125-.1132-.3477-.1523-.668-.5039.5235-1.1055.7852-1.8047.7852-.625 0-1.1387-.1758-1.541-.5274-.3984-.3554-.5977-.80464-.5977-1.34761 0-.66016.25-1.17188.75-1.53516.504-.36719 1.211-.55078 2.1211-.55078h1.0547V6.6582c0-.3789-.1133-.67968-.3398-.90234-.2266-.22656-.5606-.33984-1.002-.33984-.3867 0-.7109.09765-.9726.29296-.2617.19532-.3926.43164-.3926.70899h-1.0898c0-.31641.1113-.62109.3339-.91406.2266-.29688.5313-.53125.9141-.70313.3867-.17187.8105-.25781 1.2715-.25781.7305 0 1.3027.18359 1.7168.55078.414.36328.6289.86523.6445 1.50586v2.91797c0 .58202.0742 1.04492.2227 1.38862V11h-1.1368zm-1.7988-.8262c.3399 0 .6621-.0879.9668-.26364.3047-.17578.5254-.4043.6621-.68555V7.92383h-.8496c-1.3281 0-1.9922.38867-1.9922 1.16601 0 .33985.1133.60547.3399.79688.2265.19138.5176.28708.873.28708zM88.8223 11h-1.084V4.66016h1.084V11zm-1.1719-8.02148c0-.17579.0527-.32422.1582-.44532.1094-.12109.2695-.18164.4805-.18164.2109 0 .3711.06055.4804.18164.1094.1211.1641.26953.1641.44532 0 .17578-.0547.32226-.1641.43945-.1093.11719-.2695.17578-.4804.17578-.211 0-.3711-.05859-.4805-.17578-.1055-.11719-.1582-.26367-.1582-.43945zM91.7402 11h-1.084V2h1.084v9zm1.7637-.5684c0-.1875.0547-.3437.1641-.46871.1132-.125.2812-.1875.5039-.1875.2226 0 .3906.0625.5039.1875.1172.12501.1758.28121.1758.46871 0 .1797-.0586.3301-.1758.4512-.1133.1211-.2813.1817-.5039.1817-.2227 0-.3907-.0606-.5039-.1817-.1094-.1211-.1641-.2715-.1641-.4512zm5.6836-.1992c.3867 0 .7246-.1172 1.0135-.35154.289-.23438.449-.52734.481-.87891h1.025c-.019.36328-.145.70899-.375 1.03715-.23.3281-.539.5898-.926.7851-.383.1953-.7888.293-1.2185.293-.8633 0-1.5508-.2871-2.0625-.8613-.5078-.57817-.7617-1.36723-.7617-2.36723v-.18164c0-.61719.1133-1.16601.3398-1.64648.2266-.48047.5508-.85352.9727-1.11914.4258-.26563.9277-.39844 1.5058-.39844.711 0 1.3004.21289 1.7694.63867.473.42578.725.97852.756 1.6582h-1.025c-.032-.41015-.188-.74609-.469-1.00781-.2775-.26562-.6212-.39844-1.0314-.39844-.5507 0-.9785.19922-1.2832.59766-.3007.39453-.4511.9668-.4511 1.7168v.20507c0 .73047.1504 1.29297.4511 1.6875.3008.39458.7305.59178 1.2891.59178zm3.4515-2.46092c0-.62109.121-1.17968.363-1.67578.246-.49609.586-.8789 1.019-1.14843.438-.26954.936-.4043 1.495-.4043.863 0 1.56.29883 2.091.89648.536.59766.803 1.39258.803 2.38477v.07617c0 .61719-.119 1.17188-.357 1.66406-.235.48825-.573.86915-1.014 1.14255-.437.2735-.941.4102-1.512.4102-.859 0-1.556-.2988-2.091-.8965-.532-.59765-.797-1.38867-.797-2.37304v-.07618zm1.09.12891c0 .70313.162 1.26758.486 1.69336.328.42575.765.63865 1.312.63865.551 0 .989-.2148 1.313-.64451.324-.43359.486-1.03906.486-1.81641 0-.69531-.166-1.25781-.498-1.6875-.328-.43359-.766-.65039-1.312-.65039-.536 0-.967.21289-1.295.63868-.328.42578-.492 1.03515-.492 1.82812zm7.06-3.24023l.029.70312c.465-.54687 1.092-.82031 1.881-.82031.887 0 1.49.33984 1.811 1.01953.211-.30469.484-.55078.82-.73828.34-.1875.74-.28125 1.201-.28125 1.391 0 2.098.73633 2.121 2.20898V11h-1.084V6.81641c0-.45313-.103-.79102-.31-1.01368-.207-.22656-.555-.33984-1.043-.33984-.403 0-.736.12109-1.002.36328-.266.23828-.42.56055-.463.9668V11h-1.09V6.8457c0-.92187-.451-1.38281-1.353-1.38281-.711 0-1.198.30273-1.459.9082V11h-1.084V4.66016h1.025z" fill="#1A7592"/></svg>