<svg width="132" height="26" viewBox="0 0 132 26" fill="none" xmlns="http://www.w3.org/2000/svg"><path d="M8.802 17.21H3.33L2.322 20H.594L5.13 7.526h1.89L11.538 20H9.81l-1.008-2.79zm-.468-1.332L6.066 9.542l-2.268 6.336h4.536zm4.5689-.846c0-1.008.204-1.89.612-2.646.408-.768.966-1.362 1.674-1.782.72-.42 1.524-.63 2.412-.63.768 0 1.482.18 2.142.54.66.348 1.164.81 1.512 1.386V6.68h1.656V20h-1.656v-1.854c-.324.588-.804 1.074-1.44 1.458-.636.372-1.38.558-2.232.558-.876 0-1.674-.216-2.394-.648-.708-.432-1.266-1.038-1.674-1.818-.408-.78-.612-1.668-.612-2.664zm8.352.018c0-.744-.15-1.392-.45-1.944-.3-.552-.708-.972-1.224-1.26-.504-.3-1.062-.45-1.674-.45-.612 0-1.17.144-1.674.432-.504.288-.906.708-1.206 1.26-.3.552-.45 1.2-.45 1.944 0 .756.15 1.416.45 1.98.3.552.702.978 1.206 1.278.504.288 1.062.432 1.674.432.612 0 1.17-.144 1.674-.432.516-.3.924-.726 1.224-1.278.3-.564.45-1.218.45-1.962zM37.541 9.956c.768 0 1.452.162 2.052.486.6.312 1.074.786 1.422 1.422.348.636.522 1.41.522 2.322V20h-1.62v-5.58c0-.984-.246-1.734-.738-2.25-.48-.528-1.134-.792-1.962-.792-.852 0-1.53.276-2.034.828-.504.54-.756 1.326-.756 2.358V20h-1.62v-5.58c0-.984-.246-1.734-.738-2.25-.48-.528-1.134-.792-1.962-.792-.852 0-1.53.276-2.034.828-.504.54-.756 1.326-.756 2.358V20h-1.638v-9.864h1.638v1.422c.324-.516.756-.912 1.296-1.188.552-.276 1.158-.414 1.818-.414.828 0 1.56.186 2.196.558.636.372 1.11.918 1.422 1.638.276-.696.732-1.236 1.368-1.62.636-.384 1.344-.576 2.124-.576zm7.5289-1.422c-.312 0-.576-.108-.792-.324-.216-.216-.324-.48-.324-.792 0-.312.108-.576.324-.792.216-.216.48-.324.792-.324.3 0 .552.108.756.324.216.216.324.48.324.792 0 .312-.108.576-.324.792-.204.216-.456.324-.756.324zm.792 1.602V20h-1.638v-9.864h1.638zm7.5977-.18c1.2 0 2.172.366 2.916 1.098.744.72 1.116 1.764 1.116 3.132V20h-1.62v-5.58c0-.984-.246-1.734-.738-2.25-.492-.528-1.164-.792-2.016-.792-.864 0-1.554.27-2.07.81-.504.54-.756 1.326-.756 2.358V20h-1.638v-9.864h1.638v1.404c.324-.504.762-.894 1.314-1.17.564-.276 1.182-.414 1.854-.414zm10.1997 10.206c-.756 0-1.434-.126-2.034-.378-.6-.264-1.074-.624-1.422-1.08-.348-.468-.54-1.002-.576-1.602h1.692c.048.492.276.894.684 1.206.42.312.966.468 1.638.468.624 0 1.116-.138 1.476-.414.36-.276.54-.624.54-1.044 0-.432-.192-.75-.576-.954-.384-.216-.978-.426-1.782-.63-.732-.192-1.332-.384-1.8-.576-.456-.204-.852-.498-1.188-.882-.324-.396-.486-.912-.486-1.548 0-.504.15-.966.45-1.386.3-.42.726-.75 1.278-.99.552-.252 1.182-.378 1.89-.378 1.092 0 1.974.276 2.646.828.672.552 1.032 1.308 1.08 2.268h-1.638c-.036-.516-.246-.93-.63-1.242-.372-.312-.876-.468-1.512-.468-.588 0-1.056.126-1.404.378-.348.252-.522.582-.522.99 0 .324.102.594.306.81.216.204.48.372.792.504.324.12.768.258 1.332.414.708.192 1.284.384 1.728.576.444.18.822.456 1.134.828.324.372.492.858.504 1.458 0 .54-.15 1.026-.45 1.458-.3.432-.726.774-1.278 1.026-.54.24-1.164.36-1.872.36zm7.9102-8.676V17.3c0 .48.102.822.306 1.026.204.192.558.288 1.062.288h1.206V20h-1.476c-.912 0-1.596-.21-2.052-.63-.456-.42-.684-1.11-.684-2.07v-5.814h-1.278v-1.35h1.278V7.652h1.638v2.484h2.574v1.35h-2.574zm6.1967.252c.288-.564.696-1.002 1.224-1.314.54-.312 1.194-.468 1.962-.468v1.692h-.432c-1.836 0-2.754.996-2.754 2.988V20h-1.638v-9.864h1.638v1.602zm4.4648 3.294c0-1.008.204-1.89.612-2.646.408-.768.966-1.362 1.674-1.782.72-.42 1.518-.63 2.394-.63.864 0 1.614.186 2.25.558.636.372 1.11.84 1.422 1.404v-1.8h1.656V20h-1.656v-1.836c-.324.576-.81 1.056-1.458 1.44-.636.372-1.38.558-2.232.558-.876 0-1.668-.216-2.376-.648-.708-.432-1.266-1.038-1.674-1.818-.408-.78-.612-1.668-.612-2.664zm8.352.018c0-.744-.15-1.392-.45-1.944-.3-.552-.708-.972-1.224-1.26-.504-.3-1.062-.45-1.674-.45-.612 0-1.17.144-1.674.432-.504.288-.906.708-1.206 1.26-.3.552-.45 1.2-.45 1.944 0 .756.15 1.416.45 1.98.3.552.702.978 1.206 1.278.504.288 1.062.432 1.674.432.612 0 1.17-.144 1.674-.432.516-.3.924-.726 1.224-1.278.3-.564.45-1.218.45-1.962zm6.4221-3.564V17.3c0 .48.102.822.306 1.026.204.192.558.288 1.062.288h1.206V20h-1.476c-.912 0-1.596-.21-2.052-.63-.456-.42-.684-1.11-.684-2.07v-5.814h-1.278v-1.35h1.278V7.652h1.638v2.484h2.574v1.35h-2.574zm8.8609 8.676c-.924 0-1.764-.21-2.52-.63-.744-.42-1.332-1.014-1.764-1.782-.42-.78-.63-1.68-.63-2.7 0-1.008.216-1.896.648-2.664.444-.78 1.044-1.374 1.8-1.782.756-.42 1.602-.63 2.538-.63.936 0 1.782.21 2.538.63.756.408 1.35.996 1.782 1.764.444.768.666 1.662.666 2.682s-.228 1.92-.684 2.7c-.444.768-1.05 1.362-1.818 1.782-.768.42-1.62.63-2.556.63zm0-1.44c.588 0 1.14-.138 1.656-.414.516-.276.93-.69 1.242-1.242.324-.552.486-1.224.486-2.016s-.156-1.464-.468-2.016c-.312-.552-.72-.96-1.224-1.224-.504-.276-1.05-.414-1.638-.414-.6 0-1.152.138-1.656.414-.492.264-.888.672-1.188 1.224-.3.552-.45 1.224-.45 2.016 0 .804.144 1.482.432 2.034.3.552.696.966 1.188 1.242.492.264 1.032.396 1.62.396zm8.849-6.984c.288-.564.696-1.002 1.224-1.314.54-.312 1.194-.468 1.962-.468v1.692h-.432c-1.836 0-2.754.996-2.754 2.988V20h-1.638v-9.864h1.638v1.602z" fill="#ABABAB"/></svg>