<svg width="291" height="35" viewBox="0 0 291 35" fill="none" xmlns="http://www.w3.org/2000/svg"><path d="M4.347 12.131v4.692h5.52v2.139h-5.52v4.899h6.21V26H1.725V9.992h8.832v2.139h-6.21zm15.8335.989c.9967 0 1.886.207 2.668.621.7974.414 1.4184 1.0273 1.863 1.84.4447.8127.667 1.794.667 2.944V26h-2.599v-7.084c0-1.1347-.2836-2.001-.851-2.599-.5673-.6133-1.3416-.92-2.323-.92-.9813 0-1.7633.3067-2.346.92-.5673.598-.851 1.4643-.851 2.599V26h-2.622V13.327h2.622v1.449c.4294-.5213.9737-.9277 1.633-1.219.6747-.2913 1.3877-.437 2.139-.437zm11.6015 2.346v7.015c0 .4753.1074.8203.322 1.035.23.1993.6134.299 1.15.299h1.61V26h-2.07c-1.1806 0-2.0853-.276-2.714-.828-.6286-.552-.943-1.449-.943-2.691v-7.015h-1.495v-2.139h1.495v-3.151h2.645v3.151h3.082v2.139h-3.082zm17.1137 3.887c0 .4753-.0307.9047-.092 1.288h-9.683c.0766 1.012.4523 1.8247 1.127 2.438.6746.6133 1.5026.92 2.484.92 1.4106 0 2.4073-.5903 2.99-1.771h2.829c-.3834 1.1653-1.081 2.1237-2.093 2.875-.9967.736-2.2387 1.104-3.726 1.104-1.2114 0-2.3-.2683-3.266-.805-.9507-.552-1.702-1.3187-2.254-2.3-.5367-.9967-.805-2.1467-.805-3.45 0-1.3033.2606-2.4457.782-3.427.5366-.9967 1.2803-1.7633 2.231-2.3.966-.5367 2.07-.805 3.312-.805 1.196 0 2.2616.2607 3.197.782.9353.5213 1.6636 1.2573 2.185 2.208.5213.9353.782 2.0163.782 3.243zm-2.737-.828c-.0154-.966-.3604-1.7403-1.035-2.323-.6747-.5827-1.5104-.874-2.507-.874-.9047 0-1.679.2913-2.323.874-.644.5673-1.0274 1.3417-1.15 2.323h7.015zm7.9393-3.358c.3833-.644.8893-1.1423 1.518-1.495.644-.368 1.403-.552 2.277-.552v2.714h-.667c-1.0274 0-1.8094.2607-2.346.782-.5214.5213-.782 1.426-.782 2.714V26h-2.622V13.327h2.622v1.84zm23.5877-1.84l-7.774 18.63h-2.714l2.576-6.164-4.991-12.466h2.921l3.565 9.66 3.703-9.66h2.714zm7.4758 12.88c-1.196 0-2.277-.2683-3.243-.805-.966-.552-1.725-1.3187-2.277-2.3-.552-.9967-.828-2.1467-.828-3.45 0-1.288.2836-2.4303.851-3.427.5673-.9967 1.3416-1.7633 2.323-2.3.9813-.5367 2.0776-.805 3.289-.805 1.2113 0 2.3076.2683 3.289.805.9813.5367 1.7556 1.3033 2.323 2.3.5673.9967.851 2.139.851 3.427 0 1.288-.2914 2.4303-.874 3.427-.5827.9967-1.38 1.771-2.392 2.323-.9967.5367-2.1007.805-3.312.805zm0-2.277c.6746 0 1.3033-.161 1.886-.483.598-.322 1.081-.805 1.449-1.449.368-.644.552-1.426.552-2.346 0-.92-.1764-1.6943-.529-2.323-.3527-.644-.8204-1.127-1.403-1.449-.5827-.322-1.2114-.483-1.886-.483-.6747 0-1.3034.161-1.886.483-.5674.322-1.0197.805-1.357 1.449-.3374.6287-.506 1.403-.506 2.323 0 1.3647.345 2.4227 1.035 3.174.7053.736 1.587 1.104 2.645 1.104zm20.6465-10.603V26h-2.622v-1.495c-.414.5213-.958.9353-1.633 1.242-.659.2913-1.364.437-2.1156.437-.9966 0-1.8936-.207-2.691-.621-.782-.414-1.403-1.0273-1.863-1.84-.4446-.8127-.667-1.794-.667-2.944v-7.452h2.599v7.061c0 1.1347.2837 2.0087.851 2.622.5674.598 1.3417.897 2.323.897.9816 0 1.7556-.299 2.3226-.897.583-.6133.874-1.4873.874-2.622v-7.061h2.622zm6.082 1.84c.383-.644.889-1.1423 1.518-1.495.644-.368 1.403-.552 2.277-.552v2.714h-.667c-1.027 0-1.809.2607-2.346.782-.521.5213-.782 1.426-.782 2.714V26h-2.622V13.327h2.622v1.84zm18.574-2.047c.996 0 1.886.207 2.668.621.797.414 1.418 1.0273 1.863 1.84.444.8127.667 1.794.667 2.944V26h-2.599v-7.084c0-1.1347-.284-2.001-.851-2.599-.568-.6133-1.342-.92-2.323-.92-.982 0-1.764.3067-2.346.92-.568.598-.851 1.4643-.851 2.599V26h-2.622V13.327h2.622v1.449c.429-.5213.973-.9277 1.633-1.219.674-.2913 1.387-.437 2.139-.437zm20.157 6.233c0 .4753-.03.9047-.092 1.288h-9.683c.077 1.012.453 1.8247 1.127 2.438.675.6133 1.503.92 2.484.92 1.411 0 2.408-.5903 2.99-1.771h2.829c-.383 1.1653-1.081 2.1237-2.093 2.875-.996.736-2.238 1.104-3.726 1.104-1.211 0-2.3-.2683-3.266-.805-.95-.552-1.702-1.3187-2.254-2.3-.536-.9967-.805-2.1467-.805-3.45 0-1.3033.261-2.4457.782-3.427.537-.9967 1.281-1.7633 2.231-2.3.966-.5367 2.07-.805 3.312-.805 1.196 0 2.262.2607 3.197.782.936.5213 1.664 1.2573 2.185 2.208.522.9353.782 2.0163.782 3.243zm-2.737-.828c-.015-.966-.36-1.7403-1.035-2.323-.674-.5827-1.51-.874-2.507-.874-.904 0-1.679.2913-2.323.874-.644.5673-1.027 1.3417-1.15 2.323h7.015zm22.338-5.198L166.289 26h-2.76l-2.553-9.361L158.423 26h-2.76l-3.956-12.673h2.668l2.645 10.189 2.691-10.189h2.737l2.576 10.143 2.622-10.143h2.576zm10.556 1.863c.444-.5827 1.05-1.0733 1.817-1.472.766-.3987 1.633-.598 2.599-.598 1.104 0 2.108.276 3.013.828.92.5367 1.64 1.2957 2.162 2.277.521.9813.782 2.1083.782 3.381s-.261 2.415-.782 3.427c-.522.9967-1.242 1.7787-2.162 2.346-.905.552-1.909.828-3.013.828-.966 0-1.825-.1917-2.576-.575-.752-.3987-1.365-.8893-1.84-1.472v7.866h-2.622V13.327h2.622v1.863zm7.705 4.416c0-.874-.184-1.6253-.552-2.254-.353-.644-.828-1.127-1.426-1.449-.583-.3373-1.212-.506-1.886-.506-.66 0-1.288.1687-1.886.506-.583.3373-1.058.828-1.426 1.472-.353.644-.529 1.403-.529 2.277 0 .874.176 1.6407.529 2.3.368.644.843 1.1347 1.426 1.472.598.3373 1.226.506 1.886.506.674 0 1.303-.1687 1.886-.506.598-.3527 1.073-.8587 1.426-1.518.368-.6593.552-1.426.552-2.3zm4.387 0c0-1.2727.26-2.3997.782-3.381.536-.9813 1.257-1.7403 2.162-2.277.92-.552 1.932-.828 3.036-.828.996 0 1.863.1993 2.599.598.751.3833 1.349.8663 1.794 1.449v-1.84h2.645V26h-2.645v-1.886c-.445.598-1.051 1.0963-1.817 1.495-.767.3987-1.641.598-2.622.598-1.089 0-2.086-.276-2.99-.828-.905-.5673-1.626-1.3493-2.162-2.346-.522-1.012-.782-2.1543-.782-3.427zm10.373.046c0-.874-.184-1.633-.552-2.277-.353-.644-.821-1.1347-1.403-1.472-.583-.3373-1.212-.506-1.886-.506-.675 0-1.304.1687-1.886.506-.583.322-1.058.805-1.426 1.449-.353.6287-.529 1.38-.529 2.254 0 .874.176 1.6407.529 2.3.368.6593.843 1.1653 1.426 1.518.598.3373 1.226.506 1.886.506.674 0 1.303-.1687 1.886-.506.582-.3373 1.05-.828 1.403-1.472.368-.6593.552-1.426.552-2.3zm10.688 6.555c-.996 0-1.893-.1763-2.691-.529-.782-.368-1.403-.8587-1.863-1.472-.46-.6287-.705-1.3263-.736-2.093h2.714c.046.5367.299.989.759 1.357.476.3527 1.066.529 1.771.529.736 0 1.304-.138 1.702-.414.414-.2913.621-.6593.621-1.104 0-.4753-.23-.828-.69-1.058-.444-.23-1.157-.483-2.139-.759-.95-.2607-1.725-.5137-2.323-.759-.598-.2453-1.119-.621-1.564-1.127-.429-.506-.644-1.173-.644-2.001 0-.6747.2-1.288.598-1.84.399-.5673.966-1.012 1.702-1.334.752-.322 1.61-.483 2.576-.483 1.442 0 2.599.368 3.473 1.104.89.7207 1.365 1.7097 1.426 2.967h-2.622c-.046-.5673-.276-1.0197-.69-1.357-.414-.3373-.973-.506-1.679-.506-.69 0-1.219.1303-1.587.391-.368.2607-.552.6057-.552 1.035 0 .3373.123.621.368.851.246.23.545.414.897.552.353.1227.874.2837 1.564.483.92.2453 1.672.4983 2.254.759.598.2453 1.112.6133 1.541 1.104.43.4907.652 1.1423.667 1.955 0 .7207-.199 1.3647-.598 1.932-.398.5673-.966 1.012-1.702 1.334-.72.322-1.571.483-2.553.483zm12.287 0c-.997 0-1.894-.1763-2.691-.529-.782-.368-1.403-.8587-1.863-1.472-.46-.6287-.706-1.3263-.736-2.093h2.714c.046.5367.299.989.759 1.357.475.3527 1.065.529 1.771.529.736 0 1.303-.138 1.702-.414.414-.2913.621-.6593.621-1.104 0-.4753-.23-.828-.69-1.058-.445-.23-1.158-.483-2.139-.759-.951-.2607-1.725-.5137-2.323-.759-.598-.2453-1.12-.621-1.564-1.127-.43-.506-.644-1.173-.644-2.001 0-.6747.199-1.288.598-1.84.398-.5673.966-1.012 1.702-1.334.751-.322 1.61-.483 2.576-.483 1.441 0 2.599.368 3.473 1.104.889.7207 1.364 1.7097 1.426 2.967h-2.622c-.046-.5673-.276-1.0197-.69-1.357-.414-.3373-.974-.506-1.679-.506-.69 0-1.219.1303-1.587.391-.368.2607-.552.6057-.552 1.035 0 .3373.122.621.368.851.245.23.544.414.897.552.352.1227.874.2837 1.564.483.92.2453 1.671.4983 2.254.759.598.2453 1.111.6133 1.541 1.104.429.4907.651 1.1423.667 1.955 0 .7207-.2 1.3647-.598 1.932-.399.5673-.966 1.012-1.702 1.334-.721.322-1.572.483-2.553.483zm24.706-12.88L246.991 26h-2.76l-2.553-9.361L239.125 26h-2.76l-3.956-12.673h2.668l2.645 10.189 2.691-10.189h2.737l2.576 10.143 2.622-10.143h2.576zm7.456 12.88c-1.196 0-2.277-.2683-3.243-.805-.966-.552-1.725-1.3187-2.277-2.3-.552-.9967-.828-2.1467-.828-3.45 0-1.288.284-2.4303.851-3.427.568-.9967 1.342-1.7633 2.323-2.3.982-.5367 2.078-.805 3.289-.805 1.212 0 2.308.2683 3.289.805.982.5367 1.756 1.3033 2.323 2.3.568.9967.851 2.139.851 3.427 0 1.288-.291 2.4303-.874 3.427-.582.9967-1.38 1.771-2.392 2.323-.996.5367-2.1.805-3.312.805zm0-2.277c.675 0 1.304-.161 1.886-.483.598-.322 1.081-.805 1.449-1.449.368-.644.552-1.426.552-2.346 0-.92-.176-1.6943-.529-2.323-.352-.644-.82-1.127-1.403-1.449-.582-.322-1.211-.483-1.886-.483-.674 0-1.303.161-1.886.483-.567.322-1.019.805-1.357 1.449-.337.6287-.506 1.403-.506 2.323 0 1.3647.345 2.4227 1.035 3.174.706.736 1.587 1.104 2.645 1.104zm11.792-8.763c.384-.644.89-1.1423 1.518-1.495.644-.368 1.403-.552 2.277-.552v2.714h-.667c-1.027 0-1.809.2607-2.346.782-.521.5213-.782 1.426-.782 2.714V26h-2.622V13.327h2.622v1.84zm5.331 4.439c0-1.2727.261-2.3997.782-3.381.537-.9813 1.258-1.7403 2.162-2.277.92-.552 1.94-.828 3.059-.828.828 0 1.641.184 2.438.552.813.3527 1.457.828 1.932 1.426V8.98h2.645V26h-2.645v-1.909c-.429.6133-1.027 1.1193-1.794 1.518-.751.3987-1.617.598-2.599.598-1.104 0-2.116-.276-3.036-.828-.904-.5673-1.625-1.3493-2.162-2.346-.521-1.012-.782-2.1543-.782-3.427zm10.373.046c0-.874-.184-1.633-.552-2.277-.352-.644-.82-1.1347-1.403-1.472-.582-.3373-1.211-.506-1.886-.506-.674 0-1.303.1687-1.886.506-.582.322-1.058.805-1.426 1.449-.352.6287-.529 1.38-.529 2.254 0 .874.177 1.6407.529 2.3.368.6593.844 1.1653 1.426 1.518.598.3373 1.227.506 1.886.506.675 0 1.304-.1687 1.886-.506.583-.3373 1.051-.828 1.403-1.472.368-.6593.552-1.426.552-2.3z" fill="#545454"/></svg>