<svg width="534" height="409" viewBox="0 0 534 409" fill="none" xmlns="http://www.w3.org/2000/svg"><g clip-path="url(#clip0)"><path d="M306.83 246.422l-61.821 16.263 11.326 33.523 61.821-16.262-11.326-33.524z" fill="url(#paint0_linear)"/><path d="M305.773 247.603l-59.726 15.711 10.571 31.29 59.726-15.711-10.571-31.29z" fill="#fff"/><g opacity=".6" fill="#6C63FF"><path opacity=".6" d="M251.152 269.918l7.601-2-1.677-4.962-7.6 1.999 1.676 4.963zM260.648 277.93l29.175-7.675-.543-1.609-29.176 7.675.544 1.609zM269.731 279.336l21.273-5.596-.362-1.072-21.274 5.596.363 1.072z"/></g><path d="M403.171 166.947l-7.578 34.337 63.32 10.881 7.578-34.337-63.32-10.881z" fill="url(#paint1_linear)"/><path d="M402.762 168.459l-7.03 31.998 61.077 10.449 7.03-31.998-61.077-10.449z" fill="#fff"/><g opacity=".6" fill="#6C63FF"><path opacity=".6" d="M404.743 175.916l7.785 1.337 1.122-5.082-7.785-1.338-1.122 5.083zM408.945 186.9l29.883 5.135.364-1.648-29.883-5.135-.364 1.648zM416.253 191.866l21.79 3.744.242-1.098-21.789-3.745-.243 1.099z"/></g><path d="M442.549 234.736l-36.37 13.921 25.672 52.221 36.369-13.921-25.671-52.221z" fill="url(#paint2_linear)"/><path d="M441.96 235.725l-33.946 12.994 24.801 50.451 33.946-12.993-24.801-50.452z" fill="#fff"/><g opacity=".6" fill="#47E6B1"><path opacity=".6" d="M435.046 240.966l3.157 6.421 5.383-2.061-3.156-6.42-5.384 2.06zM427.163 250.242l12.115 24.645 1.745-.668-12.115-24.645-1.745.668zM426.656 258.367l8.834 17.97 1.164-.445-8.834-17.971-1.164.446z"/></g><path d="M265.907 81.5174l-61.821 16.2621 11.326 33.5235 61.821-16.262-11.326-33.5236z" fill="url(#paint3_linear)"/><path d="M264.849 82.7032l-59.725 15.7111 10.571 31.2897 59.726-15.711-10.572-31.2898z" fill="#fff"/><g opacity=".6" fill="#F55F44"><path opacity=".6" d="M210.195 105.029l7.6-1.999-1.676-4.9629-7.601 1.9999 1.677 4.962zM219.696 113.04l29.176-7.675-.544-1.609-29.175 7.675.543 1.609zM228.773 114.447l21.274-5.596-.363-1.072-21.273 5.596.362 1.072z"/></g><path d="M362.233 2.05055l-7.578 34.33665 63.32 10.8809 7.578-34.3367-63.32-10.88085z" fill="url(#paint4_linear)"/><path d="M362.822 3.04122l-7.073 32.04858 61.174 10.5122 7.073-32.0486-61.174-10.51218z" fill="#fff"/><g opacity=".6" fill="#6C63FF"><path opacity=".6" d="M363.803 11.0223l7.785 1.3378 1.122-5.08276-7.785-1.33777-1.122 5.08273zM368.005 22.006l29.883 5.1351.363-1.648-29.882-5.1351-.364 1.648zM375.314 26.9683l21.79 3.7443.242-1.0986-21.79-3.7444-.242 1.0987z"/></g><path d="M401.603 69.844l-36.37 13.9209 25.672 52.2211 36.37-13.921-25.672-52.221z" fill="url(#paint5_linear)"/><path d="M401.02 70.8309l-33.946 12.9933 24.801 50.4518 33.946-12.993-24.801-50.4521z" fill="#fff"/><g opacity=".6" fill="#47E6B1"><path opacity=".6" d="M394.109 76.0744l3.156 6.4205 5.384-2.0607-3.156-6.4205-5.384 2.0607zM386.219 85.3503l12.115 24.6447 1.746-.668-12.115-24.6449-1.746.6682zM385.715 93.4798l8.834 17.9702 1.164-.445-8.834-17.9706-1.164.4454z"/></g><path d="M92.2245 205.618L30.4038 221.88l11.3259 33.524 61.8203-16.262-11.3255-33.524z" fill="url(#paint6_linear)"/><path d="M91.1731 206.802l-59.7258 15.711 10.5711 31.29 59.7256-15.711-10.5709-31.29z" fill="#fff"/><g opacity=".6" fill="#6C63FF"><path opacity=".6" d="M36.5472 229.149l7.6007-2-1.6765-4.962-7.6007 1.999 1.6765 4.963zM46.0487 237.16l29.1754-7.675-.5436-1.609-29.1754 7.675.5436 1.609zM55.1315 238.566l21.2738-5.596-.3624-1.073-21.2738 5.596.3624 1.073z"/></g><path d="M188.57 126.16l-7.578 34.337 63.32 10.881 7.578-34.337-63.32-10.881z" fill="url(#paint7_linear)"/><path d="M188.48 127.423l-7.03 31.998 61.077 10.449 7.03-31.998-61.077-10.449z" fill="#fff"/><g opacity=".6" fill="#F55F44"><path opacity=".6" d="M190.134 135.127l7.785 1.337 1.122-5.082-7.785-1.338-1.122 5.083zM194.343 146.111l29.883 5.136.363-1.648-29.883-5.136-.363 1.648zM201.65 151.078l21.79 3.744.242-1.098-21.789-3.745-.243 1.099z"/></g><path d="M227.943 193.951l-36.37 13.921 25.671 52.221 36.37-13.921-25.671-52.221z" fill="url(#paint8_linear)"/><path d="M227.359 194.938l-33.946 12.993 24.802 50.452 33.946-12.993-24.802-50.452z" fill="#fff"/><g opacity=".6" fill="#47E6B1"><path opacity=".6" d="M220.443 200.182l3.157 6.42 5.383-2.06-3.156-6.421-5.384 2.061zM212.56 209.452l12.115 24.645 1.746-.668-12.115-24.645-1.746.668zM212.056 217.58l8.834 17.97 1.163-.445-8.834-17.971-1.163.446z"/></g><path d="M99.4985 107.145l-61.8208 16.262 11.3259 33.524 61.8204-16.262-11.3255-33.524z" fill="url(#paint9_linear)"/><path d="M99.5511 107.802L39.7207 123.75l10.7307 31.345 59.8306-15.948-10.7309-31.345z" fill="#fff"/><g opacity=".6" fill="#6C63FF"><path opacity=".6" d="M43.8036 130.678l7.6007-1.999-1.6765-4.963-7.6008 2 1.6766 4.962zM53.2992 138.69l29.1754-7.674-.5436-1.609-29.1754 7.674.5436 1.609zM62.382 140.097l21.2738-5.597-.3624-1.072-21.2738 5.596.3624 1.073z"/></g><path d="M195.319 28.0946l-7.532 34.2821 63.219 10.8153 7.532-34.282-63.219-10.8154z" fill="url(#paint10_linear)"/><path d="M196.423 28.6802l-7.073 32.0486 61.174 10.5121 7.073-32.0486-61.174-10.5121z" fill="#fff"/><g opacity=".6"><path opacity=".6" d="M197.404 36.6608l7.785 1.3377 1.122-5.0827-7.785-1.3378-1.122 5.0828zM201.607 47.6393l29.883 5.1351.364-1.648-29.883-5.1351-.364 1.648z" fill="#6C63FF"/><path opacity=".6" d="M208.909 52.6058l21.79 3.7443.242-1.0987-21.789-3.7443-.243 1.0987z" fill="#F55F44"/></g><path d="M235.208 95.4836l-36.37 13.9214 25.672 52.221 36.37-13.921-25.672-52.2214z" fill="url(#paint11_linear)"/><path d="M234.62 96.4728l-33.947 12.9932 24.802 50.452 33.946-12.994-24.801-50.4512z" fill="#fff"/><g opacity=".6" fill="#47E6B1"><path opacity=".6" d="M227.713 101.714l3.156 6.42 5.384-2.061-3.156-6.4201-5.384 2.0611zM219.823 110.989l12.115 24.646 1.746-.669-12.115-24.645-1.746.668zM219.323 119.107l8.834 17.97 1.163-.446-8.834-17.97-1.163.446z"/></g><path opacity=".25" d="M39.3483 36.2586c1.8603 0 3.3683-1.3307 3.3683-2.9722s-1.508-2.9722-3.3683-2.9722-3.3683 1.3307-3.3683 2.9722 1.508 2.9722 3.3683 2.9722zM390.997 296.584c1.86 0 3.368-1.331 3.368-2.973 0-1.641-1.508-2.972-3.368-2.972-1.861 0-3.369 1.331-3.369 2.972 0 1.642 1.508 2.973 3.369 2.973zM93.4694 281.804c1.8603 0 3.3683-1.33 3.3683-2.972 0-1.641-1.508-2.972-3.3683-2.972s-3.3683 1.331-3.3683 2.972c0 1.642 1.508 2.972 3.3683 2.972zM422.31 240.432c1.86 0 3.368-1.33 3.368-2.972 0-1.641-1.508-2.972-3.368-2.972-1.861 0-3.369 1.331-3.369 2.972 0 1.642 1.508 2.972 3.369 2.972zM454.004 104.092c1.86 0 3.368-1.331 3.368-2.972 0-1.6416-1.508-2.9723-3.368-2.9723-1.861 0-3.369 1.3307-3.369 2.9723 0 1.641 1.508 2.972 3.369 2.972zM205.327 2.64618h-2.993V0h-1.226v2.64618h-2.992v1.07585h2.992v2.64075h1.226V3.72203h2.993V2.64618zM90.0829 43.1429h-2.9927v-2.6407h-1.2254v2.6407h-2.9927v1.0813h2.9927v2.6408h1.2254v-2.6408h2.9927v-1.0813zM43.2035 194.051h-2.9927v-2.641h-1.2254v2.641h-2.9927v1.081h2.9927v2.641h1.2254v-2.641h2.9927v-1.081zM36.4728 86.4328H33.474v-2.6462h-1.2193v2.6462h-2.9988v1.0759h2.9988v2.6461h1.2193v-2.6461h2.9988v-1.0759zM7.21081 160.384h-2.9927v-2.646H2.99886v2.646H0v1.076h2.99886v2.641h1.21925v-2.641h2.9927v-1.076zM534 122.251h-2.993v-2.64h-1.225v2.64h-2.993v1.082h2.993v2.64h1.225v-2.64H534v-1.082zM429.668 156.63h-2.992v-2.647h-1.226v2.647h-2.992v1.075h2.992v2.647h1.226v-2.647h2.992v-1.075zM340.577 63.9103h-2.999v-2.6408h-1.219v2.6408h-2.999v1.0813h2.999v2.6407h1.219v-2.6407h2.999v-1.0813z" fill="#535461"/><path d="M168.662 215.03c-2.155 6.173 1.078 13.47 7.39 16.72 2.642 1.358 5.69 2.048 8.257 3.521 5.573 3.2 7.772 9.34 9.582 14.985 2.075 6.494 4.163 13.356 2.26 19.888-1.232 4.162-3.972 7.846-5.542 11.921-1.312 3.412-1.768 7.034-1.336 10.617.228 1.902.769 3.88 2.241 5.282 2.131 2.026 5.542 2.331 8.621 2.82 6.521 1.092 12.655 3.533 17.9 7.122 5.245 3.589 9.451 8.225 12.273 13.526" stroke="url(#paint12_linear)" stroke-width="2" stroke-miterlimit="10"/><path d="M169.322 215.03c-2.156 6.173 1.077 13.47 7.389 16.72 2.642 1.358 5.69 2.048 8.258 3.521 5.572 3.2 7.771 9.34 9.581 14.985 2.075 6.494 4.163 13.356 2.26 19.888-1.231 4.162-3.972 7.846-5.542 11.921-1.311 3.412-1.767 7.034-1.336 10.617.228 1.902.77 3.88 2.241 5.282 2.131 2.026 5.542 2.331 8.621 2.82 6.521 1.092 12.656 3.533 17.901 7.122 5.244 3.589 9.45 8.225 12.273 13.526" stroke="#535461" stroke-width="2" stroke-miterlimit="10"/><path d="M250.894 168.91c-5.314 6.52-10.832 13.584-11.287 21.609-.696 12.351 10.468 22.452 15.499 34.004 2.164 5.087 3.143 10.508 2.878 15.937-.264 5.428-1.767 10.755-4.417 15.659-2.464 4.451-5.918 8.868-5.493 13.796.258 3.011 1.964 5.744 3.337 8.509 3.37 6.931 4.841 14.465 4.293 21.992-.547 7.526-3.098 14.832-7.445 21.325" stroke="url(#paint13_linear)" stroke-width="2" stroke-miterlimit="10"/><path d="M251.553 168.91c-5.314 6.52-10.831 13.584-11.287 21.609-.696 12.351 10.468 22.452 15.499 34.004 2.165 5.087 3.145 10.507 2.881 15.936-.263 5.429-1.764 10.755-4.414 15.66-2.463 4.451-5.918 8.868-5.493 13.796.259 3.011 1.964 5.744 3.338 8.509 3.37 6.931 4.841 14.465 4.293 21.992-.548 7.526-3.099 14.832-7.446 21.325" stroke="#535461" stroke-width="2" stroke-miterlimit="10"/><path d="M325.502 227.734l2.568 18.474c.339 2.456.616 5.135-.862 7.227-1.416 1.983-4.07 2.929-6.158 4.396-6.773 4.809-6.158 14.046-3.842 21.452 2.315 7.406 5.714 15.361 2.463 22.484-1.343 2.94-3.695 5.434-5.487 8.151-3.003 4.717-4.193 10.165-3.393 15.529" stroke="url(#paint14_linear)" stroke-width="2" stroke-miterlimit="10"/><path d="M326.118 227.734l2.568 18.474c.338 2.456.616 5.135-.862 7.227-1.417 1.983-4.071 2.929-6.158 4.396-6.774 4.809-6.158 14.046-3.843 21.452 2.316 7.406 5.715 15.361 2.464 22.484-1.343 2.94-3.695 5.434-5.487 8.151-3.003 4.717-4.194 10.165-3.393 15.529" stroke="#535461" stroke-width="2" stroke-miterlimit="10"/><path opacity=".7" d="M392.142 151.734c-.008-8.647-2.333-17.169-6.787-24.872-4.453-7.702-10.908-14.365-18.837-19.446-7.929-5.081-17.108-8.4348-26.787-9.7877-9.678-1.3529-19.582-.6667-28.903 2.0028.514-3.0803.779-6.1889.794-9.3024.1-14.2488-6.095-27.9715-17.27-38.2572-11.176-10.2857-26.453-16.3253-42.591-16.8378-16.137-.5124-31.867 4.5426-43.851 14.0928-11.985 9.5503-19.282 22.8445-20.343 37.0629-9.322-2.6746-19.229-3.3651-28.911-2.0149-9.682 1.3501-18.865 4.7025-26.798 9.7833-7.933 5.0807-14.391 11.7452-18.847 19.4502-4.455 7.704-6.782 16.229-6.789 24.879 0 27.494 22.944 66.6 52.865 73.528l4.649 2.347-2.524 7.64h14.963l-3.251-7.651 4.63-2.336c23.117-5.352 42.064-29.912 49.491-53.489 4.062 2.391 8.534 4.187 13.245 5.32l4.649 2.347-2.524 7.64h14.963l-3.251-7.651 4.631-2.336c3.436-.816 6.745-2.002 9.852-3.532 3.996 26.434 25.247 58.716 52.181 64.948l4.65 2.347-2.525 7.64h14.963l-3.251-7.651 4.631-2.336c29.964-6.928 52.883-46.034 52.883-73.528z" fill="url(#paint15_linear)"/><path d="M178.534 219.198h-14.477l2.53-7.667h8.689l3.258 7.667zM231.023 138.389c0 29.282-26.904 72.186-60.088 72.186-33.185 0-60.088-42.926-60.088-72.186 0-14.062 6.33-27.548 17.599-37.492 11.269-9.9432 26.552-15.5293 42.489-15.5293 15.936 0 31.22 5.5861 42.488 15.5293 11.269 9.944 17.6 23.43 17.6 37.492z" fill="#F55F44"/><path d="M175.276 211.852h-8.689l-5.067-2.554h18.824l-5.068 2.554z" fill="#535461"/><path opacity=".1" d="M149.216 97.1858s-25.339 12.1392-28.942 36.4052z" fill="#fff"/><path d="M257.114 172.588h-14.477l2.531-7.667h8.688l3.258 7.667zM309.603 91.774c0 29.282-26.904 72.186-60.088 72.186-33.185 0-60.1-42.899-60.1-72.186 0-14.0621 6.33-27.5483 17.599-37.4917 11.269-9.9435 26.552-15.5296 42.489-15.5296 15.936 0 31.219 5.5861 42.488 15.5296 11.269 9.9434 17.6 23.4296 17.6 37.4917h.012z" fill="#4D8AF0"/><path d="M253.856 165.242h-8.689l-5.067-2.559h18.824l-5.068 2.559z" fill="#535461"/><path opacity=".1" d="M227.796 50.5708s-25.339 12.1387-28.942 36.4053z" fill="#fff"/><path d="M335.034 232.016h-14.483l2.537-7.662h8.683l3.263 7.662zM387.524 151.207c0 29.282-26.903 72.186-60.088 72.186-33.184 0-60.088-42.926-60.088-72.186 0-14.062 6.331-27.548 17.6-37.492 11.268-9.943 26.552-15.5295 42.488-15.5295s31.22 5.5865 42.489 15.5295c11.268 9.944 17.599 23.43 17.599 37.492z" fill="#3AD29F"/><path d="M331.771 224.67h-8.683l-5.067-2.554h18.818l-5.068 2.554z" fill="#535461"/><path opacity=".1" d="M305.711 110.004s-25.339 12.139-28.941 36.405z" fill="#fff"/><path d="M348.019 312.414l-166.175 7.331 5.107 90.117 166.175-7.331-5.107-90.117z" fill="url(#paint16_linear)"/><path d="M344.417 313.903l-160.331 7.241 4.872 83.992 160.331-7.241-4.872-83.992z" fill="#EEE"/><path d="M192.145 340.564l20.398-.921-.772-13.322-20.399.921.773 13.322zM210.378 365.731l78.33-3.538-.251-4.32-78.329 3.538.25 4.32zM232.128 374.132l57.119-2.579-.167-2.882-57.119 2.58.167 2.881z" fill="#6C63FF"/></g><defs><linearGradient id="paint0_linear" x1="287.246" y1="288.077" x2="278.265" y2="253.937" gradientUnits="userSpaceOnUse"><stop stop-color="gray" stop-opacity=".25"/><stop offset=".54" stop-color="gray" stop-opacity=".12"/><stop offset="1" stop-color="gray" stop-opacity=".1"/></linearGradient><linearGradient id="paint1_linear" x1="3245.64" y1="19924.7" x2="3868.8" y2="16298.3" gradientUnits="userSpaceOnUse"><stop stop-color="gray" stop-opacity=".25"/><stop offset=".54" stop-color="gray" stop-opacity=".12"/><stop offset="1" stop-color="gray" stop-opacity=".1"/></linearGradient><linearGradient id="paint2_linear" x1="-22773.2" y1="17886.7" x2="-19127.3" y2="16094.4" gradientUnits="userSpaceOnUse"><stop stop-color="gray" stop-opacity=".25"/><stop offset=".54" stop-color="gray" stop-opacity=".12"/><stop offset="1" stop-color="gray" stop-opacity=".1"/></linearGradient><linearGradient id="paint3_linear" x1="4279.68" y1="10089.3" x2="3701.49" y2="7891.3" gradientUnits="userSpaceOnUse"><stop stop-color="gray" stop-opacity=".25"/><stop offset=".54" stop-color="gray" stop-opacity=".12"/><stop offset="1" stop-color="gray" stop-opacity=".1"/></linearGradient><linearGradient id="paint4_linear" x1="2041.57" y1="3012.22" x2="2664.74" y2="-614.218" gradientUnits="userSpaceOnUse"><stop stop-color="gray" stop-opacity=".25"/><stop offset=".54" stop-color="gray" stop-opacity=".12"/><stop offset="1" stop-color="gray" stop-opacity=".1"/></linearGradient><linearGradient id="paint5_linear" x1="-23858.4" y1="6716.85" x2="-20212.4" y2="4924.56" gradientUnits="userSpaceOnUse"><stop stop-color="gray" stop-opacity=".25"/><stop offset=".54" stop-color="gray" stop-opacity=".12"/><stop offset="1" stop-color="gray" stop-opacity=".1"/></linearGradient><linearGradient id="paint6_linear" x1="-14690.2" y1="20256.9" x2="-15268.4" y2="18058.6" gradientUnits="userSpaceOnUse"><stop stop-color="gray" stop-opacity=".25"/><stop offset=".54" stop-color="gray" stop-opacity=".12"/><stop offset="1" stop-color="gray" stop-opacity=".1"/></linearGradient><linearGradient id="paint7_linear" x1="-10317.2" y1="17143.1" x2="-9694.04" y2="13516.7" gradientUnits="userSpaceOnUse"><stop stop-color="gray" stop-opacity=".25"/><stop offset=".54" stop-color="gray" stop-opacity=".12"/><stop offset="1" stop-color="gray" stop-opacity=".1"/></linearGradient><linearGradient id="paint8_linear" x1="-43073.9" y1="17949.8" x2="-39428" y2="16157.5" gradientUnits="userSpaceOnUse"><stop stop-color="gray" stop-opacity=".25"/><stop offset=".54" stop-color="gray" stop-opacity=".12"/><stop offset="1" stop-color="gray" stop-opacity=".1"/></linearGradient><linearGradient id="paint9_linear" x1="-12757.5" y1="13429.3" x2="-13335.7" y2="11231.3" gradientUnits="userSpaceOnUse"><stop stop-color="gray" stop-opacity=".25"/><stop offset=".54" stop-color="gray" stop-opacity=".12"/><stop offset="1" stop-color="gray" stop-opacity=".1"/></linearGradient><linearGradient id="paint10_linear" x1="-8957.43" y1="6821.21" x2="-8338.07" y2="3200.79" gradientUnits="userSpaceOnUse"><stop stop-color="gray" stop-opacity=".25"/><stop offset=".54" stop-color="gray" stop-opacity=".12"/><stop offset="1" stop-color="gray" stop-opacity=".1"/></linearGradient><linearGradient id="paint11_linear" x1="-40614.9" y1="10840.7" x2="-36969" y2="9048.43" gradientUnits="userSpaceOnUse"><stop stop-color="gray" stop-opacity=".25"/><stop offset=".54" stop-color="gray" stop-opacity=".12"/><stop offset="1" stop-color="gray" stop-opacity=".1"/></linearGradient><linearGradient id="paint12_linear" x1="27474.5" y1="60579.7" x2="33903.9" y2="60579.7" gradientUnits="userSpaceOnUse"><stop stop-color="gray" stop-opacity=".25"/><stop offset=".54" stop-color="gray" stop-opacity=".12"/><stop offset="1" stop-color="gray" stop-opacity=".1"/></linearGradient><linearGradient id="paint13_linear" x1="10469.8" y1="80423.9" x2="11059.7" y2="80423.9" gradientUnits="userSpaceOnUse"><stop stop-color="gray" stop-opacity=".25"/><stop offset=".54" stop-color="gray" stop-opacity=".12"/><stop offset="1" stop-color="gray" stop-opacity=".1"/></linearGradient><linearGradient id="paint14_linear" x1="12224.5" y1="57166.1" x2="12774.3" y2="57166.1" gradientUnits="userSpaceOnUse"><stop stop-color="gray" stop-opacity=".25"/><stop offset=".54" stop-color="gray" stop-opacity=".12"/><stop offset="1" stop-color="gray" stop-opacity=".1"/></linearGradient><linearGradient id="paint15_linear" x1="163384" y1="101379" x2="163384" y2="27846.3" gradientUnits="userSpaceOnUse"><stop stop-color="gray" stop-opacity=".25"/><stop offset=".54" stop-color="gray" stop-opacity=".12"/><stop offset="1" stop-color="gray" stop-opacity=".1"/></linearGradient><linearGradient id="paint16_linear" x1="817.357" y1="71203" x2="157.585" y2="56248.9" gradientUnits="userSpaceOnUse"><stop stop-color="gray" stop-opacity=".25"/><stop offset=".54" stop-color="gray" stop-opacity=".12"/><stop offset="1" stop-color="gray" stop-opacity=".1"/></linearGradient><clipPath id="clip0"><path fill="#fff" d="M0 0h534v409H0z"/></clipPath></defs></svg>