<svg width="185" height="63" viewBox="0 0 185 63" fill="none" xmlns="http://www.w3.org/2000/svg">
<path d="M102.6 28.96V37.36C102.6 38.2 102.807 38.8467 103.22 39.3C103.633 39.7533 104.24 39.98 105.04 39.98C105.84 39.98 106.453 39.7533 106.88 39.3C107.307 38.8467 107.52 38.2 107.52 37.36V28.96H110.94V37.34C110.94 38.5933 110.673 39.6533 110.14 40.52C109.607 41.3867 108.887 42.04 107.98 42.48C107.087 42.92 106.087 43.14 104.98 43.14C103.873 43.14 102.88 42.9267 102 42.5C101.133 42.06 100.447 41.4067 99.94 40.54C99.4333 39.66 99.18 38.5933 99.18 37.34V28.96H102.6ZM121.942 34.56V37.4H113.142V34.56H121.942Z" fill="#585858"/>
<path d="M128.363 28.2V43H124.943V28.2H128.363ZM141.362 37.24C141.362 37.56 141.342 37.8933 141.302 38.24H133.562C133.615 38.9333 133.835 39.4667 134.222 39.84C134.622 40.2 135.108 40.38 135.682 40.38C136.535 40.38 137.128 40.02 137.462 39.3H141.102C140.915 40.0333 140.575 40.6933 140.082 41.28C139.602 41.8667 138.995 42.3267 138.262 42.66C137.528 42.9933 136.708 43.16 135.802 43.16C134.708 43.16 133.735 42.9267 132.882 42.46C132.028 41.9933 131.362 41.3267 130.882 40.46C130.402 39.5933 130.162 38.58 130.162 37.42C130.162 36.26 130.395 35.2467 130.862 34.38C131.342 33.5133 132.008 32.8467 132.862 32.38C133.715 31.9133 134.695 31.68 135.802 31.68C136.882 31.68 137.842 31.9067 138.682 32.36C139.522 32.8133 140.175 33.46 140.642 34.3C141.122 35.14 141.362 36.12 141.362 37.24ZM137.862 36.34C137.862 35.7533 137.662 35.2867 137.262 34.94C136.862 34.5933 136.362 34.42 135.762 34.42C135.188 34.42 134.702 34.5867 134.302 34.92C133.915 35.2533 133.675 35.7267 133.582 36.34H137.862ZM142.486 37.4C142.486 36.2533 142.699 35.2467 143.126 34.38C143.566 33.5133 144.159 32.8467 144.906 32.38C145.652 31.9133 146.486 31.68 147.406 31.68C148.192 31.68 148.879 31.84 149.466 32.16C150.066 32.48 150.526 32.9 150.846 33.42V31.84H154.266V43H150.846V41.42C150.512 41.94 150.046 42.36 149.446 42.68C148.859 43 148.172 43.16 147.386 43.16C146.479 43.16 145.652 42.9267 144.906 42.46C144.159 41.98 143.566 41.3067 143.126 40.44C142.699 39.56 142.486 38.5467 142.486 37.4ZM150.846 37.42C150.846 36.5667 150.606 35.8933 150.126 35.4C149.659 34.9067 149.086 34.66 148.406 34.66C147.726 34.66 147.146 34.9067 146.666 35.4C146.199 35.88 145.966 36.5467 145.966 37.4C145.966 38.2533 146.199 38.9333 146.666 39.44C147.146 39.9333 147.726 40.18 148.406 40.18C149.086 40.18 149.659 39.9333 150.126 39.44C150.606 38.9467 150.846 38.2733 150.846 37.42ZM160.16 33.7C160.56 33.0867 161.06 32.6067 161.66 32.26C162.26 31.9 162.927 31.72 163.66 31.72V35.34H162.72C161.867 35.34 161.227 35.5267 160.8 35.9C160.373 36.26 160.16 36.9 160.16 37.82V43H156.74V31.84H160.16V33.7ZM172.095 31.72C173.401 31.72 174.441 32.1467 175.215 33C176.001 33.84 176.395 35 176.395 36.48V43H172.995V36.94C172.995 36.1933 172.801 35.6133 172.415 35.2C172.028 34.7867 171.508 34.58 170.855 34.58C170.201 34.58 169.681 34.7867 169.295 35.2C168.908 35.6133 168.715 36.1933 168.715 36.94V43H165.295V31.84H168.715V33.32C169.061 32.8267 169.528 32.44 170.115 32.16C170.701 31.8667 171.361 31.72 172.095 31.72Z" fill="#17708C"/>
<path d="M82.069 39.6466H26.3794C24.7606 39.6466 23.4484 38.674 23.4484 37.4742V4.88791C23.4484 3.68808 24.7606 2.71552 26.3794 2.71552H82.069C83.6878 2.71552 85 3.68808 85 4.88791V37.4742C85 38.674 83.6878 39.6466 82.069 39.6466Z" fill="#E4EAF8"/>
<path d="M38.843 16.5291L25.7341 13.7788C25.0971 13.6451 24.4395 13.5776 23.7791 13.5776C23.6685 13.5776 23.5589 13.5907 23.4484 13.5946V37.4741C23.4484 38.6738 24.7607 39.6465 26.3794 39.6465H33.1457C34.5351 38.95 35.4637 37.8435 35.6751 36.5899L35.9288 35.0853C37.5708 33.3767 38.4341 31.3993 38.4341 29.3276C38.4341 29.0863 38.4223 28.8461 38.3989 28.6074C40.1231 28.1665 41.3651 26.9515 41.3651 25.5258V19.0085C41.3651 18.9301 41.3596 18.8528 41.3487 18.7766C41.2245 17.7113 40.2488 16.824 38.843 16.5291Z" fill="#D5DCED"/>
<path d="M77.6724 35.3018H70.3448V8.14656C70.3448 7.54671 71.0011 7.0603 71.8104 7.0603H76.207C77.0164 7.0603 77.6726 7.54671 77.6726 8.14656V35.3018H77.6724Z" fill="#7DF5A5"/>
<path d="M64.4828 35.3018H57.1552V16.8363C57.1552 16.2364 57.8114 15.75 58.6207 15.75H63.0173C63.8267 15.75 64.4829 16.2364 64.4829 16.8363V35.3018H64.4828Z" fill="#FFDC64"/>
<path d="M51.2932 35.3018H43.9656V25.526C43.9656 24.9261 44.6218 24.4397 45.4312 24.4397H49.8278C50.6371 24.4397 51.2933 24.9261 51.2933 25.526V35.3018H51.2932Z" fill="#FF5050"/>
<path d="M38.1034 35.3018H30.7758V30.957C30.7758 30.3571 31.432 29.8707 32.2413 29.8707H36.6379C37.4473 29.8707 38.1035 30.3571 38.1035 30.957V35.3018H38.1034Z" fill="#00C3FF"/>
<path d="M38.1034 30.9569C38.1034 30.357 37.4471 29.8706 36.6378 29.8706H32.2412C31.4319 29.8706 30.7756 30.357 30.7756 30.9569V35.3016H35.8921L35.9286 35.0852C37.0135 33.9564 37.7226 32.7033 38.1032 31.3901V30.9569H38.1034Z" fill="#00AAF0"/>
<path d="M79.138 36.3879H29.3104C28.5004 36.3879 27.8448 35.9021 27.8448 35.3016C27.8448 34.7013 28.5003 34.2154 29.3104 34.2154H79.138C79.948 34.2154 80.6036 34.7012 80.6036 35.3016C80.6035 35.9021 79.948 36.3879 79.138 36.3879Z" fill="#AFB9D2"/>
<path d="M29.3104 34.2155C28.5004 34.2155 27.8448 34.7013 27.8448 35.3018C27.8448 35.9021 28.5003 36.388 29.3104 36.388H35.7092L35.9288 35.0855C36.1974 34.8059 36.4118 34.5089 36.6384 34.2156H29.3104V34.2155Z" fill="#959CB5"/>
<path d="M36.9686 59.1982V46.6434C36.9686 45.7083 36.1612 44.8781 34.9644 44.5825L30.1797 43.4003C28.9829 43.1047 28.1756 42.2745 28.1756 41.3394V38.5604H19.3824V41.3394C19.3824 42.2745 18.575 43.1047 17.3782 43.4003L12.5935 44.5825C11.3967 44.8781 10.5894 45.7083 10.5894 46.6434V59.1983H36.9686V59.1982Z" fill="#D29B6E"/>
<path d="M34.9646 44.5825L30.1798 43.4002C29.8924 43.3292 29.6306 43.2242 29.3939 43.0974C28.0498 44.2972 26.0475 45.0776 23.7791 45.0776C21.5106 45.0776 19.5083 44.2972 18.1643 43.0974C17.9275 43.2242 17.6659 43.3294 17.3784 43.4002L12.5936 44.5825C11.3966 44.8781 10.5895 45.7083 10.5895 46.6434V59.1983H36.9689V46.6434C36.9685 45.7082 36.1612 44.8781 34.9646 44.5825Z" fill="#5B5D6E"/>
<path d="M23.78 37.4742C30.2551 37.4742 35.5042 33.8268 35.5042 29.3276C35.5042 24.8284 30.2551 21.181 23.78 21.181C17.3049 21.181 12.0558 24.8284 12.0558 29.3276C12.0558 33.8268 17.3049 37.4742 23.78 37.4742Z" fill="#694B4B"/>
<path d="M26.6118 21.4304C25.703 21.2734 24.7575 21.181 23.7789 21.181C17.3039 21.181 12.0547 24.8284 12.0547 29.3276C12.0547 33.191 15.9292 36.419 21.1226 37.2562C21.1226 35.8583 21.1226 33.7784 21.1226 30.6854C21.1226 25.9799 24.1795 23.0355 26.6118 21.4304Z" fill="#5A4146"/>
<path d="M31.1689 37.994L26.4005 39.7611C24.7501 40.3726 22.8076 40.3726 21.1572 39.7611L16.3887 37.994C15.5122 37.6693 14.9128 37.0412 14.7912 36.3205L13.901 31.0426C13.7961 30.4205 14.417 29.8652 15.261 29.8243C17.9926 29.6918 23.6891 29.1836 27.2012 27.2346C27.7933 26.9059 28.6201 26.9637 29.1263 27.3638L33.2006 30.5844C33.4986 30.8199 33.6397 31.1417 33.5856 31.4621L32.7662 36.3205C32.6451 37.0413 32.0455 37.6692 31.1689 37.994Z" fill="#F0C087"/>
<path d="M33.201 30.5843L29.1265 27.3637C28.9913 27.2566 28.8304 27.1783 28.6601 27.1211C28.6042 27.1024 28.5434 27.0985 28.4851 27.0852C28.3668 27.0584 28.2477 27.0344 28.1249 27.0304C28.02 27.0272 27.9157 27.0372 27.8118 27.0511C27.759 27.0581 27.7054 27.0585 27.6536 27.0698C27.4953 27.105 27.3413 27.1569 27.2018 27.2343C23.6838 29.1866 17.9734 29.6932 15.2474 29.8248C14.3985 29.8658 13.7961 30.4169 13.9017 31.0425L14.7918 36.3202C14.9135 37.0411 15.5128 37.6691 16.3894 37.9939L21.1579 39.761C21.8699 40.0248 22.6386 40.152 23.4124 40.1883L21.6222 37.5346C21.1135 36.7803 20.8486 35.9488 20.8486 35.1055V32.3081C20.8486 31.8025 21.3216 31.3733 21.9835 31.2506C23.9904 30.8787 26.0548 30.3347 27.8475 29.5283L31.0634 32.0704C31.5385 32.4461 32.2105 32.8737 33.3554 32.8328L33.5866 31.4619C33.6401 31.1416 33.4988 30.8199 33.201 30.5843Z" fill="#E6AF78"/>
<path d="M35.5031 19.0087V25.526C35.5031 26.1263 36.1585 26.6122 36.9686 26.6122C37.7786 26.6122 38.4342 26.1264 38.4342 25.526V19.0087H35.5031Z" fill="#464655"/>
<path d="M32.5721 20.0948H14.9859L13.8643 23.4204C13.6728 23.9887 14.1235 24.5673 14.8833 24.7281L22.9738 26.4413C23.5001 26.5528 24.0579 26.5528 24.5841 26.4413L32.6746 24.7281C33.4346 24.5672 33.8855 23.9886 33.6936 23.4204L32.5721 20.0948Z" fill="#5B5D6E"/>
<path d="M14.9859 20.0948L13.864 23.4204C13.6724 23.9887 14.1231 24.5673 14.883 24.7281L22.9736 26.4414C23.2369 26.497 23.5078 26.5251 23.7789 26.5251V20.0948H14.9859Z" fill="#464655"/>
<path d="M22.6221 15.8692L9.51319 18.6195C8.99804 18.7275 8.99804 19.2897 9.51319 19.3978L22.6221 22.1481C23.3795 22.3069 24.1783 22.3069 24.9359 22.1481L38.0448 19.3978C38.56 19.2898 38.56 18.7276 38.0448 18.6195L24.9359 15.8692C24.1783 15.7103 23.3796 15.7103 22.6221 15.8692Z" fill="#707487"/>
<path d="M30.7758 58.1121H16.1206C15.3113 58.1121 14.655 57.6257 14.655 57.0258V50.5085C14.655 49.9086 15.3113 49.4222 16.1206 49.4222H30.7758C31.5851 49.4222 32.2414 49.9086 32.2414 50.5085V57.0258C32.2414 57.6257 31.5851 58.1121 30.7758 58.1121Z" fill="#D5DCED"/>
<path d="M45.431 60.2845H1.46559C0.655596 60.2845 0 59.7987 0 59.1982C0 58.5979 0.65543 58.1119 1.46559 58.1119H45.4312C46.2412 58.1119 46.8968 58.5977 46.8968 59.1982C46.8966 59.7987 46.2412 60.2845 45.431 60.2845Z" fill="#F5DCB4"/>
<path d="M23.4483 54.8535C24.2577 54.8535 24.9138 54.3672 24.9138 53.7673C24.9138 53.1674 24.2577 52.681 23.4483 52.681C22.6388 52.681 21.9827 53.1674 21.9827 53.7673C21.9827 54.3672 22.6388 54.8535 23.4483 54.8535Z" fill="white"/>
</svg>
