<svg width="54" height="26" viewBox="0 0 54 26" fill="none" xmlns="http://www.w3.org/2000/svg"><path d="M4.536 17.3h3.942V20h-7.47V7.31h3.528v9.99zm10.0118 2.826c-1.008 0-1.914-.21-2.718-.63-.792-.42-1.416-1.02-1.872-1.8-.456-.78-.684-1.698-.684-2.754 0-1.044.228-1.956.684-2.736.468-.78 1.098-1.38 1.89-1.8.804-.42 1.71-.63 2.718-.63s1.908.21 2.7.63c.804.42 1.434 1.02 1.89 1.8.468.78.702 1.692.702 2.736 0 1.044-.234 1.962-.702 2.754-.456.78-1.086 1.38-1.89 1.8-.804.42-1.71.63-2.718.63zm0-3.06c.492 0 .9-.18 1.224-.54.336-.372.504-.9.504-1.584s-.168-1.206-.504-1.566c-.324-.36-.726-.54-1.206-.54s-.882.18-1.206.54c-.324.36-.486.882-.486 1.566 0 .696.156 1.224.468 1.584.312.36.714.54 1.206.54zm10.4714-7.29c.684 0 1.278.138 1.782.414.516.276.912.648 1.188 1.116V9.902h3.528v9.99c0 .948-.18 1.8-.54 2.556-.36.768-.924 1.38-1.692 1.836-.756.456-1.716.684-2.88.684-1.56 0-2.808-.366-3.744-1.098-.936-.732-1.47-1.728-1.602-2.988h3.474c.072.324.252.576.54.756.288.18.66.27 1.116.27 1.2 0 1.8-.672 1.8-2.016v-1.296c-.276.468-.672.84-1.188 1.116-.504.276-1.098.414-1.782.414-.804 0-1.536-.21-2.196-.63-.648-.42-1.164-1.02-1.548-1.8-.372-.792-.558-1.71-.558-2.754s.186-1.956.558-2.736c.384-.78.9-1.38 1.548-1.8.66-.42 1.392-.63 2.196-.63zm2.97 5.166c0-.648-.18-1.158-.54-1.53-.348-.372-.78-.558-1.296-.558-.528 0-.966.186-1.314.558-.348.36-.522.87-.522 1.53 0 .648.174 1.164.522 1.548.348.372.786.558 1.314.558.516 0 .948-.186 1.296-.558.36-.372.54-.888.54-1.548zm7.3203-5.976c-.624 0-1.128-.168-1.512-.504-.372-.348-.558-.78-.558-1.296 0-.528.186-.966.558-1.314.384-.348.888-.522 1.512-.522.612 0 1.104.174 1.476.522.384.348.576.786.576 1.314 0 .516-.192.948-.576 1.296-.372.336-.864.504-1.476.504zm1.746.936V20h-3.528V9.902h3.528zm8.6151-.09c1.164 0 2.088.39 2.772 1.17.684.768 1.026 1.812 1.026 3.132V20h-3.528v-5.418c0-.576-.15-1.026-.45-1.35-.3-.336-.702-.504-1.206-.504-.528 0-.942.168-1.242.504-.3.324-.45.774-.45 1.35V20h-3.528V9.902h3.528v1.44c.312-.456.732-.822 1.26-1.098.528-.288 1.134-.432 1.818-.432z" fill="#1C7895"/></svg>