<svg width="506" height="364" viewBox="0 0 506 364" fill="none" xmlns="http://www.w3.org/2000/svg"><path d="M506 352.871c.154 14.181-101.874 15.481-103.817.001-.155-14.18 101.873-15.48 103.817-.001z" fill="#E6E6E6"/><path d="M426.174 303.641l-7.583 3.622 4.826 13.887 7.582.603 4.136-7.848-8.961-10.264zM449.611 331.414v6.64l11.718-.603-.163-5.47-11.555-.567z" fill="#9F616A"/><path d="M423.417 223.945l4.135 45.282 13.098 66.412 20.679-2.415-6.893-52.526 2.758-48.3-33.777-8.453z" fill="#2F2E41"/><path d="M478.562 190.135l-49.631.604-5.514 33.206 33.776 13.886 8.272 26.566-42.048 39.244 16.543 18.113s23.437-27.773 40.67-43.471c17.233-15.698 8.962-63.394 8.962-63.394l-11.03-24.754z" fill="#2F2E41"/><path d="M448.921 104.401c8.376 0 15.166-5.9465 15.166-13.2823 0-7.3358-6.79-13.2826-15.166-13.2826-8.375 0-15.165 5.9468-15.165 13.2826 0 7.3358 6.79 13.2823 15.165 13.2823z" fill="#9F616A"/><path d="M443.407 100.175v13.283l10.34 14.49s15.854-10.264 12.408-12.679c-3.447-2.415-4.136-21.1315-4.136-21.1315l-18.612 6.0375z" fill="#9F616A"/><path d="M443.407 111.043l-10.34 10.867 4.136 75.469 32.398-.603 5.515-65.809-6.893-16.906-4.729-5.634-8.369 11.068-11.718-8.452z" fill="#D0CDE1"/><path d="M426.863 150.287l-7.583 25.358 7.583 25.357-12.408 14.491-11.029-45.886s8.272-37.433 8.961-41.659c.69-4.226 2.068-4.83 2.068-4.83l5.515.604 6.893 26.565zM482.009 159.946l4.825 7.85 1.379 13.282-2.757 15.094 9.65 13.887 9.65-38.037-10.339-48.905h-4.137l-8.271 36.829zM423.416 303.037s-9.65 2.415-13.097 3.019c-3.446.604 2.068 12.075 2.068 12.075s3.447 15.698 4.136 18.716c.69 3.019 5.515 13.283 11.719 14.491 6.204 1.207 2.068-21.132 2.068-21.132s2.757-7.245 2.757-9.66-4.136-1.207-4.136-1.207c-11.029-1.208-5.515-16.302-5.515-16.302zM446.164 349.526c.689 3.623-.689 3.623 10.34 4.83 11.029 1.208 8.272-6.641 8.272-6.641-.461-3.7-1.386-7.345-2.757-10.868-2.068-4.83-13.098 1.208-13.098 1.208s-3.446 7.849-2.757 11.471zM462.036 94.5591l.36 5.3695s4.448-8.8099 5.137-17.8662c.689-9.0564-11.029-10.8676-17.922-11.4714-6.893-.6037-18.612 3.6225-18.612 8.4526 0 4.83 12.408 3.6225 17.233 2.415 4.825-1.2075 6.893 9.0564 6.893 9.0564l2.758.6037 4.153 3.4404z" fill="#2F2E41"/><path d="M439.338 115.318l4.069-4.275 11.718 8.452-11.718 7.245-4.069-11.422z" fill="#D0CDE1"/><path d="M468.223 114.061l-4.826-5.433-8.272 10.867 10.34 6.642 2.758-12.076z" fill="#D0CDE1"/><path d="M424.795 158.739l2.757 22.943-5.514 13.887-3.447 13.282s0 12.679 13.787 13.283c13.786.604 25.505-38.037 25.505-38.037s2.067 8.453 3.446 13.283 24.816 24.15 24.816 24.15 5.514-.604 10.34-10.264c4.825-9.66-9.651-18.716-9.651-18.716l-4.136-12.679 1.379-15.698 9.65-41.055-28.607-12.981 3.102 34.716-10.339 27.169-15.51-60.074-5.17 3.321-22.058 7.849 9.65 35.621z" fill="#2F2E41"/><path d="M152.368 250.058c-1.363-.009-2.741-.017-4.095-.054l.042-1.196c1.34.037 2.71.053 4.054.054 1.349 0 2.725-.019 4.089-.058l.044 1.195c-1.379.04-2.77.059-4.134.059zm-12.307-.505c-2.719-.225-5.465-.531-8.162-.908l.215-1.181c2.668.373 5.385.675 8.076.899l-.129 1.19zm24.652-.013l-.13-1.19c2.689-.226 5.406-.531 8.074-.908l.217 1.182c-2.697.38-5.443.688-8.161.916zm-40.894-2.26c-2.662-.529-5.341-1.141-7.962-1.819l.387-1.148c2.593.672 5.243 1.277 7.877 1.8l-.302 1.167zm57.133-.03l-.304-1.166c2.641-.527 5.29-1.136 7.875-1.808l.389 1.147c-2.613.68-5.291 1.294-7.96 1.827zm-72.908-4.054c-2.569-.826-5.14-1.736-7.64-2.706l.552-1.093c2.474.958 5.017 1.859 7.559 2.677l-.471 1.122zm88.677-.046l-.472-1.123c2.526-.815 5.06-1.715 7.532-2.676l.554 1.094c-2.499.971-5.06 1.881-7.614 2.705zm-103.7402-5.791c-2.4179-1.105-4.8324-2.297-7.1759-3.541l.7083-1.024c2.3188 1.232 4.7074 2.41 7.0996 3.504l-.632 1.061zm118.7562-.044l-.632-1.06c2.386-1.093 4.77-2.272 7.082-3.502l.71 1.022c-2.338 1.244-4.747 2.435-7.16 3.54zm-132.8323-7.434c-2.2394-1.369-4.4589-2.82-6.5973-4.314l.8518-.935c2.1157 1.478 4.3118 2.914 6.5272 4.268l-.7817.981zm146.8813-.042l-.784-.981c2.216-1.356 4.409-2.792 6.519-4.268l.853.935c-2.134 1.492-4.35 2.943-6.588 4.314zm-159.7474-8.946c-2.0243-1.609-4.0147-3.296-5.9146-5.012l.9805-.833c1.8799 1.698 3.8492 3.366 5.8526 4.96l-.9185.885zm172.5974-.041l-.919-.886c1.998-1.59 3.966-3.259 5.849-4.961l.98.832c-1.902 1.72-3.891 3.408-5.91 5.015zM54.5865 210.551c-1.7725-1.82-3.5007-3.714-5.1372-5.628l1.0935-.717c1.6192 1.894 3.329 3.767 5.0829 5.568l-1.0392.777zm195.4955-.05l-1.039-.775c1.754-1.803 3.464-3.679 5.083-5.575l1.094.716c-1.637 1.917-3.365 3.813-5.138 5.634zm-205.3487-11.48c-1.4944-2.005-2.9325-4.075-4.2745-6.153l1.1893-.589c1.3273 2.056 2.7503 4.104 4.2291 6.087l-1.1439.655zm215.2037-.065l-1.144-.653c1.479-1.987 2.902-4.039 4.23-6.1l1.19.588c-1.342 2.083-2.781 4.157-4.276 6.165zM36.6442 186.49c-1.1886-2.153-2.3115-4.366-3.3373-6.578l1.2653-.45c1.0152 2.187 2.1261 4.377 3.302 6.507l-1.23.521zm231.3848-.094l-1.23-.519c1.175-2.134 2.286-4.329 3.303-6.527l1.266.448c-1.027 2.222-2.151 4.442-3.339 6.598zM30.4555 173.151c-.8641-2.273-1.6535-4.597-2.3465-6.91l1.3213-.303c.6853 2.287 1.4664 4.587 2.3211 6.834l-1.2959.379zm243.7585-.127l-1.297-.376c.85-2.245 1.628-4.546 2.312-6.838l1.322.303c-.692 2.317-1.478 4.642-2.337 6.911zM26.2764 159.216c-.522-2.348-.9635-4.741-1.3127-7.115l1.3547-.153c.3455 2.349.7824 4.717 1.2986 7.039l-1.3406.229zm252.0976-.132l-1.341-.226c.512-2.322.947-4.691 1.289-7.041l1.355.152c-.346 2.375-.785 4.769-1.303 7.115zm-254.2-14.156c-.1751-2.384-.2655-4.808-.2685-7.204l1.366-.001c.003 2.371.0924 4.769.2658 7.128l-1.3633.077zm256.284-.133l-1.364-.076c.17-2.358.256-4.756.256-7.127v-.262h1.366v.258c0 2.4-.087 4.824-.258 7.207zM25.5183 130.596l-1.3633-.074c.1694-2.389.4285-4.803.7704-7.175l1.3553.149c-.3385 2.348-.595 4.736-.7624 7.1zm253.5577-.393c-.178-2.365-.444-4.753-.792-7.096l1.355-.155c.351 2.369.62 4.782.8 7.173l-1.363.078zM27.56 116.455l-1.3413-.226c.5153-2.348 1.1256-4.713 1.8132-7.029l1.322.3c-.6803 2.292-1.284 4.632-1.7939 6.955zm249.415-.385c-.52-2.325-1.134-4.663-1.822-6.95l1.321-.305c.696 2.312 1.316 4.675 1.842 7.024l-1.341.231zM31.6571 102.661l-1.2974-.375c.8575-2.273 1.812-4.5538 2.8375-6.7781l1.2666.448c-1.0145 2.2005-1.9586 4.4561-2.8067 6.7051zm241.1669-.373c-.858-2.246-1.81-4.495-2.83-6.686l1.265-.4516c1.031 2.2147 1.994 4.4884 2.86 6.7576l-1.295.38zM37.7588 89.4245l-1.2313-.5187c1.1849-2.1575 2.4662-4.3103 3.8079-6.3982l1.1906.5871c-1.3277 2.0655-2.595 4.1952-3.7672 6.3298zm228.9252-.3262c-1.177-2.1245-2.449-4.2463-3.783-6.3065l1.189-.5901c1.348 2.0821 2.634 4.227 3.823 6.3749l-1.229.5217zM45.7481 76.9906l-1.1452-.6525c1.4897-2.0056 3.0742-3.9963 4.709-5.9163l1.0952.7151c-1.6175 1.8998-3.1852 3.8692-4.659 5.8537zm212.9159-.2816c-1.478-1.9772-3.05-3.9404-4.674-5.835l1.093-.718c1.641 1.915 3.23 3.8993 4.724 5.8976l-1.143.6554zM55.4823 65.5575l-1.0405-.7747c1.7692-1.823 3.6291-3.62 5.5281-5.3408l.9825.8313c-1.8789 1.7027-3.7192 3.4807-5.4701 5.2842zM248.9 65.3109c-1.756-1.7985-3.603-3.5712-5.486-5.2689l.979-.8337c1.904 1.7155 3.77 3.5073 5.545 5.325l-1.038.7776zM66.7943 55.3055l-.9198-.8845c2.0214-1.6127 4.1264-3.1874 6.2562-4.68l.8537.9341c-2.1074 1.4769-4.1901 3.035-6.1901 4.6304zm170.7597-.217c-2.003-1.5882-4.091-3.1416-6.208-4.6167l.851-.9365c2.139 1.4912 4.25 3.061 6.274 4.6664l-.917.8868zM79.4974 46.4002l-.7838-.9797c2.2352-1.372 4.551-2.6985 6.8831-3.9428l.7107 1.0218c-2.3071 1.2312-4.5986 2.5436-6.81 3.9007zm145.3156-.1905c-2.224-1.3556-4.522-2.6636-6.832-3.8878l.707-1.0236c2.335 1.2371 4.658 2.5592 6.905 3.9294l-.78.982zM93.3856 38.9896l-.6343-1.0598c2.4149-1.1094 4.9041-2.1651 7.3977-3.1375l.556 1.0931c-2.4676.9619-4.9298 2.0064-7.3194 3.1042zm117.4914-.1642c-2.399-1.0936-4.871-2.1332-7.348-3.0902l.552-1.0948c2.503.9672 5.002 2.0182 7.427 3.1235l-.631 1.0615zm-102.644-5.6239l-.474-1.1222c2.561-.8299 5.188-1.5975 7.806-2.2814l.391 1.1468c-2.591.6762-5.189 1.4357-7.723 2.2568zm87.734-.1358c-2.539-.8135-5.14-1.5648-7.732-2.2325l.386-1.148c2.619.675 5.249 1.4345 7.816 2.2571l-.47 1.1234zm-72.139-3.9364l-.305-1.166c2.658-.5334 5.375-.9981 8.076-1.3823l.219 1.1813c-2.673.3797-5.361.8395-7.99 1.367zm56.527-.087c-2.634-.5199-5.324-.9715-7.995-1.3425l.214-1.1819c2.7.3751 5.419.8317 8.082 1.3572l-.301 1.1672zm-40.464-2.1957l-.132-1.1906c2.712-.2305 5.474-.388 8.21-.4677l.045 1.1958c-2.707.0789-5.44.2346-8.123.4625zm24.392-.0371c-2.687-.22-5.421-.3672-8.125-.4376l.041-1.1958c2.732.0712 5.495.2199 8.211.4422l-.127 1.1912z" fill="#D0CDE1"/><path d="M147.53 56.2332c17.729 0 32.101-12.5882 32.101-28.1166C179.631 12.5882 165.259 0 147.53 0s-32.102 12.5882-32.102 28.1166c0 15.5284 14.373 28.1166 32.102 28.1166zM271.837 132.806c17.729 0 32.102-12.588 32.102-28.116 0-15.5288-14.373-28.1171-32.102-28.1171s-32.101 12.5883-32.101 28.1171c0 15.528 14.372 28.116 32.101 28.116zM232.906 250.058c17.729 0 32.101-12.588 32.101-28.116 0-15.529-14.372-28.117-32.101-28.117s-32.102 12.588-32.102 28.117c0 15.528 14.373 28.116 32.102 28.116zM78.546 254.844c17.7291 0 32.101-12.588 32.101-28.116 0-15.529-14.3719-28.117-32.101-28.117s-32.1014 12.588-32.1014 28.117c0 15.528 14.3723 28.116 32.1014 28.116zM32.1014 132.806c17.7291 0 32.1014-12.588 32.1014-28.116 0-15.5288-14.3723-28.1171-32.1014-28.1171S0 89.1612 0 104.69c0 15.528 14.3723 28.116 32.1014 28.116z" fill="#9A9EF5"/><path d="M161.286 25.875h-11.197c-1.018 0-1.995-.3543-2.714-.9849-.72-.6305-1.125-1.4858-1.125-2.3776v-9.8072c0-.0368-.008-.0732-.024-.1072s-.04-.0649-.07-.0909c-.029-.0261-.065-.0467-.103-.0608-.039-.0141-.081-.0213-.123-.0213h-7.358c-1.357 0-2.659.4723-3.619 1.3131-.96.8408-1.5 1.9811-1.5 3.1702v22.4164c0 1.1891.54 2.3294 1.5 3.1702.96.8408 2.261 1.3131 3.619 1.3131h17.915c1.358 0 2.66-.4723 3.62-1.3131s1.499-1.9811 1.499-3.1702V26.1552c0-.0368-.008-.0733-.024-.1073s-.04-.0648-.07-.0909c-.029-.026-.065-.0466-.103-.0607-.039-.0141-.081-.0213-.123-.0213zm-7.358 11.2082h-12.797c-.339 0-.664-.1181-.904-.3283s-.375-.4953-.375-.7925c0-.2973.135-.5824.375-.7926.24-.2102.565-.3282.904-.3282h12.797c.34 0 .665.118.905.3282s.375.4953.375.7926c0 .2972-.135.5823-.375.7925-.24.2102-.565.3283-.905.3283zm0-5.6041h-12.797c-.339 0-.664-.1181-.904-.3283s-.375-.4953-.375-.7925c0-.2973.135-.5824.375-.7926.24-.2102.565-.3283.904-.3283h12.797c.34 0 .665.1181.905.3283s.375.4953.375.7926c0 .2972-.135.5823-.375.7925-.24.2102-.565.3283-.905.3283z" fill="#fff"/><path d="M160.584 23.3945l-11.502-10.0742c-.022-.0194-.051-.0327-.082-.0381-.031-.0053-.063-.0025-.092.008-.029.0106-.054.0284-.071.0514-.018.0229-.028.0499-.028.0775v9.0934c0 .2972.135.5823.375.7925.24.2102.566.3283.905.3283h10.382c.032-.0001.062-.0084.089-.0238.026-.0154.046-.0372.058-.0628.012-.0255.016-.0536.009-.0807-.006-.0271-.021-.052-.043-.0716v.0001zM237.549 216.403c-.394 0-.775.12-1.079.339-.304.219-.512.523-.589.861-.076.338-.017.689.169.993.186.304.486.542.85.674.363.132.768.149 1.144.049.377-.1.702-.312.921-.599.218-.286.317-.631.278-.974-.039-.343-.212-.663-.491-.907-.158-.138-.345-.248-.552-.323-.206-.075-.428-.113-.651-.113z" fill="#fff"/><path d="M247.02 210.444v-.005c-.054-.207-.173-.396-.343-.547-.171-.151-.386-.257-.621-.307-1.9-.406-4.888.027-8.199 1.188-3.185 1.084-6.098 2.7-8.579 4.758-.677.59-1.306 1.221-1.883 1.889-1.274-.077-2.551.102-3.733.525-3.681 1.419-4.732 5.049-5.012 6.54-.04.212-.024.429.047.634.071.206.195.394.362.551.168.156.375.277.604.352.23.076.476.104.72.082h.009l4.099-.392c.006.046.011.087.016.126.052.438.275.846.631 1.157l2.001 1.753c.354.312.82.508 1.32.554l.137.012-.446 3.587v.007c-.022.182-.002.367.057.542.06.176.159.34.291.482.132.142.295.26.479.347.184.088.386.142.594.161.049.004.098.007.147.007.089 0 .177-.006.265-.019 1.711-.241 5.854-1.15 7.47-4.391.478-1.032.684-2.146.602-3.257.765-.504 1.488-1.055 2.164-1.65 2.348-2.152 4.195-4.684 5.438-7.454 1.318-2.867 1.815-5.504 1.363-7.232zm-6.824 9.764c-.524.459-1.191.772-1.918.899-.726.126-1.479.062-2.164-.186s-1.27-.668-1.682-1.208c-.412-.539-.632-1.174-.632-1.822-.001-.649.219-1.284.63-1.824.411-.539.996-.96 1.68-1.209.685-.248 1.438-.314 2.165-.187.726.126 1.394.438 1.918.897l.003.002c.702.606 1.101 1.431 1.108 2.294.008.863-.377 1.694-1.068 2.309l-.04.035z" fill="#fff"/><path d="M226.909 229.224c-.246-.027-.496.026-.701.149-.407.244-.816.485-1.229.72-.18.101-.393.147-.605.129-.212-.018-.412-.097-.566-.226-.154-.129-.255-.299-.285-.484-.031-.185.011-.374.117-.535l.774-1.173c.111-.142.173-.308.178-.48.005-.172-.046-.341-.148-.488-.102-.147-.25-.265-.427-.34-.177-.075-.374-.103-.569-.082-.859.095-1.658.438-2.271.974-.233.205-.943.827-1.324 3.197-.109.681-.178 1.366-.206 2.053-.003.117.02.234.068.343.048.11.12.21.212.295.093.085.203.153.325.201.123.048.255.074.389.077h.052c.784-.024 1.567-.084 2.345-.179 2.707-.335 3.417-.956 3.651-1.161.615-.537 1.006-1.24 1.108-1.995.033-.235-.042-.472-.209-.659-.166-.186-.41-.307-.679-.336zM67.4982 242.006h-2.3258c-.4627 0-.9064-.161-1.2335-.447-.3271-.287-.5109-.675-.5109-1.081v-9.167c0-.405.1838-.794.5109-1.08.3271-.287.7708-.448 1.2335-.448h2.3258c.4627 0 .9064.161 1.2335.448.3271.286.5109.675.5109 1.08v9.167c0 .406-.1838.794-.5109 1.081-.3271.286-.7708.447-1.2335.447zM83.7792 242.006h-2.3258c-.4626 0-.9064-.161-1.2335-.447-.3271-.287-.5109-.675-.5109-1.081V225.2c0-.405.1838-.794.5109-1.081.3271-.286.7709-.447 1.2335-.447h2.3258c.4627 0 .9064.161 1.2335.447.3272.287.5109.676.5109 1.081v15.278c0 .406-.1837.794-.5109 1.081-.3271.286-.7708.447-1.2335.447zM91.9196 242.006h-2.3258c-.4627 0-.9064-.161-1.2335-.447-.3272-.287-.5109-.675-.5109-1.081V218.07c0-.405.1837-.794.5109-1.081.3271-.286.7708-.447 1.2335-.447h2.3258c.4627 0 .9064.161 1.2335.447.3271.287.5109.676.5109 1.081v22.408c0 .406-.1838.794-.5109 1.081-.3271.286-.7708.447-1.2335.447zM75.6386 242.006h-2.3258c-.4627 0-.9064-.161-1.2335-.447-.3272-.287-.5109-.675-.5109-1.081v-27.501c0-.405.1837-.794.5109-1.08.3271-.287.7708-.448 1.2335-.448h2.3258c.4626 0 .9064.161 1.2335.448.3271.286.5109.675.5109 1.08v27.501c0 .201-.0451.4-.1328.585-.0876.185-.2161.354-.3781.496-.162.142-.3543.254-.566.331-.2116.077-.4384.116-.6675.116zM273.375 103.953l-1.661-1.456c-.381-.333-.897-.521-1.435-.522-.539-.002-1.056.184-1.438.516l-11.553 9.338c-.424.329-.684.791-.723 1.285-.012.246.034.492.135.721.101.23.254.439.452.614l2.482 2.198.004.004c.384.335.903.523 1.444.525h.075c.281-.014.555-.076.808-.183s.48-.256.667-.44l10.736-10.072c.384-.334.601-.786.603-1.259.002-.474-.21-.928-.59-1.264l-.006-.005zM286.73 101.011l-.02-.018-2.181-1.8905c-.128-.1115-.28-.1998-.446-.2597-.167-.0599-.346-.0902-.527-.0893-.292.0003-.577.081-.814.2308 0-.0239.004-.0474.006-.068.088-.4882-.029-.9879-.331-1.4058-.48-.5673-1.008-1.1027-1.578-1.6021l-.005-.0044c-1.594-1.3398-3.468-2.3984-5.519-3.1182-1.072-.3853-2.22-.5832-3.378-.5825-1.5-.0119-2.958.4352-4.121 1.2642-.331.277-.633.5796-.903.9041-.128.1555-.196.3432-.193.5353.003.192.076.378.21.5304.133.1525.319.2631.53.3156.211.0524.435.0438.64-.0245.179-.0584.361-.1074.546-.1466.386-.0714.782-.0931 1.175-.0641.814.0744 1.595.3252 2.271.7297.379.2797.681.6312.882 1.028.201.3968.297.8284.28 1.2624-.283.705-.714 1.3571-1.273 1.9222-.149.172-.221.385-.204.6.017.215.122.418.296.57l2.19 1.918c.184.162.432.256.693.262.26.007.513-.075.708-.227.619-.484 1.562-1.215 1.892-1.394.281-.165.6-.275.935-.323.25-.021.5.025.719.133.001.009 0 .019-.004.028-.003.009-.009.018-.016.025l-.116.096-.019.016c-.257.224-.402.529-.403.847-.001.319.143.624.399.849l.007.006 2.181 1.89c.127.112.279.2.446.26.167.06.346.09.526.089.362 0 .71-.124.969-.346l3.532-3.056c.012-.01.024-.021.035-.032.237-.228.367-.526.364-.834-.003-.307-.14-.603-.381-.826zM37.1983 103.015c-.2521 0-.4984-.065-.7079-.188-.2096-.122-.3729-.297-.4693-.501-.0965-.203-.1217-.428-.0725-.644.0491-.217.1705-.416.3487-.572l2.9215-2.5587-2.9215-2.559c-.239-.2093-.3732-.4932-.3732-.7892 0-.2959.1342-.5798.3732-.7891.2389-.2093.563-.3269.901-.3269.3379 0 .662.1176.9009.3269l3.8227 3.3481c.1183.1036.2122.2267.2762.3621.0641.1354.097.2805.097.4271 0 .1465-.0329.2916-.097.427-.064.1354-.1579.2585-.2762.3621l-3.8227 3.3486c-.1181.103-.2586.186-.4132.242-.1546.056-.3204.085-.4877.084z" fill="#fff"/><path d="M16.8108 106.364c-.1673 0-.333-.029-.4876-.085-.1546-.056-.2951-.139-.4134-.242-.1183-.104-.2122-.227-.2762-.362-.064-.136-.097-.281-.097-.427v-1.116c.01-1.773.8182-3.471 2.249-4.7246 1.4308-1.2538 3.3686-1.9625 5.3925-1.9722h16.5686c.3379 0 .662.1176.901.3269.239.2093.3732.4932.3732.7892s-.1342.5798-.3732.7891c-.239.2093-.5631.3269-.901.3269H23.1819c-1.3499.007-2.6423.4797-3.5965 1.3167-.9542.836-1.4933 1.968-1.5003 3.151v1.113c0 .146-.033.291-.097.427-.0641.135-.1579.258-.2762.362-.1184.103-.2588.186-.4134.242-.1546.056-.3203.085-.4877.085zM27.0046 115.292c-.1674 0-.3331-.029-.4877-.085-.1547-.056-.2951-.138-.4133-.242l-3.8226-3.348c-.1184-.104-.2122-.227-.2763-.362-.064-.136-.097-.281-.097-.427 0-.147.033-.292.097-.427.0641-.136.1579-.259.2763-.362l3.8226-3.349c.239-.209.563-.326.9007-.326.3378 0 .6616.118.9005.327.2388.209.373.493.3731.789.0002.296-.1337.579-.3723.789l-2.9216 2.559 2.9216 2.559c.1782.156.2995.355.3487.571.0491.217.0239.441-.0725.645-.0965.204-.2598.378-.4693.501-.2095.122-.4559.188-.7079.188z" fill="#fff"/><path d="M24.4561 111.944c-.338 0-.662-.118-.901-.327-.239-.209-.3732-.493-.3732-.789 0-.296.1342-.58.3732-.789.239-.21.563-.327.901-.327h16.5647c1.35-.007 2.6423-.48 3.5966-1.317.9542-.836 1.4933-1.968 1.5003-3.151v-1.113c0-.295.1342-.579.3732-.789.239-.209.5631-.327.901-.327.338 0 .6621.118.901.327.239.21.3732.494.3732.789v1.117c-.01 1.772-.8181 3.47-2.2489 4.724-1.4308 1.253-3.3687 1.962-5.3926 1.972H24.4561z" fill="#fff"/></svg>