<svg width="72" height="25" viewBox="0 0 72 25" fill="none" xmlns="http://www.w3.org/2000/svg"><path d="M5.472 20.126c-.84 0-1.596-.144-2.268-.432-.672-.3-1.2-.72-1.584-1.26-.384-.54-.576-1.17-.576-1.89H3.24c.048.54.258.984.63 1.332.384.348.918.522 1.602.522.708 0 1.26-.168 1.656-.504.396-.348.594-.792.594-1.332 0-.42-.126-.762-.378-1.026-.24-.264-.546-.468-.918-.612-.36-.144-.864-.3-1.512-.468-.816-.216-1.482-.432-1.998-.648-.504-.228-.936-.576-1.296-1.044-.36-.468-.54-1.092-.54-1.872 0-.72.18-1.35.54-1.89.36-.54.864-.954 1.512-1.242.648-.288 1.398-.432 2.25-.432 1.212 0 2.202.306 2.97.918.78.6 1.212 1.428 1.296 2.484H7.38c-.036-.456-.252-.846-.648-1.17-.396-.324-.918-.486-1.566-.486-.588 0-1.068.15-1.44.45-.372.3-.558.732-.558 1.296 0 .384.114.702.342.954.24.24.54.432.9.576.36.144.852.3 1.476.468.828.228 1.5.456 2.016.684.528.228.972.582 1.332 1.062.372.468.558 1.098.558 1.89 0 .636-.174 1.236-.522 1.8-.336.564-.834 1.02-1.494 1.368-.648.336-1.416.504-2.304.504zm7.7853-11.358c-.372 0-.684-.126-.936-.378s-.378-.564-.378-.936c0-.372.126-.684.378-.936s.564-.378.936-.378c.36 0 .666.126.918.378s.378.564.378.936c0 .372-.126.684-.378.936s-.558.378-.918.378zm1.008 1.314V20h-2.052v-9.918h2.052zm6.6901-.162c.768 0 1.446.156 2.034.468.6.3 1.068.678 1.404 1.134v-1.44h2.07v10.08c0 .912-.192 1.722-.576 2.43-.384.72-.942 1.284-1.674 1.692-.72.408-1.584.612-2.592.612-1.344 0-2.46-.318-3.348-.954-.888-.624-1.392-1.476-1.512-2.556h2.034c.156.516.486.93.99 1.242.516.324 1.128.486 1.836.486.828 0 1.494-.252 1.998-.756.516-.504.774-1.236.774-2.196v-1.656c-.348.468-.822.864-1.422 1.188-.588.312-1.26.468-2.016.468-.864 0-1.656-.216-2.376-.648-.708-.444-1.272-1.056-1.692-1.836-.408-.792-.612-1.686-.612-2.682s.204-1.878.612-2.646c.42-.768.984-1.362 1.692-1.782.72-.432 1.512-.648 2.376-.648zm3.438 5.112c0-.684-.144-1.278-.432-1.782-.276-.504-.642-.888-1.098-1.152-.456-.264-.948-.396-1.476-.396s-1.02.132-1.476.396c-.456.252-.828.63-1.116 1.134-.276.492-.414 1.08-.414 1.764 0 .684.138 1.284.414 1.8.288.516.66.912 1.116 1.188.468.264.96.396 1.476.396.528 0 1.02-.132 1.476-.396.456-.264.822-.648 1.098-1.152.288-.516.432-1.116.432-1.8zm9.7692-5.112c.78 0 1.476.162 2.088.486.624.324 1.11.804 1.458 1.44.348.636.522 1.404.522 2.304V20h-2.034v-5.544c0-.888-.222-1.566-.666-2.034-.444-.48-1.05-.72-1.818-.72s-1.38.24-1.836.72c-.444.468-.666 1.146-.666 2.034V20h-2.052v-9.918h2.052v1.134c.336-.408.762-.726 1.278-.954.528-.228 1.086-.342 1.674-.342zm13.3952-2.43v7.974c0 .948.246 1.662.738 2.142.504.48 1.2.72 2.088.72.9 0 1.596-.24 2.088-.72.504-.48.756-1.194.756-2.142V7.49h2.052v7.938c0 1.02-.222 1.884-.666 2.592-.444.708-1.038 1.236-1.782 1.584-.744.348-1.566.522-2.466.522-.9 0-1.722-.174-2.466-.522-.732-.348-1.314-.876-1.746-1.584-.432-.708-.648-1.572-.648-2.592V7.49h2.052zm12.4458 4.05c.348-.456.822-.84 1.422-1.152.6-.312 1.278-.468 2.034-.468.864 0 1.65.216 2.358.648.72.42 1.284 1.014 1.692 1.782.408.768.612 1.65.612 2.646s-.204 1.89-.612 2.682c-.408.78-.972 1.392-1.692 1.836-.708.432-1.494.648-2.358.648-.756 0-1.428-.15-2.016-.45-.588-.312-1.068-.696-1.44-1.152v6.156h-2.052V10.082h2.052v1.458zm6.03 3.456c0-.684-.144-1.272-.432-1.764-.276-.504-.648-.882-1.116-1.134-.456-.264-.948-.396-1.476-.396-.516 0-1.008.132-1.476.396-.456.264-.828.648-1.116 1.152-.276.504-.414 1.098-.414 1.782 0 .684.138 1.284.414 1.8.288.504.66.888 1.116 1.152.468.264.96.396 1.476.396.528 0 1.02-.132 1.476-.396.468-.276.84-.672 1.116-1.188.288-.516.432-1.116.432-1.8z" fill="#585858"/></svg>