<svg width="564" height="418" viewBox="0 0 564 418" fill="none" xmlns="http://www.w3.org/2000/svg"><g clip-path="url(#clip0)"><path opacity=".1" d="M162.021 71.6886h-42.307c-2.44 0-4.419 1.8344-4.419 4.0973v6.1432c0 2.2628 1.979 4.0972 4.419 4.0972h42.307c2.441 0 4.419-1.8344 4.419-4.0972v-6.1432c0-2.2629-1.978-4.0973-4.419-4.0973zM215.545 86.0264h-42.308c-2.44 0-4.418 1.8344-4.418 4.0972v6.1432c0 2.2629 1.978 4.0972 4.418 4.0972h42.308c2.44 0 4.418-1.8343 4.418-4.0972v-6.1432c0-2.2628-1.978-4.0972-4.418-4.0972zM269.068 100.364h-42.307c-2.441 0-4.419 1.835-4.419 4.097v6.144c0 2.262 1.978 4.097 4.419 4.097h42.307c2.44 0 4.419-1.835 4.419-4.097v-6.144c0-2.262-1.979-4.097-4.419-4.097zM162.021 50.182h-42.307c-2.44 0-4.419 1.8344-4.419 4.0973v6.1432c0 2.2628 1.979 4.0972 4.419 4.0972h42.307c2.441 0 4.419-1.8344 4.419-4.0972v-6.1432c0-2.2629-1.978-4.0973-4.419-4.0973zM215.545 64.5198h-42.308c-2.44 0-4.418 1.8344-4.418 4.0973v6.1431c0 2.2629 1.978 4.0973 4.418 4.0973h42.308c2.44 0 4.418-1.8344 4.418-4.0973v-6.1431c0-2.2629-1.978-4.0973-4.418-4.0973zM269.068 78.8575h-42.307c-2.441 0-4.419 1.8345-4.419 4.0973v6.1432c0 2.2629 1.978 4.0973 4.419 4.0973h42.307c2.44 0 4.419-1.8344 4.419-4.0973v-6.1432c0-2.2628-1.979-4.0973-4.419-4.0973zM328.539 71.6886h-42.308c-2.44 0-4.418 1.8344-4.418 4.0973v6.1432c0 2.2628 1.978 4.0972 4.418 4.0972h42.308c2.44 0 4.418-1.8344 4.418-4.0972v-6.1432c0-2.2629-1.978-4.0973-4.418-4.0973zM382.062 86.0264h-42.307c-2.441 0-4.419 1.8344-4.419 4.0972v6.1432c0 2.2629 1.978 4.0972 4.419 4.0972h42.307c2.44 0 4.419-1.8343 4.419-4.0972v-6.1432c0-2.2628-1.979-4.0972-4.419-4.0972zM435.585 100.364h-42.307c-2.44 0-4.419 1.835-4.419 4.097v6.144c0 2.262 1.979 4.097 4.419 4.097h42.307c2.441 0 4.419-1.835 4.419-4.097v-6.144c0-2.262-1.978-4.097-4.419-4.097zM328.539 50.182h-42.308c-2.44 0-4.418 1.8344-4.418 4.0973v6.1432c0 2.2628 1.978 4.0972 4.418 4.0972h42.308c2.44 0 4.418-1.8344 4.418-4.0972v-6.1432c0-2.2629-1.978-4.0973-4.418-4.0973zM382.062 64.5198h-42.307c-2.441 0-4.419 1.8344-4.419 4.0973v6.1431c0 2.2629 1.978 4.0973 4.419 4.0973h42.307c2.44 0 4.419-1.8344 4.419-4.0973v-6.1431c0-2.2629-1.979-4.0973-4.419-4.0973zM435.585 78.8575h-42.307c-2.44 0-4.419 1.8345-4.419 4.0973v6.1432c0 2.2629 1.979 4.0973 4.419 4.0973h42.307c2.441 0 4.419-1.8344 4.419-4.0973v-6.1432c0-2.2628-1.978-4.0973-4.419-4.0973zM162.021 21.5066h-42.307c-2.44 0-4.419 1.8344-4.419 4.0973v6.1431c0 2.2629 1.979 4.0973 4.419 4.0973h42.307c2.441 0 4.419-1.8344 4.419-4.0973v-6.1431c0-2.2629-1.978-4.0973-4.419-4.0973zM215.545 35.8444h-42.308c-2.44 0-4.418 1.8344-4.418 4.0972v6.1432c0 2.2629 1.978 4.0973 4.418 4.0973h42.308c2.44 0 4.418-1.8344 4.418-4.0973v-6.1432c0-2.2628-1.978-4.0972-4.418-4.0972zM269.068 50.182h-42.307c-2.441 0-4.419 1.8344-4.419 4.0973v6.1432c0 2.2628 1.978 4.0972 4.419 4.0972h42.307c2.44 0 4.419-1.8344 4.419-4.0972v-6.1432c0-2.2629-1.979-4.0973-4.419-4.0973zM162.021 0h-42.307c-2.44 0-4.419 1.83442-4.419 4.09728v6.14312c0 2.2629 1.979 4.0973 4.419 4.0973h42.307c2.441 0 4.419-1.8344 4.419-4.0973V4.09728C166.44 1.83442 164.462 0 162.021 0zM215.545 14.3378h-42.308c-2.44 0-4.418 1.8344-4.418 4.0973v6.1431c0 2.2629 1.978 4.0973 4.418 4.0973h42.308c2.44 0 4.418-1.8344 4.418-4.0973v-6.1431c0-2.2629-1.978-4.0973-4.418-4.0973zM269.068 28.6754h-42.307c-2.441 0-4.419 1.8344-4.419 4.0973v6.1432c0 2.2628 1.978 4.0972 4.419 4.0972h42.307c2.44 0 4.419-1.8344 4.419-4.0972v-6.1432c0-2.2629-1.979-4.0973-4.419-4.0973zM328.539 21.5066h-42.308c-2.44 0-4.418 1.8344-4.418 4.0973v6.1431c0 2.2629 1.978 4.0973 4.418 4.0973h42.308c2.44 0 4.418-1.8344 4.418-4.0973v-6.1431c0-2.2629-1.978-4.0973-4.418-4.0973zM382.062 35.8444h-42.307c-2.441 0-4.419 1.8344-4.419 4.0972v6.1432c0 2.2629 1.978 4.0973 4.419 4.0973h42.307c2.44 0 4.419-1.8344 4.419-4.0973v-6.1432c0-2.2628-1.979-4.0972-4.419-4.0972zM435.585 50.182h-42.307c-2.44 0-4.419 1.8344-4.419 4.0973v6.1432c0 2.2628 1.979 4.0972 4.419 4.0972h42.307c2.441 0 4.419-1.8344 4.419-4.0972v-6.1432c0-2.2629-1.978-4.0973-4.419-4.0973zM328.539 0h-42.308c-2.44 0-4.418 1.83442-4.418 4.09728v6.14312c0 2.2629 1.978 4.0973 4.418 4.0973h42.308c2.44 0 4.418-1.8344 4.418-4.0973V4.09728C332.957 1.83442 330.979 0 328.539 0zM382.062 14.3378h-42.307c-2.441 0-4.419 1.8344-4.419 4.0973v6.1431c0 2.2629 1.978 4.0973 4.419 4.0973h42.307c2.44 0 4.419-1.8344 4.419-4.0973v-6.1431c0-2.2629-1.979-4.0973-4.419-4.0973zM435.585 28.6754h-42.307c-2.44 0-4.419 1.8344-4.419 4.0973v6.1432c0 2.2628 1.979 4.0972 4.419 4.0972h42.307c2.441 0 4.419-1.8344 4.419-4.0972v-6.1432c0-2.2629-1.978-4.0973-4.419-4.0973zM162.021 327.01h-42.307c-2.44 0-4.419 1.835-4.419 4.098v6.143c0 2.263 1.979 4.097 4.419 4.097h42.307c2.441 0 4.419-1.834 4.419-4.097v-6.143c0-2.263-1.978-4.098-4.419-4.098zM215.545 341.348h-42.308c-2.44 0-4.418 1.835-4.418 4.098v6.143c0 2.263 1.978 4.097 4.418 4.097h42.308c2.44 0 4.418-1.834 4.418-4.097v-6.143c0-2.263-1.978-4.098-4.418-4.098zM269.068 355.686h-42.307c-2.441 0-4.419 1.834-4.419 4.097v6.143c0 2.263 1.978 4.098 4.419 4.098h42.307c2.44 0 4.419-1.835 4.419-4.098v-6.143c0-2.263-1.979-4.097-4.419-4.097zM162.021 305.504h-42.307c-2.44 0-4.419 1.834-4.419 4.097v6.143c0 2.263 1.979 4.098 4.419 4.098h42.307c2.441 0 4.419-1.835 4.419-4.098v-6.143c0-2.263-1.978-4.097-4.419-4.097zM215.545 319.842h-42.308c-2.44 0-4.418 1.834-4.418 4.097v6.143c0 2.263 1.978 4.097 4.418 4.097h42.308c2.44 0 4.418-1.834 4.418-4.097v-6.143c0-2.263-1.978-4.097-4.418-4.097zM269.068 334.179h-42.307c-2.441 0-4.419 1.835-4.419 4.098v6.143c0 2.263 1.978 4.097 4.419 4.097h42.307c2.44 0 4.419-1.834 4.419-4.097v-6.143c0-2.263-1.979-4.098-4.419-4.098zM328.539 327.01h-42.308c-2.44 0-4.418 1.835-4.418 4.098v6.143c0 2.263 1.978 4.097 4.418 4.097h42.308c2.44 0 4.418-1.834 4.418-4.097v-6.143c0-2.263-1.978-4.098-4.418-4.098zM382.062 341.348h-42.307c-2.441 0-4.419 1.835-4.419 4.098v6.143c0 2.263 1.978 4.097 4.419 4.097h42.307c2.44 0 4.419-1.834 4.419-4.097v-6.143c0-2.263-1.979-4.098-4.419-4.098zM435.585 355.686h-42.307c-2.44 0-4.419 1.834-4.419 4.097v6.143c0 2.263 1.979 4.098 4.419 4.098h42.307c2.441 0 4.419-1.835 4.419-4.098v-6.143c0-2.263-1.978-4.097-4.419-4.097zM328.539 305.504h-42.308c-2.44 0-4.418 1.834-4.418 4.097v6.143c0 2.263 1.978 4.098 4.418 4.098h42.308c2.44 0 4.418-1.835 4.418-4.098v-6.143c0-2.263-1.978-4.097-4.418-4.097zM382.062 319.842h-42.307c-2.441 0-4.419 1.834-4.419 4.097v6.143c0 2.263 1.978 4.097 4.419 4.097h42.307c2.44 0 4.419-1.834 4.419-4.097v-6.143c0-2.263-1.979-4.097-4.419-4.097zM435.585 334.179h-42.307c-2.44 0-4.419 1.835-4.419 4.098v6.143c0 2.263 1.979 4.097 4.419 4.097h42.307c2.441 0 4.419-1.834 4.419-4.097v-6.143c0-2.263-1.978-4.098-4.419-4.098zM162.021 276.828h-42.307c-2.44 0-4.419 1.835-4.419 4.098v6.143c0 2.263 1.979 4.097 4.419 4.097h42.307c2.441 0 4.419-1.834 4.419-4.097v-6.143c0-2.263-1.978-4.098-4.419-4.098zM215.545 291.166h-42.308c-2.44 0-4.418 1.835-4.418 4.098v6.143c0 2.263 1.978 4.097 4.418 4.097h42.308c2.44 0 4.418-1.834 4.418-4.097v-6.143c0-2.263-1.978-4.098-4.418-4.098zM269.068 305.504h-42.307c-2.441 0-4.419 1.834-4.419 4.097v6.143c0 2.263 1.978 4.098 4.419 4.098h42.307c2.44 0 4.419-1.835 4.419-4.098v-6.143c0-2.263-1.979-4.097-4.419-4.097zM162.021 255.322h-42.307c-2.44 0-4.419 1.834-4.419 4.097v6.143c0 2.263 1.979 4.098 4.419 4.098h42.307c2.441 0 4.419-1.835 4.419-4.098v-6.143c0-2.263-1.978-4.097-4.419-4.097zM215.545 269.66h-42.308c-2.44 0-4.418 1.834-4.418 4.097v6.143c0 2.263 1.978 4.097 4.418 4.097h42.308c2.44 0 4.418-1.834 4.418-4.097v-6.143c0-2.263-1.978-4.097-4.418-4.097zM269.068 283.997h-42.307c-2.441 0-4.419 1.835-4.419 4.098v6.143c0 2.263 1.978 4.097 4.419 4.097h42.307c2.44 0 4.419-1.834 4.419-4.097v-6.143c0-2.263-1.979-4.098-4.419-4.098zM328.539 276.828h-42.308c-2.44 0-4.418 1.835-4.418 4.098v6.143c0 2.263 1.978 4.097 4.418 4.097h42.308c2.44 0 4.418-1.834 4.418-4.097v-6.143c0-2.263-1.978-4.098-4.418-4.098zM382.062 291.166h-42.307c-2.441 0-4.419 1.835-4.419 4.098v6.143c0 2.263 1.978 4.097 4.419 4.097h42.307c2.44 0 4.419-1.834 4.419-4.097v-6.143c0-2.263-1.979-4.098-4.419-4.098zM435.585 305.504h-42.307c-2.44 0-4.419 1.834-4.419 4.097v6.143c0 2.263 1.979 4.098 4.419 4.098h42.307c2.441 0 4.419-1.835 4.419-4.098v-6.143c0-2.263-1.978-4.097-4.419-4.097zM328.539 255.322h-42.308c-2.44 0-4.418 1.834-4.418 4.097v6.143c0 2.263 1.978 4.098 4.418 4.098h42.308c2.44 0 4.418-1.835 4.418-4.098v-6.143c0-2.263-1.978-4.097-4.418-4.097zM382.062 269.66h-42.307c-2.441 0-4.419 1.834-4.419 4.097v6.143c0 2.263 1.978 4.097 4.419 4.097h42.307c2.44 0 4.419-1.834 4.419-4.097v-6.143c0-2.263-1.979-4.097-4.419-4.097zM435.585 283.997h-42.307c-2.44 0-4.419 1.835-4.419 4.098v6.143c0 2.263 1.979 4.097 4.419 4.097h42.307c2.441 0 4.419-1.834 4.419-4.097v-6.143c0-2.263-1.978-4.098-4.419-4.098zM286.868 418c144.023 0 260.778-8.888 260.778-19.852s-116.755-19.852-260.778-19.852c-144.024 0-260.7784 8.888-260.7784 19.852S142.844 418 286.868 418z" fill="#9A9EF5"/><path d="M50.3417 103.011c24.5911 9.882 38.7213 30.33 38.7213 30.33s-25.7448 4.412-50.3418-5.465C14.1242 118 0 97.5462 0 97.5462s25.7448-4.4171 50.3417 5.4648zM125.81 65.0712c7.606-11.5805 20.559-17.095 20.559-17.095s.594 13.2017-6.988 24.7491c-7.583 11.5474-20.565 17.0564-20.565 17.0564s-.618-13.1962 6.994-24.7105z" fill="#9A9EF5"/><path d="M69.8956 77.4624c5.4415 18.0104 20.44 29.8666 20.44 29.8666s6.179-17.3542.7374-35.3701C85.6315 53.943 70.6271 42.0923 70.6271 42.0923s-6.179 17.3542-.7315 35.3701z" fill="#46455B"/><path d="M499.944 76.6517H74.9803c-2.3681 0-4.2878 1.7801-4.2878 3.976V273.955c0 2.196 1.9197 3.976 4.2878 3.976H499.944c2.368 0 4.288-1.78 4.288-3.976V80.6277c0-2.1959-1.92-3.976-4.288-3.976z" fill="#3F3D56"/><path opacity=".1" d="M70.6925 265.799H504.232v8.156c0 1.055-.452 2.066-1.256 2.812s-1.894 1.164-3.032 1.164H74.9803c-1.1372 0-2.2278-.418-3.0319-1.164s-1.2559-1.757-1.2559-2.812v-8.156z" fill="#000"/><path d="M143.544 250.91h-29.141c-.821 0-1.486.618-1.486 1.379v12.132c0 .761.665 1.378 1.486 1.378h29.141c.821 0 1.487-.617 1.487-1.378v-12.132c0-.761-.666-1.379-1.487-1.379zM174.766 263.594h-19.625c-.657 0-1.19.493-1.19 1.103 0 .609.533 1.102 1.19 1.102h19.625c.657 0 1.189-.493 1.189-1.102 0-.61-.532-1.103-1.189-1.103zM134.415 116.014c15.694 2.686 31.704 0 47.333-1.82l47.499-5.514c1.921-.226 4.716-1.29 5.846.888.636 1.219.208 3.86.255 5.261.125 3.86.113 7.72 0 11.58-.214 7.379-.797 14.74-1.54 22.086-1.445 14.376-3.491 28.675-4.514 43.107-.523 7.345-.785 14.712-.553 22.058.054 1.753.131 3.507.244 5.255.125 1.958 1.07 4.864-1.231 6.171-1.314.75-3.901.711-5.406.932-2.379.347-4.758.623-7.184.849-15.992 1.483-32.191.866-48.242.778l-48.469-.232-11.822-.061c-1.071 0-4.931.596-5.591-.584-.279-.502.464-2.851.595-3.48.182-1.037.381-2.072.595-3.105 1.379-7.251 3.009-14.459 4.65-21.661 3.527-15.44 7.137-30.958 8.588-46.73.719-7.913.244-15.898 1.124-23.795.41-3.667.898-11.85 6.161-12.176 4.46-.275 9.051 0 13.524 0 .236 0 .463-.087.63-.242.168-.155.262-.366.262-.585 0-.219-.094-.43-.262-.585-.167-.155-.394-.242-.63-.242-4.223 0-8.451-.105-12.674-.028-2.807.05-4.757.668-6.095 3.061-3.42 6.143-3.069 14.338-3.176 21.043-.256 16.053-2.914 31.764-6.375 47.464-1.743 7.902-3.622 15.777-5.353 23.685-.814 3.777-1.593 7.565-2.307 11.365-.3331 1.809-2.0161 5.796-.5353 7.456 1.4803 1.659 6.0363.766 8.0763.777l14.189.077 27.19.144c17.568.093 35.195.551 52.757.071 8.385-.231 17.246-.551 25.411-2.409 2.433-.552 3.604-1.589 3.699-3.993.143-3.728-.511-7.571-.594-11.316-.595-32.039 7.523-63.632 6.69-95.682-.053-2.178.833-7.671-1.737-8.989-1.153-.595-2.652-.27-3.865-.138-2.319.249-4.633.552-6.952.806l-30.122 3.485c-9.628 1.103-19.251 2.294-28.897 3.308-10.211 1.103-20.523 1.76-30.698 0-1.124-.193-1.606 1.401-.476 1.594l-.018.066z" fill="#9A9EF5"/><path d="M115.48 135.508l118.834-5.404c1.147-.055 1.153-1.71 0-1.654l-118.834 5.404c-1.142.049-1.148 1.704 0 1.654zM152.09 121.871c-.333.326-.574.723-.703 1.156-.129.433-.143.888-.039 1.327.104.438.321.847.634 1.19.313.343.711.609 1.16.777 1.6.678 3.479.11 5.067-.259 2.379-.552 4.758-1.042 7.202-1.445 5.32-.873 10.708-1.338 16.111-1.39 2.462-.027 4.906.078 7.368.177 1.784.066 3.705.198 5.216-.827 1.724-1.169 2.283-3.452.594-4.875-2.378-2.013-7.505-.844-10.252-.634-9.97.768-19.875 2.138-29.652 4.102-1.118.221-.649 1.82.475 1.594 6.451-1.29 12.951-2.327 19.501-3.11 3.219-.368 6.444-.678 9.676-.932 1.522-.116 3.045-.221 4.567-.303.595-.033 1.225-.094 1.832-.078 1.885.039 2.105-.275.975 1.837-1.005 1.869-.684 1.654-2.426 1.594-.738 0-1.475-.078-2.213-.111-1.51-.059-3.021-.09-4.531-.094-3.216 0-6.423.144-9.623.431-2.711.242-5.417.584-8.1 1.025-1.677.276-3.342.596-5.001.949-.731.16-1.469.325-2.2.496-.351.088-.708.166-1.059.248-1.3.419-2.409-.132-3.324-1.654.797-.767-.458-1.941-1.261-1.169l.006-.022zM173.63 145.407c-8.605-.309-17.901 1.847-23.568 8.271-4.437 5.024-6.964 13.643-2.266 19.301 5.049 6.066 16.122 4.996 22.801 2.41 7.065-2.757 14.796-8.443 16.919-15.556 2.647-8.884-5.947-15.601-14.897-15.7-1.148 0-1.148 1.654 0 1.654 5.103.055 10.11 2.085 12.489 6.491 2.492 4.643.345 9.518-2.974 13.235-5.316 5.917-13.63 10.378-22.099 10.251-5.085-.072-10.705-1.687-12.281-6.661-1.296-4.032-.309-8.438 1.951-12.011 4.888-7.72 14.838-10.334 23.961-10.003 1.147.038 1.147-1.616 0-1.655l-.036-.027z" fill="#9A9EF5"/><path d="M165.084 157.66c-.367-.126-.762-.164-1.149-.11-.387.053-.753.197-1.064.417-.311.22-.557.51-.715.842-.158.332-.223.695-.188 1.057.178 2.15 2.735 2.757 4.656 2.63 1.66-.132 3.598-.7 3.015-2.625-.107-.34-.292-.656-.542-.924-.251-.268-.56-.484-.909-.631-.532-.196-1.109-.262-1.677-.193-.22 0-2.236.684-1.379-.138l-1.404-.171c.156.143.275.316.349.507.074.19.101.394.079.596.003.144.046.285.125.409.079.125.192.227.327.299.134.072.287.11.442.11.156.001.309-.036.444-.106.204-.08.428-.105.647-.072.218.032.423.12.59.254.167.134.291.309.357.505.067.195.073.404.018.603-.048.191-.022.392.074.566.096.175.256.313.451.389.194.077.412.087.614.029.202-.057.376-.18.491-.344.594-.993 1.314-2.967.422-4.004-.595-.7-1.743-.491-2.456-.083-.441.289-.851.616-1.225.976-.72.59-1.19.866-.922-.264.446-2.057 2.563-3.695 4.496-4.517l-1.309-.932c-.686 2.391-1.912 4.618-3.598 6.535l1.523.585c-.043-.758.167-1.509.601-2.151.434-.643 1.072-1.145 1.825-1.439h-.874l.464.706c-.173 1.042 1.546 1.488 1.719.435.226-1.362-.702-3.132-2.421-2.465-2.052.794-3.116 2.973-3.074 4.914 0 .661 1.011 1.174 1.528.59 1.891-2.131 3.272-4.61 4.05-7.274.041-.158.032-.324-.026-.477-.059-.153-.164-.288-.303-.386-.14-.099-.307-.158-.482-.17-.175-.013-.35.023-.503.101-1.782.747-3.287 1.963-4.33 3.496-.725 1.103-1.635 2.824-.898 4.092.121.203.284.382.48.526.196.144.42.251.661.314.241.063.492.081.74.053.249-.027.488-.1.706-.215.55-.302 1.052-.673 1.493-1.103.22-.182.464-.496.755-.551.262-.165.25-.072-.042.292-.003.572-.183 1.13-.517 1.611l1.63.634c.146-.515.129-1.059-.05-1.565s-.512-.953-.959-1.287c-.448-.334-.99-.541-1.561-.596-.571-.054-1.147.045-1.659.288l1.344.717c.028-.702-.209-1.391-.672-1.947-.07-.107-.165-.198-.279-.267-.113-.069-.241-.113-.375-.129-.135-.016-.271-.005-.399.034-.129.039-.247.104-.344.191-.904.877-1.077 2.393.059 3.204.851.601 1.267 0 2.201-.138 3.169-.38 1.32.943.202.987-.5.05-1.006.016-1.493-.099-1.241-.39-1.318-.891-.232-1.505 1.065.402 1.523-1.197.476-1.594l-.024-.022z" fill="#9A9EF5"/><path d="M163.651 160.682c.731 2.206-2.29 2.934-3.723 3.695-1.006.523-1.883 1.234-2.575 2.09-1.499 1.863-2.058 4.235-2.551 6.468-.226 1.042 1.492 1.484 1.724.441.272-1.641.778-3.241 1.505-4.759 1.07-1.974 2.605-2.636 4.603-3.65 1.998-1.015 3.443-2.587 2.735-4.726-.333-1.015-2.057-.579-1.718.441z" fill="#9A9EF5"/><path d="M166.624 159.573c-.425.055-.813.255-1.088.561-.275.306-.417.696-.398 1.094 0 .656.469 1.075.79 1.599.763 1.072 1.344 2.245 1.725 3.48.286 1.185.565 3.308-.101 4.411-1.231 2.046-3.455 1.655-5.352 1.655-1.784 0-3.164.551-3.105-1.754.036-1.296 1.011-2.608 1.784-3.628l-1.629-.199c.344 1.684.525 3.393.541 5.106 0 .767 1.267 1.192 1.659.414.956-1.865 1.715-3.812 2.266-5.812l-1.754-.221.309 4.191c.005.179.072.352.192.492.119.141.284.242.47.289.186.047.383.038.563-.028.18-.065.332-.182.434-.334.209-.213.361-.468.446-.744.06-.259-.487-2.007-.707-1.384l1.748.22.125-3.981-1.784.22c.377 1.123.491 2.308.333 3.474-.113.921 1.558 1.131 1.784.221l1.118-5.349-1.629.193c.387.74.494 1.579.303 2.382-.131 1.059 1.653 1.048 1.784 0 .151-1.098-.038-2.213-.547-3.215-.091-.138-.222-.248-.379-.318s-.333-.096-.506-.075c-.172.021-.335.088-.467.193-.132.105-.229.244-.278.399l-1.124 5.349 1.755.22c.178-1.314.042-2.649-.399-3.909-.059-.19-.19-.354-.369-.462-.179-.108-.393-.153-.605-.127-.211.026-.405.121-.548.269-.142.147-.222.337-.226.535l-.125 3.981c0 .965 1.445 1.103 1.754.221l.095-.27c.042-.141.042-.29.003-.431-.04-.141-.119-.27-.229-.375-1.849-1.863-2.224 1.103-2.866 1.925l1.665.419-.309-4.191c-.065-.893-1.493-1.169-1.754-.22-.503 1.865-1.2 3.68-2.082 5.42l1.665.419c-.019-1.862-.218-3.718-.594-5.547-.155-.761-1.231-.728-1.63-.199-1.189 1.588-3.247 5.057-1.659 6.96 1.386 1.654 5.745 1.014 7.606.91 2.938-.155 4.002-1.881 4.324-4.451.153-1.23.078-2.476-.22-3.683-.161-.651-1.785-4.776-2.272-4.693 1.13-.193.648-1.792-.476-1.599l-.03-.023z" fill="#9A9EF5"/><path d="M163.169 163.29l-4.871 5.961 1.541.833 3.568-4.787-1.63-.639-1.778 6.292c-.048.191-.021.391.075.566.096.175.255.313.45.389.195.077.412.087.614.029.203-.058.376-.18.491-.344.809-1.244 1.717-2.429 2.718-3.546l-1.487-.805c-.399 1.424-1.169 2.736-2.242 3.821l1.493.805c.091-.762.31-1.506.648-2.206.458-.954-.993-1.797-1.541-.838-.503.874-1.077 1.711-1.718 2.504l1.629.198.363-1.571-1.629-.199.261 1.379c.043.139.124.264.236.365.111.101.248.174.399.21.15.037.309.037.459 0 .151-.037.288-.11.399-.211 1.508-1.448 2.718-3.139 3.568-4.991h-1.534c.403.69.686 1.434.838 2.206.214.993 1.636.623 1.749-.221.255-1.847.386-3.707.392-5.569h-1.784v3.468c0 .899 1.588 1.164 1.755.221.117-.837.415-1.643.874-2.371h-1.564c.377.563.582 1.211.594 1.875 0 .219.094.429.262.585.167.155.394.242.63.242.237 0 .464-.087.631-.242.168-.156.261-.366.261-.585l.226-1.103h-1.718c.172.976.826 6.474-1.499 5.829-.392-.089-.505-.067-.339.06l.529-1.048 1.243-2.442-1.665-.42c.107 1.136.22 2.758-.517 3.728-.595.789-2.427 1.103-3.36.64-.617-.408-1.143-.92-1.552-1.511l-1.22 1.103c.988.667 2.587 2.305 3.86 2.399.969.071 1.784-.673 2.42-1.269.977-.935 1.738-2.044 2.237-3.261.5-1.216.729-2.513.672-3.814 0-.219-.094-.43-.262-.585-.167-.155-.394-.242-.63-.242-.237 0-.464.087-.631.242-.168.155-.262.366-.262.585v1.886c0 .22.094.43.262.585.167.155.394.242.631.242.236 0 .463-.087.63-.242.168-.155.262-.365.262-.585v-4.627c0-.219-.094-.429-.262-.584-.167-.156-.394-.243-.63-.243-.237 0-.464.087-.631.243-.168.155-.262.365-.262.584-.003 1.109-.106 2.216-.309 3.309l1.755.221c-.14-1.318-.206-2.641-.197-3.965-.002-.198-.082-.389-.224-.537-.141-.149-.336-.245-.547-.272-.212-.027-.427.018-.607.126-.179.108-.31.272-.37.462-.268 1.054-.595 2.09-.91 3.121l1.63-.198-.125-.441c-.084-1.053-1.868-1.059-1.784 0 .019.446.145.883.368 1.279.345.673 1.422.436 1.63-.198.339-1.037.642-2.074.91-3.122l-1.755-.22c-.009 1.324.057 2.647.196 3.965.09.849 1.565 1.213 1.749.22.237-1.245.363-2.507.375-3.772h-1.785v4.627h1.785v-1.886h-1.785c.105 2.08-.674 4.116-2.17 5.669-.232.244-.482.473-.75.684-.422.375-.808.32-1.147-.171-.845-.325-1.719-1.164-2.456-1.654-.738-.491-1.749.479-1.226 1.13 1.368 1.687 3.408 3.568 5.948 2.757 2.67-.877 3.033-4.229 2.83-6.435-.065-.734-1.249-1.23-1.659-.414-.595 1.164-1.189 2.322-1.784 3.491-.208.408-.595.97-.535 1.456.196 1.241 1.82 1.037 2.819.965 3.871-.27 3.259-5.36 2.813-7.919-.149-.849-1.481-.717-1.719 0-.189.504-.288 1.033-.292 1.566h1.785c-.065-.948-.351-1.872-.839-2.708-.08-.123-.193-.225-.328-.296-.134-.071-.287-.108-.442-.108-.155 0-.308.037-.443.108-.135.071-.247.173-.327.296-.532.852-.891 1.786-1.059 2.758l1.784.22v-3.468c0-.22-.094-.43-.261-.585-.167-.155-.394-.242-.631-.242-.236 0-.463.087-.631.242-.167.155-.261.365-.261.585-.006 1.862-.137 3.722-.392 5.569l1.754-.22c-.202-.902-.544-1.771-1.017-2.581-.08-.123-.192-.225-.327-.296-.135-.071-.288-.108-.443-.108-.155 0-.308.037-.443.108-.135.071-.247.173-.327.296-.776 1.727-1.891 3.305-3.289 4.654l1.493.364-.262-1.378c-.137-.734-1.255-.756-1.629-.199-.296.415-.496.881-.59 1.371-.093.489-.076.991.049 1.475.148.783 1.219.7 1.629.198.641-.791 1.215-1.626 1.719-2.498l-1.541-.838c-.411.824-.691 1.699-.832 2.597-.107.728.826 1.489 1.493.805 1.278-1.297 2.204-2.859 2.699-4.555.221-.75-.898-1.461-1.492-.805-1.094 1.216-2.088 2.506-2.974 3.86l1.63.64 1.814-6.27c.048-.191.021-.392-.075-.566-.096-.175-.255-.313-.45-.389-.195-.077-.412-.087-.615-.029-.202.057-.375.179-.49.344l-3.568 4.792c-.666.888.862 1.655 1.54.833l4.853-5.956c.69-.849-.856-1.654-1.54-.838h-.048zM239.041 183.192c7.137-4.048 12.81-10.086 19.114-15.137 6.839-5.476 14.017-10.577 21.41-15.408 14.356-9.375 29.432-17.762 44.495-26.128.196-.114.335-.294.39-.502.055-.209.02-.428-.096-.613s-.305-.321-.528-.38c-.222-.058-.46-.034-.664.067-15.063 8.366-30.145 16.737-44.501 26.128-6.774 4.411-13.387 9.088-19.727 14.051-6.898 5.404-13.042 12.132-20.814 16.494-.982.551-.084 1.985.898 1.428h.023z" fill="#9A9EF5"/><path d="M347.093 100.833c-7.731.728-16.057 2.553-20.814 8.823-4.11 5.393-4.021 14.801-.161 20.338 4.383 6.292 13.339 6.518 20.297 4.483s14.16-5.603 14.095-13.312c-.036-4.136-1.647-8.443-3.426-12.193-1.534-3.237-4.252-6.066-8.367-5.707-1.136.099-1.148 1.753 0 1.654 5.513-.474 7.285 5.597 8.593 9.43 1.19 3.579 2.29 7.814.423 11.371-1.868 3.557-6.37 5.371-10.217 6.672-4.163 1.401-8.737 2.256-13.084 1.103-8.611-2.233-10.99-12.352-8.51-19.532 2.854-8.272 12.964-10.704 21.201-11.476 1.13-.105 1.142-1.759 0-1.654h-.03zM358.987 164.801c-7.731.728-16.057 2.553-20.814 8.823-4.11 5.394-4.02 14.801-.161 20.338 4.383 6.292 13.339 6.518 20.298 4.483 6.958-2.035 14.159-5.603 14.094-13.312-.036-4.136-1.647-8.443-3.425-12.192-1.535-3.237-4.253-6.066-8.368-5.708-1.136.099-1.148 1.754 0 1.654 5.513-.474 7.285 5.598 8.594 9.43 1.189 3.579 2.289 7.814.422 11.371-1.868 3.557-6.37 5.371-10.217 6.673-4.163 1.4-8.737 2.255-13.084 1.103-8.611-2.234-10.99-12.353-8.51-19.533 2.855-8.272 12.965-10.703 21.201-11.475 1.13-.105 1.142-1.76 0-1.655h-.03z" fill="#9A9EF5"/><path d="M335.431 116.941l5.632 5.955c.112.1.249.172.399.207.15.036.307.036.457-.001.15-.038.286-.11.397-.211.111-.1.191-.226.234-.364 1.189-2.901.963-5.906 1.243-8.956.308-3.151 1.161-6.237 2.527-9.137 2.744-5.8829 7.396-10.8268 13.31-14.1449.981-.5514.083-1.9852-.898-1.4282-5.831 3.2558-10.509 8.0208-13.458 13.7091-1.444 2.768-2.446 5.716-2.974 8.751-.595 3.579-.054 7.329-1.481 10.765l1.493-.37-5.602-5.944c-.761-.8-2.016.375-1.261 1.169h-.018zM241.914 189.639c30.675-.868 61.358-1.052 92.048-.552 1.148 0 1.148-1.654 0-1.654-30.682-.508-61.365-.324-92.048.551-1.148.033-1.154 1.688 0 1.655zM340.373 173.327c10.486 3.816 20.573 8.516 30.134 14.04.975.551 1.873-.866.898-1.429-9.687-5.592-19.907-10.347-30.532-14.205-1.065-.392-1.529 1.208-.47 1.594h-.03z" fill="#9A9EF5"/><path d="M359.416 165.832c-10.634 11.495-16.794 25.97-17.491 41.1-.047 1.064 1.737 1.064 1.784 0 .676-14.696 6.651-28.757 16.967-39.931.744-.805-.511-1.979-1.26-1.169zM121.564 183.633l66.47-.805 7.642-.094c1.373 0 2.747-.044 4.121-.049 1.933 0 3.235 1.489 3.2 3.308-.09 3.861-2.706 3.723-6.132 3.861l-8.26.347-33.637 1.373c-6.024.248-12.054.552-18.079.745-5.435.154-15.771-1.489-13.357-8.824.333-1.02-1.386-1.455-1.725-.441-1.189 3.607.916 7.268 4.306 9.16 4.811 2.68 11.151 1.77 16.462 1.549l41.296-1.737 10.027-.413c2.569-.111 6.143.375 8.504-.734 2.771-1.296 3.259-6.441 1.51-8.608-.898-1.103-2.158-1.202-3.568-1.252-3.699-.132-7.463.094-11.168.138l-20.589.254-47.047.551c-1.148 0-1.148 1.655 0 1.655l.024.016z" fill="#9A9EF5"/><path d="M390.12 386.292c-1.498.871-3.211 1.362-4.757 2.128-1.547.767-3.051 1.919-3.491 3.507-.165.493-.137 1.024.077 1.5.385.575.974 1.008 1.665 1.225 3.141 1.293 6.534 1.979 9.971 2.015 3.437.036 6.845-.579 10.017-1.806 1.116-.497 2.269-.921 3.45-1.268 1.454-.275 2.934-.416 4.418-.419 1.56-.085 3.112-.269 4.645-.552.77-.079 1.5-.36 2.105-.81.552-.59.883-1.329.946-2.107.703-4.296-.358-8.681-2.974-12.286-.329-.506-.771-.94-1.296-1.274-.64-.307-1.344-.482-2.064-.513-2.973-.336-6.09-.954-9.093-1.02-2.153-.044-3.235.904-4.758 2.277-3.146 2.917-4.983 7.158-8.861 9.403zM433.944 385.884c0 2.702.351 5.564 2.117 7.72.808.932 1.786 1.726 2.89 2.344 3.735 2.205 8.683 3.016 12.62 1.147.636-.265 1.18-.689 1.57-1.225.595-.959.28-2.156-.053-3.215l-5.698-18.308c-3.681.524-9.093.893-12.364 2.625-2.373 1.252-1.082 6.496-1.082 8.912z" fill="#323444"/><path d="M386.778 273.15c-.345 1.009-1.594 1.478-2.278 2.327-.803.999-.719 2.383-.428 3.596.36 1.789 1.266 3.444 2.611 4.77.682.656 1.524 1.152 2.455 1.446.931.293 1.925.376 2.897.241 1.915-.336 3.568-1.908 3.634-3.711-.035-.82-.224-1.628-.559-2.388l-4.056-10.874c-.017-.077-.051-.15-.1-.214-.049-.063-.112-.117-.185-.156-.154-.031-.314-.006-.447.072-.957.419-2.878.86-3.437 1.781-.559.921.297 2.112-.107 3.11z" fill="#FBB3B2"/><path d="M384.881 272.604c1.481-.215 2.777-1.02 4.163-1.549 1.385-.53 3.122-.734 4.288.149.333.253.654.601 1.088.595-.591-2.696-1.484-5.328-2.664-7.852-.042-.121-.123-.227-.232-.304-.162-.061-.344-.061-.506 0l-4.002.971c-1.481.358-1.653.248-1.54 1.599.029.601.362 6.391-.595 6.391z" fill="#323444"/><path d="M384.441 194.078c-.595.849-.595 1.908-.595 2.906 0 4.88.054 9.788.833 14.619.184 1.158.416 2.316.535 3.485.135 1.627.163 3.261.083 4.891l-.594 21.231c-.072 2.598-.215 5.388-1.945 7.428-.525.684-.771 1.519-.696 2.355.452 5.327 1.404 10.61 2.349 15.876 1.523-.636 3.186-.93 4.854-.856 1.669.074 3.294.513 4.745 1.281 3-8.748 4.66-17.844 4.93-27.021.137-4.517-.072-9.061.678-13.522 1.255-7.511.743-15.214-.179-22.769-.291-2.393-.91-4.858-2.563-6.711-1.565-1.622-3.649-2.735-5.947-3.177-2.2-.535-4.169.017-6.488-.016z" fill="#5B5583"/><path opacity=".1" d="M384.441 194.078c-.595.849-.595 1.908-.595 2.906 0 4.88.054 9.788.833 14.619.184 1.158.416 2.316.535 3.485.135 1.627.163 3.261.083 4.891l-.594 21.231c-.072 2.598-.215 5.388-1.945 7.428-.525.684-.771 1.519-.696 2.355.452 5.327 1.404 10.61 2.349 15.876 1.523-.636 3.186-.93 4.854-.856 1.669.074 3.294.513 4.745 1.281 3-8.748 4.66-17.844 4.93-27.021.137-4.517-.072-9.061.678-13.522 1.255-7.511.743-15.214-.179-22.769-.291-2.393-.91-4.858-2.563-6.711-1.565-1.622-3.649-2.735-5.947-3.177-2.2-.535-4.169.017-6.488-.016z" fill="#000"/><path d="M391.708 255.647c-3.988 18.953-1.811 38.578 6.256 56.381.697 1.318 1.186 2.722 1.451 4.169.328 2.702-1.016 5.299-1.784 7.913-1.784 5.945-.755 12.275.387 18.358.476 2.536.965 5.071 1.469 7.604.493 2.471.969 5.156-.268 7.395 1.065 4.114 1.695 8.189 2.76 12.303.113.326.147.67.101 1.009-.215.539-.593 1.008-1.089 1.351-.793.746-1.363 1.671-1.654 2.683-.291 1.013-.293 2.078-.005 3.091 2.718-1.809 6.506-1.175 9.611 0 3.104 1.175 6.161 2.757 9.515 2.757-.488-3.65-.958-7.483.493-10.907.845-1.986 2.332-3.861 2.29-5.984-.042-1.902-1.296-3.601-1.6-5.481-.112-1.17-.064-2.349.143-3.507.797-6.75-.107-13.566-1.011-20.305-.102-1.329-.44-2.633-.999-3.86-.422-.794-1.053-1.555-1.041-2.443 0-1.031.898-1.869 1.231-2.851.595-1.809-.499-4.268 1.148-5.388 4.341-2.955 2.676-10.014 2.581-15.005-.075-4.305-.273-8.606-.595-12.903 2.734 7.126 3.851 14.699 3.283 22.245-.19 2.471-.541 5.068.5 7.351.797 1.753 2.379 3.198 2.807 5.057.267 1.147.077 2.332.136 3.501.06 1.169.488 2.443 1.576 3.033.084 5.316.595 11.002.684 16.318-.057 2.717.182 5.433.714 8.106.267.85.415 1.729.44 2.614-.134 1.11-.451 2.194-.94 3.215-1.036 2.846-1.307 5.883-.789 8.848.519 2.965 1.81 5.768 3.763 8.164 1.403-2.31 4.329-3.535 7.184-3.728 2.855-.193 5.673.475 8.439 1.148-.423-3.222.268-6.486 1.974-9.32.458-.639.808-1.338 1.041-2.073.321-1.401-.428-2.796-.833-4.18-.66-2.206-.428-4.583-.273-6.888.519-7.72.15-15.469-1.1-23.117-.193-1.506-.575-2.987-1.136-4.412-.214-.507-.476-.992-.654-1.505-.281-.92-.441-1.868-.476-2.823l-.684-8.824c-.482-6.181 1.707-12.286 3.235-18.319.684-2.702 1.427-5.399 1.885-8.145.625-3.739.726-7.56 1.642-11.249.82-3.309 2.301-6.535 2.61-9.927.476-5.255-1.879-10.334-4.162-15.153-.952-1.986-4.55-1.787-6.863-2.14-16.408-2.498-33.69-2.515-49.165 3.116-1.6.614-3.041 1.537-4.228 2.707z" fill="#3C354C"/><path d="M403.537 157.77l1.82 6.562c.494 1.505.768 3.065.814 4.638.019.574-.118 1.143-.398 1.655-.3.42-.683.783-1.13 1.069-1.243.877-2.105 2.923-3.527 3.53.732 1.18 1.743.413 3.063 1.003 2.325 1.048 4.454 2.553 6.976 3.072 2.379.485 4.877.027 7.237-.552 3.349-.843 6.679-2.007 9.373-4.042 2.694-2.035 4.228-3.832 4.216-7.047-2.973.325-5.619-2.46-6.934-4.963-.455-.952-.791-1.949-.999-2.973l-1.594-6.501c-1.736.353-3.152 1.505-4.811 2.106-1.659.601-3.622.656-5.465.734-3.273.138-6.527.529-9.73 1.169-.44.082-.993.342-.886.739" fill="#FBB3B2"/><path opacity=".1" d="M403.537 157.77l1.82 6.562c.494 1.505.768 3.065.814 4.638.019.574-.118 1.143-.398 1.655-.3.42-.683.783-1.13 1.069-1.243.877-2.105 2.923-3.527 3.53.732 1.18 1.743.413 3.063 1.003 2.325 1.048 4.454 2.553 6.976 3.072 2.379.485 4.877.027 7.237-.552 3.349-.843 6.679-2.007 9.373-4.042 2.694-2.035 4.228-3.832 4.216-7.047-2.973.325-5.619-2.46-6.934-4.963-.455-.952-.791-1.949-.999-2.973l-1.594-6.501c-1.736.353-3.152 1.505-4.811 2.106-1.659.601-3.622.656-5.465.734-3.273.138-6.527.529-9.73 1.169-.44.082-.993.342-.886.739" fill="#000"/><path d="M411.351 161.388c8.698 0 15.748-6.538 15.748-14.603 0-8.064-7.05-14.602-15.748-14.602-8.697 0-15.747 6.538-15.747 14.602 0 8.065 7.05 14.603 15.747 14.603z" fill="#FBB3B2"/><path d="M415.687 170.856c.842-1.686 2.058-3.19 3.568-4.411 2.218-1.804 5.251-3.265 5.774-5.956l4.806 5.189c.261.241.464.53.594.849.061.3.052.607-.026.903-.078.296-.223.573-.426.812-1.189 1.759-3.062 3.017-4.835 4.291-4.062 2.983-7.951 6.164-11.65 9.529-.163.175-.381.299-.624.353-.23.005-.456-.054-.649-.171-3.191-1.554-6.016-3.684-8.308-6.265-.172-.193-.386-.413-.666-.397-.168.029-.324.104-.446.215-1.599 1.213-3.348 2.664-5.4 2.476 2.659-1.77 4.163-4.726 4.722-7.72.111-1.025.338-2.036.678-3.017.177-.49.48-.933.885-1.289.404-.356.897-.614 1.435-.751-1.297 1.836-.411 4.439 1.332 5.923 1.693 1.332 3.723 2.245 5.899 2.652 2.022.353 2.617-1.77 3.337-3.215zM395.199 257.147c2.242.513 4.365 1.384 6.542 2.03 3.967 1.152 8.142 1.558 12.28 1.196 1.274-.026 2.513-.391 3.569-1.053.279-.21.535-.458.832-.651.498-.277 1.037-.483 1.6-.612 5.453-1.583 10.021-4.996 14.451-8.338.143-.11.304-.248.292-.424-.021-.121-.084-.231-.179-.315l-2.331-2.481c-6.114.965-12.376.601-18.579.457-1.273-.052-2.549-.021-3.818.094-1.225.132-2.432.419-3.639.662-4.585.926-9.272 1.279-13.916 1.886-.325.022-.64.113-.922.264-.196.141-.363.313-.494.508l-1.629 2.123c-.633.714-1.098 1.542-1.368 2.432-.381 1.654.416 2.206 1.933 1.991 1.791-.244 3.617-.165 5.376.231z" fill="#323444"/><path d="M413.427 179.536c-1.82-1.729-3.882-3.222-6.132-4.439-.909-.535-1.917-.909-2.973-1.103-.532-.097-1.08-.086-1.606.034s-1.017.346-1.439.661c-.529.435-.862 1.042-1.374 1.5-.644.501-1.381.888-2.177 1.141-2.707 1.073-5.273 2.429-7.647 4.042-1.295.84-2.461 1.838-3.468 2.967-2.694 3.199-3.098 7.55-3.027 11.608.054 2.824 2.974 4.919 4.984 7.031 1.885 2.079 3.591 4.291 5.103 6.618 1.082 1.588 2.212 3.308 2.075 5.2-.113 1.549-1.088 3.005-.934 4.549.054.552.244 1.059.298 1.594.107 1.103-.363 2.206-.482 3.309-.16 1.56.387 3.11.416 4.681-.021 1.076-.169 2.147-.44 3.193-1.142 5.041-2.575 10.108-2.283 15.254l-3.295.551c.312.284.548.631.688 1.015.14.384.181.793.119 1.194-.062.401-.225.783-.476 1.115-.25.332-.582.604-.967.795 5.144 1.594 10.704.789 16.158.783 4.514 0 9.01.552 13.517.475 4.508-.078 9.159-.833 12.876-3.199 1.011-.639 1.938-1.389 3.003-1.946 1.426-.686 2.962-1.151 4.55-1.379 2.939-.52 5.928-.767 8.92-.739 1.463 0 3.057.055 4.222-.761 1.285-.904 1.612-2.542 1.785-4.026.172-1.566.279-3.137.309-4.709.05-1.224-.02-2.449-.208-3.662-.179-.886-.411-1.762-.696-2.625l-2.242-7.323c-.928-3.022.363-6.336.636-9.468.066-.739.078-1.599-.535-2.074-.22-.171-.523-.286-.595-.551-.032-.126-.036-.256-.011-.383.024-.127.077-.249.154-.356 1.189-2.206 2.973-4.152 4.603-6.143 2.737-3.492 5.278-7.113 7.612-10.847-.731-7.815-4.28-15.174-10.074-20.889-1.19-1.197-2.551-2.344-4.217-2.884-1.088-.309-2.216-.477-3.354-.502-4.662-.292-9.515-.552-13.577-2.724-.291-.188-.621-.317-.969-.381-.898-.094-1.552.728-2.135 1.379-1.499 1.654-3.705 2.603-5.644 3.821-3.616 2.278-6.441 5.41-9.051 8.603z" fill="#5B5583"/><path d="M462.853 195.368c.927 2.724.838 5.636 1.141 8.476.18 1.714.504 3.412.97 5.079.212.916.595 1.791 1.13 2.586.535.728 1.302 1.318 1.641 2.14.185.556.268 1.138.244 1.72l.071 3.805c.153 2.017-.178 4.039-.969 5.923l-2.563 7.229c-1.386 3.916-2.807 7.892-5.305 11.3-.352.576-.885 1.04-1.528 1.329-.504.123-1.02.197-1.541.22-.906.15-1.728.588-2.324 1.24-.596.651-.929 1.474-.941 2.328-.595-.806-1.337-1.51-2.194-2.079l-5.216-3.86c-1.784-1.346-3.645-2.713-5.81-3.491 2.912-.843 5.497-2.452 7.441-4.631 1.945-2.179 3.165-4.834 3.514-7.644-.002-.837.201-1.663.594-2.415.434-.651 1.237-1.147 1.297-1.914.071-.965-1.106-1.693-1.106-2.658 0-.64.511-1.169.737-1.77.211-.743.211-1.524 0-2.267l-.72-3.705c-.042-.372-.163-.731-.356-1.059-.27-.314-.568-.606-.892-.871-1.237-1.285-.69-3.309 0-4.892 1.584-3.513 3.625-6.833 6.077-9.887.873-1.026 1.682-2.097 2.421-3.21.63-1.014.773-2.421 1.439-3.308.856 2.084 2.016 4.141 2.748 6.286z" fill="#5B5583"/><path d="M439.475 239.539c-.266.183-.495.407-.678.662-.701.816-1.634 1.433-2.694 1.781.594.397 1.136.789 1.695 1.191 4.136 2.962 7.923 6.321 11.299 10.02.375-1.24 2.617-1.152 3.164-2.338.129-.339.169-.702.119-1.059-.114-1.857-.4-3.702-.857-5.514-.18-.933-.586-1.816-1.189-2.581-.833-.932-2.129-1.379-3.366-1.765-1.873-.606-5.59-1.461-7.493-.397z" fill="#323444"/><path d="M432.041 243.874c-1.784 1.224-3.348 2.757-5.352 3.595-1.416.596-3.027.855-4.264 1.743.672 1.373 2.42 2.084 4.044 2.029 1.625-.148 3.182-.677 4.525-1.538 1.065-.607 2.314-1.313 3.473-.888.179.838-.594 1.627-.594 2.476s.761 1.467 1.51 1.913c3.568 2.134 8.16 1.958 12.412 1.71.244.008.484-.058.684-.188.092-.099.162-.215.206-.34.044-.125.06-.257.049-.388.054-.871.078-1.737.084-2.608.12-.702.021-1.422-.284-2.075-.306-.652-.805-1.21-1.441-1.609-2.308-1.839-4.796-3.473-7.434-4.88-2.617-1.406-5.269-.574-7.618 1.048z" fill="#FBB3B2"/><path d="M416.882 140.681c-2.641.292-4.561 2.206-4.294 4.285.268 2.079 2.623 3.512 5.263 3.214 2.641-.297 4.562-2.205 4.294-4.279-.268-2.073-2.623-3.513-5.263-3.22zm.898 6.926c-2.236.248-4.228-.971-4.46-2.724-.232-1.754 1.403-3.375 3.633-3.623 2.23-.248 4.229.97 4.461 2.724.231 1.754-1.404 3.375-3.634 3.623zM404.013 142.114c-2.641.293-4.562 2.206-4.294 4.28.267 2.073 2.622 3.512 5.263 3.22 2.64-.292 4.561-2.206 4.294-4.285-.268-2.079-2.623-3.507-5.263-3.215zm.898 6.921c-2.237.248-4.229-.97-4.455-2.718-.226-1.749 1.398-3.375 3.634-3.629 2.236-.254 4.228.971 4.454 2.724.226 1.754-1.403 3.375-3.633 3.623z" fill="#3C354C"/><path d="M394.456 143.179l5.739 1.136-.565 1.4-5.412-1.472.238-1.064zM426.445 139.616l-5.293 2.366.91 1.235 4.882-2.619-.499-.982zM408.746 143.962l4.027-.447-.209.927-3.455.215-.363-.695z" fill="#3C354C"/><path d="M400.938 142.71c.379-.755.581-1.577.595-2.41.014-.498.106-.993.273-1.467.293-.602.737-1.13 1.297-1.538 1.855-1.456 4.513-2.206 7.136-2.311 2.86-.122 5.704.448 8.255 1.655.779.338 1.476.818 2.051 1.411.833.943 1.011 2.162 1.85 3.094.572.565 1.292.984 2.09 1.216.798.232 1.647.269 2.465.107.292-.959-.089-1.974.06-2.955.234-.841.551-1.661.945-2.449.922-2.52-.422-5.443-3.193-6.948-.97-.552-2.117-.91-2.843-1.654-.725-.745-.898-1.517-1.397-2.261-1.327-1.969-4.758-2.89-7.369-1.98-.821.287-1.546.722-2.379 1.031-1.546.59-3.306.695-5.007.893-1.677.144-3.316.543-4.853 1.181-1.469.672-2.7 1.753-3.039 3.044-.16.595-.125 1.213-.285 1.803-.821 2.994-6.12 4.45-6.417 7.505-.107 1.103.541 2.162 1.35 3.061.559.612 1.897 2.25 2.843 2.487.945.237 1.665-.596 2.569-.883 1.427-.413 2.289-.501 3.003-1.632z" fill="#CBCEDA"/><path d="M468.027 336.937c0 27.705 18.745 50.127 41.908 50.127l-41.908-50.127z" fill="#46455B"/><path d="M509.935 387.069c0-28.019 20.922-50.689 46.774-50.689l-46.774 50.689zM483.215 339.451c0 26.321 11.954 47.618 26.72 47.618l-26.72-47.618z" fill="#9A9EF5"/><path d="M509.935 387.069c0-35.8 24.181-64.773 54.059-64.773l-54.059 64.773z" fill="#46455B"/><path opacity=".1" d="M508.121 396.642c5.755 0 10.42-.731 10.42-1.632 0-.901-4.665-1.632-10.42-1.632-5.754 0-10.419.731-10.419 1.632 0 .901 4.665 1.632 10.419 1.632z" fill="#9A9EF5"/><path d="M501.122 387.422s5.947-.171 7.731-1.351c1.784-1.18 9.141-2.597 9.587-.7.446 1.897 8.92 9.435 2.218 9.485-6.702.049-15.593-.971-17.377-1.98-1.785-1.009-2.159-5.454-2.159-5.454z" fill="#A8A8A8"/><path opacity=".2" d="M520.783 394.194c-6.708.049-15.587-.971-17.378-1.98-1.361-.766-1.903-3.529-2.087-4.797h-.196s.374 4.444 2.165 5.453c1.79 1.009 10.669 2.03 17.377 1.98 1.939 0 2.605-.656 2.569-1.599-.268.573-.975.932-2.45.943z" fill="#000"/><path d="M13.3749 353.127c0 22.058 14.9093 39.881 33.3391 39.881l-33.3391-39.881z" fill="#46455B"/><path d="M46.714 393.008c0-22.289 16.6518-40.327 37.2107-40.327L46.714 393.008zM25.4533 355.135c0 20.955 9.5153 37.884 21.2607 37.884l-21.2607-37.884z" fill="#9A9EF5"/><path d="M46.714 393.008c0-28.482 19.2387-51.533 43.0091-51.533L46.714 393.008z" fill="#46455B"/><path opacity=".1" d="M45.2689 400.629c4.5786 0 8.2902-.582 8.2902-1.301s-3.7116-1.302-8.2902-1.302c-4.5785 0-8.2901.583-8.2901 1.302 0 .719 3.7116 1.301 8.2901 1.301z" fill="#9A9EF5"/><path d="M39.7025 393.289s4.7279-.137 6.1492-1.102c1.4214-.966 7.2792-2.068 7.6301-.552.3509 1.517 7.1067 7.505 1.7841 7.544-5.3226.039-12.4055-.772-13.8269-1.572-1.4213-.799-1.7365-4.318-1.7365-4.318z" fill="#A8A8A8"/><path opacity=".2" d="M55.3432 398.699c-5.3523.039-12.4055-.772-13.8269-1.577-1.0823-.607-1.5105-2.807-1.6592-3.816h-.1546s.2973 3.535 1.7187 4.34c1.4213.805 8.4924 1.61 13.8269 1.572 1.5403 0 2.0755-.519 2.0458-1.274-.2141.441-.8029.722-1.9507.755z" fill="#000"/></g><defs><clipPath id="clip0"><path fill="#fff" d="M0 0h564v418H0z"/></clipPath></defs></svg>